<svg width="472" height="239" viewBox="0 0 472 239" fill="none" xmlns="http://www.w3.org/2000/svg">
<path d="M32.5404 47C32.1004 45.56 31.6004 44.08 31.0404 42.56C30.5204 41.04 30.0004 39.52 29.4804 38H13.2804C12.7604 39.52 12.2204 41.04 11.6604 42.56C11.1404 44.08 10.6604 45.56 10.2204 47H0.500391C2.06039 42.52 3.54039 38.38 4.94039 34.58C6.34039 30.78 7.70039 27.2 9.02039 23.84C10.3804 20.48 11.7004 17.3 12.9804 14.3C14.3004 11.26 15.6604 8.3 17.0604 5.42H26.0004C27.3604 8.3 28.7004 11.26 30.0204 14.3C31.3404 17.3 32.6604 20.48 33.9804 23.84C35.3404 27.2 36.7204 30.78 38.1204 34.58C39.5204 38.38 41.0004 42.52 42.5604 47H32.5404ZM21.3204 14.84C21.1204 15.44 20.8204 16.26 20.4204 17.3C20.0204 18.34 19.5604 19.54 19.0404 20.9C18.5204 22.26 17.9404 23.76 17.3004 25.4C16.7004 27.04 16.0804 28.76 15.4404 30.56H27.2604C26.6204 28.76 26.0004 27.04 25.4004 25.4C24.8004 23.76 24.2204 22.26 23.6604 20.9C23.1404 19.54 22.6804 18.34 22.2804 17.3C21.8804 16.26 21.5604 15.44 21.3204 14.84ZM47.0426 7.58L55.9826 6.14V15.44H66.7226V22.88H55.9826V33.98C55.9826 35.86 56.3026 37.36 56.9426 38.48C57.6226 39.6 58.9626 40.16 60.9626 40.16C61.9226 40.16 62.9026 40.08 63.9026 39.92C64.9426 39.72 65.8826 39.46 66.7226 39.14L67.9826 46.1C66.9026 46.54 65.7026 46.92 64.3826 47.24C63.0626 47.56 61.4426 47.72 59.5226 47.72C57.0826 47.72 55.0626 47.4 53.4626 46.76C51.8626 46.08 50.5826 45.16 49.6226 44C48.6626 42.8 47.9826 41.36 47.5826 39.68C47.2226 38 47.0426 36.14 47.0426 34.1V7.58ZM100.943 45.92C99.4227 46.36 97.4627 46.76 95.0627 47.12C92.6627 47.52 90.1427 47.72 87.5027 47.72C84.8227 47.72 82.5827 47.36 80.7827 46.64C79.0227 45.92 77.6227 44.92 76.5827 43.64C75.5427 42.32 74.8027 40.76 74.3627 38.96C73.9227 37.16 73.7027 35.18 73.7027 33.02V15.44H82.6427V31.94C82.6427 34.82 83.0227 36.9 83.7827 38.18C84.5427 39.46 85.9627 40.1 88.0427 40.1C88.6827 40.1 89.3627 40.08 90.0827 40.04C90.8027 39.96 91.4427 39.88 92.0027 39.8V15.44H100.943V45.92ZM121.395 40.76C122.275 40.76 123.115 40.74 123.915 40.7C124.715 40.66 125.355 40.6 125.835 40.52V33.74C125.475 33.66 124.935 33.58 124.215 33.5C123.495 33.42 122.835 33.38 122.235 33.38C121.395 33.38 120.595 33.44 119.835 33.56C119.115 33.64 118.475 33.82 117.915 34.1C117.355 34.38 116.915 34.76 116.595 35.24C116.275 35.72 116.115 36.32 116.115 37.04C116.115 38.44 116.575 39.42 117.495 39.98C118.455 40.5 119.755 40.76 121.395 40.76ZM120.675 14.6C123.315 14.6 125.515 14.9 127.275 15.5C129.035 16.1 130.435 16.96 131.475 18.08C132.555 19.2 133.315 20.56 133.755 22.16C134.195 23.76 134.415 25.54 134.415 27.5V46.1C133.135 46.38 131.355 46.7 129.075 47.06C126.795 47.46 124.035 47.66 120.795 47.66C118.755 47.66 116.895 47.48 115.215 47.12C113.575 46.76 112.155 46.18 110.955 45.38C109.755 44.54 108.835 43.46 108.195 42.14C107.555 40.82 107.235 39.2 107.235 37.28C107.235 35.44 107.595 33.88 108.315 32.6C109.075 31.32 110.075 30.3 111.315 29.54C112.555 28.78 113.975 28.24 115.575 27.92C117.175 27.56 118.835 27.38 120.555 27.38C121.715 27.38 122.735 27.44 123.615 27.56C124.535 27.64 125.275 27.76 125.835 27.92V27.08C125.835 25.56 125.375 24.34 124.455 23.42C123.535 22.5 121.935 22.04 119.655 22.04C118.135 22.04 116.635 22.16 115.155 22.4C113.675 22.6 112.395 22.9 111.315 23.3L110.175 16.1C110.695 15.94 111.335 15.78 112.095 15.62C112.895 15.42 113.755 15.26 114.675 15.14C115.595 14.98 116.555 14.86 117.555 14.78C118.595 14.66 119.635 14.6 120.675 14.6ZM155.099 47.6C152.499 47.56 150.379 47.28 148.739 46.76C147.139 46.24 145.859 45.52 144.899 44.6C143.979 43.64 143.339 42.5 142.979 41.18C142.659 39.82 142.499 38.3 142.499 36.62V1.88L151.439 0.439999V34.82C151.439 35.62 151.499 36.34 151.619 36.98C151.739 37.62 151.959 38.16 152.279 38.6C152.639 39.04 153.139 39.4 153.779 39.68C154.419 39.96 155.279 40.14 156.359 40.22L155.099 47.6ZM170.423 47H161.483V15.44H170.423V47ZM171.263 6.32C171.263 7.96 170.723 9.26 169.643 10.22C168.603 11.14 167.363 11.6 165.923 11.6C164.483 11.6 163.223 11.14 162.143 10.22C161.103 9.26 160.583 7.96 160.583 6.32C160.583 4.68 161.103 3.4 162.143 2.48C163.223 1.52 164.483 1.04 165.923 1.04C167.363 1.04 168.603 1.52 169.643 2.48C170.723 3.4 171.263 4.68 171.263 6.32ZM202.527 21.44C201.807 22.24 200.827 23.32 199.587 24.68C198.387 26.04 197.087 27.54 195.687 29.18C194.287 30.82 192.867 32.54 191.427 34.34C190.027 36.14 188.747 37.88 187.587 39.56H202.827V47H176.727V41.72C177.567 40.28 178.567 38.74 179.727 37.1C180.927 35.42 182.167 33.74 183.447 32.06C184.767 30.38 186.067 28.76 187.347 27.2C188.627 25.6 189.807 24.16 190.887 22.88H177.447V15.44H202.527V21.44ZM206.448 31.46C206.448 28.66 206.868 26.22 207.708 24.14C208.588 22.02 209.728 20.26 211.128 18.86C212.528 17.46 214.128 16.4 215.928 15.68C217.768 14.96 219.648 14.6 221.568 14.6C226.048 14.6 229.588 15.98 232.188 18.74C234.788 21.46 236.088 25.48 236.088 30.8C236.088 31.32 236.068 31.9 236.028 32.54C235.988 33.14 235.948 33.68 235.908 34.16H215.628C215.828 36 216.688 37.46 218.208 38.54C219.728 39.62 221.768 40.16 224.328 40.16C225.968 40.16 227.568 40.02 229.128 39.74C230.728 39.42 232.028 39.04 233.028 38.6L234.228 45.86C233.748 46.1 233.108 46.34 232.308 46.58C231.508 46.82 230.608 47.02 229.608 47.18C228.648 47.38 227.608 47.54 226.488 47.66C225.368 47.78 224.248 47.84 223.128 47.84C220.288 47.84 217.808 47.42 215.688 46.58C213.608 45.74 211.868 44.6 210.468 43.16C209.108 41.68 208.088 39.94 207.408 37.94C206.768 35.94 206.448 33.78 206.448 31.46ZM227.448 28.04C227.408 27.28 227.268 26.54 227.028 25.82C226.828 25.1 226.488 24.46 226.008 23.9C225.568 23.34 224.988 22.88 224.268 22.52C223.588 22.16 222.728 21.98 221.688 21.98C220.688 21.98 219.828 22.16 219.108 22.52C218.388 22.84 217.788 23.28 217.308 23.84C216.828 24.4 216.448 25.06 216.168 25.82C215.928 26.54 215.748 27.28 215.628 28.04H227.448ZM266.461 40.58C268.101 40.58 269.261 40.42 269.941 40.1C270.621 39.78 270.961 39.16 270.961 38.24C270.961 37.52 270.521 36.9 269.641 36.38C268.761 35.82 267.421 35.2 265.621 34.52C264.221 34 262.941 33.46 261.781 32.9C260.661 32.34 259.701 31.68 258.901 30.92C258.101 30.12 257.481 29.18 257.041 28.1C256.601 27.02 256.381 25.72 256.381 24.2C256.381 21.24 257.481 18.9 259.681 17.18C261.881 15.46 264.901 14.6 268.741 14.6C270.661 14.6 272.501 14.78 274.261 15.14C276.021 15.46 277.421 15.82 278.461 16.22L276.901 23.18C275.861 22.82 274.721 22.5 273.481 22.22C272.281 21.94 270.921 21.8 269.401 21.8C266.601 21.8 265.201 22.58 265.201 24.14C265.201 24.5 265.261 24.82 265.381 25.1C265.501 25.38 265.741 25.66 266.101 25.94C266.461 26.18 266.941 26.46 267.541 26.78C268.181 27.06 268.981 27.38 269.941 27.74C271.901 28.46 273.521 29.18 274.801 29.9C276.081 30.58 277.081 31.34 277.801 32.18C278.561 32.98 279.081 33.88 279.361 34.88C279.681 35.88 279.841 37.04 279.841 38.36C279.841 41.48 278.661 43.84 276.301 45.44C273.981 47.04 270.681 47.84 266.401 47.84C263.601 47.84 261.261 47.6 259.381 47.12C257.541 46.64 256.261 46.24 255.541 45.92L257.041 38.66C258.561 39.26 260.121 39.74 261.721 40.1C263.321 40.42 264.901 40.58 266.461 40.58ZM285.022 31.46C285.022 28.66 285.442 26.22 286.282 24.14C287.162 22.02 288.302 20.26 289.702 18.86C291.102 17.46 292.702 16.4 294.502 15.68C296.342 14.96 298.222 14.6 300.142 14.6C304.622 14.6 308.162 15.98 310.762 18.74C313.362 21.46 314.662 25.48 314.662 30.8C314.662 31.32 314.642 31.9 314.602 32.54C314.562 33.14 314.522 33.68 314.482 34.16H294.202C294.402 36 295.262 37.46 296.782 38.54C298.302 39.62 300.342 40.16 302.902 40.16C304.542 40.16 306.142 40.02 307.702 39.74C309.302 39.42 310.602 39.04 311.602 38.6L312.802 45.86C312.322 46.1 311.682 46.34 310.882 46.58C310.082 46.82 309.182 47.02 308.182 47.18C307.222 47.38 306.182 47.54 305.062 47.66C303.942 47.78 302.822 47.84 301.702 47.84C298.862 47.84 296.382 47.42 294.262 46.58C292.182 45.74 290.442 44.6 289.042 43.16C287.682 41.68 286.662 39.94 285.982 37.94C285.342 35.94 285.022 33.78 285.022 31.46ZM306.022 28.04C305.982 27.28 305.842 26.54 305.602 25.82C305.402 25.1 305.062 24.46 304.582 23.9C304.142 23.34 303.562 22.88 302.842 22.52C302.162 22.16 301.302 21.98 300.262 21.98C299.262 21.98 298.402 22.16 297.682 22.52C296.962 22.84 296.362 23.28 295.882 23.84C295.402 24.4 295.022 25.06 294.742 25.82C294.502 26.54 294.322 27.28 294.202 28.04H306.022ZM348.501 45.92C346.981 46.36 345.021 46.76 342.621 47.12C340.221 47.52 337.701 47.72 335.061 47.72C332.381 47.72 330.141 47.36 328.341 46.64C326.581 45.92 325.181 44.92 324.141 43.64C323.101 42.32 322.361 40.76 321.921 38.96C321.481 37.16 321.261 35.18 321.261 33.02V15.44H330.201V31.94C330.201 34.82 330.581 36.9 331.341 38.18C332.101 39.46 333.521 40.1 335.601 40.1C336.241 40.1 336.921 40.08 337.641 40.04C338.361 39.96 339.001 39.88 339.561 39.8V15.44H348.501V45.92ZM380.367 40.58C382.007 40.58 383.167 40.42 383.847 40.1C384.527 39.78 384.867 39.16 384.867 38.24C384.867 37.52 384.427 36.9 383.547 36.38C382.667 35.82 381.327 35.2 379.527 34.52C378.127 34 376.847 33.46 375.687 32.9C374.567 32.34 373.607 31.68 372.807 30.92C372.007 30.12 371.387 29.18 370.947 28.1C370.507 27.02 370.287 25.72 370.287 24.2C370.287 21.24 371.387 18.9 373.587 17.18C375.787 15.46 378.807 14.6 382.647 14.6C384.567 14.6 386.407 14.78 388.167 15.14C389.927 15.46 391.327 15.82 392.367 16.22L390.807 23.18C389.767 22.82 388.627 22.5 387.387 22.22C386.187 21.94 384.827 21.8 383.307 21.8C380.507 21.8 379.107 22.58 379.107 24.14C379.107 24.5 379.167 24.82 379.287 25.1C379.407 25.38 379.647 25.66 380.007 25.94C380.367 26.18 380.847 26.46 381.447 26.78C382.087 27.06 382.887 27.38 383.847 27.74C385.807 28.46 387.427 29.18 388.707 29.9C389.987 30.58 390.987 31.34 391.707 32.18C392.467 32.98 392.987 33.88 393.267 34.88C393.587 35.88 393.747 37.04 393.747 38.36C393.747 41.48 392.567 43.84 390.207 45.44C387.887 47.04 384.587 47.84 380.307 47.84C377.507 47.84 375.167 47.6 373.287 47.12C371.447 46.64 370.167 46.24 369.447 45.92L370.947 38.66C372.467 39.26 374.027 39.74 375.627 40.1C377.227 40.42 378.807 40.58 380.367 40.58ZM409.369 47H400.429V15.44H409.369V47ZM410.209 6.32C410.209 7.96 409.669 9.26 408.589 10.22C407.549 11.14 406.309 11.6 404.869 11.6C403.429 11.6 402.169 11.14 401.089 10.22C400.049 9.26 399.529 7.96 399.529 6.32C399.529 4.68 400.049 3.4 401.089 2.48C402.169 1.52 403.429 1.04 404.869 1.04C406.309 1.04 407.549 1.52 408.589 2.48C409.669 3.4 410.209 4.68 410.209 6.32ZM417.472 7.58L426.412 6.14V15.44H437.152V22.88H426.412V33.98C426.412 35.86 426.732 37.36 427.372 38.48C428.052 39.6 429.392 40.16 431.392 40.16C432.352 40.16 433.332 40.08 434.332 39.92C435.372 39.72 436.312 39.46 437.152 39.14L438.412 46.1C437.332 46.54 436.132 46.92 434.812 47.24C433.492 47.56 431.872 47.72 429.952 47.72C427.512 47.72 425.492 47.4 423.892 46.76C422.292 46.08 421.012 45.16 420.052 44C419.092 42.8 418.412 41.36 418.012 39.68C417.652 38 417.472 36.14 417.472 34.1V7.58ZM441.761 31.46C441.761 28.66 442.181 26.22 443.021 24.14C443.901 22.02 445.041 20.26 446.441 18.86C447.841 17.46 449.441 16.4 451.241 15.68C453.081 14.96 454.961 14.6 456.881 14.6C461.361 14.6 464.901 15.98 467.501 18.74C470.101 21.46 471.401 25.48 471.401 30.8C471.401 31.32 471.381 31.9 471.341 32.54C471.301 33.14 471.261 33.68 471.221 34.16H450.941C451.141 36 452.001 37.46 453.521 38.54C455.041 39.62 457.081 40.16 459.641 40.16C461.281 40.16 462.881 40.02 464.441 39.74C466.041 39.42 467.341 39.04 468.341 38.6L469.541 45.86C469.061 46.1 468.421 46.34 467.621 46.58C466.821 46.82 465.921 47.02 464.921 47.18C463.961 47.38 462.921 47.54 461.801 47.66C460.681 47.78 459.561 47.84 458.441 47.84C455.601 47.84 453.121 47.42 451.001 46.58C448.921 45.74 447.181 44.6 445.781 43.16C444.421 41.68 443.401 39.94 442.721 37.94C442.081 35.94 441.761 33.78 441.761 31.46ZM462.761 28.04C462.721 27.28 462.581 26.54 462.341 25.82C462.141 25.1 461.801 24.46 461.321 23.9C460.881 23.34 460.301 22.88 459.581 22.52C458.901 22.16 458.041 21.98 457.001 21.98C456.001 21.98 455.141 22.16 454.421 22.52C453.701 22.84 453.101 23.28 452.621 23.84C452.141 24.4 451.761 25.06 451.481 25.82C451.241 26.54 451.061 27.28 450.941 28.04H462.761ZM58.2059 91.46C58.2059 88.66 58.6259 86.22 59.4659 84.14C60.3459 82.02 61.4859 80.26 62.8859 78.86C64.2859 77.46 65.8859 76.4 67.6859 75.68C69.5259 74.96 71.4059 74.6 73.3259 74.6C77.8059 74.6 81.3459 75.98 83.9459 78.74C86.5459 81.46 87.8459 85.48 87.8459 90.8C87.8459 91.32 87.8259 91.9 87.7859 92.54C87.7459 93.14 87.7059 93.68 87.6659 94.16H67.3859C67.5859 96 68.4459 97.46 69.9659 98.54C71.4859 99.62 73.5259 100.16 76.0859 100.16C77.7259 100.16 79.3259 100.02 80.8859 99.74C82.4859 99.42 83.7859 99.04 84.7859 98.6L85.9859 105.86C85.5059 106.1 84.8659 106.34 84.0659 106.58C83.2659 106.82 82.3659 107.02 81.3659 107.18C80.4059 107.38 79.3659 107.54 78.2459 107.66C77.1259 107.78 76.0059 107.84 74.8859 107.84C72.0459 107.84 69.5659 107.42 67.4459 106.58C65.3659 105.74 63.6259 104.6 62.2259 103.16C60.8659 101.68 59.8459 99.94 59.1659 97.94C58.5259 95.94 58.2059 93.78 58.2059 91.46ZM79.2059 88.04C79.1659 87.28 79.0259 86.54 78.7859 85.82C78.5859 85.1 78.2459 84.46 77.7659 83.9C77.3259 83.34 76.7459 82.88 76.0259 82.52C75.3459 82.16 74.4859 81.98 73.4459 81.98C72.4459 81.98 71.5859 82.16 70.8659 82.52C70.1459 82.84 69.5459 83.28 69.0659 83.84C68.5859 84.4 68.2059 85.06 67.9259 85.82C67.6859 86.54 67.5059 87.28 67.3859 88.04H79.2059ZM108.859 67.58L117.799 66.14V75.44H128.539V82.88H117.799V93.98C117.799 95.86 118.119 97.36 118.759 98.48C119.439 99.6 120.779 100.16 122.779 100.16C123.739 100.16 124.719 100.08 125.719 99.92C126.759 99.72 127.699 99.46 128.539 99.14L129.799 106.1C128.719 106.54 127.519 106.92 126.199 107.24C124.879 107.56 123.259 107.72 121.339 107.72C118.899 107.72 116.879 107.4 115.279 106.76C113.679 106.08 112.399 105.16 111.439 104C110.479 102.8 109.799 101.36 109.399 99.68C109.039 98 108.859 96.14 108.859 94.1V67.58ZM154.839 83.36C154.039 83.16 153.099 82.96 152.019 82.76C150.939 82.52 149.779 82.4 148.539 82.4C147.979 82.4 147.299 82.46 146.499 82.58C145.739 82.66 145.159 82.76 144.759 82.88V107H135.819V77.12C137.419 76.56 139.299 76.04 141.459 75.56C143.659 75.04 146.099 74.78 148.779 74.78C149.259 74.78 149.839 74.82 150.519 74.9C151.199 74.94 151.879 75.02 152.559 75.14C153.239 75.22 153.919 75.34 154.599 75.5C155.279 75.62 155.859 75.78 156.339 75.98L154.839 83.36ZM172.606 100.76C173.486 100.76 174.326 100.74 175.126 100.7C175.926 100.66 176.566 100.6 177.046 100.52V93.74C176.686 93.66 176.146 93.58 175.426 93.5C174.706 93.42 174.046 93.38 173.446 93.38C172.606 93.38 171.806 93.44 171.046 93.56C170.326 93.64 169.686 93.82 169.126 94.1C168.566 94.38 168.126 94.76 167.806 95.24C167.486 95.72 167.326 96.32 167.326 97.04C167.326 98.44 167.786 99.42 168.706 99.98C169.666 100.5 170.966 100.76 172.606 100.76ZM171.886 74.6C174.526 74.6 176.726 74.9 178.486 75.5C180.246 76.1 181.646 76.96 182.686 78.08C183.766 79.2 184.526 80.56 184.966 82.16C185.406 83.76 185.626 85.54 185.626 87.5V106.1C184.346 106.38 182.566 106.7 180.286 107.06C178.006 107.46 175.246 107.66 172.006 107.66C169.966 107.66 168.106 107.48 166.426 107.12C164.786 106.76 163.366 106.18 162.166 105.38C160.966 104.54 160.046 103.46 159.406 102.14C158.766 100.82 158.446 99.2 158.446 97.28C158.446 95.44 158.806 93.88 159.526 92.6C160.286 91.32 161.286 90.3 162.526 89.54C163.766 88.78 165.186 88.24 166.786 87.92C168.386 87.56 170.046 87.38 171.766 87.38C172.926 87.38 173.946 87.44 174.826 87.56C175.746 87.64 176.486 87.76 177.046 87.92V87.08C177.046 85.56 176.586 84.34 175.666 83.42C174.746 82.5 173.146 82.04 170.866 82.04C169.346 82.04 167.846 82.16 166.366 82.4C164.886 82.6 163.606 82.9 162.526 83.3L161.386 76.1C161.906 75.94 162.546 75.78 163.306 75.62C164.106 75.42 164.966 75.26 165.886 75.14C166.806 74.98 167.766 74.86 168.766 74.78C169.806 74.66 170.846 74.6 171.886 74.6ZM201.33 90.2C201.33 95.2 203.35 97.7 207.39 97.7C208.31 97.7 209.17 97.58 209.97 97.34C210.77 97.1 211.45 96.82 212.01 96.5V82.22C211.57 82.14 211.05 82.08 210.45 82.04C209.85 81.96 209.15 81.92 208.35 81.92C205.99 81.92 204.23 82.7 203.07 84.26C201.91 85.82 201.33 87.8 201.33 90.2ZM220.95 103.04C220.95 108.2 219.63 112.02 216.99 114.5C214.39 117.02 210.35 118.28 204.87 118.28C202.95 118.28 201.03 118.1 199.11 117.74C197.19 117.42 195.41 116.98 193.77 116.42L195.33 108.92C196.73 109.48 198.19 109.92 199.71 110.24C201.27 110.56 203.03 110.72 204.99 110.72C207.55 110.72 209.35 110.16 210.39 109.04C211.47 107.92 212.01 106.48 212.01 104.72V103.58C211.05 104.02 210.05 104.36 209.01 104.6C208.01 104.8 206.91 104.9 205.71 104.9C201.35 104.9 198.01 103.62 195.69 101.06C193.37 98.46 192.21 94.84 192.21 90.2C192.21 87.88 192.57 85.78 193.29 83.9C194.01 81.98 195.05 80.34 196.41 78.98C197.81 77.62 199.51 76.58 201.51 75.86C203.51 75.1 205.77 74.72 208.29 74.72C209.37 74.72 210.47 74.78 211.59 74.9C212.75 74.98 213.89 75.1 215.01 75.26C216.13 75.42 217.19 75.62 218.19 75.86C219.23 76.06 220.15 76.28 220.95 76.52V103.04ZM241.395 100.76C242.275 100.76 243.115 100.74 243.915 100.7C244.715 100.66 245.355 100.6 245.835 100.52V93.74C245.475 93.66 244.935 93.58 244.215 93.5C243.495 93.42 242.835 93.38 242.235 93.38C241.395 93.38 240.595 93.44 239.835 93.56C239.115 93.64 238.475 93.82 237.915 94.1C237.355 94.38 236.915 94.76 236.595 95.24C236.275 95.72 236.115 96.32 236.115 97.04C236.115 98.44 236.575 99.42 237.495 99.98C238.455 100.5 239.755 100.76 241.395 100.76ZM240.675 74.6C243.315 74.6 245.515 74.9 247.275 75.5C249.035 76.1 250.435 76.96 251.475 78.08C252.555 79.2 253.315 80.56 253.755 82.16C254.195 83.76 254.415 85.54 254.415 87.5V106.1C253.135 106.38 251.355 106.7 249.075 107.06C246.795 107.46 244.035 107.66 240.795 107.66C238.755 107.66 236.895 107.48 235.215 107.12C233.575 106.76 232.155 106.18 230.955 105.38C229.755 104.54 228.835 103.46 228.195 102.14C227.555 100.82 227.235 99.2 227.235 97.28C227.235 95.44 227.595 93.88 228.315 92.6C229.075 91.32 230.075 90.3 231.315 89.54C232.555 88.78 233.975 88.24 235.575 87.92C237.175 87.56 238.835 87.38 240.555 87.38C241.715 87.38 242.735 87.44 243.615 87.56C244.535 87.64 245.275 87.76 245.835 87.92V87.08C245.835 85.56 245.375 84.34 244.455 83.42C243.535 82.5 241.935 82.04 239.655 82.04C238.135 82.04 236.635 82.16 235.155 82.4C233.675 82.6 232.395 82.9 231.315 83.3L230.175 76.1C230.695 75.94 231.335 75.78 232.095 75.62C232.895 75.42 233.755 75.26 234.675 75.14C235.595 74.98 236.555 74.86 237.555 74.78C238.595 74.66 239.635 74.6 240.675 74.6ZM294.253 90.26C294.253 87.38 293.873 85.34 293.113 84.14C292.393 82.94 291.133 82.34 289.333 82.34C288.773 82.34 288.193 82.38 287.593 82.46C286.993 82.5 286.413 82.56 285.853 82.64V107H276.913V76.52C277.673 76.32 278.553 76.12 279.553 75.92C280.593 75.68 281.673 75.48 282.793 75.32C283.953 75.12 285.133 74.98 286.333 74.9C287.533 74.78 288.713 74.72 289.873 74.72C292.153 74.72 293.993 75.02 295.393 75.62C296.833 76.18 298.013 76.86 298.933 77.66C300.213 76.74 301.673 76.02 303.313 75.5C304.993 74.98 306.533 74.72 307.933 74.72C310.453 74.72 312.513 75.08 314.113 75.8C315.753 76.48 317.053 77.46 318.013 78.74C318.973 80.02 319.633 81.54 319.993 83.3C320.353 85.06 320.533 87.02 320.533 89.18V107H311.593V90.26C311.593 87.38 311.213 85.34 310.453 84.14C309.733 82.94 308.473 82.34 306.673 82.34C306.193 82.34 305.513 82.46 304.633 82.7C303.793 82.94 303.093 83.24 302.533 83.6C302.813 84.52 302.993 85.5 303.073 86.54C303.153 87.54 303.193 88.62 303.193 89.78V107H294.253V90.26ZM340.711 100.76C341.591 100.76 342.431 100.74 343.231 100.7C344.031 100.66 344.671 100.6 345.151 100.52V93.74C344.791 93.66 344.251 93.58 343.531 93.5C342.811 93.42 342.151 93.38 341.551 93.38C340.711 93.38 339.911 93.44 339.151 93.56C338.431 93.64 337.791 93.82 337.231 94.1C336.671 94.38 336.231 94.76 335.911 95.24C335.591 95.72 335.431 96.32 335.431 97.04C335.431 98.44 335.891 99.42 336.811 99.98C337.771 100.5 339.071 100.76 340.711 100.76ZM339.991 74.6C342.631 74.6 344.831 74.9 346.591 75.5C348.351 76.1 349.751 76.96 350.791 78.08C351.871 79.2 352.631 80.56 353.071 82.16C353.511 83.76 353.731 85.54 353.731 87.5V106.1C352.451 106.38 350.671 106.7 348.391 107.06C346.111 107.46 343.351 107.66 340.111 107.66C338.071 107.66 336.211 107.48 334.531 107.12C332.891 106.76 331.471 106.18 330.271 105.38C329.071 104.54 328.151 103.46 327.511 102.14C326.871 100.82 326.551 99.2 326.551 97.28C326.551 95.44 326.911 93.88 327.631 92.6C328.391 91.32 329.391 90.3 330.631 89.54C331.871 88.78 333.291 88.24 334.891 87.92C336.491 87.56 338.151 87.38 339.871 87.38C341.031 87.38 342.051 87.44 342.931 87.56C343.851 87.64 344.591 87.76 345.151 87.92V87.08C345.151 85.56 344.691 84.34 343.771 83.42C342.851 82.5 341.251 82.04 338.971 82.04C337.451 82.04 335.951 82.16 334.471 82.4C332.991 82.6 331.711 82.9 330.631 83.3L329.491 76.1C330.011 75.94 330.651 75.78 331.411 75.62C332.211 75.42 333.071 75.26 333.991 75.14C334.911 74.98 335.871 74.86 336.871 74.78C337.911 74.66 338.951 74.6 339.991 74.6ZM370.755 107H361.815V75.44H370.755V107ZM371.595 66.32C371.595 67.96 371.055 69.26 369.975 70.22C368.935 71.14 367.695 71.6 366.255 71.6C364.815 71.6 363.555 71.14 362.475 70.22C361.435 69.26 360.915 67.96 360.915 66.32C360.915 64.68 361.435 63.4 362.475 62.48C363.555 61.52 364.815 61.04 366.255 61.04C367.695 61.04 368.935 61.52 369.975 62.48C371.055 63.4 371.595 64.68 371.595 66.32ZM388.219 100.58C389.859 100.58 391.019 100.42 391.699 100.1C392.379 99.78 392.719 99.16 392.719 98.24C392.719 97.52 392.279 96.9 391.399 96.38C390.519 95.82 389.179 95.2 387.379 94.52C385.979 94 384.699 93.46 383.539 92.9C382.419 92.34 381.459 91.68 380.659 90.92C379.859 90.12 379.239 89.18 378.799 88.1C378.359 87.02 378.139 85.72 378.139 84.2C378.139 81.24 379.239 78.9 381.439 77.18C383.639 75.46 386.659 74.6 390.499 74.6C392.419 74.6 394.259 74.78 396.019 75.14C397.779 75.46 399.179 75.82 400.219 76.22L398.659 83.18C397.619 82.82 396.479 82.5 395.239 82.22C394.039 81.94 392.679 81.8 391.159 81.8C388.359 81.8 386.959 82.58 386.959 84.14C386.959 84.5 387.019 84.82 387.139 85.1C387.259 85.38 387.499 85.66 387.859 85.94C388.219 86.18 388.699 86.46 389.299 86.78C389.939 87.06 390.739 87.38 391.699 87.74C393.659 88.46 395.279 89.18 396.559 89.9C397.839 90.58 398.839 91.34 399.559 92.18C400.319 92.98 400.839 93.88 401.119 94.88C401.439 95.88 401.599 97.04 401.599 98.36C401.599 101.48 400.419 103.84 398.059 105.44C395.739 107.04 392.439 107.84 388.159 107.84C385.359 107.84 383.019 107.6 381.139 107.12C379.299 106.64 378.019 106.24 377.299 105.92L378.799 98.66C380.319 99.26 381.879 99.74 383.479 100.1C385.079 100.42 386.659 100.58 388.219 100.58ZM30.2566 151.22C30.2566 148.94 30.6166 146.8 31.3366 144.8C32.0966 142.76 33.1766 141 34.5766 139.52C35.9766 138 37.6766 136.8 39.6766 135.92C41.6766 135.04 43.9566 134.6 46.5166 134.6C48.1966 134.6 49.7366 134.76 51.1366 135.08C52.5366 135.36 53.8966 135.78 55.2166 136.34L53.3566 143.48C52.5166 143.16 51.5966 142.88 50.5966 142.64C49.5966 142.4 48.4766 142.28 47.2366 142.28C44.5966 142.28 42.6166 143.1 41.2966 144.74C40.0166 146.38 39.3766 148.54 39.3766 151.22C39.3766 154.06 39.9766 156.26 41.1766 157.82C42.4166 159.38 44.5566 160.16 47.5966 160.16C48.6766 160.16 49.8366 160.06 51.0766 159.86C52.3166 159.66 53.4566 159.34 54.4966 158.9L55.7566 166.22C54.7166 166.66 53.4166 167.04 51.8566 167.36C50.2966 167.68 48.5766 167.84 46.6966 167.84C43.8166 167.84 41.3366 167.42 39.2566 166.58C37.1766 165.7 35.4566 164.52 34.0966 163.04C32.7766 161.56 31.7966 159.82 31.1566 157.82C30.5566 155.78 30.2566 153.58 30.2566 151.22ZM74.3566 167.6C71.7566 167.56 69.6366 167.28 67.9966 166.76C66.3966 166.24 65.1166 165.52 64.1566 164.6C63.2366 163.64 62.5966 162.5 62.2366 161.18C61.9166 159.82 61.7566 158.3 61.7566 156.62V121.88L70.6966 120.44V154.82C70.6966 155.62 70.7566 156.34 70.8766 156.98C70.9966 157.62 71.2166 158.16 71.5366 158.6C71.8966 159.04 72.3966 159.4 73.0366 159.68C73.6766 159.96 74.5366 160.14 75.6166 160.22L74.3566 167.6ZM89.681 167H80.741V135.44H89.681V167ZM90.521 126.32C90.521 127.96 89.981 129.26 88.901 130.22C87.861 131.14 86.621 131.6 85.181 131.6C83.741 131.6 82.481 131.14 81.401 130.22C80.361 129.26 79.841 127.96 79.841 126.32C79.841 124.68 80.361 123.4 81.401 122.48C82.481 121.52 83.741 121.04 85.181 121.04C86.621 121.04 87.861 121.52 88.901 122.48C89.981 123.4 90.521 124.68 90.521 126.32ZM96.5848 151.46C96.5848 148.66 97.0048 146.22 97.8448 144.14C98.7248 142.02 99.8648 140.26 101.265 138.86C102.665 137.46 104.265 136.4 106.065 135.68C107.905 134.96 109.785 134.6 111.705 134.6C116.185 134.6 119.725 135.98 122.325 138.74C124.925 141.46 126.225 145.48 126.225 150.8C126.225 151.32 126.205 151.9 126.165 152.54C126.125 153.14 126.085 153.68 126.045 154.16H105.765C105.965 156 106.825 157.46 108.345 158.54C109.865 159.62 111.905 160.16 114.465 160.16C116.105 160.16 117.705 160.02 119.265 159.74C120.865 159.42 122.165 159.04 123.165 158.6L124.365 165.86C123.885 166.1 123.245 166.34 122.445 166.58C121.645 166.82 120.745 167.02 119.745 167.18C118.785 167.38 117.745 167.54 116.625 167.66C115.505 167.78 114.385 167.84 113.265 167.84C110.425 167.84 107.945 167.42 105.825 166.58C103.745 165.74 102.005 164.6 100.605 163.16C99.2448 161.68 98.2248 159.94 97.5448 157.94C96.9048 155.94 96.5848 153.78 96.5848 151.46ZM117.585 148.04C117.545 147.28 117.405 146.54 117.165 145.82C116.965 145.1 116.625 144.46 116.145 143.9C115.705 143.34 115.125 142.88 114.405 142.52C113.725 142.16 112.865 141.98 111.825 141.98C110.825 141.98 109.965 142.16 109.245 142.52C108.525 142.84 107.925 143.28 107.445 143.84C106.965 144.4 106.585 145.06 106.305 145.82C106.065 146.54 105.885 147.28 105.765 148.04H117.585ZM133.124 136.52C134.644 136.08 136.604 135.68 139.004 135.32C141.404 134.92 143.924 134.72 146.564 134.72C149.244 134.72 151.464 135.08 153.224 135.8C155.024 136.48 156.444 137.46 157.484 138.74C158.524 140.02 159.264 141.54 159.704 143.3C160.144 145.06 160.364 147.02 160.364 149.18V167H151.424V150.26C151.424 147.38 151.044 145.34 150.284 144.14C149.524 142.94 148.104 142.34 146.024 142.34C145.384 142.34 144.704 142.38 143.984 142.46C143.264 142.5 142.624 142.56 142.064 142.64V167H133.124V136.52ZM168.156 127.58L177.096 126.14V135.44H187.836V142.88H177.096V153.98C177.096 155.86 177.416 157.36 178.056 158.48C178.736 159.6 180.076 160.16 182.076 160.16C183.036 160.16 184.016 160.08 185.016 159.92C186.056 159.72 186.996 159.46 187.836 159.14L189.096 166.1C188.016 166.54 186.816 166.92 185.496 167.24C184.176 167.56 182.556 167.72 180.636 167.72C178.196 167.72 176.176 167.4 174.576 166.76C172.976 166.08 171.696 165.16 170.736 164C169.776 162.8 169.096 161.36 168.696 159.68C168.336 158 168.156 156.14 168.156 154.1V127.58ZM192.444 151.46C192.444 148.66 192.864 146.22 193.704 144.14C194.584 142.02 195.724 140.26 197.124 138.86C198.524 137.46 200.124 136.4 201.924 135.68C203.764 134.96 205.644 134.6 207.564 134.6C212.044 134.6 215.584 135.98 218.184 138.74C220.784 141.46 222.084 145.48 222.084 150.8C222.084 151.32 222.064 151.9 222.024 152.54C221.984 153.14 221.944 153.68 221.904 154.16H201.624C201.824 156 202.684 157.46 204.204 158.54C205.724 159.62 207.764 160.16 210.324 160.16C211.964 160.16 213.564 160.02 215.124 159.74C216.724 159.42 218.024 159.04 219.024 158.6L220.224 165.86C219.744 166.1 219.104 166.34 218.304 166.58C217.504 166.82 216.604 167.02 215.604 167.18C214.644 167.38 213.604 167.54 212.484 167.66C211.364 167.78 210.244 167.84 209.124 167.84C206.284 167.84 203.804 167.42 201.684 166.58C199.604 165.74 197.864 164.6 196.464 163.16C195.104 161.68 194.084 159.94 193.404 157.94C192.764 155.94 192.444 153.78 192.444 151.46ZM213.444 148.04C213.404 147.28 213.264 146.54 213.024 145.82C212.824 145.1 212.484 144.46 212.004 143.9C211.564 143.34 210.984 142.88 210.264 142.52C209.584 142.16 208.724 141.98 207.684 141.98C206.684 141.98 205.824 142.16 205.104 142.52C204.384 142.84 203.784 143.28 203.304 143.84C202.824 144.4 202.444 145.06 202.164 145.82C201.924 146.54 201.744 147.28 201.624 148.04H213.444ZM238.043 160.58C239.683 160.58 240.843 160.42 241.523 160.1C242.203 159.78 242.543 159.16 242.543 158.24C242.543 157.52 242.103 156.9 241.223 156.38C240.343 155.82 239.003 155.2 237.203 154.52C235.803 154 234.523 153.46 233.363 152.9C232.243 152.34 231.283 151.68 230.483 150.92C229.683 150.12 229.063 149.18 228.623 148.1C228.183 147.02 227.963 145.72 227.963 144.2C227.963 141.24 229.063 138.9 231.263 137.18C233.463 135.46 236.483 134.6 240.323 134.6C242.243 134.6 244.083 134.78 245.843 135.14C247.603 135.46 249.003 135.82 250.043 136.22L248.483 143.18C247.443 142.82 246.303 142.5 245.063 142.22C243.863 141.94 242.503 141.8 240.983 141.8C238.183 141.8 236.783 142.58 236.783 144.14C236.783 144.5 236.843 144.82 236.963 145.1C237.083 145.38 237.323 145.66 237.683 145.94C238.043 146.18 238.523 146.46 239.123 146.78C239.763 147.06 240.563 147.38 241.523 147.74C243.483 148.46 245.103 149.18 246.383 149.9C247.663 150.58 248.663 151.34 249.383 152.18C250.143 152.98 250.663 153.88 250.943 154.88C251.263 155.88 251.423 157.04 251.423 158.36C251.423 161.48 250.243 163.84 247.883 165.44C245.563 167.04 242.263 167.84 237.983 167.84C235.183 167.84 232.843 167.6 230.963 167.12C229.123 166.64 227.843 166.24 227.123 165.92L228.623 158.66C230.143 159.26 231.703 159.74 233.303 160.1C234.903 160.42 236.483 160.58 238.043 160.58ZM292.738 151.46C292.738 148.7 292.118 146.5 290.878 144.86C289.638 143.18 287.798 142.34 285.358 142.34C284.558 142.34 283.818 142.38 283.138 142.46C282.458 142.5 281.898 142.56 281.458 142.64V158.78C282.018 159.14 282.738 159.44 283.618 159.68C284.538 159.92 285.458 160.04 286.378 160.04C290.618 160.04 292.738 157.18 292.738 151.46ZM301.858 151.22C301.858 153.66 301.558 155.88 300.958 157.88C300.358 159.88 299.478 161.6 298.318 163.04C297.158 164.48 295.718 165.6 293.998 166.4C292.278 167.2 290.298 167.6 288.058 167.6C286.818 167.6 285.658 167.48 284.578 167.24C283.498 167 282.458 166.66 281.458 166.22V178.1H272.518V136.52C273.318 136.28 274.238 136.06 275.278 135.86C276.318 135.62 277.398 135.42 278.518 135.26C279.678 135.1 280.838 134.98 281.998 134.9C283.198 134.78 284.338 134.72 285.418 134.72C288.018 134.72 290.338 135.12 292.378 135.92C294.418 136.68 296.138 137.78 297.538 139.22C298.938 140.62 299.998 142.34 300.718 144.38C301.478 146.42 301.858 148.7 301.858 151.22ZM320.789 160.76C321.669 160.76 322.509 160.74 323.309 160.7C324.109 160.66 324.749 160.6 325.229 160.52V153.74C324.869 153.66 324.329 153.58 323.609 153.5C322.889 153.42 322.229 153.38 321.629 153.38C320.789 153.38 319.989 153.44 319.229 153.56C318.509 153.64 317.869 153.82 317.309 154.1C316.749 154.38 316.309 154.76 315.989 155.24C315.669 155.72 315.509 156.32 315.509 157.04C315.509 158.44 315.969 159.42 316.889 159.98C317.849 160.5 319.149 160.76 320.789 160.76ZM320.069 134.6C322.709 134.6 324.909 134.9 326.669 135.5C328.429 136.1 329.829 136.96 330.869 138.08C331.949 139.2 332.709 140.56 333.149 142.16C333.589 143.76 333.809 145.54 333.809 147.5V166.1C332.529 166.38 330.749 166.7 328.469 167.06C326.189 167.46 323.429 167.66 320.189 167.66C318.149 167.66 316.289 167.48 314.609 167.12C312.969 166.76 311.549 166.18 310.349 165.38C309.149 164.54 308.229 163.46 307.589 162.14C306.949 160.82 306.629 159.2 306.629 157.28C306.629 155.44 306.989 153.88 307.709 152.6C308.469 151.32 309.469 150.3 310.709 149.54C311.949 148.78 313.369 148.24 314.969 147.92C316.569 147.56 318.229 147.38 319.949 147.38C321.109 147.38 322.129 147.44 323.009 147.56C323.929 147.64 324.669 147.76 325.229 147.92V147.08C325.229 145.56 324.769 144.34 323.849 143.42C322.929 142.5 321.329 142.04 319.049 142.04C317.529 142.04 316.029 142.16 314.549 142.4C313.069 142.6 311.789 142.9 310.709 143.3L309.569 136.1C310.089 135.94 310.729 135.78 311.489 135.62C312.289 135.42 313.149 135.26 314.069 135.14C314.989 134.98 315.949 134.86 316.949 134.78C317.989 134.66 319.029 134.6 320.069 134.6ZM360.913 143.36C360.113 143.16 359.173 142.96 358.093 142.76C357.013 142.52 355.853 142.4 354.613 142.4C354.053 142.4 353.373 142.46 352.573 142.58C351.813 142.66 351.233 142.76 350.833 142.88V167H341.893V137.12C343.493 136.56 345.373 136.04 347.533 135.56C349.733 135.04 352.173 134.78 354.853 134.78C355.333 134.78 355.913 134.82 356.593 134.9C357.273 134.94 357.953 135.02 358.633 135.14C359.313 135.22 359.993 135.34 360.673 135.5C361.353 135.62 361.933 135.78 362.413 135.98L360.913 143.36ZM378.68 160.76C379.56 160.76 380.4 160.74 381.2 160.7C382 160.66 382.64 160.6 383.12 160.52V153.74C382.76 153.66 382.22 153.58 381.5 153.5C380.78 153.42 380.12 153.38 379.52 153.38C378.68 153.38 377.88 153.44 377.12 153.56C376.4 153.64 375.76 153.82 375.2 154.1C374.64 154.38 374.2 154.76 373.88 155.24C373.56 155.72 373.4 156.32 373.4 157.04C373.4 158.44 373.86 159.42 374.78 159.98C375.74 160.5 377.04 160.76 378.68 160.76ZM377.96 134.6C380.6 134.6 382.8 134.9 384.56 135.5C386.32 136.1 387.72 136.96 388.76 138.08C389.84 139.2 390.6 140.56 391.04 142.16C391.48 143.76 391.7 145.54 391.7 147.5V166.1C390.42 166.38 388.64 166.7 386.36 167.06C384.08 167.46 381.32 167.66 378.08 167.66C376.04 167.66 374.18 167.48 372.5 167.12C370.86 166.76 369.44 166.18 368.24 165.38C367.04 164.54 366.12 163.46 365.48 162.14C364.84 160.82 364.52 159.2 364.52 157.28C364.52 155.44 364.88 153.88 365.6 152.6C366.36 151.32 367.36 150.3 368.6 149.54C369.84 148.78 371.26 148.24 372.86 147.92C374.46 147.56 376.12 147.38 377.84 147.38C379 147.38 380.02 147.44 380.9 147.56C381.82 147.64 382.56 147.76 383.12 147.92V147.08C383.12 145.56 382.66 144.34 381.74 143.42C380.82 142.5 379.22 142.04 376.94 142.04C375.42 142.04 373.92 142.16 372.44 142.4C370.96 142.6 369.68 142.9 368.6 143.3L367.46 136.1C367.98 135.94 368.62 135.78 369.38 135.62C370.18 135.42 371.04 135.26 371.96 135.14C372.88 134.98 373.84 134.86 374.84 134.78C375.88 134.66 376.92 134.6 377.96 134.6ZM443.718 151.16C443.718 153.64 443.358 155.92 442.638 158C441.918 160.04 440.878 161.8 439.518 163.28C438.158 164.72 436.518 165.84 434.598 166.64C432.718 167.44 430.598 167.84 428.238 167.84C425.918 167.84 423.798 167.44 421.878 166.64C419.998 165.84 418.378 164.72 417.018 163.28C415.658 161.8 414.598 160.04 413.838 158C413.078 155.92 412.698 153.64 412.698 151.16C412.698 148.68 413.078 146.42 413.838 144.38C414.638 142.34 415.718 140.6 417.078 139.16C418.478 137.72 420.118 136.6 421.998 135.8C423.918 135 425.998 134.6 428.238 134.6C430.518 134.6 432.598 135 434.478 135.8C436.398 136.6 438.038 137.72 439.398 139.16C440.758 140.6 441.818 142.34 442.578 144.38C443.338 146.42 443.718 148.68 443.718 151.16ZM434.598 151.16C434.598 148.4 434.038 146.24 432.918 144.68C431.838 143.08 430.278 142.28 428.238 142.28C426.198 142.28 424.618 143.08 423.498 144.68C422.378 146.24 421.818 148.4 421.818 151.16C421.818 153.92 422.378 156.12 423.498 157.76C424.618 159.36 426.198 160.16 428.238 160.16C430.278 160.16 431.838 159.36 432.918 157.76C434.038 156.12 434.598 153.92 434.598 151.16ZM80.1916 220.58C81.8316 220.58 82.9916 220.42 83.6716 220.1C84.3516 219.78 84.6916 219.16 84.6916 218.24C84.6916 217.52 84.2516 216.9 83.3716 216.38C82.4916 215.82 81.1516 215.2 79.3516 214.52C77.9516 214 76.6716 213.46 75.5116 212.9C74.3916 212.34 73.4316 211.68 72.6316 210.92C71.8316 210.12 71.2116 209.18 70.7716 208.1C70.3316 207.02 70.1116 205.72 70.1116 204.2C70.1116 201.24 71.2116 198.9 73.4116 197.18C75.6116 195.46 78.6316 194.6 82.4716 194.6C84.3916 194.6 86.2316 194.78 87.9916 195.14C89.7516 195.46 91.1516 195.82 92.1916 196.22L90.6316 203.18C89.5916 202.82 88.4516 202.5 87.2116 202.22C86.0116 201.94 84.6516 201.8 83.1316 201.8C80.3316 201.8 78.9316 202.58 78.9316 204.14C78.9316 204.5 78.9916 204.82 79.1116 205.1C79.2316 205.38 79.4716 205.66 79.8316 205.94C80.1916 206.18 80.6716 206.46 81.2716 206.78C81.9116 207.06 82.7116 207.38 83.6716 207.74C85.6316 208.46 87.2516 209.18 88.5316 209.9C89.8116 210.58 90.8116 211.34 91.5316 212.18C92.2916 212.98 92.8116 213.88 93.0916 214.88C93.4116 215.88 93.5716 217.04 93.5716 218.36C93.5716 221.48 92.3916 223.84 90.0316 225.44C87.7116 227.04 84.4116 227.84 80.1316 227.84C77.3316 227.84 74.9916 227.6 73.1116 227.12C71.2716 226.64 69.9916 226.24 69.2716 225.92L70.7716 218.66C72.2916 219.26 73.8516 219.74 75.4516 220.1C77.0516 220.42 78.6316 220.58 80.1916 220.58ZM98.7527 211.46C98.7527 208.66 99.1727 206.22 100.013 204.14C100.893 202.02 102.033 200.26 103.433 198.86C104.833 197.46 106.433 196.4 108.233 195.68C110.073 194.96 111.953 194.6 113.873 194.6C118.353 194.6 121.893 195.98 124.493 198.74C127.093 201.46 128.393 205.48 128.393 210.8C128.393 211.32 128.373 211.9 128.333 212.54C128.293 213.14 128.253 213.68 128.213 214.16H107.933C108.133 216 108.993 217.46 110.513 218.54C112.033 219.62 114.073 220.16 116.633 220.16C118.273 220.16 119.873 220.02 121.433 219.74C123.033 219.42 124.333 219.04 125.333 218.6L126.533 225.86C126.053 226.1 125.413 226.34 124.613 226.58C123.813 226.82 122.913 227.02 121.913 227.18C120.953 227.38 119.913 227.54 118.793 227.66C117.673 227.78 116.553 227.84 115.433 227.84C112.593 227.84 110.113 227.42 107.993 226.58C105.913 225.74 104.173 224.6 102.773 223.16C101.413 221.68 100.393 219.94 99.7127 217.94C99.0727 215.94 98.7527 213.78 98.7527 211.46ZM119.753 208.04C119.713 207.28 119.573 206.54 119.333 205.82C119.133 205.1 118.793 204.46 118.313 203.9C117.873 203.34 117.293 202.88 116.573 202.52C115.893 202.16 115.033 201.98 113.993 201.98C112.993 201.98 112.133 202.16 111.413 202.52C110.693 202.84 110.093 203.28 109.613 203.84C109.133 204.4 108.753 205.06 108.473 205.82C108.233 206.54 108.053 207.28 107.933 208.04H119.753ZM162.232 225.92C160.712 226.36 158.752 226.76 156.352 227.12C153.952 227.52 151.432 227.72 148.792 227.72C146.112 227.72 143.872 227.36 142.072 226.64C140.312 225.92 138.912 224.92 137.872 223.64C136.832 222.32 136.092 220.76 135.652 218.96C135.212 217.16 134.992 215.18 134.992 213.02V195.44H143.932V211.94C143.932 214.82 144.312 216.9 145.072 218.18C145.832 219.46 147.252 220.1 149.332 220.1C149.972 220.1 150.652 220.08 151.372 220.04C152.092 219.96 152.732 219.88 153.292 219.8V195.44H162.232V225.92ZM185.038 196.52C186.558 196.08 188.518 195.68 190.918 195.32C193.318 194.92 195.838 194.72 198.478 194.72C201.158 194.72 203.378 195.08 205.138 195.8C206.938 196.48 208.358 197.46 209.398 198.74C210.438 200.02 211.178 201.54 211.618 203.3C212.058 205.06 212.278 207.02 212.278 209.18V227H203.338V210.26C203.338 207.38 202.958 205.34 202.198 204.14C201.438 202.94 200.018 202.34 197.938 202.34C197.298 202.34 196.618 202.38 195.898 202.46C195.178 202.5 194.538 202.56 193.978 202.64V227H185.038V196.52ZM218.87 211.46C218.87 208.66 219.29 206.22 220.13 204.14C221.01 202.02 222.15 200.26 223.55 198.86C224.95 197.46 226.55 196.4 228.35 195.68C230.19 194.96 232.07 194.6 233.99 194.6C238.47 194.6 242.01 195.98 244.61 198.74C247.21 201.46 248.51 205.48 248.51 210.8C248.51 211.32 248.49 211.9 248.45 212.54C248.41 213.14 248.37 213.68 248.33 214.16H228.05C228.25 216 229.11 217.46 230.63 218.54C232.15 219.62 234.19 220.16 236.75 220.16C238.39 220.16 239.99 220.02 241.55 219.74C243.15 219.42 244.45 219.04 245.45 218.6L246.65 225.86C246.17 226.1 245.53 226.34 244.73 226.58C243.93 226.82 243.03 227.02 242.03 227.18C241.07 227.38 240.03 227.54 238.91 227.66C237.79 227.78 236.67 227.84 235.55 227.84C232.71 227.84 230.23 227.42 228.11 226.58C226.03 225.74 224.29 224.6 222.89 223.16C221.53 221.68 220.51 219.94 219.83 217.94C219.19 215.94 218.87 213.78 218.87 211.46ZM239.87 208.04C239.83 207.28 239.69 206.54 239.45 205.82C239.25 205.1 238.91 204.46 238.43 203.9C237.99 203.34 237.41 202.88 236.69 202.52C236.01 202.16 235.15 201.98 234.11 201.98C233.11 201.98 232.25 202.16 231.53 202.52C230.81 202.84 230.21 203.28 229.73 203.84C229.25 204.4 228.87 205.06 228.59 205.82C228.35 206.54 228.17 207.28 228.05 208.04H239.87ZM263.029 210.2C263.029 215.2 265.049 217.7 269.089 217.7C270.009 217.7 270.869 217.58 271.669 217.34C272.469 217.1 273.149 216.82 273.709 216.5V202.22C273.269 202.14 272.749 202.08 272.149 202.04C271.549 201.96 270.849 201.92 270.049 201.92C267.689 201.92 265.929 202.7 264.769 204.26C263.609 205.82 263.029 207.8 263.029 210.2ZM282.649 223.04C282.649 228.2 281.329 232.02 278.689 234.5C276.089 237.02 272.049 238.28 266.569 238.28C264.649 238.28 262.729 238.1 260.809 237.74C258.889 237.42 257.109 236.98 255.469 236.42L257.029 228.92C258.429 229.48 259.889 229.92 261.409 230.24C262.969 230.56 264.729 230.72 266.689 230.72C269.249 230.72 271.049 230.16 272.089 229.04C273.169 227.92 273.709 226.48 273.709 224.72V223.58C272.749 224.02 271.749 224.36 270.709 224.6C269.709 224.8 268.609 224.9 267.409 224.9C263.049 224.9 259.709 223.62 257.389 221.06C255.069 218.46 253.909 214.84 253.909 210.2C253.909 207.88 254.269 205.78 254.989 203.9C255.709 201.98 256.749 200.34 258.109 198.98C259.509 197.62 261.209 196.58 263.209 195.86C265.209 195.1 267.469 194.72 269.989 194.72C271.069 194.72 272.169 194.78 273.289 194.9C274.449 194.98 275.589 195.1 276.709 195.26C277.829 195.42 278.889 195.62 279.889 195.86C280.929 196.06 281.849 196.28 282.649 196.52V223.04ZM320.554 211.16C320.554 213.64 320.194 215.92 319.474 218C318.754 220.04 317.714 221.8 316.354 223.28C314.994 224.72 313.354 225.84 311.434 226.64C309.554 227.44 307.434 227.84 305.074 227.84C302.754 227.84 300.634 227.44 298.714 226.64C296.834 225.84 295.214 224.72 293.854 223.28C292.494 221.8 291.434 220.04 290.674 218C289.914 215.92 289.534 213.64 289.534 211.16C289.534 208.68 289.914 206.42 290.674 204.38C291.474 202.34 292.554 200.6 293.914 199.16C295.314 197.72 296.954 196.6 298.834 195.8C300.754 195 302.834 194.6 305.074 194.6C307.354 194.6 309.434 195 311.314 195.8C313.234 196.6 314.874 197.72 316.234 199.16C317.594 200.6 318.654 202.34 319.414 204.38C320.174 206.42 320.554 208.68 320.554 211.16ZM311.434 211.16C311.434 208.4 310.874 206.24 309.754 204.68C308.674 203.08 307.114 202.28 305.074 202.28C303.034 202.28 301.454 203.08 300.334 204.68C299.214 206.24 298.654 208.4 298.654 211.16C298.654 213.92 299.214 216.12 300.334 217.76C301.454 219.36 303.034 220.16 305.074 220.16C307.114 220.16 308.674 219.36 309.754 217.76C310.874 216.12 311.434 213.92 311.434 211.16ZM312.454 184.1L302.554 192.44L298.474 188.78L306.994 179.06L312.454 184.1ZM325.979 211.22C325.979 208.94 326.339 206.8 327.059 204.8C327.819 202.76 328.899 201 330.299 199.52C331.699 198 333.399 196.8 335.399 195.92C337.399 195.04 339.679 194.6 342.239 194.6C343.919 194.6 345.459 194.76 346.859 195.08C348.259 195.36 349.619 195.78 350.939 196.34L349.079 203.48C348.239 203.16 347.319 202.88 346.319 202.64C345.319 202.4 344.199 202.28 342.959 202.28C340.319 202.28 338.339 203.1 337.019 204.74C335.739 206.38 335.099 208.54 335.099 211.22C335.099 214.06 335.699 216.26 336.899 217.82C338.139 219.38 340.279 220.16 343.319 220.16C344.399 220.16 345.559 220.06 346.799 219.86C348.039 219.66 349.179 219.34 350.219 218.9L351.479 226.22C350.439 226.66 349.139 227.04 347.579 227.36C346.019 227.68 344.299 227.84 342.419 227.84C339.539 227.84 337.059 227.42 334.979 226.58C332.899 225.7 331.179 224.52 329.819 223.04C328.499 221.56 327.519 219.82 326.879 217.82C326.279 215.78 325.979 213.58 325.979 211.22ZM366.419 227H357.479V195.44H366.419V227ZM367.259 186.32C367.259 187.96 366.719 189.26 365.639 190.22C364.599 191.14 363.359 191.6 361.919 191.6C360.479 191.6 359.219 191.14 358.139 190.22C357.099 189.26 356.579 187.96 356.579 186.32C356.579 184.68 357.099 183.4 358.139 182.48C359.219 181.52 360.479 181.04 361.919 181.04C363.359 181.04 364.599 181.52 365.639 182.48C366.719 183.4 367.259 184.68 367.259 186.32ZM404.343 211.16C404.343 213.64 403.983 215.92 403.263 218C402.543 220.04 401.503 221.8 400.143 223.28C398.783 224.72 397.143 225.84 395.223 226.64C393.343 227.44 391.223 227.84 388.863 227.84C386.543 227.84 384.423 227.44 382.503 226.64C380.623 225.84 379.003 224.72 377.643 223.28C376.283 221.8 375.223 220.04 374.463 218C373.703 215.92 373.323 213.64 373.323 211.16C373.323 208.68 373.703 206.42 374.463 204.38C375.263 202.34 376.343 200.6 377.703 199.16C379.103 197.72 380.743 196.6 382.623 195.8C384.543 195 386.623 194.6 388.863 194.6C391.143 194.6 393.223 195 395.103 195.8C397.023 196.6 398.663 197.72 400.023 199.16C401.383 200.6 402.443 202.34 403.203 204.38C403.963 206.42 404.343 208.68 404.343 211.16ZM395.223 211.16C395.223 208.4 394.663 206.24 393.543 204.68C392.463 203.08 390.903 202.28 388.863 202.28C386.823 202.28 385.243 203.08 384.123 204.68C383.003 206.24 382.443 208.4 382.443 211.16C382.443 213.92 383.003 216.12 384.123 217.76C385.243 219.36 386.823 220.16 388.863 220.16C390.903 220.16 392.463 219.36 393.543 217.76C394.663 216.12 395.223 213.92 395.223 211.16Z" fill="url(#paint0_linear_250_3)"/>
<defs>
<linearGradient id="paint0_linear_250_3" x1="-5" y1="25" x2="479" y2="25" gradientUnits="userSpaceOnUse">
<stop stop-color="#FAFAFA"/>
<stop offset="0.35" stop-color="#728842"/>
<stop offset="1" stop-color="white"/>
</linearGradient>
</defs>
</svg>
