<svg width="891" height="140" viewBox="0 0 891 140" fill="none" xmlns="http://www.w3.org/2000/svg">
<path d="M35.1285 50C34.6592 48.464 34.1258 46.8853 33.5285 45.264C32.9738 43.6427 32.4192 42.0213 31.8645 40.4H14.5845C14.0298 42.0213 13.4538 43.6427 12.8565 45.264C12.3018 46.8853 11.7898 48.464 11.3205 50H0.9525C2.6165 45.2213 4.19517 40.8053 5.6885 36.752C7.18183 32.6987 8.6325 28.88 10.0405 25.296C11.4912 21.712 12.8992 18.32 14.2645 15.12C15.6725 11.8773 17.1232 8.72 18.6165 5.648H28.1525C29.6032 8.72 31.0325 11.8773 32.4405 15.12C33.8485 18.32 35.2565 21.712 36.6645 25.296C38.1152 28.88 39.5872 32.6987 41.0805 36.752C42.5738 40.8053 44.1525 45.2213 45.8165 50H35.1285ZM23.1605 15.696C22.9472 16.336 22.6272 17.2107 22.2005 18.32C21.7738 19.4293 21.2832 20.7093 20.7285 22.16C20.1738 23.6107 19.5552 25.2107 18.8725 26.96C18.2325 28.7093 17.5712 30.544 16.8885 32.464H29.4965C28.8138 30.544 28.1525 28.7093 27.5125 26.96C26.8725 25.2107 26.2538 23.6107 25.6565 22.16C25.1018 20.7093 24.6112 19.4293 24.1845 18.32C23.7578 17.2107 23.4165 16.336 23.1605 15.696ZM50.5975 7.952L60.1335 6.416V16.336H71.5895V24.272H60.1335V36.112C60.1335 38.1173 60.4748 39.7173 61.1575 40.912C61.8828 42.1067 63.3122 42.704 65.4455 42.704C66.4695 42.704 67.5148 42.6187 68.5815 42.448C69.6908 42.2347 70.6935 41.9573 71.5895 41.616L72.9335 49.04C71.7815 49.5093 70.5015 49.9147 69.0935 50.256C67.6855 50.5973 65.9575 50.768 63.9095 50.768C61.3068 50.768 59.1522 50.4267 57.4455 49.744C55.7388 49.0187 54.3735 48.0373 53.3495 46.8C52.3255 45.52 51.6002 43.984 51.1735 42.192C50.7895 40.4 50.5975 38.416 50.5975 36.24V7.952ZM108.091 48.848C106.47 49.3173 104.379 49.744 101.819 50.128C99.259 50.5547 96.571 50.768 93.755 50.768C90.8963 50.768 88.507 50.384 86.587 49.616C84.7097 48.848 83.2163 47.7813 82.107 46.416C80.9977 45.008 80.2083 43.344 79.739 41.424C79.2697 39.504 79.035 37.392 79.035 35.088V16.336H88.571V33.936C88.571 37.008 88.9763 39.2267 89.787 40.592C90.5977 41.9573 92.1123 42.64 94.331 42.64C95.0137 42.64 95.739 42.6187 96.507 42.576C97.275 42.4907 97.9577 42.4053 98.555 42.32V16.336H108.091V48.848ZM129.907 43.344C130.845 43.344 131.741 43.3227 132.595 43.28C133.448 43.2373 134.131 43.1733 134.643 43.088V35.856C134.259 35.7707 133.683 35.6853 132.915 35.6C132.147 35.5147 131.443 35.472 130.803 35.472C129.907 35.472 129.053 35.536 128.243 35.664C127.475 35.7493 126.792 35.9413 126.195 36.24C125.597 36.5387 125.128 36.944 124.787 37.456C124.445 37.968 124.275 38.608 124.275 39.376C124.275 40.8693 124.765 41.9147 125.747 42.512C126.771 43.0667 128.157 43.344 129.907 43.344ZM129.139 15.44C131.955 15.44 134.301 15.76 136.179 16.4C138.056 17.04 139.549 17.9573 140.659 19.152C141.811 20.3467 142.621 21.7973 143.091 23.504C143.56 25.2107 143.795 27.1093 143.795 29.2V49.04C142.429 49.3387 140.531 49.68 138.099 50.064C135.667 50.4907 132.723 50.704 129.267 50.704C127.091 50.704 125.107 50.512 123.315 50.128C121.565 49.744 120.051 49.1253 118.771 48.272C117.491 47.376 116.509 46.224 115.827 44.816C115.144 43.408 114.803 41.68 114.803 39.632C114.803 37.6693 115.187 36.0053 115.955 34.64C116.765 33.2747 117.832 32.1867 119.155 31.376C120.477 30.5653 121.992 29.9893 123.699 29.648C125.405 29.264 127.176 29.072 129.01 29.072C130.248 29.072 131.336 29.136 132.275 29.264C133.256 29.3493 134.045 29.4773 134.643 29.648V28.752C134.643 27.1307 134.152 25.8293 133.171 24.848C132.189 23.8667 130.483 23.376 128.051 23.376C126.429 23.376 124.829 23.504 123.251 23.76C121.672 23.9733 120.307 24.2933 119.155 24.72L117.939 17.04C118.493 16.8693 119.176 16.6987 119.987 16.528C120.84 16.3147 121.757 16.144 122.739 16.016C123.72 15.8453 124.744 15.7173 125.811 15.632C126.92 15.504 128.029 15.44 129.139 15.44ZM165.858 50.64C163.084 50.5973 160.823 50.2987 159.074 49.744C157.367 49.1893 156.002 48.4213 154.978 47.44C153.996 46.416 153.314 45.2 152.93 43.792C152.588 42.3413 152.418 40.72 152.418 38.928V1.872L161.954 0.335999V37.008C161.954 37.8613 162.018 38.6293 162.146 39.312C162.274 39.9947 162.508 40.5707 162.85 41.04C163.234 41.5093 163.767 41.8933 164.45 42.192C165.132 42.4907 166.05 42.6827 167.202 42.768L165.858 50.64ZM182.204 50H172.668V16.336H182.204V50ZM183.1 6.608C183.1 8.35733 182.524 9.744 181.372 10.768C180.262 11.7493 178.94 12.24 177.404 12.24C175.868 12.24 174.524 11.7493 173.372 10.768C172.262 9.744 171.708 8.35733 171.708 6.608C171.708 4.85866 172.262 3.49333 173.372 2.512C174.524 1.488 175.868 0.975998 177.404 0.975998C178.94 0.975998 180.262 1.488 181.372 2.512C182.524 3.49333 183.1 4.85866 183.1 6.608ZM216.448 22.736C215.68 23.5893 214.634 24.7413 213.312 26.192C212.032 27.6427 210.645 29.2427 209.152 30.992C207.658 32.7413 206.144 34.576 204.608 36.496C203.114 38.416 201.749 40.272 200.512 42.064H216.768V50H188.928V44.368C189.824 42.832 190.89 41.1893 192.128 39.44C193.408 37.648 194.73 35.856 196.095 34.064C197.504 32.272 198.89 30.544 200.256 28.88C201.621 27.1733 202.88 25.6373 204.032 24.272H189.696V16.336H216.448V22.736ZM220.63 33.424C220.63 30.4373 221.078 27.8347 221.974 25.616C222.913 23.3547 224.129 21.4773 225.622 19.984C227.115 18.4907 228.822 17.36 230.742 16.592C232.705 15.824 234.71 15.44 236.758 15.44C241.537 15.44 245.313 16.912 248.086 19.856C250.859 22.7573 252.246 27.0453 252.246 32.72C252.246 33.2747 252.225 33.8933 252.182 34.576C252.139 35.216 252.097 35.792 252.054 36.304H230.422C230.635 38.2667 231.553 39.824 233.174 40.976C234.795 42.128 236.971 42.704 239.702 42.704C241.451 42.704 243.158 42.5547 244.822 42.256C246.529 41.9147 247.915 41.5093 248.982 41.04L250.262 48.784C249.75 49.04 249.067 49.296 248.214 49.552C247.361 49.808 246.401 50.0213 245.334 50.192C244.31 50.4053 243.201 50.576 242.006 50.704C240.811 50.832 239.617 50.896 238.422 50.896C235.393 50.896 232.747 50.448 230.486 49.552C228.267 48.656 226.411 47.44 224.918 45.904C223.467 44.3253 222.379 42.4693 221.654 40.336C220.971 38.2027 220.63 35.8987 220.63 33.424ZM243.03 29.776C242.987 28.9653 242.838 28.176 242.582 27.408C242.369 26.64 242.006 25.9573 241.494 25.36C241.025 24.7627 240.406 24.272 239.638 23.888C238.913 23.504 237.995 23.312 236.886 23.312C235.819 23.312 234.902 23.504 234.134 23.888C233.366 24.2293 232.726 24.6987 232.214 25.296C231.702 25.8933 231.297 26.5973 230.998 27.408C230.742 28.176 230.55 28.9653 230.422 29.776H243.03ZM284.644 43.152C286.393 43.152 287.631 42.9813 288.356 42.64C289.081 42.2987 289.444 41.6373 289.444 40.656C289.444 39.888 288.975 39.2267 288.036 38.672C287.097 38.0747 285.668 37.4133 283.748 36.688C282.255 36.1333 280.889 35.5573 279.652 34.96C278.457 34.3627 277.433 33.6587 276.58 32.848C275.727 31.9947 275.065 30.992 274.596 29.84C274.127 28.688 273.892 27.3013 273.892 25.68C273.892 22.5227 275.065 20.0267 277.412 18.192C279.759 16.3573 282.98 15.44 287.076 15.44C289.124 15.44 291.087 15.632 292.964 16.016C294.841 16.3573 296.335 16.7413 297.444 17.168L295.78 24.592C294.671 24.208 293.455 23.8667 292.132 23.568C290.852 23.2693 289.401 23.12 287.78 23.12C284.793 23.12 283.3 23.952 283.3 25.616C283.3 26 283.364 26.3413 283.492 26.64C283.62 26.9387 283.876 27.2373 284.26 27.536C284.644 27.792 285.156 28.0907 285.796 28.432C286.479 28.7307 287.332 29.072 288.356 29.456C290.447 30.224 292.175 30.992 293.54 31.76C294.905 32.4853 295.972 33.296 296.74 34.192C297.551 35.0453 298.105 36.0053 298.404 37.072C298.745 38.1387 298.916 39.376 298.916 40.784C298.916 44.112 297.657 46.6293 295.14 48.336C292.665 50.0427 289.145 50.896 284.58 50.896C281.593 50.896 279.097 50.64 277.092 50.128C275.129 49.616 273.764 49.1893 272.996 48.848L274.596 41.104C276.217 41.744 277.881 42.256 279.588 42.64C281.295 42.9813 282.98 43.152 284.644 43.152ZM304.443 33.424C304.443 30.4373 304.891 27.8347 305.786 25.616C306.725 23.3547 307.941 21.4773 309.435 19.984C310.928 18.4907 312.635 17.36 314.555 16.592C316.517 15.824 318.523 15.44 320.571 15.44C325.349 15.44 329.125 16.912 331.899 19.856C334.672 22.7573 336.059 27.0453 336.059 32.72C336.059 33.2747 336.037 33.8933 335.995 34.576C335.952 35.216 335.909 35.792 335.867 36.304H314.235C314.448 38.2667 315.365 39.824 316.987 40.976C318.608 42.128 320.784 42.704 323.515 42.704C325.264 42.704 326.971 42.5547 328.635 42.256C330.341 41.9147 331.728 41.5093 332.795 41.04L334.075 48.784C333.563 49.04 332.88 49.296 332.027 49.552C331.173 49.808 330.213 50.0213 329.147 50.192C328.123 50.4053 327.013 50.576 325.819 50.704C324.624 50.832 323.429 50.896 322.235 50.896C319.205 50.896 316.56 50.448 314.299 49.552C312.08 48.656 310.224 47.44 308.731 45.904C307.28 44.3253 306.192 42.4693 305.467 40.336C304.784 38.2027 304.443 35.8987 304.443 33.424ZM326.843 29.776C326.8 28.9653 326.651 28.176 326.395 27.408C326.181 26.64 325.819 25.9573 325.307 25.36C324.837 24.7627 324.219 24.272 323.451 23.888C322.725 23.504 321.808 23.312 320.699 23.312C319.632 23.312 318.715 23.504 317.947 23.888C317.179 24.2293 316.539 24.6987 316.027 25.296C315.515 25.8933 315.109 26.5973 314.811 27.408C314.555 28.176 314.363 28.9653 314.235 29.776H326.843ZM372.154 48.848C370.532 49.3173 368.442 49.744 365.882 50.128C363.322 50.5547 360.634 50.768 357.818 50.768C354.959 50.768 352.57 50.384 350.65 49.616C348.772 48.848 347.279 47.7813 346.17 46.416C345.06 45.008 344.271 43.344 343.802 41.424C343.332 39.504 343.098 37.392 343.098 35.088V16.336H352.634V33.936C352.634 37.008 353.039 39.2267 353.85 40.592C354.66 41.9573 356.175 42.64 358.394 42.64C359.076 42.64 359.802 42.6187 360.57 42.576C361.338 42.4907 362.02 42.4053 362.618 42.32V16.336H372.154V48.848ZM406.144 43.152C407.893 43.152 409.131 42.9813 409.856 42.64C410.581 42.2987 410.944 41.6373 410.944 40.656C410.944 39.888 410.475 39.2267 409.536 38.672C408.597 38.0747 407.168 37.4133 405.248 36.688C403.755 36.1333 402.389 35.5573 401.152 34.96C399.957 34.3627 398.933 33.6587 398.08 32.848C397.227 31.9947 396.565 30.992 396.096 29.84C395.627 28.688 395.392 27.3013 395.392 25.68C395.392 22.5227 396.565 20.0267 398.912 18.192C401.259 16.3573 404.48 15.44 408.576 15.44C410.624 15.44 412.587 15.632 414.464 16.016C416.341 16.3573 417.835 16.7413 418.944 17.168L417.28 24.592C416.171 24.208 414.955 23.8667 413.632 23.568C412.352 23.2693 410.901 23.12 409.28 23.12C406.293 23.12 404.8 23.952 404.8 25.616C404.8 26 404.864 26.3413 404.992 26.64C405.12 26.9387 405.376 27.2373 405.76 27.536C406.144 27.792 406.656 28.0907 407.296 28.432C407.979 28.7307 408.832 29.072 409.856 29.456C411.947 30.224 413.675 30.992 415.04 31.76C416.405 32.4853 417.472 33.296 418.24 34.192C419.051 35.0453 419.605 36.0053 419.904 37.072C420.245 38.1387 420.416 39.376 420.416 40.784C420.416 44.112 419.157 46.6293 416.64 48.336C414.165 50.0427 410.645 50.896 406.08 50.896C403.093 50.896 400.597 50.64 398.592 50.128C396.629 49.616 395.264 49.1893 394.496 48.848L396.096 41.104C397.717 41.744 399.381 42.256 401.088 42.64C402.795 42.9813 404.48 43.152 406.144 43.152ZM437.079 50H427.543V16.336H437.079V50ZM437.975 6.608C437.975 8.35733 437.399 9.744 436.247 10.768C435.137 11.7493 433.815 12.24 432.279 12.24C430.743 12.24 429.399 11.7493 428.247 10.768C427.137 9.744 426.583 8.35733 426.583 6.608C426.583 4.85866 427.137 3.49333 428.247 2.512C429.399 1.488 430.743 0.975998 432.279 0.975998C433.815 0.975998 435.137 1.488 436.247 2.512C437.399 3.49333 437.975 4.85866 437.975 6.608ZM445.723 7.952L455.259 6.416V16.336H466.715V24.272H455.259V36.112C455.259 38.1173 455.6 39.7173 456.283 40.912C457.008 42.1067 458.437 42.704 460.571 42.704C461.595 42.704 462.64 42.6187 463.707 42.448C464.816 42.2347 465.819 41.9573 466.715 41.616L468.059 49.04C466.907 49.5093 465.627 49.9147 464.219 50.256C462.811 50.5973 461.083 50.768 459.035 50.768C456.432 50.768 454.277 50.4267 452.571 49.744C450.864 49.0187 449.499 48.0373 448.475 46.8C447.451 45.52 446.725 43.984 446.299 42.192C445.915 40.4 445.723 38.416 445.723 36.24V7.952ZM471.63 33.424C471.63 30.4373 472.078 27.8347 472.974 25.616C473.913 23.3547 475.129 21.4773 476.622 19.984C478.115 18.4907 479.822 17.36 481.742 16.592C483.705 15.824 485.71 15.44 487.758 15.44C492.537 15.44 496.313 16.912 499.086 19.856C501.859 22.7573 503.246 27.0453 503.246 32.72C503.246 33.2747 503.225 33.8933 503.182 34.576C503.139 35.216 503.097 35.792 503.054 36.304H481.422C481.635 38.2667 482.553 39.824 484.174 40.976C485.795 42.128 487.971 42.704 490.702 42.704C492.451 42.704 494.158 42.5547 495.822 42.256C497.529 41.9147 498.915 41.5093 499.982 41.04L501.262 48.784C500.75 49.04 500.067 49.296 499.214 49.552C498.361 49.808 497.401 50.0213 496.334 50.192C495.31 50.4053 494.201 50.576 493.006 50.704C491.811 50.832 490.617 50.896 489.422 50.896C486.393 50.896 483.747 50.448 481.486 49.552C479.267 48.656 477.411 47.44 475.918 45.904C474.467 44.3253 473.379 42.4693 472.654 40.336C471.971 38.2027 471.63 35.8987 471.63 33.424ZM494.03 29.776C493.987 28.9653 493.838 28.176 493.582 27.408C493.369 26.64 493.006 25.9573 492.494 25.36C492.025 24.7627 491.406 24.272 490.638 23.888C489.913 23.504 488.995 23.312 487.886 23.312C486.819 23.312 485.902 23.504 485.134 23.888C484.366 24.2293 483.726 24.6987 483.214 25.296C482.702 25.8933 482.297 26.5973 481.998 27.408C481.742 28.176 481.55 28.9653 481.422 29.776H494.03ZM524.38 33.424C524.38 30.4373 524.828 27.8347 525.724 25.616C526.663 23.3547 527.879 21.4773 529.372 19.984C530.865 18.4907 532.572 17.36 534.492 16.592C536.455 15.824 538.46 15.44 540.508 15.44C545.287 15.44 549.063 16.912 551.836 19.856C554.609 22.7573 555.996 27.0453 555.996 32.72C555.996 33.2747 555.975 33.8933 555.932 34.576C555.889 35.216 555.847 35.792 555.804 36.304H534.172C534.385 38.2667 535.303 39.824 536.924 40.976C538.545 42.128 540.721 42.704 543.452 42.704C545.201 42.704 546.908 42.5547 548.572 42.256C550.279 41.9147 551.665 41.5093 552.732 41.04L554.012 48.784C553.5 49.04 552.817 49.296 551.964 49.552C551.111 49.808 550.151 50.0213 549.084 50.192C548.06 50.4053 546.951 50.576 545.756 50.704C544.561 50.832 543.367 50.896 542.172 50.896C539.143 50.896 536.497 50.448 534.236 49.552C532.017 48.656 530.161 47.44 528.668 45.904C527.217 44.3253 526.129 42.4693 525.404 40.336C524.721 38.2027 524.38 35.8987 524.38 33.424ZM546.78 29.776C546.737 28.9653 546.588 28.176 546.332 27.408C546.119 26.64 545.756 25.9573 545.244 25.36C544.775 24.7627 544.156 24.272 543.388 23.888C542.663 23.504 541.745 23.312 540.636 23.312C539.569 23.312 538.652 23.504 537.884 23.888C537.116 24.2293 536.476 24.6987 535.964 25.296C535.452 25.8933 535.047 26.5973 534.748 27.408C534.492 28.176 534.3 28.9653 534.172 29.776H546.78ZM578.41 7.952L587.946 6.416V16.336H599.402V24.272H587.946V36.112C587.946 38.1173 588.287 39.7173 588.97 40.912C589.695 42.1067 591.125 42.704 593.258 42.704C594.282 42.704 595.327 42.6187 596.394 42.448C597.503 42.2347 598.506 41.9573 599.402 41.616L600.746 49.04C599.594 49.5093 598.314 49.9147 596.906 50.256C595.498 50.5973 593.77 50.768 591.722 50.768C589.119 50.768 586.965 50.4267 585.258 49.744C583.551 49.0187 582.186 48.0373 581.162 46.8C580.138 45.52 579.413 43.984 578.986 42.192C578.602 40.4 578.41 38.416 578.41 36.24V7.952ZM627.456 24.784C626.602 24.5707 625.6 24.3573 624.448 24.144C623.296 23.888 622.058 23.76 620.736 23.76C620.138 23.76 619.413 23.824 618.56 23.952C617.749 24.0373 617.13 24.144 616.704 24.272V50H607.168V18.128C608.874 17.5307 610.88 16.976 613.184 16.464C615.53 15.9093 618.133 15.632 620.992 15.632C621.504 15.632 622.122 15.6747 622.848 15.76C623.573 15.8027 624.298 15.888 625.024 16.016C625.749 16.1013 626.474 16.2293 627.2 16.4C627.925 16.528 628.544 16.6987 629.056 16.912L627.456 24.784ZM646.407 43.344C647.345 43.344 648.241 43.3227 649.095 43.28C649.948 43.2373 650.631 43.1733 651.143 43.088V35.856C650.759 35.7707 650.183 35.6853 649.415 35.6C648.647 35.5147 647.943 35.472 647.303 35.472C646.407 35.472 645.553 35.536 644.743 35.664C643.975 35.7493 643.292 35.9413 642.695 36.24C642.097 36.5387 641.628 36.944 641.287 37.456C640.945 37.968 640.775 38.608 640.775 39.376C640.775 40.8693 641.265 41.9147 642.247 42.512C643.271 43.0667 644.657 43.344 646.407 43.344ZM645.639 15.44C648.455 15.44 650.801 15.76 652.679 16.4C654.556 17.04 656.049 17.9573 657.159 19.152C658.311 20.3467 659.121 21.7973 659.591 23.504C660.06 25.2107 660.295 27.1093 660.295 29.2V49.04C658.929 49.3387 657.031 49.68 654.599 50.064C652.167 50.4907 649.223 50.704 645.767 50.704C643.591 50.704 641.607 50.512 639.815 50.128C638.065 49.744 636.551 49.1253 635.271 48.272C633.991 47.376 633.009 46.224 632.327 44.816C631.644 43.408 631.303 41.68 631.303 39.632C631.303 37.6693 631.687 36.0053 632.455 34.64C633.265 33.2747 634.332 32.1867 635.655 31.376C636.977 30.5653 638.492 29.9893 640.199 29.648C641.905 29.264 643.676 29.072 645.51 29.072C646.748 29.072 647.836 29.136 648.775 29.264C649.756 29.3493 650.545 29.4773 651.143 29.648V28.752C651.143 27.1307 650.652 25.8293 649.671 24.848C648.689 23.8667 646.983 23.376 644.551 23.376C642.929 23.376 641.329 23.504 639.751 23.76C638.172 23.9733 636.807 24.2933 635.655 24.72L634.439 17.04C634.993 16.8693 635.676 16.6987 636.487 16.528C637.34 16.3147 638.257 16.144 639.239 16.016C640.22 15.8453 641.244 15.7173 642.311 15.632C643.42 15.504 644.529 15.44 645.639 15.44ZM677.046 32.08C677.046 37.4133 679.2 40.08 683.51 40.08C684.491 40.08 685.408 39.952 686.262 39.696C687.115 39.44 687.84 39.1413 688.438 38.8V23.568C687.968 23.4827 687.414 23.4187 686.774 23.376C686.134 23.2907 685.387 23.248 684.534 23.248C682.016 23.248 680.139 24.08 678.902 25.744C677.664 27.408 677.046 29.52 677.046 32.08ZM697.974 45.776C697.974 51.28 696.566 55.3547 693.75 58C690.976 60.688 686.667 62.032 680.822 62.032C678.774 62.032 676.726 61.84 674.678 61.456C672.63 61.1147 670.731 60.6453 668.982 60.048L670.646 52.048C672.139 52.6453 673.696 53.1147 675.318 53.456C676.982 53.7973 678.859 53.968 680.95 53.968C683.68 53.968 685.6 53.3707 686.71 52.176C687.862 50.9813 688.438 49.4453 688.438 47.568V46.352C687.414 46.8213 686.347 47.184 685.238 47.44C684.171 47.6533 682.998 47.76 681.718 47.76C677.067 47.76 673.504 46.3947 671.03 43.664C668.555 40.8907 667.318 37.0293 667.318 32.08C667.318 29.6053 667.702 27.3653 668.47 25.36C669.238 23.312 670.347 21.5627 671.798 20.112C673.291 18.6613 675.104 17.552 677.238 16.784C679.371 15.9733 681.782 15.568 684.47 15.568C685.622 15.568 686.795 15.632 687.99 15.76C689.227 15.8453 690.443 15.9733 691.638 16.144C692.832 16.3147 693.963 16.528 695.03 16.784C696.139 16.9973 697.12 17.232 697.974 17.488V45.776ZM719.782 43.344C720.72 43.344 721.616 43.3227 722.47 43.28C723.323 43.2373 724.006 43.1733 724.518 43.088V35.856C724.134 35.7707 723.558 35.6853 722.79 35.6C722.022 35.5147 721.318 35.472 720.678 35.472C719.782 35.472 718.928 35.536 718.118 35.664C717.35 35.7493 716.667 35.9413 716.07 36.24C715.472 36.5387 715.003 36.944 714.662 37.456C714.32 37.968 714.15 38.608 714.15 39.376C714.15 40.8693 714.64 41.9147 715.622 42.512C716.646 43.0667 718.032 43.344 719.782 43.344ZM719.014 15.44C721.83 15.44 724.176 15.76 726.054 16.4C727.931 17.04 729.424 17.9573 730.534 19.152C731.686 20.3467 732.496 21.7973 732.966 23.504C733.435 25.2107 733.67 27.1093 733.67 29.2V49.04C732.304 49.3387 730.406 49.68 727.974 50.064C725.542 50.4907 722.598 50.704 719.142 50.704C716.966 50.704 714.982 50.512 713.19 50.128C711.44 49.744 709.926 49.1253 708.646 48.272C707.366 47.376 706.384 46.224 705.702 44.816C705.019 43.408 704.678 41.68 704.678 39.632C704.678 37.6693 705.062 36.0053 705.83 34.64C706.64 33.2747 707.707 32.1867 709.03 31.376C710.352 30.5653 711.867 29.9893 713.574 29.648C715.28 29.264 717.051 29.072 718.885 29.072C720.123 29.072 721.211 29.136 722.15 29.264C723.131 29.3493 723.92 29.4773 724.518 29.648V28.752C724.518 27.1307 724.027 25.8293 723.046 24.848C722.064 23.8667 720.358 23.376 717.926 23.376C716.304 23.376 714.704 23.504 713.126 23.76C711.547 23.9733 710.182 24.2933 709.03 24.72L707.814 17.04C708.368 16.8693 709.051 16.6987 709.862 16.528C710.715 16.3147 711.632 16.144 712.614 16.016C713.595 15.8453 714.619 15.7173 715.686 15.632C716.795 15.504 717.904 15.44 719.014 15.44ZM776.164 32.144C776.164 29.072 775.758 26.896 774.948 25.616C774.18 24.336 772.836 23.696 770.916 23.696C770.318 23.696 769.7 23.7387 769.06 23.824C768.42 23.8667 767.801 23.9307 767.204 24.016V50H757.668V17.488C758.478 17.2747 759.417 17.0613 760.484 16.848C761.593 16.592 762.745 16.3787 763.94 16.208C765.177 15.9947 766.436 15.8453 767.716 15.76C768.996 15.632 770.254 15.568 771.492 15.568C773.924 15.568 775.886 15.888 777.38 16.528C778.916 17.1253 780.174 17.8507 781.156 18.704C782.521 17.7227 784.078 16.9547 785.828 16.4C787.62 15.8453 789.262 15.568 790.756 15.568C793.444 15.568 795.641 15.952 797.348 16.72C799.097 17.4453 800.484 18.4907 801.508 19.856C802.532 21.2213 803.236 22.8427 803.62 24.72C804.004 26.5973 804.196 28.688 804.196 30.992V50H794.66V32.144C794.66 29.072 794.254 26.896 793.444 25.616C792.676 24.336 791.332 23.696 789.412 23.696C788.9 23.696 788.174 23.824 787.236 24.08C786.34 24.336 785.593 24.656 784.996 25.04C785.294 26.0213 785.486 27.0667 785.572 28.176C785.657 29.2427 785.7 30.3947 785.7 31.632V50H776.164V32.144ZM825.719 43.344C826.658 43.344 827.554 43.3227 828.407 43.28C829.26 43.2373 829.943 43.1733 830.455 43.088V35.856C830.071 35.7707 829.495 35.6853 828.727 35.6C827.959 35.5147 827.255 35.472 826.615 35.472C825.719 35.472 824.866 35.536 824.055 35.664C823.287 35.7493 822.604 35.9413 822.007 36.24C821.41 36.5387 820.94 36.944 820.599 37.456C820.258 37.968 820.087 38.608 820.087 39.376C820.087 40.8693 820.578 41.9147 821.559 42.512C822.583 43.0667 823.97 43.344 825.719 43.344ZM824.951 15.44C827.767 15.44 830.114 15.76 831.991 16.4C833.868 17.04 835.362 17.9573 836.471 19.152C837.623 20.3467 838.434 21.7973 838.903 23.504C839.372 25.2107 839.607 27.1093 839.607 29.2V49.04C838.242 49.3387 836.343 49.68 833.911 50.064C831.479 50.4907 828.535 50.704 825.079 50.704C822.903 50.704 820.919 50.512 819.127 50.128C817.378 49.744 815.863 49.1253 814.583 48.272C813.303 47.376 812.322 46.224 811.639 44.816C810.956 43.408 810.615 41.68 810.615 39.632C810.615 37.6693 810.999 36.0053 811.767 34.64C812.578 33.2747 813.644 32.1867 814.967 31.376C816.29 30.5653 817.804 29.9893 819.511 29.648C821.218 29.264 822.988 29.072 824.823 29.072C826.06 29.072 827.148 29.136 828.087 29.264C829.068 29.3493 829.858 29.4773 830.455 29.648V28.752C830.455 27.1307 829.964 25.8293 828.983 24.848C828.002 23.8667 826.295 23.376 823.863 23.376C822.242 23.376 820.642 23.504 819.063 23.76C817.484 23.9733 816.119 24.2933 814.967 24.72L813.751 17.04C814.306 16.8693 814.988 16.6987 815.799 16.528C816.652 16.3147 817.57 16.144 818.551 16.016C819.532 15.8453 820.556 15.7173 821.623 15.632C822.732 15.504 823.842 15.44 824.951 15.44ZM857.766 50H848.23V16.336H857.766V50ZM858.662 6.608C858.662 8.35733 858.086 9.744 856.934 10.768C855.825 11.7493 854.502 12.24 852.966 12.24C851.43 12.24 850.086 11.7493 848.934 10.768C847.825 9.744 847.27 8.35733 847.27 6.608C847.27 4.85866 847.825 3.49333 848.934 2.512C850.086 1.488 851.43 0.975998 852.966 0.975998C854.502 0.975998 855.825 1.488 856.934 2.512C858.086 3.49333 858.662 4.85866 858.662 6.608ZM876.394 43.152C878.143 43.152 879.381 42.9813 880.106 42.64C880.831 42.2987 881.194 41.6373 881.194 40.656C881.194 39.888 880.725 39.2267 879.786 38.672C878.847 38.0747 877.418 37.4133 875.498 36.688C874.005 36.1333 872.639 35.5573 871.402 34.96C870.207 34.3627 869.183 33.6587 868.33 32.848C867.477 31.9947 866.815 30.992 866.346 29.84C865.877 28.688 865.642 27.3013 865.642 25.68C865.642 22.5227 866.815 20.0267 869.162 18.192C871.509 16.3573 874.73 15.44 878.826 15.44C880.874 15.44 882.837 15.632 884.714 16.016C886.591 16.3573 888.085 16.7413 889.194 17.168L887.53 24.592C886.421 24.208 885.205 23.8667 883.882 23.568C882.602 23.2693 881.151 23.12 879.53 23.12C876.543 23.12 875.05 23.952 875.05 25.616C875.05 26 875.114 26.3413 875.242 26.64C875.37 26.9387 875.626 27.2373 876.01 27.536C876.394 27.792 876.906 28.0907 877.546 28.432C878.229 28.7307 879.082 29.072 880.106 29.456C882.197 30.224 883.925 30.992 885.29 31.76C886.655 32.4853 887.722 33.296 888.49 34.192C889.301 35.0453 889.855 36.0053 890.154 37.072C890.495 38.1387 890.666 39.376 890.666 40.784C890.666 44.112 889.407 46.6293 886.89 48.336C884.415 50.0427 880.895 50.896 876.33 50.896C873.343 50.896 870.847 50.64 868.842 50.128C866.879 49.616 865.514 49.1893 864.746 48.848L866.346 41.104C867.967 41.744 869.631 42.256 871.338 42.64C873.045 42.9813 874.73 43.152 876.394 43.152ZM44.88 110.168C44.88 107.736 45.264 105.453 46.032 103.32C46.8427 101.144 47.9947 99.2667 49.488 97.688C50.9813 96.0667 52.7947 94.7867 54.928 93.848C57.0613 92.9093 59.4933 92.44 62.224 92.44C64.016 92.44 65.6587 92.6107 67.152 92.952C68.6453 93.2507 70.096 93.6987 71.504 94.296L69.52 101.912C68.624 101.571 67.6427 101.272 66.576 101.016C65.5093 100.76 64.3147 100.632 62.992 100.632C60.176 100.632 58.064 101.507 56.656 103.256C55.2907 105.005 54.608 107.309 54.608 110.168C54.608 113.197 55.248 115.544 56.528 117.208C57.8507 118.872 60.1333 119.704 63.376 119.704C64.528 119.704 65.7653 119.597 67.088 119.384C68.4107 119.171 69.6267 118.829 70.736 118.36L72.08 126.168C70.9707 126.637 69.584 127.043 67.92 127.384C66.256 127.725 64.4213 127.896 62.416 127.896C59.344 127.896 56.6987 127.448 54.48 126.552C52.2613 125.613 50.4267 124.355 48.976 122.776C47.568 121.197 46.5227 119.341 45.84 117.208C45.2 115.032 44.88 112.685 44.88 110.168ZM91.92 127.64C89.1467 127.597 86.8853 127.299 85.136 126.744C83.4293 126.189 82.064 125.421 81.04 124.44C80.0587 123.416 79.376 122.2 78.992 120.792C78.6507 119.341 78.48 117.72 78.48 115.928V78.872L88.016 77.336V114.008C88.016 114.861 88.08 115.629 88.208 116.312C88.336 116.995 88.5707 117.571 88.912 118.04C89.296 118.509 89.8293 118.893 90.512 119.192C91.1947 119.491 92.112 119.683 93.264 119.768L91.92 127.64ZM108.266 127H98.73V93.336H108.266V127ZM109.162 83.608C109.162 85.3573 108.586 86.744 107.434 87.768C106.325 88.7493 105.002 89.24 103.466 89.24C101.93 89.24 100.586 88.7493 99.434 87.768C98.3247 86.744 97.77 85.3573 97.77 83.608C97.77 81.8587 98.3247 80.4933 99.434 79.512C100.586 78.488 101.93 77.976 103.466 77.976C105.002 77.976 106.325 78.488 107.434 79.512C108.586 80.4933 109.162 81.8587 109.162 83.608ZM115.63 110.424C115.63 107.437 116.078 104.835 116.974 102.616C117.913 100.355 119.129 98.4773 120.622 96.984C122.115 95.4907 123.822 94.36 125.742 93.592C127.705 92.824 129.71 92.44 131.758 92.44C136.537 92.44 140.313 93.912 143.086 96.856C145.859 99.7573 147.246 104.045 147.246 109.72C147.246 110.275 147.225 110.893 147.182 111.576C147.139 112.216 147.097 112.792 147.054 113.304H125.422C125.635 115.267 126.553 116.824 128.174 117.976C129.795 119.128 131.971 119.704 134.702 119.704C136.451 119.704 138.158 119.555 139.822 119.256C141.529 118.915 142.915 118.509 143.982 118.04L145.262 125.784C144.75 126.04 144.067 126.296 143.214 126.552C142.361 126.808 141.401 127.021 140.334 127.192C139.31 127.405 138.201 127.576 137.006 127.704C135.811 127.832 134.617 127.896 133.422 127.896C130.393 127.896 127.747 127.448 125.486 126.552C123.267 125.656 121.411 124.44 119.918 122.904C118.467 121.325 117.379 119.469 116.654 117.336C115.971 115.203 115.63 112.899 115.63 110.424ZM138.03 106.776C137.987 105.965 137.838 105.176 137.582 104.408C137.369 103.64 137.006 102.957 136.494 102.36C136.025 101.763 135.406 101.272 134.638 100.888C133.913 100.504 132.995 100.312 131.886 100.312C130.819 100.312 129.902 100.504 129.134 100.888C128.366 101.229 127.726 101.699 127.214 102.296C126.702 102.893 126.297 103.597 125.998 104.408C125.742 105.176 125.55 105.965 125.422 106.776H138.03ZM154.605 94.488C156.226 94.0187 158.317 93.592 160.877 93.208C163.437 92.7813 166.125 92.568 168.941 92.568C171.8 92.568 174.168 92.952 176.045 93.72C177.965 94.4453 179.48 95.4907 180.589 96.856C181.698 98.2213 182.488 99.8427 182.957 101.72C183.426 103.597 183.661 105.688 183.661 107.992V127H174.125V109.144C174.125 106.072 173.72 103.896 172.909 102.616C172.098 101.336 170.584 100.696 168.365 100.696C167.682 100.696 166.957 100.739 166.189 100.824C165.421 100.867 164.738 100.931 164.141 101.016V127H154.605V94.488ZM191.973 84.952L201.509 83.416V93.336H212.965V101.272H201.509V113.112C201.509 115.117 201.85 116.717 202.533 117.912C203.258 119.107 204.687 119.704 206.821 119.704C207.845 119.704 208.89 119.619 209.957 119.448C211.066 119.235 212.069 118.957 212.965 118.616L214.309 126.04C213.157 126.509 211.877 126.915 210.469 127.256C209.061 127.597 207.333 127.768 205.285 127.768C202.682 127.768 200.527 127.427 198.821 126.744C197.114 126.019 195.749 125.037 194.725 123.8C193.701 122.52 192.975 120.984 192.549 119.192C192.165 117.4 191.973 115.416 191.973 113.24V84.952ZM217.88 110.424C217.88 107.437 218.328 104.835 219.224 102.616C220.163 100.355 221.379 98.4773 222.872 96.984C224.365 95.4907 226.072 94.36 227.992 93.592C229.955 92.824 231.96 92.44 234.008 92.44C238.787 92.44 242.563 93.912 245.336 96.856C248.109 99.7573 249.496 104.045 249.496 109.72C249.496 110.275 249.475 110.893 249.432 111.576C249.389 112.216 249.347 112.792 249.304 113.304H227.672C227.885 115.267 228.803 116.824 230.424 117.976C232.045 119.128 234.221 119.704 236.952 119.704C238.701 119.704 240.408 119.555 242.072 119.256C243.779 118.915 245.165 118.509 246.232 118.04L247.512 125.784C247 126.04 246.317 126.296 245.464 126.552C244.611 126.808 243.651 127.021 242.584 127.192C241.56 127.405 240.451 127.576 239.256 127.704C238.061 127.832 236.867 127.896 235.672 127.896C232.643 127.896 229.997 127.448 227.736 126.552C225.517 125.656 223.661 124.44 222.168 122.904C220.717 121.325 219.629 119.469 218.904 117.336C218.221 115.203 217.88 112.899 217.88 110.424ZM240.28 106.776C240.237 105.965 240.088 105.176 239.832 104.408C239.619 103.64 239.256 102.957 238.744 102.36C238.275 101.763 237.656 101.272 236.888 100.888C236.163 100.504 235.245 100.312 234.136 100.312C233.069 100.312 232.152 100.504 231.384 100.888C230.616 101.229 229.976 101.699 229.464 102.296C228.952 102.893 228.547 103.597 228.248 104.408C227.992 105.176 227.8 105.965 227.672 106.776H240.28ZM266.519 120.152C268.268 120.152 269.506 119.981 270.231 119.64C270.956 119.299 271.319 118.637 271.319 117.656C271.319 116.888 270.85 116.227 269.911 115.672C268.972 115.075 267.543 114.413 265.623 113.688C264.13 113.133 262.764 112.557 261.527 111.96C260.332 111.363 259.308 110.659 258.455 109.848C257.602 108.995 256.94 107.992 256.471 106.84C256.002 105.688 255.767 104.301 255.767 102.68C255.767 99.5227 256.94 97.0267 259.287 95.192C261.634 93.3573 264.855 92.44 268.951 92.44C270.999 92.44 272.962 92.632 274.839 93.016C276.716 93.3573 278.21 93.7413 279.319 94.168L277.655 101.592C276.546 101.208 275.33 100.867 274.007 100.568C272.727 100.269 271.276 100.12 269.655 100.12C266.668 100.12 265.175 100.952 265.175 102.616C265.175 103 265.239 103.341 265.367 103.64C265.495 103.939 265.751 104.237 266.135 104.536C266.519 104.792 267.031 105.091 267.671 105.432C268.354 105.731 269.207 106.072 270.231 106.456C272.322 107.224 274.05 107.992 275.415 108.76C276.78 109.485 277.847 110.296 278.615 111.192C279.426 112.045 279.98 113.005 280.279 114.072C280.62 115.139 280.791 116.376 280.791 117.784C280.791 121.112 279.532 123.629 277.015 125.336C274.54 127.043 271.02 127.896 266.455 127.896C263.468 127.896 260.972 127.64 258.967 127.128C257.004 126.616 255.639 126.189 254.871 125.848L256.471 118.104C258.092 118.744 259.756 119.256 261.463 119.64C263.17 119.981 264.855 120.152 266.519 120.152ZM324.861 110.424C324.861 107.48 324.199 105.133 322.877 103.384C321.554 101.592 319.591 100.696 316.989 100.696C316.135 100.696 315.346 100.739 314.621 100.824C313.895 100.867 313.298 100.931 312.829 101.016V118.232C313.426 118.616 314.194 118.936 315.133 119.192C316.114 119.448 317.095 119.576 318.077 119.576C322.599 119.576 324.861 116.525 324.861 110.424ZM334.589 110.168C334.589 112.771 334.269 115.139 333.629 117.272C332.989 119.405 332.05 121.24 330.812 122.776C329.575 124.312 328.039 125.507 326.205 126.36C324.37 127.213 322.258 127.64 319.869 127.64C318.546 127.64 317.309 127.512 316.157 127.256C315.005 127 313.895 126.637 312.829 126.168V138.84H303.293V94.488C304.146 94.232 305.127 93.9973 306.237 93.784C307.346 93.528 308.498 93.3147 309.693 93.144C310.93 92.9733 312.167 92.8453 313.405 92.76C314.685 92.632 315.901 92.568 317.053 92.568C319.826 92.568 322.301 92.9947 324.477 93.848C326.653 94.6587 328.487 95.832 329.981 97.368C331.474 98.8613 332.605 100.696 333.373 102.872C334.183 105.048 334.589 107.48 334.589 110.168ZM354.782 120.344C355.72 120.344 356.616 120.323 357.47 120.28C358.323 120.237 359.006 120.173 359.518 120.088V112.856C359.134 112.771 358.558 112.685 357.79 112.6C357.022 112.515 356.318 112.472 355.678 112.472C354.782 112.472 353.928 112.536 353.118 112.664C352.35 112.749 351.667 112.941 351.07 113.24C350.472 113.539 350.003 113.944 349.662 114.456C349.32 114.968 349.15 115.608 349.15 116.376C349.15 117.869 349.64 118.915 350.622 119.512C351.646 120.067 353.032 120.344 354.782 120.344ZM354.014 92.44C356.83 92.44 359.176 92.76 361.054 93.4C362.931 94.04 364.424 94.9573 365.534 96.152C366.686 97.3467 367.496 98.7973 367.966 100.504C368.435 102.211 368.67 104.109 368.67 106.2V126.04C367.304 126.339 365.406 126.68 362.974 127.064C360.542 127.491 357.598 127.704 354.142 127.704C351.966 127.704 349.982 127.512 348.19 127.128C346.44 126.744 344.926 126.125 343.646 125.272C342.366 124.376 341.384 123.224 340.702 121.816C340.019 120.408 339.678 118.68 339.678 116.632C339.678 114.669 340.062 113.005 340.83 111.64C341.64 110.275 342.707 109.187 344.03 108.376C345.352 107.565 346.867 106.989 348.574 106.648C350.28 106.264 352.051 106.072 353.885 106.072C355.123 106.072 356.211 106.136 357.15 106.264C358.131 106.349 358.92 106.477 359.518 106.648V105.752C359.518 104.131 359.027 102.829 358.046 101.848C357.064 100.867 355.358 100.376 352.926 100.376C351.304 100.376 349.704 100.504 348.126 100.76C346.547 100.973 345.182 101.293 344.03 101.72L342.814 94.04C343.368 93.8693 344.051 93.6987 344.862 93.528C345.715 93.3147 346.632 93.144 347.614 93.016C348.595 92.8453 349.619 92.7173 350.686 92.632C351.795 92.504 352.904 92.44 354.014 92.44ZM397.581 101.784C396.727 101.571 395.725 101.357 394.573 101.144C393.421 100.888 392.183 100.76 390.861 100.76C390.263 100.76 389.538 100.824 388.685 100.952C387.874 101.037 387.255 101.144 386.829 101.272V127H377.293V95.128C378.999 94.5307 381.005 93.976 383.309 93.464C385.655 92.9093 388.258 92.632 391.117 92.632C391.629 92.632 392.247 92.6747 392.973 92.76C393.698 92.8027 394.423 92.888 395.149 93.016C395.874 93.1013 396.599 93.2293 397.325 93.4C398.05 93.528 398.669 93.6987 399.181 93.912L397.581 101.784ZM416.532 120.344C417.47 120.344 418.366 120.323 419.22 120.28C420.073 120.237 420.756 120.173 421.268 120.088V112.856C420.884 112.771 420.308 112.685 419.54 112.6C418.772 112.515 418.068 112.472 417.428 112.472C416.532 112.472 415.678 112.536 414.868 112.664C414.1 112.749 413.417 112.941 412.82 113.24C412.222 113.539 411.753 113.944 411.412 114.456C411.07 114.968 410.9 115.608 410.9 116.376C410.9 117.869 411.39 118.915 412.372 119.512C413.396 120.067 414.782 120.344 416.532 120.344ZM415.764 92.44C418.58 92.44 420.926 92.76 422.804 93.4C424.681 94.04 426.174 94.9573 427.284 96.152C428.436 97.3467 429.246 98.7973 429.716 100.504C430.185 102.211 430.42 104.109 430.42 106.2V126.04C429.054 126.339 427.156 126.68 424.724 127.064C422.292 127.491 419.348 127.704 415.892 127.704C413.716 127.704 411.732 127.512 409.94 127.128C408.19 126.744 406.676 126.125 405.396 125.272C404.116 124.376 403.134 123.224 402.452 121.816C401.769 120.408 401.428 118.68 401.428 116.632C401.428 114.669 401.812 113.005 402.58 111.64C403.39 110.275 404.457 109.187 405.78 108.376C407.102 107.565 408.617 106.989 410.324 106.648C412.03 106.264 413.801 106.072 415.635 106.072C416.873 106.072 417.961 106.136 418.9 106.264C419.881 106.349 420.67 106.477 421.268 106.648V105.752C421.268 104.131 420.777 102.829 419.796 101.848C418.814 100.867 417.108 100.376 414.676 100.376C413.054 100.376 411.454 100.504 409.876 100.76C408.297 100.973 406.932 101.293 405.78 101.72L404.564 94.04C405.118 93.8693 405.801 93.6987 406.612 93.528C407.465 93.3147 408.382 93.144 409.364 93.016C410.345 92.8453 411.369 92.7173 412.436 92.632C413.545 92.504 414.654 92.44 415.764 92.44ZM485.906 110.104C485.906 112.749 485.522 115.181 484.754 117.4C483.986 119.576 482.876 121.453 481.426 123.032C479.975 124.568 478.226 125.763 476.178 126.616C474.172 127.469 471.911 127.896 469.394 127.896C466.919 127.896 464.658 127.469 462.61 126.616C460.604 125.763 458.876 124.568 457.426 123.032C455.975 121.453 454.844 119.576 454.034 117.4C453.223 115.181 452.818 112.749 452.818 110.104C452.818 107.459 453.223 105.048 454.034 102.872C454.887 100.696 456.039 98.84 457.49 97.304C458.983 95.768 460.732 94.5733 462.738 93.72C464.786 92.8667 467.004 92.44 469.394 92.44C471.826 92.44 474.044 92.8667 476.05 93.72C478.098 94.5733 479.847 95.768 481.298 97.304C482.748 98.84 483.879 100.696 484.69 102.872C485.5 105.048 485.906 107.459 485.906 110.104ZM476.178 110.104C476.178 107.16 475.58 104.856 474.386 103.192C473.234 101.485 471.57 100.632 469.394 100.632C467.218 100.632 465.532 101.485 464.338 103.192C463.143 104.856 462.546 107.16 462.546 110.104C462.546 113.048 463.143 115.395 464.338 117.144C465.532 118.851 467.218 119.704 469.394 119.704C471.57 119.704 473.234 118.851 474.386 117.144C475.58 115.395 476.178 113.048 476.178 110.104ZM518.332 120.152C520.081 120.152 521.318 119.981 522.044 119.64C522.769 119.299 523.132 118.637 523.132 117.656C523.132 116.888 522.662 116.227 521.724 115.672C520.785 115.075 519.356 114.413 517.436 113.688C515.942 113.133 514.577 112.557 513.34 111.96C512.145 111.363 511.121 110.659 510.268 109.848C509.414 108.995 508.753 107.992 508.284 106.84C507.814 105.688 507.58 104.301 507.58 102.68C507.58 99.5227 508.753 97.0267 511.1 95.192C513.446 93.3573 516.668 92.44 520.764 92.44C522.812 92.44 524.774 92.632 526.652 93.016C528.529 93.3573 530.022 93.7413 531.132 94.168L529.468 101.592C528.358 101.208 527.142 100.867 525.82 100.568C524.54 100.269 523.089 100.12 521.468 100.12C518.481 100.12 516.988 100.952 516.988 102.616C516.988 103 517.052 103.341 517.18 103.64C517.308 103.939 517.564 104.237 517.948 104.536C518.332 104.792 518.844 105.091 519.484 105.432C520.166 105.731 521.02 106.072 522.044 106.456C524.134 107.224 525.862 107.992 527.228 108.76C528.593 109.485 529.66 110.296 530.428 111.192C531.238 112.045 531.793 113.005 532.092 114.072C532.433 115.139 532.604 116.376 532.604 117.784C532.604 121.112 531.345 123.629 528.828 125.336C526.353 127.043 522.833 127.896 518.268 127.896C515.281 127.896 512.785 127.64 510.78 127.128C508.817 126.616 507.452 126.189 506.684 125.848L508.284 118.104C509.905 118.744 511.569 119.256 513.276 119.64C514.982 119.981 516.668 120.152 518.332 120.152ZM538.13 110.424C538.13 107.437 538.578 104.835 539.474 102.616C540.413 100.355 541.629 98.4773 543.122 96.984C544.615 95.4907 546.322 94.36 548.242 93.592C550.205 92.824 552.21 92.44 554.258 92.44C559.037 92.44 562.813 93.912 565.586 96.856C568.359 99.7573 569.746 104.045 569.746 109.72C569.746 110.275 569.725 110.893 569.682 111.576C569.639 112.216 569.597 112.792 569.554 113.304H547.922C548.135 115.267 549.053 116.824 550.674 117.976C552.295 119.128 554.471 119.704 557.202 119.704C558.951 119.704 560.658 119.555 562.322 119.256C564.029 118.915 565.415 118.509 566.482 118.04L567.762 125.784C567.25 126.04 566.567 126.296 565.714 126.552C564.861 126.808 563.901 127.021 562.834 127.192C561.81 127.405 560.701 127.576 559.506 127.704C558.311 127.832 557.117 127.896 555.922 127.896C552.893 127.896 550.247 127.448 547.986 126.552C545.767 125.656 543.911 124.44 542.418 122.904C540.967 121.325 539.879 119.469 539.154 117.336C538.471 115.203 538.13 112.899 538.13 110.424ZM560.53 106.776C560.487 105.965 560.338 105.176 560.082 104.408C559.869 103.64 559.506 102.957 558.994 102.36C558.525 101.763 557.906 101.272 557.138 100.888C556.413 100.504 555.495 100.312 554.386 100.312C553.319 100.312 552.402 100.504 551.634 100.888C550.866 101.229 550.226 101.699 549.714 102.296C549.202 102.893 548.797 103.597 548.498 104.408C548.242 105.176 548.05 105.965 547.922 106.776H560.53ZM605.841 125.848C604.22 126.317 602.129 126.744 599.569 127.128C597.009 127.555 594.321 127.768 591.505 127.768C588.646 127.768 586.257 127.384 584.337 126.616C582.46 125.848 580.966 124.781 579.857 123.416C578.748 122.008 577.958 120.344 577.489 118.424C577.02 116.504 576.785 114.392 576.785 112.088V93.336H586.321V110.936C586.321 114.008 586.726 116.227 587.537 117.592C588.348 118.957 589.862 119.64 592.081 119.64C592.764 119.64 593.489 119.619 594.257 119.576C595.025 119.491 595.708 119.405 596.305 119.32V93.336H605.841V125.848ZM630.168 94.488C631.789 94.0187 633.88 93.592 636.44 93.208C639 92.7813 641.688 92.568 644.503 92.568C647.362 92.568 649.73 92.952 651.608 93.72C653.528 94.4453 655.042 95.4907 656.152 96.856C657.261 98.2213 658.05 99.8427 658.52 101.72C658.989 103.597 659.224 105.688 659.224 107.992V127H649.688V109.144C649.688 106.072 649.282 103.896 648.472 102.616C647.661 101.336 646.146 100.696 643.928 100.696C643.245 100.696 642.52 100.739 641.752 100.824C640.984 100.867 640.301 100.931 639.704 101.016V127H630.168V94.488ZM666.255 110.424C666.255 107.437 666.703 104.835 667.599 102.616C668.538 100.355 669.754 98.4773 671.247 96.984C672.74 95.4907 674.447 94.36 676.367 93.592C678.33 92.824 680.335 92.44 682.383 92.44C687.162 92.44 690.938 93.912 693.711 96.856C696.484 99.7573 697.871 104.045 697.871 109.72C697.871 110.275 697.85 110.893 697.807 111.576C697.764 112.216 697.722 112.792 697.679 113.304H676.047C676.26 115.267 677.178 116.824 678.799 117.976C680.42 119.128 682.596 119.704 685.327 119.704C687.076 119.704 688.783 119.555 690.447 119.256C692.154 118.915 693.54 118.509 694.607 118.04L695.887 125.784C695.375 126.04 694.692 126.296 693.839 126.552C692.986 126.808 692.026 127.021 690.959 127.192C689.935 127.405 688.826 127.576 687.631 127.704C686.436 127.832 685.242 127.896 684.047 127.896C681.018 127.896 678.372 127.448 676.111 126.552C673.892 125.656 672.036 124.44 670.543 122.904C669.092 121.325 668.004 119.469 667.279 117.336C666.596 115.203 666.255 112.899 666.255 110.424ZM688.655 106.776C688.612 105.965 688.463 105.176 688.207 104.408C687.994 103.64 687.631 102.957 687.119 102.36C686.65 101.763 686.031 101.272 685.263 100.888C684.538 100.504 683.62 100.312 682.511 100.312C681.444 100.312 680.527 100.504 679.759 100.888C678.991 101.229 678.351 101.699 677.839 102.296C677.327 102.893 676.922 103.597 676.623 104.408C676.367 105.176 676.175 105.965 676.047 106.776H688.655ZM713.358 109.08C713.358 114.413 715.513 117.08 719.822 117.08C720.803 117.08 721.721 116.952 722.574 116.696C723.427 116.44 724.153 116.141 724.75 115.8V100.568C724.281 100.483 723.726 100.419 723.086 100.376C722.446 100.291 721.699 100.248 720.846 100.248C718.329 100.248 716.451 101.08 715.214 102.744C713.977 104.408 713.358 106.52 713.358 109.08ZM734.286 122.776C734.286 128.28 732.878 132.355 730.062 135C727.289 137.688 722.979 139.032 717.134 139.032C715.086 139.032 713.038 138.84 710.99 138.456C708.942 138.115 707.043 137.645 705.294 137.048L706.958 129.048C708.451 129.645 710.009 130.115 711.63 130.456C713.294 130.797 715.171 130.968 717.262 130.968C719.993 130.968 721.913 130.371 723.022 129.176C724.174 127.981 724.75 126.445 724.75 124.568V123.352C723.726 123.821 722.659 124.184 721.55 124.44C720.483 124.653 719.31 124.76 718.03 124.76C713.379 124.76 709.817 123.395 707.342 120.664C704.867 117.891 703.63 114.029 703.63 109.08C703.63 106.605 704.014 104.365 704.782 102.36C705.55 100.312 706.659 98.5627 708.11 97.112C709.603 95.6613 711.417 94.552 713.55 93.784C715.683 92.9733 718.094 92.568 720.782 92.568C721.934 92.568 723.107 92.632 724.302 92.76C725.539 92.8453 726.755 92.9733 727.95 93.144C729.145 93.3147 730.275 93.528 731.342 93.784C732.451 93.9973 733.433 94.232 734.286 94.488V122.776ZM774.718 110.104C774.718 112.749 774.334 115.181 773.566 117.4C772.798 119.576 771.689 121.453 770.238 123.032C768.787 124.568 767.038 125.763 764.99 126.616C762.985 127.469 760.723 127.896 758.206 127.896C755.731 127.896 753.47 127.469 751.422 126.616C749.417 125.763 747.689 124.568 746.238 123.032C744.787 121.453 743.657 119.576 742.846 117.4C742.035 115.181 741.63 112.749 741.63 110.104C741.63 107.459 742.035 105.048 742.846 102.872C743.699 100.696 744.851 98.84 746.302 97.304C747.795 95.768 749.545 94.5733 751.55 93.72C753.598 92.8667 755.817 92.44 758.206 92.44C760.638 92.44 762.857 92.8667 764.862 93.72C766.91 94.5733 768.659 95.768 770.11 97.304C771.561 98.84 772.691 100.696 773.502 102.872C774.313 105.048 774.718 107.459 774.718 110.104ZM764.99 110.104C764.99 107.16 764.393 104.856 763.198 103.192C762.046 101.485 760.382 100.632 758.206 100.632C756.03 100.632 754.345 101.485 753.15 103.192C751.955 104.856 751.358 107.16 751.358 110.104C751.358 113.048 751.955 115.395 753.15 117.144C754.345 118.851 756.03 119.704 758.206 119.704C760.382 119.704 762.046 118.851 763.198 117.144C764.393 115.395 764.99 113.048 764.99 110.104ZM766.078 81.24L755.518 90.136L751.166 86.232L760.254 75.864L766.078 81.24ZM780.505 110.168C780.505 107.736 780.889 105.453 781.657 103.32C782.468 101.144 783.62 99.2667 785.113 97.688C786.606 96.0667 788.42 94.7867 790.553 93.848C792.686 92.9093 795.118 92.44 797.849 92.44C799.641 92.44 801.284 92.6107 802.777 92.952C804.27 93.2507 805.721 93.6987 807.129 94.296L805.145 101.912C804.249 101.571 803.268 101.272 802.201 101.016C801.134 100.76 799.94 100.632 798.617 100.632C795.801 100.632 793.689 101.507 792.281 103.256C790.916 105.005 790.233 107.309 790.233 110.168C790.233 113.197 790.873 115.544 792.153 117.208C793.476 118.872 795.758 119.704 799.001 119.704C800.153 119.704 801.39 119.597 802.713 119.384C804.036 119.171 805.252 118.829 806.361 118.36L807.705 126.168C806.596 126.637 805.209 127.043 803.545 127.384C801.881 127.725 800.046 127.896 798.041 127.896C794.969 127.896 792.324 127.448 790.105 126.552C787.886 125.613 786.052 124.355 784.601 122.776C783.193 121.197 782.148 119.341 781.465 117.208C780.825 115.032 780.505 112.685 780.505 110.168ZM823.641 127H814.105V93.336H823.641V127ZM824.537 83.608C824.537 85.3573 823.961 86.744 822.809 87.768C821.7 88.7493 820.377 89.24 818.841 89.24C817.305 89.24 815.961 88.7493 814.809 87.768C813.7 86.744 813.145 85.3573 813.145 83.608C813.145 81.8587 813.7 80.4933 814.809 79.512C815.961 78.488 817.305 77.976 818.841 77.976C820.377 77.976 821.7 78.488 822.809 79.512C823.961 80.4933 824.537 81.8587 824.537 83.608ZM864.093 110.104C864.093 112.749 863.709 115.181 862.941 117.4C862.173 119.576 861.064 121.453 859.613 123.032C858.162 124.568 856.413 125.763 854.365 126.616C852.36 127.469 850.098 127.896 847.581 127.896C845.106 127.896 842.845 127.469 840.797 126.616C838.792 125.763 837.064 124.568 835.613 123.032C834.162 121.453 833.032 119.576 832.221 117.4C831.41 115.181 831.005 112.749 831.005 110.104C831.005 107.459 831.41 105.048 832.221 102.872C833.074 100.696 834.226 98.84 835.677 97.304C837.17 95.768 838.92 94.5733 840.925 93.72C842.973 92.8667 845.192 92.44 847.581 92.44C850.013 92.44 852.232 92.8667 854.237 93.72C856.285 94.5733 858.034 95.768 859.485 97.304C860.936 98.84 862.066 100.696 862.877 102.872C863.688 105.048 864.093 107.459 864.093 110.104ZM854.365 110.104C854.365 107.16 853.768 104.856 852.573 103.192C851.421 101.485 849.757 100.632 847.581 100.632C845.405 100.632 843.72 101.485 842.525 103.192C841.33 104.856 840.733 107.16 840.733 110.104C840.733 113.048 841.33 115.395 842.525 117.144C843.72 118.851 845.405 119.704 847.581 119.704C849.757 119.704 851.421 118.851 852.573 117.144C853.768 115.395 854.365 113.048 854.365 110.104Z" fill="url(#paint0_linear_99_41)"/>
<defs>
<linearGradient id="paint0_linear_99_41" x1="0" y1="65" x2="909" y2="65" gradientUnits="userSpaceOnUse">
<stop stop-color="#FAFAFA"/>
<stop offset="0.35" stop-color="#728842"/>
<stop offset="1" stop-color="white"/>
</linearGradient>
</defs>
</svg>
