<svg width="284" height="224" viewBox="0 0 284 224" fill="none" xmlns="http://www.w3.org/2000/svg">
<path d="M23.2208 33V30.528C23.2208 29.888 23.3088 29.336 23.4848 28.872C23.6768 28.392 23.9968 27.96 24.4448 27.576C24.9088 27.192 25.5408 26.808 26.3408 26.424L29.9408 24.744C30.7888 24.344 31.4768 23.808 32.0048 23.136C32.5488 22.464 32.8208 21.592 32.8208 20.52C32.8208 19.16 32.4368 18.096 31.6688 17.328C30.9008 16.56 29.8688 16.176 28.5728 16.176C27.2928 16.176 26.2608 16.56 25.4768 17.328C24.7088 18.096 24.3248 19.16 24.3248 20.52H23.0528C23.0528 19.464 23.2688 18.52 23.7008 17.688C24.1488 16.856 24.7808 16.208 25.5968 15.744C26.4288 15.264 27.4208 15.024 28.5728 15.024C29.7408 15.024 30.7328 15.264 31.5488 15.744C32.3648 16.208 32.9808 16.84 33.3968 17.64C33.8288 18.44 34.0448 19.352 34.0448 20.376V20.664C34.0448 21.896 33.6928 22.928 32.9888 23.76C32.3008 24.592 31.4208 25.256 30.3488 25.752L26.7488 27.456C25.8528 27.888 25.2528 28.32 24.9488 28.752C24.6448 29.184 24.4928 29.736 24.4928 30.408V32.496L24.0848 31.872H34.4048V33H23.2208ZM43.5634 26.88V25.776H51.4594V26.88H43.5634ZM69.4902 33.408C67.9702 33.408 66.6582 33.136 65.5542 32.592C64.4502 32.032 63.5462 31.312 62.8422 30.432C62.1542 29.536 61.6422 28.56 61.3062 27.504C60.9702 26.432 60.8022 25.392 60.8022 24.384V24.024C60.8022 22.936 60.9702 21.864 61.3062 20.808C61.6582 19.736 62.1782 18.768 62.8662 17.904C63.5702 17.024 64.4582 16.328 65.5302 15.816C66.6022 15.288 67.8662 15.024 69.3222 15.024C70.7462 15.024 71.9942 15.288 73.0662 15.816C74.1542 16.328 75.0262 17.056 75.6822 18C76.3382 18.928 76.7382 20.016 76.8822 21.264H75.5622C75.4182 20.176 75.0582 19.256 74.4822 18.504C73.9062 17.752 73.1702 17.184 72.2742 16.8C71.3942 16.416 70.4102 16.224 69.3222 16.224C68.1382 16.224 67.0982 16.44 66.2022 16.872C65.3062 17.288 64.5542 17.872 63.9462 18.624C63.3382 19.36 62.8822 20.208 62.5782 21.168C62.2742 22.128 62.1222 23.144 62.1222 24.216C62.1222 25.208 62.2742 26.184 62.5782 27.144C62.8822 28.104 63.3382 28.96 63.9462 29.712C64.5542 30.464 65.3142 31.072 66.2262 31.536C67.1542 31.984 68.2422 32.208 69.4902 32.208C71.1862 32.208 72.6102 31.776 73.7622 30.912C74.9302 30.032 75.6422 28.784 75.8982 27.168H77.2182C77.0422 28.384 76.6182 29.464 75.9462 30.408C75.2902 31.336 74.4182 32.072 73.3302 32.616C72.2422 33.144 70.9622 33.408 69.4902 33.408ZM86.2174 33.408C85.1614 33.408 84.2254 33.216 83.4094 32.832C82.5934 32.448 81.9054 31.944 81.3454 31.32C80.8014 30.696 80.3854 30 80.0974 29.232C79.8254 28.448 79.6894 27.648 79.6894 26.832V26.592C79.6894 25.76 79.8334 24.952 80.1214 24.168C80.4094 23.384 80.8334 22.68 81.3934 22.056C81.9534 21.432 82.6334 20.936 83.4334 20.568C84.2494 20.2 85.1774 20.016 86.2174 20.016C87.2414 20.016 88.1534 20.2 88.9534 20.568C89.7694 20.936 90.4574 21.432 91.0174 22.056C91.5774 22.68 92.0014 23.384 92.2894 24.168C92.5934 24.952 92.7454 25.76 92.7454 26.592V26.832C92.7454 27.648 92.6014 28.448 92.3134 29.232C92.0254 30 91.6014 30.696 91.0414 31.32C90.4974 31.944 89.8174 32.448 89.0014 32.832C88.2014 33.216 87.2734 33.408 86.2174 33.408ZM86.2174 32.232C87.3374 32.232 88.2814 31.976 89.0494 31.464C89.8334 30.952 90.4254 30.28 90.8254 29.448C91.2414 28.6 91.4494 27.688 91.4494 26.712C91.4494 25.704 91.2414 24.784 90.8254 23.952C90.4094 23.104 89.8094 22.432 89.0254 21.936C88.2574 21.424 87.3214 21.168 86.2174 21.168C85.1294 21.168 84.1854 21.424 83.3854 21.936C82.6014 22.432 82.0014 23.104 81.5854 23.952C81.1694 24.784 80.9614 25.704 80.9614 26.712C80.9614 27.688 81.1614 28.6 81.5614 29.448C81.9774 30.28 82.5774 30.952 83.3614 31.464C84.1454 31.976 85.0974 32.232 86.2174 32.232ZM96.6126 33V20.4H97.6206V25.56H97.3326C97.3326 24.456 97.5086 23.496 97.8606 22.68C98.2286 21.848 98.7646 21.208 99.4686 20.76C100.189 20.296 101.077 20.064 102.133 20.064H102.205C103.789 20.064 104.981 20.56 105.781 21.552C106.581 22.528 106.981 23.864 106.981 25.56V33H105.685V25.272C105.685 24.072 105.357 23.104 104.701 22.368C104.061 21.616 103.133 21.24 101.917 21.24C100.685 21.24 99.7006 21.624 98.9646 22.392C98.2446 23.144 97.8846 24.144 97.8846 25.392V33H96.6126ZM115.521 33.36C113.953 33.36 112.745 33 111.897 32.28C111.065 31.56 110.641 30.64 110.625 29.52H111.873C111.873 30.24 112.153 30.872 112.713 31.416C113.289 31.944 114.225 32.208 115.521 32.208C116.785 32.208 117.713 31.944 118.305 31.416C118.897 30.872 119.193 30.232 119.193 29.496C119.193 28.776 118.921 28.224 118.377 27.84C117.849 27.456 117.129 27.216 116.217 27.12L114.729 26.952C113.625 26.824 112.745 26.48 112.089 25.92C111.449 25.36 111.129 24.6 111.129 23.64C111.129 22.952 111.305 22.336 111.657 21.792C112.009 21.248 112.513 20.816 113.169 20.496C113.841 20.176 114.625 20.016 115.521 20.016C116.833 20.016 117.889 20.336 118.689 20.976C119.505 21.616 119.921 22.488 119.937 23.592H118.689C118.705 22.904 118.433 22.328 117.873 21.864C117.329 21.4 116.545 21.168 115.521 21.168C114.449 21.168 113.649 21.416 113.121 21.912C112.609 22.408 112.353 22.992 112.353 23.664C112.353 24.224 112.553 24.704 112.953 25.104C113.369 25.504 113.993 25.752 114.825 25.848L116.313 26.016C117.497 26.128 118.473 26.472 119.241 27.048C120.025 27.624 120.417 28.448 120.417 29.52C120.417 30.24 120.217 30.888 119.817 31.464C119.433 32.04 118.881 32.504 118.161 32.856C117.441 33.192 116.561 33.36 115.521 33.36ZM128.516 33.12C127.732 33.12 127.044 33.008 126.452 32.784C125.86 32.544 125.404 32.144 125.084 31.584C124.764 31.024 124.604 30.272 124.604 29.328V16.296H125.852V29.544C125.852 30.312 126.06 30.912 126.476 31.344C126.908 31.76 127.5 31.968 128.252 31.968H130.604V33.12H128.516ZM122.204 21.432V20.4H130.604V21.432H122.204ZM134.324 33V20.4H135.332V25.728H135.14C135.14 23.904 135.548 22.544 136.364 21.648C137.18 20.752 138.5 20.304 140.324 20.304H140.756V21.456H140.084C138.596 21.456 137.476 21.84 136.724 22.608C135.972 23.36 135.596 24.472 135.596 25.944V33H134.324ZM148.159 33.36C146.639 33.36 145.487 32.872 144.703 31.896C143.919 30.92 143.527 29.6 143.527 27.936V20.4H144.823V28.224C144.823 29.392 145.127 30.344 145.735 31.08C146.359 31.8 147.255 32.16 148.423 32.16C149.607 32.16 150.543 31.784 151.231 31.032C151.935 30.28 152.287 29.296 152.287 28.08V20.4H153.559V33H152.551V27.912H152.839C152.839 28.984 152.663 29.936 152.311 30.768C151.975 31.584 151.471 32.224 150.799 32.688C150.127 33.136 149.271 33.36 148.231 33.36H148.159ZM163.718 33.408C162.678 33.408 161.766 33.216 160.982 32.832C160.214 32.448 159.566 31.936 159.038 31.296C158.526 30.656 158.142 29.944 157.886 29.16C157.63 28.376 157.502 27.584 157.502 26.784V26.544C157.502 25.728 157.63 24.928 157.886 24.144C158.142 23.36 158.526 22.664 159.038 22.056C159.566 21.432 160.214 20.936 160.982 20.568C161.766 20.2 162.678 20.016 163.718 20.016C164.726 20.016 165.622 20.2 166.406 20.568C167.206 20.936 167.854 21.456 168.35 22.128C168.862 22.784 169.182 23.576 169.31 24.504H168.062C167.918 23.544 167.47 22.752 166.718 22.128C165.966 21.488 164.966 21.168 163.718 21.168C162.614 21.168 161.694 21.416 160.958 21.912C160.222 22.408 159.67 23.072 159.302 23.904C158.95 24.736 158.774 25.656 158.774 26.664C158.774 27.64 158.958 28.552 159.326 29.4C159.694 30.248 160.246 30.936 160.982 31.464C161.718 31.976 162.63 32.232 163.718 32.232C164.566 32.232 165.31 32.08 165.95 31.776C166.606 31.456 167.134 31.04 167.534 30.528C167.934 30 168.174 29.424 168.254 28.8H169.502C169.39 29.728 169.07 30.536 168.542 31.224C168.014 31.896 167.334 32.432 166.502 32.832C165.67 33.216 164.742 33.408 163.718 33.408ZM163.742 38.496C163.438 38.496 163.15 38.472 162.878 38.424C162.606 38.392 162.358 38.344 162.134 38.28V37.32C162.374 37.384 162.638 37.432 162.926 37.464C163.214 37.512 163.486 37.536 163.742 37.536C164.286 37.536 164.694 37.44 164.966 37.248C165.238 37.056 165.374 36.776 165.374 36.408C165.374 36.088 165.254 35.824 165.014 35.616C164.79 35.424 164.414 35.328 163.886 35.328H163.166V32.76H164.03V35.04L163.526 34.44H163.838C164.638 34.44 165.262 34.616 165.71 34.968C166.158 35.336 166.382 35.808 166.382 36.384C166.382 37.008 166.15 37.512 165.686 37.896C165.238 38.296 164.59 38.496 163.742 38.496ZM180.699 33V29.232H180.459V24.6C180.459 23.592 180.195 22.816 179.667 22.272C179.139 21.712 178.267 21.432 177.051 21.432C176.619 21.432 176.179 21.448 175.731 21.48C175.283 21.496 174.859 21.52 174.459 21.552C174.059 21.568 173.699 21.6 173.379 21.648V20.496C173.699 20.448 174.035 20.408 174.387 20.376C174.755 20.344 175.123 20.32 175.491 20.304C175.859 20.288 176.211 20.28 176.547 20.28C177.811 20.28 178.819 20.448 179.571 20.784C180.323 21.104 180.867 21.6 181.203 22.272C181.539 22.928 181.707 23.768 181.707 24.792V33H180.699ZM176.307 33.336C175.459 33.336 174.699 33.184 174.027 32.88C173.355 32.576 172.819 32.128 172.419 31.536C172.035 30.944 171.843 30.224 171.843 29.376C171.843 28.56 172.027 27.864 172.395 27.288C172.779 26.712 173.323 26.272 174.027 25.968C174.747 25.664 175.611 25.512 176.619 25.512H180.579V26.544H176.499C175.411 26.544 174.571 26.808 173.979 27.336C173.403 27.848 173.115 28.528 173.115 29.376C173.115 30.272 173.427 30.984 174.051 31.512C174.675 32.024 175.491 32.28 176.499 32.28C177.123 32.28 177.731 32.16 178.323 31.92C178.915 31.68 179.411 31.28 179.811 30.72C180.211 30.144 180.427 29.376 180.459 28.416L180.939 28.968C180.891 29.944 180.651 30.76 180.219 31.416C179.803 32.056 179.259 32.536 178.587 32.856C177.915 33.176 177.155 33.336 176.307 33.336ZM178.659 17.376C178.291 17.376 177.979 17.32 177.723 17.208C177.467 17.08 177.227 16.936 177.003 16.776C176.795 16.616 176.579 16.472 176.355 16.344C176.131 16.216 175.875 16.152 175.587 16.152C175.267 16.152 174.979 16.24 174.723 16.416C174.467 16.592 174.227 16.84 174.003 17.16L173.547 16.392C173.803 15.992 174.107 15.688 174.459 15.48C174.811 15.256 175.195 15.144 175.611 15.144C175.979 15.144 176.299 15.208 176.571 15.336C176.843 15.464 177.083 15.608 177.291 15.768C177.499 15.928 177.715 16.072 177.939 16.2C178.163 16.312 178.419 16.368 178.707 16.368C179.027 16.368 179.315 16.288 179.571 16.128C179.827 15.952 180.067 15.696 180.291 15.36L180.747 16.152C180.491 16.552 180.187 16.856 179.835 17.064C179.483 17.272 179.091 17.376 178.659 17.376ZM191.944 33.408C190.888 33.408 189.952 33.216 189.136 32.832C188.32 32.448 187.632 31.944 187.072 31.32C186.528 30.696 186.112 30 185.824 29.232C185.552 28.448 185.416 27.648 185.416 26.832V26.592C185.416 25.76 185.56 24.952 185.848 24.168C186.136 23.384 186.56 22.68 187.12 22.056C187.68 21.432 188.36 20.936 189.16 20.568C189.976 20.2 190.904 20.016 191.944 20.016C192.968 20.016 193.88 20.2 194.68 20.568C195.496 20.936 196.184 21.432 196.744 22.056C197.304 22.68 197.728 23.384 198.016 24.168C198.32 24.952 198.472 25.76 198.472 26.592V26.832C198.472 27.648 198.328 28.448 198.04 29.232C197.752 30 197.328 30.696 196.768 31.32C196.224 31.944 195.544 32.448 194.728 32.832C193.928 33.216 193 33.408 191.944 33.408ZM191.944 32.232C193.064 32.232 194.008 31.976 194.776 31.464C195.56 30.952 196.152 30.28 196.552 29.448C196.968 28.6 197.176 27.688 197.176 26.712C197.176 25.704 196.968 24.784 196.552 23.952C196.136 23.104 195.536 22.432 194.752 21.936C193.984 21.424 193.048 21.168 191.944 21.168C190.856 21.168 189.912 21.424 189.112 21.936C188.328 22.432 187.728 23.104 187.312 23.952C186.896 24.784 186.688 25.704 186.688 26.712C186.688 27.688 186.888 28.6 187.288 29.448C187.704 30.28 188.304 30.952 189.088 31.464C189.872 31.976 190.824 32.232 191.944 32.232Z" fill="white"/>
<path opacity="0.7" d="M66.3353 95.06V94.06H70.6553C71.7353 94.06 72.6686 93.8867 73.4553 93.54C74.2553 93.1933 74.9153 92.72 75.4353 92.12C75.9553 91.52 76.342 90.84 76.5953 90.08C76.862 89.3067 76.9953 88.5067 76.9953 87.68C76.9953 86.8133 76.862 86 76.5953 85.24C76.342 84.48 75.9486 83.8067 75.4153 83.22C74.882 82.6333 74.222 82.1733 73.4353 81.84C72.6486 81.5067 71.722 81.34 70.6553 81.34H66.3353V80.34H70.5353C71.8286 80.34 72.9486 80.5467 73.8953 80.96C74.842 81.36 75.622 81.9 76.2353 82.58C76.862 83.26 77.3286 84.0267 77.6353 84.88C77.942 85.7333 78.0953 86.6133 78.0953 87.52V87.84C78.0953 88.7067 77.9486 89.5733 77.6553 90.44C77.362 91.2933 76.902 92.0667 76.2753 92.76C75.662 93.4533 74.882 94.0133 73.9353 94.44C72.9886 94.8533 71.8553 95.06 70.5353 95.06H66.3353ZM65.6353 95.06V80.34H66.7153V95.06H65.6353ZM85.5314 95.34C84.6381 95.34 83.8647 95.1867 83.2114 94.88C82.5581 94.56 82.0247 94.14 81.6114 93.62C81.1981 93.0867 80.8847 92.4933 80.6714 91.84C80.4714 91.1733 80.3714 90.5 80.3714 89.82V89.62C80.3714 88.9267 80.4714 88.26 80.6714 87.62C80.8847 86.98 81.1981 86.4 81.6114 85.88C82.0381 85.3467 82.5647 84.9333 83.1914 84.64C83.8314 84.3333 84.5714 84.18 85.4114 84.18C86.4781 84.18 87.3714 84.42 88.0914 84.9C88.8247 85.3667 89.3781 85.98 89.7514 86.74C90.1247 87.5 90.3114 88.3 90.3114 89.14V89.86H80.8714V88.98H89.6114L89.2914 89.38C89.2914 88.5667 89.1381 87.84 88.8314 87.2C88.5381 86.56 88.0981 86.06 87.5114 85.7C86.9381 85.3267 86.2381 85.14 85.4114 85.14C84.5181 85.14 83.7714 85.3467 83.1714 85.76C82.5714 86.1733 82.1181 86.7267 81.8114 87.42C81.5181 88.1133 81.3714 88.88 81.3714 89.72C81.3714 90.56 81.5181 91.3333 81.8114 92.04C82.1181 92.7333 82.5781 93.3 83.1914 93.74C83.8047 94.1667 84.5847 94.38 85.5314 94.38C86.5447 94.38 87.3581 94.1467 87.9714 93.68C88.5981 93.2133 88.9781 92.6533 89.1114 92H90.1514C90.0047 92.6533 89.7247 93.2333 89.3114 93.74C88.8981 94.2467 88.3714 94.64 87.7314 94.92C87.1047 95.2 86.3714 95.34 85.5314 95.34ZM93.6608 95V83.3C93.6608 82.26 93.9208 81.4933 94.4408 81C94.9741 80.5067 95.7741 80.26 96.8408 80.26H98.0608V81.18H96.6008C95.9874 81.18 95.5141 81.3467 95.1808 81.68C94.8608 82 94.7008 82.4533 94.7008 83.04V95H93.6608ZM92.0408 85.38V84.54H98.1608V85.38H92.0408ZM101.041 95V84.5H102.101V95H101.041ZM99.3208 85.42V84.5H102.101V85.42H99.3208ZM101.141 82.3C100.861 82.3 100.641 82.2267 100.481 82.08C100.334 81.92 100.261 81.72 100.261 81.48C100.261 81.2267 100.334 81.02 100.481 80.86C100.641 80.7 100.861 80.62 101.141 80.62C101.434 80.62 101.654 80.7 101.801 80.86C101.947 81.02 102.021 81.2267 102.021 81.48C102.021 81.72 101.947 81.92 101.801 82.08C101.654 82.2267 101.434 82.3 101.141 82.3ZM106.251 95V84.5H107.091V88.8H106.851C106.851 87.88 106.998 87.08 107.291 86.4C107.598 85.7067 108.045 85.1733 108.631 84.8C109.231 84.4133 109.971 84.22 110.851 84.22H110.911C112.231 84.22 113.225 84.6333 113.891 85.46C114.558 86.2733 114.891 87.3867 114.891 88.8V95H113.811V88.56C113.811 87.56 113.538 86.7533 112.991 86.14C112.458 85.5133 111.685 85.2 110.671 85.2C109.645 85.2 108.825 85.52 108.211 86.16C107.611 86.7867 107.311 87.62 107.311 88.66V95H106.251ZM123.169 95.34C122.302 95.34 121.542 95.18 120.889 94.86C120.249 94.54 119.709 94.1133 119.269 93.58C118.842 93.0467 118.522 92.4533 118.309 91.8C118.095 91.1467 117.989 90.4867 117.989 89.82V89.62C117.989 88.94 118.095 88.2733 118.309 87.62C118.522 86.9667 118.842 86.3867 119.269 85.88C119.709 85.36 120.249 84.9467 120.889 84.64C121.542 84.3333 122.302 84.18 123.169 84.18C124.009 84.18 124.755 84.3333 125.409 84.64C126.075 84.9467 126.615 85.38 127.029 85.94C127.455 86.4867 127.722 87.1467 127.829 87.92H126.789C126.669 87.12 126.295 86.46 125.669 85.94C125.042 85.4067 124.209 85.14 123.169 85.14C122.249 85.14 121.482 85.3467 120.869 85.76C120.255 86.1733 119.795 86.7267 119.489 87.42C119.195 88.1133 119.049 88.88 119.049 89.72C119.049 90.5333 119.202 91.2933 119.509 92C119.815 92.7067 120.275 93.28 120.889 93.72C121.502 94.1467 122.262 94.36 123.169 94.36C123.875 94.36 124.495 94.2333 125.029 93.98C125.575 93.7133 126.015 93.3667 126.349 92.94C126.682 92.5 126.882 92.02 126.949 91.5H127.989C127.895 92.2733 127.629 92.9467 127.189 93.52C126.749 94.08 126.182 94.5267 125.489 94.86C124.795 95.18 124.022 95.34 123.169 95.34ZM123.189 99.58C122.935 99.58 122.695 99.56 122.469 99.52C122.242 99.4933 122.035 99.4533 121.849 99.4V98.6C122.049 98.6533 122.269 98.6933 122.509 98.72C122.749 98.76 122.975 98.78 123.189 98.78C123.642 98.78 123.982 98.7 124.209 98.54C124.435 98.38 124.549 98.1467 124.549 97.84C124.549 97.5733 124.449 97.3533 124.249 97.18C124.062 97.02 123.749 96.94 123.309 96.94H122.709V94.8H123.429V96.7L123.009 96.2H123.269C123.935 96.2 124.455 96.3467 124.829 96.64C125.202 96.9467 125.389 97.34 125.389 97.82C125.389 98.34 125.195 98.76 124.809 99.08C124.435 99.4133 123.895 99.58 123.189 99.58ZM135.46 95.34C134.58 95.34 133.8 95.18 133.12 94.86C132.44 94.54 131.867 94.12 131.4 93.6C130.947 93.08 130.6 92.5 130.36 91.86C130.133 91.2067 130.02 90.54 130.02 89.86V89.66C130.02 88.9667 130.14 88.2933 130.38 87.64C130.62 86.9867 130.973 86.4 131.44 85.88C131.907 85.36 132.473 84.9467 133.14 84.64C133.82 84.3333 134.593 84.18 135.46 84.18C136.313 84.18 137.073 84.3333 137.74 84.64C138.42 84.9467 138.993 85.36 139.46 85.88C139.927 86.4 140.28 86.9867 140.52 87.64C140.773 88.2933 140.9 88.9667 140.9 89.66V89.86C140.9 90.54 140.78 91.2067 140.54 91.86C140.3 92.5 139.947 93.08 139.48 93.6C139.027 94.12 138.46 94.54 137.78 94.86C137.113 95.18 136.34 95.34 135.46 95.34ZM135.46 94.36C136.393 94.36 137.18 94.1467 137.82 93.72C138.473 93.2933 138.967 92.7333 139.3 92.04C139.647 91.3333 139.82 90.5733 139.82 89.76C139.82 88.92 139.647 88.1533 139.3 87.46C138.953 86.7533 138.453 86.1933 137.8 85.78C137.16 85.3533 136.38 85.14 135.46 85.14C134.553 85.14 133.767 85.3533 133.1 85.78C132.447 86.1933 131.947 86.7533 131.6 87.46C131.253 88.1533 131.08 88.92 131.08 89.76C131.08 90.5733 131.247 91.3333 131.58 92.04C131.927 92.7333 132.427 93.2933 133.08 93.72C133.733 94.1467 134.527 94.36 135.46 94.36ZM136.74 82C136.433 82 136.173 81.9533 135.96 81.86C135.747 81.7533 135.547 81.6333 135.36 81.5C135.187 81.3667 135.007 81.2467 134.82 81.14C134.633 81.0333 134.42 80.98 134.18 80.98C133.913 80.98 133.673 81.0533 133.46 81.2C133.247 81.3467 133.047 81.5533 132.86 81.82L132.48 81.18C132.693 80.8467 132.947 80.5933 133.24 80.42C133.533 80.2333 133.853 80.14 134.2 80.14C134.507 80.14 134.773 80.1933 135 80.3C135.227 80.4067 135.427 80.5267 135.6 80.66C135.773 80.7933 135.953 80.9133 136.14 81.02C136.327 81.1133 136.54 81.16 136.78 81.16C137.047 81.16 137.287 81.0933 137.5 80.96C137.713 80.8133 137.913 80.6 138.1 80.32L138.48 80.98C138.267 81.3133 138.013 81.5667 137.72 81.74C137.427 81.9133 137.1 82 136.74 82ZM148.403 95.34C147.509 95.34 146.736 95.1867 146.083 94.88C145.429 94.56 144.896 94.14 144.483 93.62C144.069 93.0867 143.756 92.4933 143.543 91.84C143.343 91.1733 143.243 90.5 143.243 89.82V89.62C143.243 88.9267 143.343 88.26 143.543 87.62C143.756 86.98 144.069 86.4 144.483 85.88C144.909 85.3467 145.436 84.9333 146.063 84.64C146.703 84.3333 147.443 84.18 148.283 84.18C149.349 84.18 150.243 84.42 150.963 84.9C151.696 85.3667 152.249 85.98 152.622 86.74C152.996 87.5 153.183 88.3 153.183 89.14V89.86H143.743V88.98H152.483L152.162 89.38C152.162 88.5667 152.009 87.84 151.703 87.2C151.409 86.56 150.969 86.06 150.383 85.7C149.809 85.3267 149.109 85.14 148.283 85.14C147.389 85.14 146.643 85.3467 146.043 85.76C145.443 86.1733 144.989 86.7267 144.683 87.42C144.389 88.1133 144.243 88.88 144.243 89.72C144.243 90.56 144.389 91.3333 144.683 92.04C144.989 92.7333 145.449 93.3 146.063 93.74C146.676 94.1667 147.456 94.38 148.403 94.38C149.416 94.38 150.229 94.1467 150.843 93.68C151.469 93.2133 151.849 92.6533 151.983 92H153.023C152.876 92.6533 152.596 93.2333 152.183 93.74C151.769 94.2467 151.243 94.64 150.603 94.92C149.976 95.2 149.243 95.34 148.403 95.34ZM159.372 95.3C158.065 95.3 157.059 95 156.352 94.4C155.659 93.8 155.305 93.0333 155.292 92.1H156.332C156.332 92.7 156.565 93.2267 157.032 93.68C157.512 94.12 158.292 94.34 159.372 94.34C160.425 94.34 161.199 94.12 161.692 93.68C162.185 93.2267 162.432 92.6933 162.432 92.08C162.432 91.48 162.205 91.02 161.752 90.7C161.312 90.38 160.712 90.18 159.952 90.1L158.712 89.96C157.792 89.8533 157.059 89.5667 156.512 89.1C155.979 88.6333 155.712 88 155.712 87.2C155.712 86.6267 155.859 86.1133 156.152 85.66C156.445 85.2067 156.865 84.8467 157.412 84.58C157.972 84.3133 158.625 84.18 159.372 84.18C160.465 84.18 161.345 84.4467 162.012 84.98C162.692 85.5133 163.039 86.24 163.052 87.16H162.012C162.025 86.5867 161.799 86.1067 161.332 85.72C160.879 85.3333 160.225 85.14 159.372 85.14C158.479 85.14 157.812 85.3467 157.372 85.76C156.945 86.1733 156.732 86.66 156.732 87.22C156.732 87.6867 156.899 88.0867 157.232 88.42C157.579 88.7533 158.099 88.96 158.792 89.04L160.032 89.18C161.019 89.2733 161.832 89.56 162.472 90.04C163.125 90.52 163.452 91.2067 163.452 92.1C163.452 92.7 163.285 93.24 162.952 93.72C162.632 94.2 162.172 94.5867 161.572 94.88C160.972 95.16 160.239 95.3 159.372 95.3ZM175.706 95.34C174.919 95.34 174.206 95.1933 173.566 94.9C172.939 94.5933 172.406 94.1867 171.966 93.68C171.526 93.16 171.186 92.5733 170.946 91.92C170.719 91.2667 170.606 90.58 170.606 89.86V89.66C170.606 88.9667 170.719 88.3 170.946 87.66C171.172 87.0067 171.499 86.42 171.926 85.9C172.366 85.3667 172.899 84.9467 173.526 84.64C174.152 84.3333 174.872 84.18 175.686 84.18C176.632 84.18 177.452 84.3933 178.146 84.82C178.852 85.2467 179.399 85.8333 179.786 86.58C180.186 87.3133 180.399 88.1533 180.426 89.1L179.886 87.92V80.4H180.946V95H180.106V90.34H180.506C180.479 91.34 180.259 92.22 179.846 92.98C179.432 93.7267 178.866 94.3067 178.146 94.72C177.439 95.1333 176.626 95.34 175.706 95.34ZM175.806 94.38C176.619 94.38 177.332 94.2 177.946 93.84C178.572 93.48 179.059 92.9933 179.406 92.38C179.766 91.7533 179.946 91.04 179.946 90.24V89.2C179.946 88.44 179.766 87.7533 179.406 87.14C179.059 86.5267 178.572 86.04 177.946 85.68C177.332 85.32 176.619 85.14 175.806 85.14C174.926 85.14 174.179 85.3533 173.566 85.78C172.952 86.2067 172.479 86.7733 172.146 87.48C171.826 88.1733 171.666 88.9333 171.666 89.76C171.666 90.6133 171.832 91.3933 172.166 92.1C172.499 92.7933 172.972 93.3467 173.586 93.76C174.212 94.1733 174.952 94.38 175.806 94.38ZM189.34 95.34C188.447 95.34 187.673 95.1867 187.02 94.88C186.367 94.56 185.833 94.14 185.42 93.62C185.007 93.0867 184.693 92.4933 184.48 91.84C184.28 91.1733 184.18 90.5 184.18 89.82V89.62C184.18 88.9267 184.28 88.26 184.48 87.62C184.693 86.98 185.007 86.4 185.42 85.88C185.847 85.3467 186.373 84.9333 187 84.64C187.64 84.3333 188.38 84.18 189.22 84.18C190.287 84.18 191.18 84.42 191.9 84.9C192.633 85.3667 193.187 85.98 193.56 86.74C193.933 87.5 194.12 88.3 194.12 89.14V89.86H184.68V88.98H193.42L193.1 89.38C193.1 88.5667 192.947 87.84 192.64 87.2C192.347 86.56 191.907 86.06 191.32 85.7C190.747 85.3267 190.047 85.14 189.22 85.14C188.327 85.14 187.58 85.3467 186.98 85.76C186.38 86.1733 185.927 86.7267 185.62 87.42C185.327 88.1133 185.18 88.88 185.18 89.72C185.18 90.56 185.327 91.3333 185.62 92.04C185.927 92.7333 186.387 93.3 187 93.74C187.613 94.1667 188.393 94.38 189.34 94.38C190.353 94.38 191.167 94.1467 191.78 93.68C192.407 93.2133 192.787 92.6533 192.92 92H193.96C193.813 92.6533 193.533 93.2333 193.12 93.74C192.707 94.2467 192.18 94.64 191.54 94.92C190.913 95.2 190.18 95.34 189.34 95.34ZM206.175 95.34C205.388 95.34 204.675 95.1933 204.035 94.9C203.408 94.5933 202.875 94.1867 202.435 93.68C201.995 93.16 201.655 92.5733 201.415 91.92C201.188 91.2667 201.075 90.58 201.075 89.86V89.66C201.075 88.9667 201.188 88.3 201.415 87.66C201.641 87.0067 201.968 86.42 202.395 85.9C202.835 85.3667 203.368 84.9467 203.995 84.64C204.621 84.3333 205.341 84.18 206.155 84.18C207.101 84.18 207.921 84.3933 208.615 84.82C209.321 85.2467 209.868 85.8333 210.255 86.58C210.655 87.3133 210.868 88.1533 210.895 89.1L210.355 87.92V80.4H211.415V95H210.575V90.34H210.975C210.948 91.34 210.728 92.22 210.315 92.98C209.901 93.7267 209.335 94.3067 208.615 94.72C207.908 95.1333 207.095 95.34 206.175 95.34ZM206.275 94.38C207.088 94.38 207.801 94.2 208.415 93.84C209.041 93.48 209.528 92.9933 209.875 92.38C210.235 91.7533 210.415 91.04 210.415 90.24V89.2C210.415 88.44 210.235 87.7533 209.875 87.14C209.528 86.5267 209.041 86.04 208.415 85.68C207.801 85.32 207.088 85.14 206.275 85.14C205.395 85.14 204.648 85.3533 204.035 85.78C203.421 86.2067 202.948 86.7733 202.615 87.48C202.295 88.1733 202.135 88.9333 202.135 89.76C202.135 90.6133 202.301 91.3933 202.635 92.1C202.968 92.7933 203.441 93.3467 204.055 93.76C204.681 94.1733 205.421 94.38 206.275 94.38ZM219.809 95.34C218.915 95.34 218.142 95.1867 217.489 94.88C216.835 94.56 216.302 94.14 215.889 93.62C215.475 93.0867 215.162 92.4933 214.949 91.84C214.749 91.1733 214.649 90.5 214.649 89.82V89.62C214.649 88.9267 214.749 88.26 214.949 87.62C215.162 86.98 215.475 86.4 215.889 85.88C216.315 85.3467 216.842 84.9333 217.469 84.64C218.109 84.3333 218.849 84.18 219.689 84.18C220.755 84.18 221.649 84.42 222.369 84.9C223.102 85.3667 223.655 85.98 224.029 86.74C224.402 87.5 224.589 88.3 224.589 89.14V89.86H215.149V88.98H223.889L223.569 89.38C223.569 88.5667 223.415 87.84 223.109 87.2C222.815 86.56 222.375 86.06 221.789 85.7C221.215 85.3267 220.515 85.14 219.689 85.14C218.795 85.14 218.049 85.3467 217.449 85.76C216.849 86.1733 216.395 86.7267 216.089 87.42C215.795 88.1133 215.649 88.88 215.649 89.72C215.649 90.56 215.795 91.3333 216.089 92.04C216.395 92.7333 216.855 93.3 217.469 93.74C218.082 94.1667 218.862 94.38 219.809 94.38C220.822 94.38 221.635 94.1467 222.249 93.68C222.875 93.2133 223.255 92.6533 223.389 92H224.429C224.282 92.6533 224.002 93.2333 223.589 93.74C223.175 94.2467 222.649 94.64 222.009 94.92C221.382 95.2 220.649 95.34 219.809 95.34ZM230.778 95.3C229.471 95.3 228.465 95 227.758 94.4C227.065 93.8 226.711 93.0333 226.698 92.1H227.738C227.738 92.7 227.971 93.2267 228.438 93.68C228.918 94.12 229.698 94.34 230.778 94.34C231.831 94.34 232.605 94.12 233.098 93.68C233.591 93.2267 233.838 92.6933 233.838 92.08C233.838 91.48 233.611 91.02 233.158 90.7C232.718 90.38 232.118 90.18 231.358 90.1L230.118 89.96C229.198 89.8533 228.465 89.5667 227.918 89.1C227.385 88.6333 227.118 88 227.118 87.2C227.118 86.6267 227.265 86.1133 227.558 85.66C227.851 85.2067 228.271 84.8467 228.818 84.58C229.378 84.3133 230.031 84.18 230.778 84.18C231.871 84.18 232.751 84.4467 233.418 84.98C234.098 85.5133 234.445 86.24 234.458 87.16H233.418C233.431 86.5867 233.205 86.1067 232.738 85.72C232.285 85.3333 231.631 85.14 230.778 85.14C229.885 85.14 229.218 85.3467 228.778 85.76C228.351 86.1733 228.138 86.66 228.138 87.22C228.138 87.6867 228.305 88.0867 228.638 88.42C228.985 88.7533 229.505 88.96 230.198 89.04L231.438 89.18C232.425 89.2733 233.238 89.56 233.878 90.04C234.531 90.52 234.858 91.2067 234.858 92.1C234.858 92.7 234.691 93.24 234.358 93.72C234.038 94.2 233.578 94.5867 232.978 94.88C232.378 95.16 231.645 95.3 230.778 95.3ZM238.667 95V84.5H239.747V95H238.667ZM236.927 85.42V84.5H239.747V85.42H236.927ZM238.767 82.3C238.487 82.3 238.274 82.2267 238.127 82.08C237.98 81.92 237.907 81.72 237.907 81.48C237.907 81.2267 237.98 81.02 238.127 80.86C238.274 80.7 238.494 80.62 238.787 80.62C239.067 80.62 239.28 80.7 239.427 80.86C239.574 81.02 239.647 81.2267 239.647 81.48C239.647 81.72 239.574 81.92 239.427 82.08C239.294 82.2267 239.074 82.3 238.767 82.3ZM247.888 99.1C247.421 99.1 246.935 99.08 246.428 99.04C245.921 99 245.435 98.94 244.968 98.86V97.92C245.448 98 245.948 98.06 246.468 98.1C247.001 98.1533 247.501 98.18 247.968 98.18C249.035 98.18 249.875 98.04 250.488 97.76C251.101 97.4933 251.541 97.0467 251.808 96.42C252.075 95.8067 252.208 94.9867 252.208 93.96V91.8L252.688 90.34C252.675 91.3 252.468 92.1467 252.068 92.88C251.681 93.6133 251.141 94.1933 250.448 94.62C249.755 95.0333 248.941 95.24 248.008 95.24C247.221 95.24 246.515 95.0933 245.888 94.8C245.275 94.4933 244.755 94.0867 244.328 93.58C243.901 93.06 243.575 92.4733 243.348 91.82C243.121 91.1533 243.008 90.4733 243.008 89.78V89.58C243.008 88.9 243.121 88.24 243.348 87.6C243.575 86.9467 243.901 86.3667 244.328 85.86C244.755 85.34 245.281 84.9333 245.908 84.64C246.535 84.3333 247.248 84.18 248.048 84.18C249.021 84.18 249.861 84.4 250.568 84.84C251.275 85.28 251.815 85.8733 252.188 86.62C252.575 87.3667 252.775 88.1933 252.788 89.1L252.388 88.56V84.5H253.248V93.96C253.248 95.2133 253.075 96.2133 252.728 96.96C252.381 97.72 251.815 98.2667 251.028 98.6C250.241 98.9333 249.195 99.1 247.888 99.1ZM248.148 94.26C248.948 94.26 249.655 94.0867 250.268 93.74C250.881 93.38 251.361 92.8933 251.708 92.28C252.055 91.6533 252.228 90.9467 252.228 90.16V89.14C252.228 88.38 252.055 87.7 251.708 87.1C251.375 86.4867 250.901 86 250.288 85.64C249.675 85.28 248.968 85.1 248.168 85.1C247.288 85.1 246.541 85.3133 245.928 85.74C245.328 86.1667 244.868 86.7267 244.548 87.42C244.228 88.1133 244.068 88.8667 244.068 89.68C244.068 90.52 244.235 91.2933 244.568 92C244.901 92.6933 245.368 93.2467 245.968 93.66C246.581 94.06 247.308 94.26 248.148 94.26ZM257.248 95V84.5H258.088V88.8H257.848C257.848 87.88 257.994 87.08 258.288 86.4C258.594 85.7067 259.041 85.1733 259.628 84.8C260.228 84.4133 260.968 84.22 261.848 84.22H261.908C263.228 84.22 264.221 84.6333 264.888 85.46C265.554 86.2733 265.888 87.3867 265.888 88.8V95H264.808V88.56C264.808 87.56 264.534 86.7533 263.988 86.14C263.454 85.5133 262.681 85.2 261.668 85.2C260.641 85.2 259.821 85.52 259.208 86.16C258.608 86.7867 258.308 87.62 258.308 88.66V95H257.248Z" fill="#ADB6A7"/>
<path opacity="0.7" d="M67.2025 144.06V143.06H71.5225C72.6025 143.06 73.5358 142.887 74.3225 142.54C75.1225 142.193 75.7825 141.72 76.3025 141.12C76.8225 140.52 77.2092 139.84 77.4625 139.08C77.7292 138.307 77.8625 137.507 77.8625 136.68C77.8625 135.813 77.7292 135 77.4625 134.24C77.2092 133.48 76.8158 132.807 76.2825 132.22C75.7492 131.633 75.0892 131.173 74.3025 130.84C73.5158 130.507 72.5892 130.34 71.5225 130.34H67.2025V129.34H71.4025C72.6958 129.34 73.8158 129.547 74.7625 129.96C75.7092 130.36 76.4892 130.9 77.1025 131.58C77.7292 132.26 78.1958 133.027 78.5025 133.88C78.8092 134.733 78.9625 135.613 78.9625 136.52V136.84C78.9625 137.707 78.8158 138.573 78.5225 139.44C78.2292 140.293 77.7692 141.067 77.1425 141.76C76.5292 142.453 75.7492 143.013 74.8025 143.44C73.8558 143.853 72.7225 144.06 71.4025 144.06H67.2025ZM66.5025 144.06V129.34H67.5825V144.06H66.5025ZM86.3986 144.34C85.5053 144.34 84.7319 144.187 84.0786 143.88C83.4253 143.56 82.8919 143.14 82.4786 142.62C82.0653 142.087 81.7519 141.493 81.5386 140.84C81.3386 140.173 81.2386 139.5 81.2386 138.82V138.62C81.2386 137.927 81.3386 137.26 81.5386 136.62C81.7519 135.98 82.0653 135.4 82.4786 134.88C82.9053 134.347 83.4319 133.933 84.0586 133.64C84.6986 133.333 85.4386 133.18 86.2786 133.18C87.3453 133.18 88.2386 133.42 88.9586 133.9C89.6919 134.367 90.2453 134.98 90.6186 135.74C90.9919 136.5 91.1786 137.3 91.1786 138.14V138.86H81.7386V137.98H90.4786L90.1586 138.38C90.1586 137.567 90.0053 136.84 89.6986 136.2C89.4053 135.56 88.9653 135.06 88.3786 134.7C87.8053 134.327 87.1053 134.14 86.2786 134.14C85.3853 134.14 84.6386 134.347 84.0386 134.76C83.4386 135.173 82.9853 135.727 82.6786 136.42C82.3853 137.113 82.2386 137.88 82.2386 138.72C82.2386 139.56 82.3853 140.333 82.6786 141.04C82.9853 141.733 83.4453 142.3 84.0586 142.74C84.6719 143.167 85.4519 143.38 86.3986 143.38C87.4119 143.38 88.2253 143.147 88.8386 142.68C89.4653 142.213 89.8453 141.653 89.9786 141H91.0186C90.8719 141.653 90.5919 142.233 90.1786 142.74C89.7653 143.247 89.2386 143.64 88.5986 143.92C87.9719 144.2 87.2386 144.34 86.3986 144.34ZM97.368 144.3C96.0613 144.3 95.0546 144 94.348 143.4C93.6546 142.8 93.3013 142.033 93.288 141.1H94.328C94.328 141.7 94.5613 142.227 95.028 142.68C95.508 143.12 96.288 143.34 97.368 143.34C98.4213 143.34 99.1946 143.12 99.688 142.68C100.181 142.227 100.428 141.693 100.428 141.08C100.428 140.48 100.201 140.02 99.748 139.7C99.308 139.38 98.708 139.18 97.948 139.1L96.708 138.96C95.788 138.853 95.0546 138.567 94.508 138.1C93.9746 137.633 93.708 137 93.708 136.2C93.708 135.627 93.8546 135.113 94.148 134.66C94.4413 134.207 94.8613 133.847 95.408 133.58C95.968 133.313 96.6213 133.18 97.368 133.18C98.4613 133.18 99.3413 133.447 100.008 133.98C100.688 134.513 101.035 135.24 101.048 136.16H100.008C100.021 135.587 99.7946 135.107 99.328 134.72C98.8746 134.333 98.2213 134.14 97.368 134.14C96.4746 134.14 95.808 134.347 95.368 134.76C94.9413 135.173 94.728 135.66 94.728 136.22C94.728 136.687 94.8946 137.087 95.228 137.42C95.5746 137.753 96.0946 137.96 96.788 138.04L98.028 138.18C99.0146 138.273 99.828 138.56 100.468 139.04C101.121 139.52 101.448 140.207 101.448 141.1C101.448 141.7 101.281 142.24 100.948 142.72C100.628 143.2 100.168 143.587 99.568 143.88C98.968 144.16 98.2346 144.3 97.368 144.3ZM105.257 144V133.5H106.337V144H105.257ZM103.517 134.42V133.5H106.337V134.42H103.517ZM105.357 131.3C105.077 131.3 104.863 131.227 104.717 131.08C104.57 130.92 104.497 130.72 104.497 130.48C104.497 130.227 104.57 130.02 104.717 129.86C104.863 129.7 105.083 129.62 105.377 129.62C105.657 129.62 105.87 129.7 106.017 129.86C106.163 130.02 106.237 130.227 106.237 130.48C106.237 130.72 106.163 130.92 106.017 131.08C105.883 131.227 105.663 131.3 105.357 131.3ZM114.478 148.1C114.011 148.1 113.525 148.08 113.018 148.04C112.511 148 112.025 147.94 111.558 147.86V146.92C112.038 147 112.538 147.06 113.058 147.1C113.591 147.153 114.091 147.18 114.558 147.18C115.625 147.18 116.465 147.04 117.078 146.76C117.691 146.493 118.131 146.047 118.398 145.42C118.665 144.807 118.798 143.987 118.798 142.96V140.8L119.278 139.34C119.265 140.3 119.058 141.147 118.658 141.88C118.271 142.613 117.731 143.193 117.038 143.62C116.345 144.033 115.531 144.24 114.598 144.24C113.811 144.24 113.105 144.093 112.478 143.8C111.865 143.493 111.345 143.087 110.918 142.58C110.491 142.06 110.165 141.473 109.938 140.82C109.711 140.153 109.598 139.473 109.598 138.78V138.58C109.598 137.9 109.711 137.24 109.938 136.6C110.165 135.947 110.491 135.367 110.918 134.86C111.345 134.34 111.871 133.933 112.498 133.64C113.125 133.333 113.838 133.18 114.638 133.18C115.611 133.18 116.451 133.4 117.158 133.84C117.865 134.28 118.405 134.873 118.778 135.62C119.165 136.367 119.365 137.193 119.378 138.1L118.978 137.56V133.5H119.838V142.96C119.838 144.213 119.665 145.213 119.318 145.96C118.971 146.72 118.405 147.267 117.618 147.6C116.831 147.933 115.785 148.1 114.478 148.1ZM114.738 143.26C115.538 143.26 116.245 143.087 116.858 142.74C117.471 142.38 117.951 141.893 118.298 141.28C118.645 140.653 118.818 139.947 118.818 139.16V138.14C118.818 137.38 118.645 136.7 118.298 136.1C117.965 135.487 117.491 135 116.878 134.64C116.265 134.28 115.558 134.1 114.758 134.1C113.878 134.1 113.131 134.313 112.518 134.74C111.918 135.167 111.458 135.727 111.138 136.42C110.818 137.113 110.658 137.867 110.658 138.68C110.658 139.52 110.825 140.293 111.158 141C111.491 141.693 111.958 142.247 112.558 142.66C113.171 143.06 113.898 143.26 114.738 143.26ZM123.837 144V133.5H124.677V137.8H124.437C124.437 136.88 124.584 136.08 124.877 135.4C125.184 134.707 125.631 134.173 126.217 133.8C126.817 133.413 127.557 133.22 128.437 133.22H128.497C129.817 133.22 130.811 133.633 131.477 134.46C132.144 135.273 132.477 136.387 132.477 137.8V144H131.397V137.56C131.397 136.56 131.124 135.753 130.577 135.14C130.044 134.513 129.271 134.2 128.257 134.2C127.231 134.2 126.411 134.52 125.797 135.16C125.197 135.787 124.897 136.62 124.897 137.66V144H123.837ZM145.54 144.34C144.673 144.34 143.913 144.18 143.26 143.86C142.62 143.54 142.08 143.113 141.64 142.58C141.213 142.047 140.893 141.453 140.68 140.8C140.466 140.147 140.36 139.487 140.36 138.82V138.62C140.36 137.94 140.466 137.273 140.68 136.62C140.893 135.967 141.213 135.387 141.64 134.88C142.08 134.36 142.62 133.947 143.26 133.64C143.913 133.333 144.673 133.18 145.54 133.18C146.38 133.18 147.126 133.333 147.78 133.64C148.446 133.947 148.986 134.38 149.4 134.94C149.826 135.487 150.093 136.147 150.2 136.92H149.16C149.04 136.12 148.666 135.46 148.04 134.94C147.413 134.407 146.58 134.14 145.54 134.14C144.62 134.14 143.853 134.347 143.24 134.76C142.626 135.173 142.166 135.727 141.86 136.42C141.566 137.113 141.42 137.88 141.42 138.72C141.42 139.533 141.573 140.293 141.88 141C142.186 141.707 142.646 142.28 143.26 142.72C143.873 143.147 144.633 143.36 145.54 143.36C146.246 143.36 146.866 143.233 147.4 142.98C147.946 142.713 148.386 142.367 148.72 141.94C149.053 141.5 149.253 141.02 149.32 140.5H150.36C150.266 141.273 150 141.947 149.56 142.52C149.12 143.08 148.553 143.527 147.86 143.86C147.166 144.18 146.393 144.34 145.54 144.34ZM157.831 144.34C156.951 144.34 156.171 144.18 155.491 143.86C154.811 143.54 154.238 143.12 153.771 142.6C153.318 142.08 152.971 141.5 152.731 140.86C152.504 140.207 152.391 139.54 152.391 138.86V138.66C152.391 137.967 152.511 137.293 152.751 136.64C152.991 135.987 153.344 135.4 153.811 134.88C154.278 134.36 154.844 133.947 155.511 133.64C156.191 133.333 156.964 133.18 157.831 133.18C158.684 133.18 159.444 133.333 160.111 133.64C160.791 133.947 161.364 134.36 161.831 134.88C162.298 135.4 162.651 135.987 162.891 136.64C163.144 137.293 163.271 137.967 163.271 138.66V138.86C163.271 139.54 163.151 140.207 162.911 140.86C162.671 141.5 162.318 142.08 161.851 142.6C161.398 143.12 160.831 143.54 160.151 143.86C159.484 144.18 158.711 144.34 157.831 144.34ZM157.831 143.36C158.764 143.36 159.551 143.147 160.191 142.72C160.844 142.293 161.338 141.733 161.671 141.04C162.018 140.333 162.191 139.573 162.191 138.76C162.191 137.92 162.018 137.153 161.671 136.46C161.324 135.753 160.824 135.193 160.171 134.78C159.531 134.353 158.751 134.14 157.831 134.14C156.924 134.14 156.138 134.353 155.471 134.78C154.818 135.193 154.318 135.753 153.971 136.46C153.624 137.153 153.451 137.92 153.451 138.76C153.451 139.573 153.618 140.333 153.951 141.04C154.298 141.733 154.798 142.293 155.451 142.72C156.104 143.147 156.898 143.36 157.831 143.36ZM166.494 144V133.5H167.334V137.8H167.094C167.094 136.893 167.227 136.1 167.494 135.42C167.774 134.727 168.187 134.187 168.734 133.8C169.28 133.413 169.974 133.22 170.814 133.22H170.874C171.7 133.22 172.387 133.413 172.934 133.8C173.48 134.173 173.88 134.707 174.134 135.4C174.4 136.08 174.534 136.88 174.534 137.8H174.134C174.134 136.893 174.267 136.1 174.534 135.42C174.814 134.727 175.227 134.187 175.774 133.8C176.334 133.413 177.034 133.22 177.874 133.22H177.934C178.76 133.22 179.447 133.413 179.994 133.8C180.554 134.173 180.967 134.707 181.234 135.4C181.5 136.08 181.634 136.88 181.634 137.8V144H180.574V137.56C180.574 136.56 180.327 135.753 179.834 135.14C179.354 134.513 178.64 134.2 177.694 134.2C176.734 134.2 175.974 134.52 175.414 135.16C174.867 135.8 174.594 136.633 174.594 137.66V144H173.534V137.56C173.534 136.56 173.287 135.753 172.794 135.14C172.314 134.513 171.6 134.2 170.654 134.2C169.694 134.2 168.934 134.52 168.374 135.16C167.827 135.8 167.554 136.633 167.554 137.66V144H166.494ZM185.615 148V133.5H186.455V137.98L186.135 138.12C186.148 137.133 186.355 136.273 186.755 135.54C187.168 134.793 187.728 134.213 188.435 133.8C189.141 133.387 189.961 133.18 190.895 133.18C191.695 133.18 192.408 133.333 193.035 133.64C193.661 133.933 194.188 134.34 194.615 134.86C195.055 135.367 195.388 135.947 195.615 136.6C195.841 137.253 195.955 137.94 195.955 138.66V138.86C195.955 139.54 195.841 140.207 195.615 140.86C195.388 141.5 195.055 142.087 194.615 142.62C194.188 143.14 193.661 143.56 193.035 143.88C192.408 144.187 191.695 144.34 190.895 144.34C189.961 144.34 189.135 144.127 188.415 143.7C187.708 143.273 187.155 142.687 186.755 141.94C186.355 141.18 186.141 140.32 186.115 139.36L186.675 140.76V148H185.615ZM190.755 143.38C191.635 143.38 192.381 143.167 192.995 142.74C193.621 142.3 194.095 141.733 194.415 141.04C194.735 140.333 194.895 139.573 194.895 138.76C194.895 137.907 194.728 137.133 194.395 136.44C194.075 135.733 193.601 135.173 192.975 134.76C192.361 134.347 191.621 134.14 190.755 134.14C189.955 134.14 189.241 134.32 188.615 134.68C188.001 135.027 187.515 135.513 187.155 136.14C186.795 136.753 186.615 137.46 186.615 138.26V139.28C186.615 140.04 186.788 140.733 187.135 141.36C187.495 141.973 187.981 142.467 188.595 142.84C189.221 143.2 189.941 143.38 190.755 143.38ZM199.249 144V129.4H200.309V144H199.249ZM197.669 130.3V129.4H200.309V130.3H197.669ZM208.703 144.34C207.81 144.34 207.037 144.187 206.383 143.88C205.73 143.56 205.197 143.14 204.783 142.62C204.37 142.087 204.057 141.493 203.843 140.84C203.643 140.173 203.543 139.5 203.543 138.82V138.62C203.543 137.927 203.643 137.26 203.843 136.62C204.057 135.98 204.37 135.4 204.783 134.88C205.21 134.347 205.737 133.933 206.363 133.64C207.003 133.333 207.743 133.18 208.583 133.18C209.65 133.18 210.543 133.42 211.263 133.9C211.997 134.367 212.55 134.98 212.923 135.74C213.297 136.5 213.483 137.3 213.483 138.14V138.86H204.043V137.98H212.783L212.463 138.38C212.463 137.567 212.31 136.84 212.003 136.2C211.71 135.56 211.27 135.06 210.683 134.7C210.11 134.327 209.41 134.14 208.583 134.14C207.69 134.14 206.943 134.347 206.343 134.76C205.743 135.173 205.29 135.727 204.983 136.42C204.69 137.113 204.543 137.88 204.543 138.72C204.543 139.56 204.69 140.333 204.983 141.04C205.29 141.733 205.75 142.3 206.363 142.74C206.977 143.167 207.757 143.38 208.703 143.38C209.717 143.38 210.53 143.147 211.143 142.68C211.77 142.213 212.15 141.653 212.283 141H213.323C213.177 141.653 212.897 142.233 212.483 142.74C212.07 143.247 211.543 143.64 210.903 143.92C210.277 144.2 209.543 144.34 208.703 144.34ZM220.033 144.1C219.379 144.1 218.806 144.007 218.313 143.82C217.819 143.62 217.439 143.287 217.173 142.82C216.906 142.353 216.773 141.727 216.773 140.94V130.08H217.813V141.12C217.813 141.76 217.986 142.26 218.333 142.62C218.693 142.967 219.186 143.14 219.813 143.14H221.773V144.1H220.033ZM214.773 134.36V133.5H221.773V134.36H214.773ZM229.335 144.34C228.455 144.34 227.675 144.18 226.995 143.86C226.315 143.54 225.742 143.12 225.275 142.6C224.822 142.08 224.475 141.5 224.235 140.86C224.008 140.207 223.895 139.54 223.895 138.86V138.66C223.895 137.967 224.015 137.293 224.255 136.64C224.495 135.987 224.848 135.4 225.315 134.88C225.782 134.36 226.348 133.947 227.015 133.64C227.695 133.333 228.468 133.18 229.335 133.18C230.188 133.18 230.948 133.333 231.615 133.64C232.295 133.947 232.868 134.36 233.335 134.88C233.802 135.4 234.155 135.987 234.395 136.64C234.648 137.293 234.775 137.967 234.775 138.66V138.86C234.775 139.54 234.655 140.207 234.415 140.86C234.175 141.5 233.822 142.08 233.355 142.6C232.902 143.12 232.335 143.54 231.655 143.86C230.988 144.18 230.215 144.34 229.335 144.34ZM229.335 143.36C230.268 143.36 231.055 143.147 231.695 142.72C232.348 142.293 232.842 141.733 233.175 141.04C233.522 140.333 233.695 139.573 233.695 138.76C233.695 137.92 233.522 137.153 233.175 136.46C232.828 135.753 232.328 135.193 231.675 134.78C231.035 134.353 230.255 134.14 229.335 134.14C228.428 134.14 227.642 134.353 226.975 134.78C226.322 135.193 225.822 135.753 225.475 136.46C225.128 137.153 224.955 137.92 224.955 138.76C224.955 139.573 225.122 140.333 225.455 141.04C225.802 141.733 226.302 142.293 226.955 142.72C227.608 143.147 228.402 143.36 229.335 143.36Z" fill="#ADB6A7"/>
<path opacity="0.7" d="M66.4252 193.06V192.06H70.7452C71.8252 192.06 72.7585 191.887 73.5452 191.54C74.3452 191.193 75.0052 190.72 75.5252 190.12C76.0452 189.52 76.4318 188.84 76.6852 188.08C76.9518 187.307 77.0852 186.507 77.0852 185.68C77.0852 184.813 76.9518 184 76.6852 183.24C76.4318 182.48 76.0385 181.807 75.5052 181.22C74.9718 180.633 74.3118 180.173 73.5252 179.84C72.7385 179.507 71.8118 179.34 70.7452 179.34H66.4252V178.34H70.6252C71.9185 178.34 73.0385 178.547 73.9852 178.96C74.9318 179.36 75.7118 179.9 76.3252 180.58C76.9518 181.26 77.4185 182.027 77.7252 182.88C78.0318 183.733 78.1852 184.613 78.1852 185.52V185.84C78.1852 186.707 78.0385 187.573 77.7452 188.44C77.4518 189.293 76.9918 190.067 76.3652 190.76C75.7518 191.453 74.9718 192.013 74.0252 192.44C73.0785 192.853 71.9452 193.06 70.6252 193.06H66.4252ZM65.7252 193.06V178.34H66.8052V193.06H65.7252ZM85.6213 193.34C84.7279 193.34 83.9546 193.187 83.3013 192.88C82.6479 192.56 82.1146 192.14 81.7013 191.62C81.2879 191.087 80.9746 190.493 80.7613 189.84C80.5613 189.173 80.4613 188.5 80.4613 187.82V187.62C80.4613 186.927 80.5613 186.26 80.7613 185.62C80.9746 184.98 81.2879 184.4 81.7013 183.88C82.1279 183.347 82.6546 182.933 83.2813 182.64C83.9213 182.333 84.6613 182.18 85.5013 182.18C86.5679 182.18 87.4613 182.42 88.1813 182.9C88.9146 183.367 89.4679 183.98 89.8412 184.74C90.2146 185.5 90.4013 186.3 90.4013 187.14V187.86H80.9613V186.98H89.7013L89.3812 187.38C89.3812 186.567 89.2279 185.84 88.9213 185.2C88.6279 184.56 88.1879 184.06 87.6013 183.7C87.0279 183.327 86.3279 183.14 85.5013 183.14C84.6079 183.14 83.8613 183.347 83.2613 183.76C82.6613 184.173 82.2079 184.727 81.9013 185.42C81.6079 186.113 81.4613 186.88 81.4613 187.72C81.4613 188.56 81.6079 189.333 81.9013 190.04C82.2079 190.733 82.6679 191.3 83.2813 191.74C83.8946 192.167 84.6746 192.38 85.6213 192.38C86.6346 192.38 87.4479 192.147 88.0613 191.68C88.6879 191.213 89.0679 190.653 89.2013 190H90.2413C90.0946 190.653 89.8146 191.233 89.4013 191.74C88.9879 192.247 88.4613 192.64 87.8213 192.92C87.1946 193.2 86.4613 193.34 85.6213 193.34ZM96.5906 193.3C95.284 193.3 94.2773 193 93.5706 192.4C92.8773 191.8 92.524 191.033 92.5106 190.1H93.5506C93.5506 190.7 93.784 191.227 94.2506 191.68C94.7306 192.12 95.5106 192.34 96.5906 192.34C97.644 192.34 98.4173 192.12 98.9106 191.68C99.404 191.227 99.6506 190.693 99.6506 190.08C99.6506 189.48 99.424 189.02 98.9706 188.7C98.5306 188.38 97.9306 188.18 97.1706 188.1L95.9306 187.96C95.0106 187.853 94.2773 187.567 93.7306 187.1C93.1973 186.633 92.9306 186 92.9306 185.2C92.9306 184.627 93.0773 184.113 93.3706 183.66C93.664 183.207 94.084 182.847 94.6306 182.58C95.1906 182.313 95.844 182.18 96.5906 182.18C97.684 182.18 98.564 182.447 99.2306 182.98C99.9106 183.513 100.257 184.24 100.271 185.16H99.2306C99.244 184.587 99.0173 184.107 98.5506 183.72C98.0973 183.333 97.444 183.14 96.5906 183.14C95.6973 183.14 95.0306 183.347 94.5906 183.76C94.164 184.173 93.9506 184.66 93.9506 185.22C93.9506 185.687 94.1173 186.087 94.4506 186.42C94.7973 186.753 95.3173 186.96 96.0106 187.04L97.2506 187.18C98.2373 187.273 99.0506 187.56 99.6906 188.04C100.344 188.52 100.671 189.207 100.671 190.1C100.671 190.7 100.504 191.24 100.171 191.72C99.8506 192.2 99.3906 192.587 98.7906 192.88C98.1906 193.16 97.4573 193.3 96.5906 193.3ZM108.199 193.34C107.306 193.34 106.533 193.187 105.879 192.88C105.226 192.56 104.693 192.14 104.279 191.62C103.866 191.087 103.553 190.493 103.339 189.84C103.139 189.173 103.039 188.5 103.039 187.82V187.62C103.039 186.927 103.139 186.26 103.339 185.62C103.553 184.98 103.866 184.4 104.279 183.88C104.706 183.347 105.233 182.933 105.859 182.64C106.499 182.333 107.239 182.18 108.079 182.18C109.146 182.18 110.039 182.42 110.759 182.9C111.493 183.367 112.046 183.98 112.419 184.74C112.793 185.5 112.979 186.3 112.979 187.14V187.86H103.539V186.98H112.279L111.959 187.38C111.959 186.567 111.806 185.84 111.499 185.2C111.206 184.56 110.766 184.06 110.179 183.7C109.606 183.327 108.906 183.14 108.079 183.14C107.186 183.14 106.439 183.347 105.839 183.76C105.239 184.173 104.786 184.727 104.479 185.42C104.186 186.113 104.039 186.88 104.039 187.72C104.039 188.56 104.186 189.333 104.479 190.04C104.786 190.733 105.246 191.3 105.859 191.74C106.473 192.167 107.253 192.38 108.199 192.38C109.213 192.38 110.026 192.147 110.639 191.68C111.266 191.213 111.646 190.653 111.779 190H112.819C112.673 190.653 112.393 191.233 111.979 191.74C111.566 192.247 111.039 192.64 110.399 192.92C109.773 193.2 109.039 193.34 108.199 193.34ZM116.029 193V182.5H116.869V186.8H116.629C116.629 185.88 116.775 185.08 117.069 184.4C117.375 183.707 117.822 183.173 118.409 182.8C119.009 182.413 119.749 182.22 120.629 182.22H120.689C122.009 182.22 123.002 182.633 123.669 183.46C124.335 184.273 124.669 185.387 124.669 186.8V193H123.589V186.56C123.589 185.56 123.315 184.753 122.769 184.14C122.235 183.513 121.462 183.2 120.449 183.2C119.422 183.2 118.602 183.52 117.989 184.16C117.389 184.787 117.089 185.62 117.089 186.66V193H116.029ZM130.988 193L127.168 182.5H128.288L132.048 193H130.988ZM131.308 193V192.1H132.768V193H131.308ZM132.028 193L135.388 182.5H136.428L133.048 193H132.028ZM143.675 193.34C142.795 193.34 142.015 193.18 141.335 192.86C140.655 192.54 140.081 192.12 139.615 191.6C139.161 191.08 138.815 190.5 138.575 189.86C138.348 189.207 138.235 188.54 138.235 187.86V187.66C138.235 186.967 138.355 186.293 138.595 185.64C138.835 184.987 139.188 184.4 139.655 183.88C140.121 183.36 140.688 182.947 141.355 182.64C142.035 182.333 142.808 182.18 143.675 182.18C144.528 182.18 145.288 182.333 145.955 182.64C146.635 182.947 147.208 183.36 147.675 183.88C148.141 184.4 148.495 184.987 148.735 185.64C148.988 186.293 149.115 186.967 149.115 187.66V187.86C149.115 188.54 148.995 189.207 148.755 189.86C148.515 190.5 148.161 191.08 147.695 191.6C147.241 192.12 146.675 192.54 145.995 192.86C145.328 193.18 144.555 193.34 143.675 193.34ZM143.675 192.36C144.608 192.36 145.395 192.147 146.035 191.72C146.688 191.293 147.181 190.733 147.515 190.04C147.861 189.333 148.035 188.573 148.035 187.76C148.035 186.92 147.861 186.153 147.515 185.46C147.168 184.753 146.668 184.193 146.015 183.78C145.375 183.353 144.595 183.14 143.675 183.14C142.768 183.14 141.981 183.353 141.315 183.78C140.661 184.193 140.161 184.753 139.815 185.46C139.468 186.153 139.295 186.92 139.295 187.76C139.295 188.573 139.461 189.333 139.795 190.04C140.141 190.733 140.641 191.293 141.295 191.72C141.948 192.147 142.741 192.36 143.675 192.36ZM152.397 193V178.4H153.457V193H152.397ZM150.817 179.3V178.4H153.457V179.3H150.817ZM159.992 193L156.172 182.5H157.292L161.052 193H159.992ZM160.312 193V192.1H161.772V193H160.312ZM161.032 193L164.392 182.5H165.432L162.052 193H161.032ZM168.854 193V182.5H169.934V193H168.854ZM167.114 183.42V182.5H169.934V183.42H167.114ZM168.954 180.3C168.674 180.3 168.461 180.227 168.314 180.08C168.168 179.92 168.094 179.72 168.094 179.48C168.094 179.227 168.168 179.02 168.314 178.86C168.461 178.7 168.681 178.62 168.974 178.62C169.254 178.62 169.468 178.7 169.614 178.86C169.761 179.02 169.834 179.227 169.834 179.48C169.834 179.72 169.761 179.92 169.614 180.08C169.481 180.227 169.261 180.3 168.954 180.3ZM174.076 193V182.5H174.916V186.8H174.676C174.676 185.893 174.809 185.1 175.076 184.42C175.356 183.727 175.769 183.187 176.316 182.8C176.862 182.413 177.556 182.22 178.396 182.22H178.456C179.282 182.22 179.969 182.413 180.516 182.8C181.062 183.173 181.462 183.707 181.716 184.4C181.982 185.08 182.116 185.88 182.116 186.8H181.716C181.716 185.893 181.849 185.1 182.116 184.42C182.396 183.727 182.809 183.187 183.356 182.8C183.916 182.413 184.616 182.22 185.456 182.22H185.516C186.342 182.22 187.029 182.413 187.576 182.8C188.136 183.173 188.549 183.707 188.816 184.4C189.082 185.08 189.216 185.88 189.216 186.8V193H188.156V186.56C188.156 185.56 187.909 184.753 187.416 184.14C186.936 183.513 186.222 183.2 185.276 183.2C184.316 183.2 183.556 183.52 182.996 184.16C182.449 184.8 182.176 185.633 182.176 186.66V193H181.116V186.56C181.116 185.56 180.869 184.753 180.376 184.14C179.896 183.513 179.182 183.2 178.236 183.2C177.276 183.2 176.516 183.52 175.956 184.16C175.409 184.8 175.136 185.633 175.136 186.66V193H174.076ZM197.477 193.34C196.583 193.34 195.81 193.187 195.157 192.88C194.503 192.56 193.97 192.14 193.557 191.62C193.143 191.087 192.83 190.493 192.617 189.84C192.417 189.173 192.317 188.5 192.317 187.82V187.62C192.317 186.927 192.417 186.26 192.617 185.62C192.83 184.98 193.143 184.4 193.557 183.88C193.983 183.347 194.51 182.933 195.137 182.64C195.777 182.333 196.517 182.18 197.357 182.18C198.423 182.18 199.317 182.42 200.037 182.9C200.77 183.367 201.323 183.98 201.697 184.74C202.07 185.5 202.257 186.3 202.257 187.14V187.86H192.817V186.98H201.557L201.237 187.38C201.237 186.567 201.083 185.84 200.777 185.2C200.483 184.56 200.043 184.06 199.457 183.7C198.883 183.327 198.183 183.14 197.357 183.14C196.463 183.14 195.717 183.347 195.117 183.76C194.517 184.173 194.063 184.727 193.757 185.42C193.463 186.113 193.317 186.88 193.317 187.72C193.317 188.56 193.463 189.333 193.757 190.04C194.063 190.733 194.523 191.3 195.137 191.74C195.75 192.167 196.53 192.38 197.477 192.38C198.49 192.38 199.303 192.147 199.917 191.68C200.543 191.213 200.923 190.653 201.057 190H202.097C201.95 190.653 201.67 191.233 201.257 191.74C200.843 192.247 200.317 192.64 199.677 192.92C199.05 193.2 198.317 193.34 197.477 193.34ZM205.306 193V182.5H206.146V186.8H205.906C205.906 185.88 206.053 185.08 206.346 184.4C206.653 183.707 207.099 183.173 207.686 182.8C208.286 182.413 209.026 182.22 209.906 182.22H209.966C211.286 182.22 212.279 182.633 212.946 183.46C213.613 184.273 213.946 185.387 213.946 186.8V193H212.866V186.56C212.866 185.56 212.593 184.753 212.046 184.14C211.513 183.513 210.739 183.2 209.726 183.2C208.699 183.2 207.879 183.52 207.266 184.16C206.666 184.787 206.366 185.62 206.366 186.66V193H205.306ZM221.423 193.1C220.77 193.1 220.197 193.007 219.703 192.82C219.21 192.62 218.83 192.287 218.563 191.82C218.297 191.353 218.163 190.727 218.163 189.94V179.08H219.203V190.12C219.203 190.76 219.377 191.26 219.723 191.62C220.083 191.967 220.577 192.14 221.203 192.14H223.163V193.1H221.423ZM216.163 183.36V182.5H223.163V183.36H216.163ZM230.725 193.34C229.845 193.34 229.065 193.18 228.385 192.86C227.705 192.54 227.132 192.12 226.665 191.6C226.212 191.08 225.865 190.5 225.625 189.86C225.399 189.207 225.285 188.54 225.285 187.86V187.66C225.285 186.967 225.405 186.293 225.645 185.64C225.885 184.987 226.239 184.4 226.705 183.88C227.172 183.36 227.739 182.947 228.405 182.64C229.085 182.333 229.859 182.18 230.725 182.18C231.579 182.18 232.339 182.333 233.005 182.64C233.685 182.947 234.259 183.36 234.725 183.88C235.192 184.4 235.545 184.987 235.785 185.64C236.039 186.293 236.165 186.967 236.165 187.66V187.86C236.165 188.54 236.045 189.207 235.805 189.86C235.565 190.5 235.212 191.08 234.745 191.6C234.292 192.12 233.725 192.54 233.045 192.86C232.379 193.18 231.605 193.34 230.725 193.34ZM230.725 192.36C231.659 192.36 232.445 192.147 233.085 191.72C233.739 191.293 234.232 190.733 234.565 190.04C234.912 189.333 235.085 188.573 235.085 187.76C235.085 186.92 234.912 186.153 234.565 185.46C234.219 184.753 233.719 184.193 233.065 183.78C232.425 183.353 231.645 183.14 230.725 183.14C229.819 183.14 229.032 183.353 228.365 183.78C227.712 184.193 227.212 184.753 226.865 185.46C226.519 186.153 226.345 186.92 226.345 187.76C226.345 188.573 226.512 189.333 226.845 190.04C227.192 190.733 227.692 191.293 228.345 191.72C228.999 192.147 229.792 192.36 230.725 192.36ZM246.933 193L249.333 182.86H250.933L253.633 193H252.653L249.953 182.92H250.273L247.873 193H246.933ZM246.213 193V192.1H247.653V193H246.213ZM245.953 193L242.813 182.5H243.873L246.953 193H245.953ZM252.953 193V192.1H254.293V193H252.953ZM253.613 193L256.353 182.5H257.353L254.593 193H253.613ZM264.371 193.34C263.478 193.34 262.705 193.187 262.051 192.88C261.398 192.56 260.865 192.14 260.451 191.62C260.038 191.087 259.725 190.493 259.511 189.84C259.311 189.173 259.211 188.5 259.211 187.82V187.62C259.211 186.927 259.311 186.26 259.511 185.62C259.725 184.98 260.038 184.4 260.451 183.88C260.878 183.347 261.405 182.933 262.031 182.64C262.671 182.333 263.411 182.18 264.251 182.18C265.318 182.18 266.211 182.42 266.931 182.9C267.665 183.367 268.218 183.98 268.591 184.74C268.965 185.5 269.151 186.3 269.151 187.14V187.86H259.711V186.98H268.451L268.131 187.38C268.131 186.567 267.978 185.84 267.671 185.2C267.378 184.56 266.938 184.06 266.351 183.7C265.778 183.327 265.078 183.14 264.251 183.14C263.358 183.14 262.611 183.347 262.011 183.76C261.411 184.173 260.958 184.727 260.651 185.42C260.358 186.113 260.211 186.88 260.211 187.72C260.211 188.56 260.358 189.333 260.651 190.04C260.958 190.733 261.418 191.3 262.031 191.74C262.645 192.167 263.425 192.38 264.371 192.38C265.385 192.38 266.198 192.147 266.811 191.68C267.438 191.213 267.818 190.653 267.951 190H268.991C268.845 190.653 268.565 191.233 268.151 191.74C267.738 192.247 267.211 192.64 266.571 192.92C265.945 193.2 265.211 193.34 264.371 193.34ZM277.441 193.34C276.481 193.34 275.641 193.12 274.921 192.68C274.214 192.227 273.661 191.627 273.261 190.88C272.874 190.133 272.674 189.307 272.661 188.4H273.041V193H272.201V178.4H273.261V185.88L272.761 187.14C272.787 186.14 272.994 185.273 273.381 184.54C273.781 183.793 274.334 183.213 275.041 182.8C275.747 182.387 276.567 182.18 277.501 182.18C278.287 182.18 278.994 182.333 279.621 182.64C280.247 182.933 280.774 183.34 281.201 183.86C281.641 184.367 281.974 184.947 282.201 185.6C282.427 186.24 282.541 186.92 282.541 187.64V187.84C282.541 188.533 282.427 189.207 282.201 189.86C281.987 190.5 281.661 191.087 281.221 191.62C280.781 192.14 280.241 192.56 279.601 192.88C278.974 193.187 278.254 193.34 277.441 193.34ZM277.341 192.38C278.221 192.38 278.967 192.167 279.581 191.74C280.207 191.3 280.681 190.727 281.001 190.02C281.321 189.313 281.481 188.553 281.481 187.74C281.481 186.887 281.314 186.113 280.981 185.42C280.647 184.713 280.174 184.16 279.561 183.76C278.947 183.347 278.207 183.14 277.341 183.14C276.541 183.14 275.827 183.32 275.201 183.68C274.587 184.027 274.101 184.513 273.741 185.14C273.381 185.753 273.201 186.46 273.201 187.26V188.28C273.201 189.04 273.374 189.733 273.721 190.36C274.081 190.973 274.567 191.467 275.181 191.84C275.807 192.2 276.527 192.38 277.341 192.38Z" fill="#ADB6A7"/>
<line x1="0.5" x2="0.5" y2="224" stroke="white"/>
<path opacity="0.5" d="M44.7071 88.7071C45.0976 88.3166 45.0976 87.6834 44.7071 87.2929L38.3431 80.9289C37.9526 80.5384 37.3195 80.5384 36.9289 80.9289C36.5384 81.3195 36.5384 81.9526 36.9289 82.3431L42.5858 88L36.9289 93.6569C36.5384 94.0474 36.5384 94.6805 36.9289 95.0711C37.3195 95.4616 37.9526 95.4616 38.3431 95.0711L44.7071 88.7071ZM20 89H44V87H20V89Z" fill="white"/>
<path opacity="0.5" d="M44.7071 136.707C45.0976 136.317 45.0976 135.683 44.7071 135.293L38.3431 128.929C37.9526 128.538 37.3195 128.538 36.9289 128.929C36.5384 129.319 36.5384 129.953 36.9289 130.343L42.5858 136L36.9289 141.657C36.5384 142.047 36.5384 142.681 36.9289 143.071C37.3195 143.462 37.9526 143.462 38.3431 143.071L44.7071 136.707ZM20 137H44V135H20V137Z" fill="white"/>
<path opacity="0.5" d="M44.7071 186.707C45.0976 186.317 45.0976 185.683 44.7071 185.293L38.3431 178.929C37.9526 178.538 37.3195 178.538 36.9289 178.929C36.5384 179.319 36.5384 179.953 36.9289 180.343L42.5858 186L36.9289 191.657C36.5384 192.047 36.5384 192.681 36.9289 193.071C37.3195 193.462 37.9526 193.462 38.3431 193.071L44.7071 186.707ZM20 187H44V185H20V187Z" fill="white"/>
</svg>
