<svg width="295" height="31" viewBox="0 0 295 31" fill="none" xmlns="http://www.w3.org/2000/svg">
<path d="M13.4331 0.499998H15.5331V23H13.4331V20.195C12.9131 21.155 12.1981 21.93 11.2881 22.52C10.3881 23.1 9.31809 23.39 8.07809 23.39C6.98809 23.39 5.96809 23.185 5.01809 22.775C4.06809 22.365 3.22809 21.8 2.49809 21.08C1.77809 20.35 1.21309 19.51 0.803086 18.56C0.393086 17.61 0.188086 16.59 0.188086 15.5C0.188086 14.41 0.393086 13.39 0.803086 12.44C1.21309 11.48 1.77809 10.64 2.49809 9.92C3.22809 9.19 4.06809 8.62 5.01809 8.21C5.96809 7.8 6.98809 7.595 8.07809 7.595C9.31809 7.595 10.3881 7.89 11.2881 8.48C12.1981 9.06 12.9131 9.825 13.4331 10.775V0.499998ZM8.09309 21.35C9.16309 21.35 10.0831 21.09 10.8531 20.57C11.6231 20.04 12.2131 19.33 12.6231 18.44C13.0431 17.55 13.2531 16.57 13.2531 15.5C13.2531 14.4 13.0431 13.41 12.6231 12.53C12.2031 11.64 11.6081 10.935 10.8381 10.415C10.0681 9.895 9.15309 9.635 8.09309 9.635C7.03309 9.635 6.06809 9.9 5.19809 10.43C4.32809 10.95 3.63309 11.655 3.11309 12.545C2.59309 13.435 2.33309 14.42 2.33309 15.5C2.33309 16.59 2.59809 17.58 3.12809 18.47C3.65809 19.35 4.35809 20.05 5.22809 20.57C6.10809 21.09 7.06309 21.35 8.09309 21.35ZM25.6178 23.39C24.2378 23.39 22.9778 23.035 21.8378 22.325C20.7078 21.615 19.8028 20.665 19.1228 19.475C18.4528 18.275 18.1178 16.95 18.1178 15.5C18.1178 14.4 18.3128 13.375 18.7028 12.425C19.0928 11.465 19.6278 10.625 20.3078 9.905C20.9978 9.175 21.7978 8.605 22.7078 8.195C23.6178 7.785 24.5878 7.58 25.6178 7.58C26.7278 7.58 27.7478 7.8 28.6778 8.24C29.6178 8.68 30.4228 9.295 31.0928 10.085C31.7728 10.875 32.2828 11.8 32.6228 12.86C32.9728 13.92 33.1178 15.065 33.0578 16.295H20.3378C20.4578 17.245 20.7578 18.095 21.2378 18.845C21.7278 19.595 22.3478 20.19 23.0978 20.63C23.8578 21.06 24.6978 21.28 25.6178 21.29C26.6178 21.29 27.5178 21.03 28.3178 20.51C29.1278 19.99 29.7778 19.275 30.2678 18.365L32.3978 18.86C31.7978 20.19 30.8928 21.28 29.6828 22.13C28.4728 22.97 27.1178 23.39 25.6178 23.39ZM20.2778 14.6H30.9428C30.8728 13.67 30.5878 12.82 30.0878 12.05C29.5978 11.27 28.9628 10.65 28.1828 10.19C27.4028 9.72 26.5478 9.485 25.6178 9.485C24.6878 9.485 23.8378 9.715 23.0678 10.175C22.2978 10.625 21.6678 11.24 21.1778 12.02C20.6878 12.79 20.3878 13.65 20.2778 14.6ZM42.2296 23H39.5596L34.0846 7.955H36.3196L40.8946 20.54L45.4696 7.955H47.7046L42.2296 23ZM57.8347 7.58C59.2947 7.58 60.6197 7.935 61.8097 8.645C63.0097 9.355 63.9647 10.31 64.6747 11.51C65.3847 12.7 65.7397 14.025 65.7397 15.485C65.7397 16.575 65.5347 17.6 65.1247 18.56C64.7147 19.51 64.1447 20.35 63.4147 21.08C62.6947 21.8 61.8547 22.365 60.8947 22.775C59.9447 23.185 58.9247 23.39 57.8347 23.39C56.5947 23.39 55.5247 23.095 54.6247 22.505C53.7247 21.915 53.0147 21.145 52.4947 20.195V23H50.3947V0.499998H52.4947V10.775C53.0147 9.825 53.7247 9.055 54.6247 8.465C55.5247 7.875 56.5947 7.58 57.8347 7.58ZM57.8197 21.335C58.8897 21.335 59.8597 21.075 60.7297 20.555C61.5997 20.025 62.2947 19.315 62.8147 18.425C63.3347 17.535 63.5947 16.555 63.5947 15.485C63.5947 14.385 63.3297 13.395 62.7997 12.515C62.2697 11.625 61.5647 10.92 60.6847 10.4C59.8147 9.88 58.8597 9.62 57.8197 9.62C56.7597 9.62 55.8397 9.885 55.0597 10.415C54.2897 10.945 53.6947 11.655 53.2747 12.545C52.8647 13.435 52.6597 14.415 52.6597 15.485C52.6597 16.575 52.8697 17.565 53.2897 18.455C53.7097 19.335 54.3047 20.035 55.0747 20.555C55.8547 21.075 56.7697 21.335 57.8197 21.335ZM70.0916 23V4.1H67.8416L68.4416 2H72.1916V23H70.0916ZM73.3811 30.5V28.4C74.1311 28.4 74.8011 28.235 75.3911 27.905C75.9811 27.575 76.4461 27.12 76.7861 26.54C77.1261 25.97 77.2961 25.33 77.2961 24.62V8H79.3961V24.62C79.3961 25.7 79.1311 26.685 78.6011 27.575C78.0811 28.465 77.3661 29.175 76.4561 29.705C75.5561 30.235 74.5311 30.5 73.3811 30.5ZM78.3611 5.375C78.0211 5.375 77.7311 5.265 77.4911 5.045C77.2611 4.815 77.1461 4.53 77.1461 4.19C77.1461 3.85 77.2611 3.57 77.4911 3.35C77.7311 3.12 78.0211 3.005 78.3611 3.005C78.6911 3.005 78.9711 3.12 79.2011 3.35C79.4411 3.57 79.5611 3.85 79.5611 4.19C79.5611 4.53 79.4461 4.815 79.2161 5.045C78.9861 5.265 78.7011 5.375 78.3611 5.375ZM82.1971 17.255V8H84.2971V16.835C84.2971 17.655 84.4971 18.4 84.8971 19.07C85.2971 19.74 85.8321 20.275 86.5021 20.675C87.1821 21.075 87.9271 21.275 88.7371 21.275C89.5571 21.275 90.2971 21.075 90.9571 20.675C91.6271 20.275 92.1621 19.74 92.5621 19.07C92.9621 18.4 93.1621 17.655 93.1621 16.835V8H95.2621L95.2771 23H93.1771L93.1621 20.9C92.6321 21.66 91.9421 22.265 91.0921 22.715C90.2521 23.165 89.3321 23.39 88.3321 23.39C87.2021 23.39 86.1721 23.115 85.2421 22.565C84.3121 22.015 83.5721 21.275 83.0221 20.345C82.4721 19.415 82.1971 18.385 82.1971 17.255ZM98.4709 23V0.499998H100.571V23H98.4709ZM114.019 8H116.239L108.034 30.5H105.799L108.529 23L103.144 8H105.439L109.579 20.105L114.019 8ZM124.934 23.39C123.554 23.39 122.294 23.035 121.154 22.325C120.024 21.615 119.119 20.665 118.439 19.475C117.769 18.275 117.434 16.95 117.434 15.5C117.434 14.4 117.629 13.375 118.019 12.425C118.409 11.465 118.944 10.625 119.624 9.905C120.314 9.175 121.114 8.605 122.024 8.195C122.934 7.785 123.904 7.58 124.934 7.58C126.314 7.58 127.569 7.935 128.699 8.645C129.839 9.355 130.744 10.31 131.414 11.51C132.094 12.71 132.434 14.04 132.434 15.5C132.434 16.59 132.239 17.61 131.849 18.56C131.459 19.51 130.919 20.35 130.229 21.08C129.549 21.8 128.754 22.365 127.844 22.775C126.944 23.185 125.974 23.39 124.934 23.39ZM124.934 21.29C125.954 21.29 126.869 21.025 127.679 20.495C128.499 19.955 129.144 19.245 129.614 18.365C130.094 17.485 130.334 16.53 130.334 15.5C130.334 14.45 130.094 13.485 129.614 12.605C129.134 11.715 128.484 11.005 127.664 10.475C126.854 9.945 125.944 9.68 124.934 9.68C123.914 9.68 122.994 9.95 122.174 10.49C121.364 11.02 120.719 11.725 120.239 12.605C119.769 13.485 119.534 14.45 119.534 15.5C119.534 16.58 119.779 17.56 120.269 18.44C120.759 19.31 121.414 20.005 122.234 20.525C123.054 21.035 123.954 21.29 124.934 21.29ZM146.311 25.79C144.681 25.79 143.151 25.52 141.721 24.98C140.301 24.44 139.051 23.68 137.971 22.7C136.891 21.71 136.046 20.54 135.436 19.19C134.826 17.84 134.521 16.355 134.521 14.735C134.521 13.115 134.826 11.595 135.436 10.175C136.046 8.745 136.891 7.49 137.971 6.41C139.051 5.33 140.301 4.485 141.721 3.875C143.151 3.265 144.681 2.96 146.311 2.96C147.951 2.96 149.481 3.27 150.901 3.89C152.331 4.5 153.581 5.345 154.651 6.425C155.731 7.505 156.571 8.755 157.171 10.175C157.781 11.595 158.086 13.115 158.086 14.735C158.086 15.555 157.981 16.375 157.771 17.195C157.571 18.015 157.276 18.765 156.886 19.445C156.496 20.115 156.016 20.655 155.446 21.065C154.886 21.465 154.241 21.665 153.511 21.665C152.931 21.665 152.361 21.535 151.801 21.275C151.251 21.005 150.791 20.64 150.421 20.18C150.051 19.72 149.841 19.205 149.791 18.635C149.381 19.265 148.841 19.77 148.171 20.15C147.501 20.52 146.726 20.705 145.846 20.705C144.756 20.705 143.756 20.44 142.846 19.91C141.946 19.37 141.226 18.65 140.686 17.75C140.156 16.84 139.891 15.835 139.891 14.735C139.891 13.635 140.156 12.635 140.686 11.735C141.226 10.835 141.946 10.12 142.846 9.59C143.756 9.05 144.756 8.78 145.846 8.78C146.706 8.78 147.491 8.965 148.201 9.335C148.911 9.695 149.466 10.18 149.866 10.79V9.08L151.561 9.335V17.885C151.561 18.365 151.751 18.765 152.131 19.085C152.511 19.405 152.936 19.565 153.406 19.565C154.006 19.565 154.496 19.315 154.876 18.815C155.256 18.305 155.536 17.68 155.716 16.94C155.896 16.19 155.986 15.455 155.986 14.735C155.986 13.395 155.731 12.14 155.221 10.97C154.721 9.8 154.026 8.775 153.136 7.895C152.246 7.005 151.216 6.31 150.046 5.81C148.886 5.31 147.641 5.06 146.311 5.06C144.981 5.06 143.731 5.31 142.561 5.81C141.391 6.31 140.361 7.005 139.471 7.895C138.581 8.775 137.881 9.8 137.371 10.97C136.871 12.14 136.621 13.395 136.621 14.735C136.621 16.075 136.871 17.295 137.371 18.395C137.871 19.485 138.566 20.425 139.456 21.215C140.346 22.005 141.376 22.615 142.546 23.045C143.716 23.475 144.971 23.69 146.311 23.69V25.79ZM145.981 19.01C146.771 19.01 147.451 18.795 148.021 18.365C148.591 17.935 149.031 17.38 149.341 16.7C149.651 16.01 149.806 15.295 149.806 14.555C149.806 13.845 149.661 13.18 149.371 12.56C149.091 11.94 148.666 11.44 148.096 11.06C147.526 10.67 146.821 10.475 145.981 10.475C145.191 10.475 144.471 10.665 143.821 11.045C143.181 11.425 142.666 11.94 142.276 12.59C141.896 13.23 141.706 13.945 141.706 14.735C141.706 15.535 141.901 16.26 142.291 16.91C142.681 17.55 143.201 18.06 143.851 18.44C144.501 18.82 145.211 19.01 145.981 19.01ZM173.003 8H175.103V23.555C175.103 24.515 174.893 25.415 174.473 26.255C174.063 27.095 173.503 27.83 172.793 28.46C172.093 29.1 171.293 29.6 170.393 29.96C169.493 30.32 168.558 30.5 167.588 30.5C166.548 30.5 165.543 30.26 164.573 29.78C163.603 29.31 162.758 28.68 162.038 27.89C161.328 27.1 160.823 26.225 160.523 25.265L162.458 24.38C162.648 25.13 163.003 25.805 163.523 26.405C164.053 27.015 164.673 27.495 165.383 27.845C166.103 28.205 166.838 28.385 167.588 28.385C168.278 28.385 168.943 28.255 169.583 27.995C170.233 27.745 170.813 27.4 171.323 26.96C171.843 26.52 172.253 26.005 172.553 25.415C172.853 24.835 173.003 24.215 173.003 23.555V20.24C172.483 21.18 171.778 21.94 170.888 22.52C170.008 23.1 168.983 23.39 167.813 23.39C166.763 23.39 165.773 23.185 164.843 22.775C163.923 22.365 163.113 21.8 162.413 21.08C161.713 20.35 161.163 19.51 160.763 18.56C160.373 17.61 160.178 16.59 160.178 15.5C160.178 14.41 160.373 13.39 160.763 12.44C161.163 11.48 161.713 10.64 162.413 9.92C163.113 9.19 163.923 8.62 164.843 8.21C165.773 7.8 166.763 7.595 167.813 7.595C168.983 7.595 170.008 7.885 170.888 8.465C171.778 9.035 172.483 9.795 173.003 10.745V8ZM167.828 21.35C168.868 21.35 169.763 21.08 170.513 20.54C171.273 20 171.858 19.285 172.268 18.395C172.678 17.505 172.883 16.54 172.883 15.5C172.883 14.43 172.673 13.455 172.253 12.575C171.843 11.685 171.258 10.975 170.498 10.445C169.738 9.905 168.848 9.635 167.828 9.635C166.808 9.635 165.878 9.9 165.038 10.43C164.208 10.95 163.548 11.655 163.058 12.545C162.568 13.435 162.323 14.42 162.323 15.5C162.323 16.58 162.573 17.565 163.073 18.455C163.573 19.335 164.238 20.04 165.068 20.57C165.908 21.09 166.828 21.35 167.828 21.35ZM178.715 23V8H180.815V10.07C181.355 9.31 182.045 8.705 182.885 8.255C183.725 7.805 184.645 7.58 185.645 7.58C186.775 7.58 187.81 7.86 188.75 8.42C189.69 8.97 190.425 9.705 190.955 10.625C191.485 9.705 192.215 8.97 193.145 8.42C194.075 7.86 195.105 7.58 196.235 7.58C197.365 7.58 198.395 7.855 199.325 8.405C200.255 8.955 200.995 9.695 201.545 10.625C202.095 11.555 202.37 12.585 202.37 13.715V23H200.27V14.18C200.27 13.38 200.075 12.64 199.685 11.96C199.295 11.28 198.77 10.735 198.11 10.325C197.46 9.905 196.735 9.695 195.935 9.695C195.135 9.695 194.405 9.89 193.745 10.28C193.095 10.66 192.575 11.19 192.185 11.87C191.795 12.54 191.6 13.31 191.6 14.18V23H189.5V14.18C189.5 13.31 189.305 12.54 188.915 11.87C188.525 11.19 188 10.66 187.34 10.28C186.68 9.89 185.95 9.695 185.15 9.695C184.36 9.695 183.635 9.905 182.975 10.325C182.315 10.735 181.79 11.28 181.4 11.96C181.01 12.64 180.815 13.38 180.815 14.18V23H178.715ZM217.412 8H219.512V23H217.412L217.337 20.21C216.847 21.16 216.162 21.93 215.282 22.52C214.402 23.1 213.352 23.39 212.132 23.39C211.032 23.39 210.002 23.185 209.042 22.775C208.082 22.355 207.237 21.78 206.507 21.05C205.777 20.32 205.207 19.475 204.797 18.515C204.387 17.555 204.182 16.525 204.182 15.425C204.182 14.345 204.382 13.33 204.782 12.38C205.192 11.43 205.752 10.595 206.462 9.875C207.182 9.155 208.012 8.595 208.952 8.195C209.902 7.785 210.917 7.58 211.997 7.58C213.247 7.58 214.337 7.88 215.267 8.48C216.197 9.07 216.937 9.845 217.487 10.805L217.412 8ZM212.087 21.35C213.157 21.35 214.077 21.09 214.847 20.57C215.617 20.04 216.207 19.33 216.617 18.44C217.037 17.55 217.247 16.57 217.247 15.5C217.247 14.4 217.037 13.41 216.617 12.53C216.197 11.64 215.602 10.935 214.832 10.415C214.062 9.895 213.147 9.635 212.087 9.635C211.027 9.635 210.057 9.9 209.177 10.43C208.307 10.95 207.612 11.655 207.092 12.545C206.582 13.435 206.327 14.42 206.327 15.5C206.327 16.59 206.592 17.58 207.122 18.47C207.652 19.35 208.352 20.05 209.222 20.57C210.102 21.09 211.057 21.35 212.087 21.35ZM222.514 8H224.614V23H222.514V8ZM223.579 5.375C223.239 5.375 222.949 5.265 222.709 5.045C222.479 4.815 222.364 4.53 222.364 4.19C222.364 3.85 222.479 3.57 222.709 3.35C222.949 3.12 223.239 3.005 223.579 3.005C223.909 3.005 224.189 3.12 224.419 3.35C224.659 3.57 224.779 3.85 224.779 4.19C224.779 4.53 224.664 4.815 224.434 5.045C224.204 5.265 223.919 5.375 223.579 5.375ZM228.344 23V0.499998H230.444V23H228.344ZM234.642 23.39C234.312 23.39 234.032 23.27 233.802 23.03C233.572 22.8 233.457 22.515 233.457 22.175C233.457 21.855 233.572 21.58 233.802 21.35C234.032 21.11 234.312 20.99 234.642 20.99C234.982 20.99 235.267 21.11 235.497 21.35C235.737 21.58 235.857 21.855 235.857 22.175C235.857 22.515 235.737 22.8 235.497 23.03C235.267 23.27 234.982 23.39 234.642 23.39ZM250.04 19.235L251.915 20.255C251.235 21.205 250.37 21.965 249.32 22.535C248.28 23.105 247.15 23.39 245.93 23.39C244.55 23.39 243.29 23.035 242.15 22.325C241.02 21.615 240.115 20.665 239.435 19.475C238.765 18.275 238.43 16.95 238.43 15.5C238.43 14.4 238.625 13.375 239.015 12.425C239.405 11.465 239.94 10.625 240.62 9.905C241.31 9.175 242.11 8.605 243.02 8.195C243.93 7.785 244.9 7.58 245.93 7.58C247.15 7.58 248.28 7.865 249.32 8.435C250.37 9.005 251.235 9.77 251.915 10.73L250.04 11.735C249.52 11.075 248.895 10.57 248.165 10.22C247.435 9.86 246.69 9.68 245.93 9.68C244.92 9.68 244.005 9.95 243.185 10.49C242.365 11.02 241.715 11.725 241.235 12.605C240.765 13.485 240.53 14.45 240.53 15.5C240.53 16.55 240.77 17.515 241.25 18.395C241.74 19.275 242.395 19.98 243.215 20.51C244.035 21.03 244.94 21.29 245.93 21.29C246.75 21.29 247.52 21.1 248.24 20.72C248.96 20.34 249.56 19.845 250.04 19.235ZM261.018 23.39C259.638 23.39 258.378 23.035 257.238 22.325C256.108 21.615 255.203 20.665 254.523 19.475C253.853 18.275 253.518 16.95 253.518 15.5C253.518 14.4 253.713 13.375 254.103 12.425C254.493 11.465 255.028 10.625 255.708 9.905C256.398 9.175 257.198 8.605 258.108 8.195C259.018 7.785 259.988 7.58 261.018 7.58C262.398 7.58 263.653 7.935 264.783 8.645C265.923 9.355 266.828 10.31 267.498 11.51C268.178 12.71 268.518 14.04 268.518 15.5C268.518 16.59 268.323 17.61 267.933 18.56C267.543 19.51 267.003 20.35 266.313 21.08C265.633 21.8 264.838 22.365 263.928 22.775C263.028 23.185 262.058 23.39 261.018 23.39ZM261.018 21.29C262.038 21.29 262.953 21.025 263.763 20.495C264.583 19.955 265.228 19.245 265.698 18.365C266.178 17.485 266.418 16.53 266.418 15.5C266.418 14.45 266.178 13.485 265.698 12.605C265.218 11.715 264.568 11.005 263.748 10.475C262.938 9.945 262.028 9.68 261.018 9.68C259.998 9.68 259.078 9.95 258.258 10.49C257.448 11.02 256.803 11.725 256.323 12.605C255.853 13.485 255.618 14.45 255.618 15.5C255.618 16.58 255.863 17.56 256.353 18.44C256.843 19.31 257.498 20.005 258.318 20.525C259.138 21.035 260.038 21.29 261.018 21.29ZM271.059 23V8H273.159V10.07C273.699 9.31 274.389 8.705 275.229 8.255C276.069 7.805 276.989 7.58 277.989 7.58C279.119 7.58 280.154 7.86 281.094 8.42C282.034 8.97 282.769 9.705 283.299 10.625C283.829 9.705 284.559 8.97 285.489 8.42C286.419 7.86 287.449 7.58 288.579 7.58C289.709 7.58 290.739 7.855 291.669 8.405C292.599 8.955 293.339 9.695 293.889 10.625C294.439 11.555 294.714 12.585 294.714 13.715V23H292.614V14.18C292.614 13.38 292.419 12.64 292.029 11.96C291.639 11.28 291.114 10.735 290.454 10.325C289.804 9.905 289.079 9.695 288.279 9.695C287.479 9.695 286.749 9.89 286.089 10.28C285.439 10.66 284.919 11.19 284.529 11.87C284.139 12.54 283.944 13.31 283.944 14.18V23H281.844V14.18C281.844 13.31 281.649 12.54 281.259 11.87C280.869 11.19 280.344 10.66 279.684 10.28C279.024 9.89 278.294 9.695 277.494 9.695C276.704 9.695 275.979 9.905 275.319 10.325C274.659 10.735 274.134 11.28 273.744 11.96C273.354 12.64 273.159 13.38 273.159 14.18V23H271.059Z" fill="url(#paint0_linear_101_85)"/>
<defs>
<linearGradient id="paint0_linear_101_85" x1="-30" y1="6.5" x2="318" y2="6.5" gradientUnits="userSpaceOnUse">
<stop stop-color="#AFD8E1"/>
<stop offset="1" stop-color="#416D77"/>
</linearGradient>
</defs>
</svg>
