<svg width="242" height="34" viewBox="0 0 242 34" fill="none" xmlns="http://www.w3.org/2000/svg">
<g filter="url(#filter0_f_163_7)">
<path d="M19.5893 6.55C20.2793 6.55 20.9143 6.645 21.4943 6.835C22.0743 7.025 22.5743 7.31 22.9943 7.69C23.4143 8.06 23.7393 8.53 23.9693 9.1C24.2093 9.66 24.3293 10.315 24.3293 11.065C24.3293 11.955 24.1893 12.715 23.9093 13.345C23.6293 13.965 23.2493 14.475 22.7693 14.875C22.2993 15.265 21.7443 15.55 21.1043 15.73C20.4743 15.91 19.8093 16 19.1093 16H16.4393V6.55H19.5893ZM18.0443 14.71H18.9743C19.4343 14.71 19.8793 14.66 20.3093 14.56C20.7493 14.45 21.1393 14.26 21.4793 13.99C21.8193 13.71 22.0893 13.335 22.2893 12.865C22.4993 12.395 22.6043 11.795 22.6043 11.065C22.6043 10.025 22.3043 9.23 21.7043 8.68C21.1143 8.12 20.3193 7.84 19.3193 7.84H18.0443V14.71ZM26.1366 16V8.92H27.6816V16H26.1366ZM26.9166 7.165C26.6466 7.165 26.4316 7.085 26.2716 6.925C26.1116 6.755 26.0316 6.545 26.0316 6.295C26.0316 6.045 26.1116 5.84 26.2716 5.68C26.4316 5.51 26.6466 5.425 26.9166 5.425C27.1766 5.425 27.3866 5.51 27.5466 5.68C27.7166 5.84 27.8016 6.045 27.8016 6.295C27.8016 6.555 27.7166 6.765 27.5466 6.925C27.3866 7.085 27.1766 7.165 26.9166 7.165ZM33.8895 10.36C33.5695 10.21 33.2695 10.105 32.9895 10.045C32.7195 9.975 32.4495 9.94 32.1795 9.94C31.7595 9.94 31.4395 10.02 31.2195 10.18C31.0095 10.33 30.9045 10.535 30.9045 10.795C30.9045 10.995 30.9845 11.17 31.1445 11.32C31.3045 11.46 31.6345 11.6 32.1345 11.74L32.5845 11.875C33.2345 12.075 33.7245 12.335 34.0545 12.655C34.3945 12.975 34.5645 13.405 34.5645 13.945C34.5645 14.605 34.3145 15.14 33.8145 15.55C33.3145 15.95 32.6295 16.15 31.7595 16.15C31.2895 16.15 30.8495 16.105 30.4395 16.015C30.0395 15.935 29.6795 15.82 29.3595 15.67L29.7195 14.5C30.0095 14.64 30.3195 14.755 30.6495 14.845C30.9795 14.935 31.3195 14.98 31.6695 14.98C32.0995 14.98 32.4345 14.905 32.6745 14.755C32.9145 14.605 33.0345 14.375 33.0345 14.065C33.0345 13.775 32.9245 13.57 32.7045 13.45C32.4945 13.32 32.1645 13.185 31.7145 13.045L31.2495 12.91C30.6195 12.7 30.1495 12.435 29.8395 12.115C29.5395 11.795 29.3895 11.375 29.3895 10.855C29.3895 10.545 29.4545 10.265 29.5845 10.015C29.7145 9.765 29.8945 9.55 30.1245 9.37C30.3545 9.19 30.6295 9.05 30.9495 8.95C31.2795 8.85 31.6395 8.8 32.0295 8.8C32.3995 8.8 32.7745 8.835 33.1545 8.905C33.5445 8.975 33.9045 9.085 34.2345 9.235L33.8895 10.36ZM39.1247 16.15C38.8247 16.15 38.5347 16.11 38.2547 16.03C37.9747 15.95 37.7347 15.84 37.5347 15.7V19.45H36.0047V8.83H37.2497L37.4447 9.715C37.7247 9.455 38.0397 9.24 38.3897 9.07C38.7397 8.89 39.1447 8.8 39.6047 8.8C40.5447 8.8 41.2847 9.105 41.8247 9.715C42.3647 10.325 42.6347 11.19 42.6347 12.31C42.6347 12.96 42.5347 13.53 42.3347 14.02C42.1447 14.5 41.8847 14.9 41.5547 15.22C41.2347 15.53 40.8597 15.765 40.4297 15.925C40.0097 16.075 39.5747 16.15 39.1247 16.15ZM39.2297 10.015C38.8497 10.015 38.5097 10.11 38.2097 10.3C37.9197 10.48 37.6947 10.67 37.5347 10.87V14.515C37.9447 14.825 38.4097 14.98 38.9297 14.98C39.1897 14.98 39.4447 14.935 39.6947 14.845C39.9447 14.755 40.1697 14.605 40.3697 14.395C40.5697 14.185 40.7297 13.915 40.8497 13.585C40.9697 13.245 41.0297 12.835 41.0297 12.355C41.0297 11.645 40.8797 11.08 40.5797 10.66C40.2897 10.23 39.8397 10.015 39.2297 10.015ZM50.7949 12.385C50.7949 12.975 50.6999 13.505 50.5099 13.975C50.3299 14.445 50.0799 14.84 49.7599 15.16C49.4399 15.48 49.0649 15.725 48.6349 15.895C48.2049 16.065 47.7399 16.15 47.2399 16.15C46.7399 16.15 46.2749 16.07 45.8449 15.91C45.4249 15.75 45.0549 15.52 44.7349 15.22C44.4249 14.91 44.1799 14.53 43.9999 14.08C43.8299 13.63 43.7449 13.115 43.7449 12.535C43.7449 11.935 43.8349 11.405 44.0149 10.945C44.2049 10.485 44.4599 10.095 44.7799 9.775C45.0999 9.455 45.4749 9.215 45.9049 9.055C46.3349 8.885 46.7999 8.8 47.2999 8.8C47.7999 8.8 48.2599 8.88 48.6799 9.04C49.1099 9.19 49.4799 9.415 49.7899 9.715C50.1099 10.015 50.3549 10.39 50.5249 10.84C50.7049 11.29 50.7949 11.805 50.7949 12.385ZM49.1899 12.46C49.1899 12.01 49.1349 11.63 49.0249 11.32C48.9149 11 48.7699 10.74 48.5899 10.54C48.4099 10.34 48.2049 10.195 47.9749 10.105C47.7449 10.015 47.5049 9.97 47.2549 9.97C47.0149 9.97 46.7799 10.01 46.5499 10.09C46.3199 10.17 46.1149 10.305 45.9349 10.495C45.7549 10.685 45.6099 10.94 45.4999 11.26C45.3999 11.58 45.3499 11.98 45.3499 12.46C45.3499 12.9 45.4049 13.28 45.5149 13.6C45.6249 13.92 45.7699 14.185 45.9499 14.395C46.1299 14.595 46.3349 14.745 46.5649 14.845C46.8049 14.935 47.0449 14.98 47.2849 14.98C47.5249 14.98 47.7599 14.94 47.9899 14.86C48.2199 14.78 48.4249 14.645 48.6049 14.455C48.7849 14.255 48.9249 13.995 49.0249 13.675C49.1349 13.345 49.1899 12.94 49.1899 12.46ZM53.8838 16H52.3388V8.92H53.5538L53.7638 9.865C54.1138 9.525 54.4788 9.265 54.8588 9.085C55.2488 8.895 55.6888 8.8 56.1788 8.8C56.9288 8.8 57.5088 9.005 57.9188 9.415C58.3288 9.825 58.5338 10.41 58.5338 11.17V16H56.9888V11.365C56.9888 10.955 56.8838 10.63 56.6738 10.39C56.4638 10.15 56.1488 10.03 55.7288 10.03C55.4088 10.03 55.0888 10.11 54.7688 10.27C54.4588 10.42 54.1638 10.64 53.8838 10.93V16ZM60.6779 16V8.92H62.2229V16H60.6779ZM61.9079 7.705H60.7229L61.7729 5.62H63.4679L61.9079 7.705ZM68.7305 8.92H70.3655L67.7705 16H66.1505L63.5555 8.92H65.2205L66.6305 13.33L66.9455 14.8H67.0055L67.3205 13.345L68.7305 8.92ZM77.4874 12.73H72.5224V12.79C72.5224 13.51 72.7324 14.055 73.1524 14.425C73.5724 14.795 74.1274 14.98 74.8174 14.98C75.1974 14.98 75.5374 14.95 75.8374 14.89C76.1474 14.82 76.4574 14.715 76.7674 14.575L77.0674 15.7C76.7774 15.83 76.4324 15.935 76.0324 16.015C75.6324 16.105 75.1924 16.15 74.7124 16.15C74.2024 16.15 73.7174 16.08 73.2574 15.94C72.7974 15.8 72.3924 15.58 72.0424 15.28C71.7024 14.98 71.4324 14.6 71.2324 14.14C71.0324 13.68 70.9324 13.13 70.9324 12.49C70.9324 11.94 71.0124 11.44 71.1724 10.99C71.3424 10.53 71.5774 10.14 71.8774 9.82C72.1874 9.49 72.5574 9.24 72.9874 9.07C73.4274 8.89 73.9124 8.8 74.4424 8.8C74.9024 8.8 75.3174 8.875 75.6874 9.025C76.0674 9.175 76.3874 9.39 76.6474 9.67C76.9174 9.94 77.1224 10.275 77.2624 10.675C77.4124 11.065 77.4874 11.5 77.4874 11.98V12.73ZM75.8974 11.65C75.8974 11.41 75.8674 11.185 75.8074 10.975C75.7474 10.765 75.6574 10.585 75.5374 10.435C75.4174 10.275 75.2574 10.15 75.0574 10.06C74.8674 9.96 74.6374 9.91 74.3674 9.91C73.8674 9.91 73.4574 10.07 73.1374 10.39C72.8274 10.71 72.6374 11.14 72.5674 11.68L75.8974 11.65ZM79.0443 16V5.335H80.5593V16H79.0443ZM89.0466 16.15C88.7466 16.15 88.4566 16.11 88.1766 16.03C87.8966 15.95 87.6566 15.84 87.4566 15.7V19.45H85.9266V8.83H87.1716L87.3666 9.715C87.6466 9.455 87.9616 9.24 88.3116 9.07C88.6616 8.89 89.0666 8.8 89.5266 8.8C90.4666 8.8 91.2066 9.105 91.7466 9.715C92.2866 10.325 92.5566 11.19 92.5566 12.31C92.5566 12.96 92.4566 13.53 92.2566 14.02C92.0666 14.5 91.8066 14.9 91.4766 15.22C91.1566 15.53 90.7816 15.765 90.3516 15.925C89.9316 16.075 89.4966 16.15 89.0466 16.15ZM89.1516 10.015C88.7716 10.015 88.4316 10.11 88.1316 10.3C87.8416 10.48 87.6166 10.67 87.4566 10.87V14.515C87.8666 14.825 88.3316 14.98 88.8516 14.98C89.1116 14.98 89.3666 14.935 89.6166 14.845C89.8666 14.755 90.0916 14.605 90.2916 14.395C90.4916 14.185 90.6516 13.915 90.7716 13.585C90.8916 13.245 90.9516 12.835 90.9516 12.355C90.9516 11.645 90.8016 11.08 90.5016 10.66C90.2116 10.23 89.7616 10.015 89.1516 10.015ZM94.1768 9.55C94.6368 9.3 95.0768 9.115 95.4968 8.995C95.9268 8.865 96.4018 8.8 96.9218 8.8C97.3218 8.8 97.6868 8.845 98.0168 8.935C98.3568 9.025 98.6468 9.17 98.8868 9.37C99.1268 9.57 99.3118 9.84 99.4418 10.18C99.5818 10.51 99.6518 10.915 99.6518 11.395V16H98.4068L98.2418 15.235H98.1968C97.9168 15.555 97.5918 15.79 97.2218 15.94C96.8518 16.08 96.4418 16.15 95.9918 16.15C95.2818 16.15 94.7068 15.96 94.2668 15.58C93.8368 15.2 93.6218 14.695 93.6218 14.065C93.6218 13.675 93.7018 13.34 93.8618 13.06C94.0218 12.77 94.2468 12.53 94.5368 12.34C94.8268 12.15 95.1718 12.01 95.5718 11.92C95.9718 11.82 96.4118 11.77 96.8918 11.77H98.0918V11.23C98.0918 10.78 97.9718 10.47 97.7318 10.3C97.4918 10.12 97.1618 10.03 96.7418 10.03C96.4818 10.03 96.1868 10.075 95.8568 10.165C95.5368 10.245 95.1668 10.4 94.7468 10.63L94.1768 9.55ZM98.1068 12.79L97.1618 12.805C96.4518 12.825 95.9518 12.95 95.6618 13.18C95.3718 13.41 95.2268 13.68 95.2268 13.99C95.2268 14.19 95.2568 14.355 95.3168 14.485C95.3868 14.615 95.4768 14.72 95.5868 14.8C95.6968 14.88 95.8218 14.94 95.9618 14.98C96.1118 15.01 96.2618 15.025 96.4118 15.025C96.7218 15.025 97.0268 14.95 97.3268 14.8C97.6368 14.64 97.8968 14.415 98.1068 14.125V12.79ZM101.499 16V8.92H102.669L102.894 10.285C103.064 9.865 103.339 9.515 103.719 9.235C104.099 8.945 104.559 8.8 105.099 8.8C105.339 8.8 105.544 8.82 105.714 8.86C105.894 8.9 106.054 8.955 106.194 9.025L105.909 10.315C105.789 10.255 105.649 10.205 105.489 10.165C105.339 10.125 105.164 10.105 104.964 10.105C104.414 10.105 103.954 10.295 103.584 10.675C103.214 11.045 103.029 11.61 103.029 12.37V16H101.499ZM107.053 9.55C107.513 9.3 107.953 9.115 108.373 8.995C108.803 8.865 109.278 8.8 109.798 8.8C110.198 8.8 110.563 8.845 110.893 8.935C111.233 9.025 111.523 9.17 111.763 9.37C112.003 9.57 112.188 9.84 112.318 10.18C112.458 10.51 112.528 10.915 112.528 11.395V16H111.283L111.118 15.235H111.073C110.793 15.555 110.468 15.79 110.098 15.94C109.728 16.08 109.318 16.15 108.868 16.15C108.158 16.15 107.583 15.96 107.143 15.58C106.713 15.2 106.498 14.695 106.498 14.065C106.498 13.675 106.578 13.34 106.738 13.06C106.898 12.77 107.123 12.53 107.413 12.34C107.703 12.15 108.048 12.01 108.448 11.92C108.848 11.82 109.288 11.77 109.768 11.77H110.968V11.23C110.968 10.78 110.848 10.47 110.608 10.3C110.368 10.12 110.038 10.03 109.618 10.03C109.358 10.03 109.063 10.075 108.733 10.165C108.413 10.245 108.043 10.4 107.623 10.63L107.053 9.55ZM110.983 12.79L110.038 12.805C109.328 12.825 108.828 12.95 108.538 13.18C108.248 13.41 108.103 13.68 108.103 13.99C108.103 14.19 108.133 14.355 108.193 14.485C108.263 14.615 108.353 14.72 108.463 14.8C108.573 14.88 108.698 14.94 108.838 14.98C108.988 15.01 109.138 15.025 109.288 15.025C109.598 15.025 109.903 14.95 110.203 14.8C110.513 14.64 110.773 14.415 110.983 14.125V12.79ZM119.962 16H117.742V8.8H119.467L119.722 9.7C120.042 9.37 120.402 9.11 120.802 8.92C121.202 8.73 121.637 8.635 122.107 8.635C122.917 8.635 123.537 8.855 123.967 9.295C124.397 9.735 124.612 10.38 124.612 11.23V16H122.392V11.455C122.392 11.105 122.307 10.83 122.137 10.63C121.977 10.42 121.737 10.315 121.417 10.315C121.177 10.315 120.922 10.385 120.652 10.525C120.392 10.665 120.162 10.85 119.962 11.08V16ZM133.48 12.355C133.48 12.945 133.38 13.475 133.18 13.945C132.99 14.415 132.725 14.815 132.385 15.145C132.045 15.475 131.645 15.73 131.185 15.91C130.725 16.08 130.23 16.165 129.7 16.165C129.17 16.165 128.675 16.085 128.215 15.925C127.765 15.755 127.375 15.515 127.045 15.205C126.715 14.895 126.455 14.515 126.265 14.065C126.075 13.605 125.98 13.085 125.98 12.505C125.98 11.895 126.075 11.35 126.265 10.87C126.465 10.39 126.735 9.985 127.075 9.655C127.415 9.325 127.815 9.075 128.275 8.905C128.735 8.725 129.23 8.635 129.76 8.635C130.29 8.635 130.78 8.715 131.23 8.875C131.69 9.035 132.085 9.275 132.415 9.595C132.745 9.905 133.005 10.29 133.195 10.75C133.385 11.21 133.48 11.745 133.48 12.355ZM131.2 12.43C131.2 12.04 131.16 11.71 131.08 11.44C131 11.16 130.89 10.935 130.75 10.765C130.61 10.585 130.45 10.455 130.27 10.375C130.09 10.295 129.905 10.255 129.715 10.255C129.525 10.255 129.34 10.29 129.16 10.36C128.99 10.43 128.835 10.55 128.695 10.72C128.565 10.89 128.46 11.115 128.38 11.395C128.3 11.665 128.26 12.01 128.26 12.43C128.26 13.16 128.41 13.695 128.71 14.035C129.01 14.375 129.355 14.545 129.745 14.545C129.935 14.545 130.115 14.51 130.285 14.44C130.465 14.36 130.62 14.24 130.75 14.08C130.89 13.91 131 13.69 131.08 13.42C131.16 13.15 131.2 12.82 131.2 12.43ZM139.174 8.8H141.529L139.009 16H136.369L133.969 8.8H136.339L137.209 11.95L137.704 14.455H137.764L138.259 11.95L139.174 8.8ZM148.875 13.045H144.225V13.105C144.225 13.605 144.42 13.97 144.81 14.2C145.2 14.43 145.69 14.545 146.28 14.545C146.69 14.545 147.05 14.505 147.36 14.425C147.67 14.345 147.93 14.25 148.14 14.14L148.545 15.67C148.275 15.8 147.93 15.915 147.51 16.015C147.1 16.115 146.595 16.165 145.995 16.165C145.455 16.165 144.94 16.095 144.45 15.955C143.97 15.805 143.545 15.58 143.175 15.28C142.815 14.98 142.525 14.6 142.305 14.14C142.095 13.68 141.99 13.13 141.99 12.49C141.99 11.92 142.075 11.4 142.245 10.93C142.425 10.45 142.675 10.04 142.995 9.7C143.315 9.36 143.695 9.1 144.135 8.92C144.585 8.73 145.08 8.635 145.62 8.635C146.61 8.635 147.4 8.935 147.99 9.535C148.58 10.135 148.875 10.99 148.875 12.1V13.045ZM146.61 11.53C146.61 11.36 146.59 11.195 146.55 11.035C146.51 10.875 146.445 10.735 146.355 10.615C146.275 10.485 146.165 10.385 146.025 10.315C145.895 10.235 145.735 10.195 145.545 10.195C145.195 10.195 144.905 10.32 144.675 10.57C144.445 10.81 144.31 11.14 144.27 11.56L146.61 11.53ZM152.466 16H150.246V8.8H151.971L152.226 9.7C152.546 9.37 152.896 9.11 153.276 8.92C153.656 8.73 154.081 8.635 154.551 8.635C155.581 8.635 156.286 9 156.666 9.73C156.986 9.4 157.346 9.135 157.746 8.935C158.156 8.735 158.591 8.635 159.051 8.635C159.821 8.635 160.416 8.845 160.836 9.265C161.256 9.675 161.466 10.28 161.466 11.08V16H159.246V11.305C159.246 11.005 159.166 10.765 159.006 10.585C158.846 10.405 158.631 10.315 158.361 10.315C158.121 10.315 157.871 10.375 157.611 10.495C157.351 10.615 157.136 10.79 156.966 11.02V16H154.746V11.305C154.746 11.005 154.666 10.765 154.506 10.585C154.346 10.405 154.131 10.315 153.861 10.315C153.621 10.315 153.371 10.385 153.111 10.525C152.851 10.665 152.636 10.85 152.466 11.08V16ZM170.5 12.43C170.5 13.01 170.41 13.53 170.23 13.99C170.06 14.45 169.82 14.845 169.51 15.175C169.21 15.495 168.85 15.74 168.43 15.91C168.02 16.08 167.57 16.165 167.08 16.165C166.61 16.165 166.21 16.095 165.88 15.955C165.55 15.805 165.27 15.6 165.04 15.34H164.98L164.845 16H163.24V5.275H165.445V9.295C165.675 9.105 165.945 8.95 166.255 8.83C166.565 8.7 166.91 8.635 167.29 8.635C168.29 8.635 169.075 8.97 169.645 9.64C170.215 10.3 170.5 11.23 170.5 12.43ZM168.22 12.49C168.22 11.76 168.08 11.215 167.8 10.855C167.52 10.495 167.125 10.315 166.615 10.315C166.375 10.315 166.145 10.38 165.925 10.51C165.715 10.63 165.56 10.75 165.46 10.87V14.11C165.57 14.24 165.715 14.345 165.895 14.425C166.075 14.505 166.265 14.545 166.465 14.545C166.695 14.545 166.915 14.505 167.125 14.425C167.335 14.345 167.52 14.22 167.68 14.05C167.85 13.88 167.98 13.665 168.07 13.405C168.17 13.145 168.22 12.84 168.22 12.49ZM171.868 16V8.8H173.608L173.833 10.06C173.923 9.88 174.033 9.705 174.163 9.535C174.293 9.355 174.448 9.2 174.628 9.07C174.808 8.94 175.013 8.835 175.243 8.755C175.483 8.675 175.748 8.635 176.038 8.635C176.258 8.635 176.458 8.665 176.638 8.725C176.828 8.775 176.978 8.835 177.088 8.905L176.728 10.63C176.618 10.57 176.478 10.515 176.308 10.465C176.138 10.415 175.928 10.39 175.678 10.39C175.218 10.39 174.833 10.54 174.523 10.84C174.223 11.14 174.073 11.66 174.073 12.4V16H171.868ZM184.559 12.355C184.559 12.945 184.459 13.475 184.259 13.945C184.069 14.415 183.804 14.815 183.464 15.145C183.124 15.475 182.724 15.73 182.264 15.91C181.804 16.08 181.309 16.165 180.779 16.165C180.249 16.165 179.754 16.085 179.294 15.925C178.844 15.755 178.454 15.515 178.124 15.205C177.794 14.895 177.534 14.515 177.344 14.065C177.154 13.605 177.059 13.085 177.059 12.505C177.059 11.895 177.154 11.35 177.344 10.87C177.544 10.39 177.814 9.985 178.154 9.655C178.494 9.325 178.894 9.075 179.354 8.905C179.814 8.725 180.309 8.635 180.839 8.635C181.369 8.635 181.859 8.715 182.309 8.875C182.769 9.035 183.164 9.275 183.494 9.595C183.824 9.905 184.084 10.29 184.274 10.75C184.464 11.21 184.559 11.745 184.559 12.355ZM182.279 12.43C182.279 12.04 182.239 11.71 182.159 11.44C182.079 11.16 181.969 10.935 181.829 10.765C181.689 10.585 181.529 10.455 181.349 10.375C181.169 10.295 180.984 10.255 180.794 10.255C180.604 10.255 180.419 10.29 180.239 10.36C180.069 10.43 179.914 10.55 179.774 10.72C179.644 10.89 179.539 11.115 179.459 11.395C179.379 11.665 179.339 12.01 179.339 12.43C179.339 13.16 179.489 13.695 179.789 14.035C180.089 14.375 180.434 14.545 180.824 14.545C181.014 14.545 181.194 14.51 181.364 14.44C181.544 14.36 181.699 14.24 181.829 14.08C181.969 13.91 182.079 13.69 182.159 13.42C182.239 13.15 182.279 12.82 182.279 12.43ZM191.861 8.05C191.551 8.05 191.251 8.11 190.961 8.23C190.681 8.34 190.386 8.525 190.076 8.785L189.176 7.405C189.546 7.105 189.966 6.86 190.436 6.67C190.906 6.47 191.491 6.37 192.191 6.37C192.651 6.37 193.066 6.44 193.436 6.58C193.816 6.72 194.136 6.915 194.396 7.165C194.656 7.405 194.856 7.695 194.996 8.035C195.146 8.375 195.221 8.745 195.221 9.145C195.221 9.775 195.001 10.445 194.561 11.155C194.131 11.865 193.491 12.615 192.641 13.405L191.681 14.305H195.296V16H189.461L189.071 14.545L190.451 13.165C190.941 12.675 191.346 12.25 191.666 11.89C191.986 11.52 192.241 11.19 192.431 10.9C192.631 10.6 192.771 10.325 192.851 10.075C192.931 9.825 192.971 9.58 192.971 9.34C192.971 8.89 192.861 8.565 192.641 8.365C192.421 8.155 192.161 8.05 191.861 8.05ZM200.429 6.37C200.999 6.37 201.524 6.465 202.004 6.655C202.494 6.835 202.914 7.125 203.264 7.525C203.614 7.915 203.889 8.42 204.089 9.04C204.289 9.65 204.389 10.385 204.389 11.245C204.389 12.085 204.279 12.815 204.059 13.435C203.849 14.055 203.559 14.57 203.189 14.98C202.819 15.38 202.394 15.68 201.914 15.88C201.434 16.07 200.934 16.165 200.414 16.165C199.844 16.165 199.314 16.07 198.824 15.88C198.344 15.69 197.924 15.395 197.564 14.995C197.214 14.595 196.939 14.085 196.739 13.465C196.539 12.845 196.439 12.105 196.439 11.245C196.439 10.425 196.549 9.71 196.769 9.1C196.989 8.48 197.279 7.97 197.639 7.57C198.009 7.17 198.434 6.87 198.914 6.67C199.394 6.47 199.899 6.37 200.429 6.37ZM198.719 11.245C198.719 11.875 198.764 12.4 198.854 12.82C198.954 13.24 199.079 13.58 199.229 13.84C199.389 14.09 199.569 14.27 199.769 14.38C199.979 14.48 200.199 14.53 200.429 14.53C200.649 14.53 200.859 14.48 201.059 14.38C201.269 14.27 201.449 14.09 201.599 13.84C201.759 13.58 201.884 13.24 201.974 12.82C202.064 12.4 202.109 11.875 202.109 11.245C202.109 10.615 202.064 10.095 201.974 9.685C201.884 9.265 201.759 8.935 201.599 8.695C201.449 8.445 201.269 8.27 201.059 8.17C200.859 8.06 200.649 8.005 200.429 8.005C200.199 8.005 199.979 8.055 199.769 8.155C199.569 8.255 199.389 8.43 199.229 8.68C199.079 8.93 198.954 9.265 198.854 9.685C198.764 10.095 198.719 10.615 198.719 11.245ZM208.18 8.05C207.87 8.05 207.57 8.11 207.28 8.23C207 8.34 206.705 8.525 206.395 8.785L205.495 7.405C205.865 7.105 206.285 6.86 206.755 6.67C207.225 6.47 207.81 6.37 208.51 6.37C208.97 6.37 209.385 6.44 209.755 6.58C210.135 6.72 210.455 6.915 210.715 7.165C210.975 7.405 211.175 7.695 211.315 8.035C211.465 8.375 211.54 8.745 211.54 9.145C211.54 9.775 211.32 10.445 210.88 11.155C210.45 11.865 209.81 12.615 208.96 13.405L208 14.305H211.615V16H205.78L205.39 14.545L206.77 13.165C207.26 12.675 207.665 12.25 207.985 11.89C208.305 11.52 208.56 11.19 208.75 10.9C208.95 10.6 209.09 10.325 209.17 10.075C209.25 9.825 209.29 9.58 209.29 9.34C209.29 8.89 209.18 8.565 208.96 8.365C208.74 8.155 208.48 8.05 208.18 8.05ZM215.757 6.55H218.442V12.205H219.777V13.9H218.442V16H216.312V13.9H211.962V12.475L215.757 6.55ZM215.457 10.225L214.197 12.205H216.312V10.405L216.402 8.44H216.372L215.457 10.225Z" fill="#ADB6A7"/>
</g>
<g filter="url(#filter1_f_163_7)">
<circle cx="230" cy="11" r="6" fill="#47C732"/>
</g>
<defs>
<filter id="filter0_f_163_7" x="14.9395" y="3.7749" width="206.337" height="17.175" filterUnits="userSpaceOnUse" color-interpolation-filters="sRGB">
<feFlood flood-opacity="0" result="BackgroundImageFix"/>
<feBlend mode="normal" in="SourceGraphic" in2="BackgroundImageFix" result="shape"/>
<feGaussianBlur stdDeviation="0.75" result="effect1_foregroundBlur_163_7"/>
</filter>
<filter id="filter1_f_163_7" x="220" y="1" width="20" height="20" filterUnits="userSpaceOnUse" color-interpolation-filters="sRGB">
<feFlood flood-opacity="0" result="BackgroundImageFix"/>
<feBlend mode="normal" in="SourceGraphic" in2="BackgroundImageFix" result="shape"/>
<feGaussianBlur stdDeviation="2" result="effect1_foregroundBlur_163_7"/>
</filter>
</defs>
</svg>
