<svg width="233" height="104" viewBox="0 0 233 104" fill="none" xmlns="http://www.w3.org/2000/svg">
<g clip-path="url(#clip0_211_11)">
<rect x="77" y="27" width="132" height="40" fill="url(#paint0_linear_211_11)"/>
<path d="M27.9353 54V30.64H30.0793L37.8873 47.376H38.5273L46.3353 30.64H48.5753V54H46.8473V32.624L47.0393 32.656L39.4233 48.976H36.9273L29.3113 32.656L29.5353 32.624V54H27.9353ZM53.8768 60.528V58.96H55.7968C56.5434 58.96 57.1941 58.864 57.7488 58.672C58.3034 58.5013 58.7834 58.1813 59.1888 57.712C59.6154 57.2427 59.9674 56.5707 60.2448 55.696L66.2288 37.2H67.9248L61.6848 56.24C61.3434 57.2853 60.8848 58.1173 60.3088 58.736C59.7541 59.376 59.0821 59.8347 58.2928 60.112C57.5248 60.3893 56.6501 60.528 55.6688 60.528H53.8768ZM59.7008 53.584V52.08H62.0688V53.584H59.7008ZM59.3808 53.584L53.2688 37.2H54.9968L61.0448 53.584H59.3808ZM80.1085 60.4V37.2H81.4525V44.368L80.9405 44.592C80.9618 43.0133 81.2925 41.6373 81.9325 40.464C82.5938 39.2693 83.4898 38.3413 84.6205 37.68C85.7512 37.0187 87.0632 36.688 88.5565 36.688C89.8365 36.688 90.9778 36.9333 91.9805 37.424C92.9832 37.8933 93.8258 38.544 94.5085 39.376C95.2125 40.1867 95.7458 41.1147 96.1085 42.16C96.4712 43.2053 96.6525 44.304 96.6525 45.456V45.776C96.6525 46.864 96.4712 47.9307 96.1085 48.976C95.7458 50 95.2125 50.9387 94.5085 51.792C93.8258 52.624 92.9832 53.296 91.9805 53.808C90.9778 54.2987 89.8365 54.544 88.5565 54.544C87.0632 54.544 85.7405 54.2027 84.5885 53.52C83.4578 52.8373 82.5725 51.8987 81.9325 50.704C81.2925 49.488 80.9512 48.112 80.9085 46.576L81.8045 48.816V60.4H80.1085ZM88.3325 53.008C89.7405 53.008 90.9352 52.6667 91.9165 51.984C92.9192 51.28 93.6765 50.3733 94.1885 49.264C94.7005 48.1333 94.9565 46.9173 94.9565 45.616C94.9565 44.2507 94.6898 43.0133 94.1565 41.904C93.6445 40.7733 92.8872 39.8773 91.8845 39.216C90.9032 38.5547 89.7192 38.224 88.3325 38.224C87.0525 38.224 85.9112 38.512 84.9085 39.088C83.9272 39.6427 83.1485 40.4213 82.5725 41.424C81.9965 42.4053 81.7085 43.536 81.7085 44.816V46.448C81.7085 47.664 81.9858 48.7733 82.5405 49.776C83.1165 50.7573 83.8952 51.5467 84.8765 52.144C85.8792 52.72 87.0312 53.008 88.3325 53.008ZM101.827 54V37.2H103.171V44.304H102.915C102.915 41.872 103.459 40.0587 104.547 38.864C105.635 37.6693 107.395 37.072 109.827 37.072H110.403V38.608H109.507C107.523 38.608 106.03 39.12 105.027 40.144C104.025 41.1467 103.523 42.6293 103.523 44.592V54H101.827ZM121.623 54.544C120.215 54.544 118.967 54.288 117.879 53.776C116.791 53.264 115.874 52.592 115.127 51.76C114.402 50.928 113.847 50 113.463 48.976C113.101 47.9307 112.919 46.864 112.919 45.776V45.456C112.919 44.3467 113.111 43.2693 113.495 42.224C113.879 41.1787 114.445 40.24 115.191 39.408C115.938 38.576 116.845 37.9147 117.911 37.424C118.999 36.9333 120.237 36.688 121.623 36.688C122.989 36.688 124.205 36.9333 125.271 37.424C126.359 37.9147 127.277 38.576 128.023 39.408C128.77 40.24 129.335 41.1787 129.719 42.224C130.125 43.2693 130.327 44.3467 130.327 45.456V45.776C130.327 46.864 130.135 47.9307 129.751 48.976C129.367 50 128.802 50.928 128.055 51.76C127.33 52.592 126.423 53.264 125.335 53.776C124.269 54.288 123.031 54.544 121.623 54.544ZM121.623 52.976C123.117 52.976 124.375 52.6347 125.399 51.952C126.445 51.2693 127.234 50.3733 127.767 49.264C128.322 48.1333 128.599 46.9173 128.599 45.616C128.599 44.272 128.322 43.0453 127.767 41.936C127.213 40.8053 126.413 39.9093 125.367 39.248C124.343 38.5653 123.095 38.224 121.623 38.224C120.173 38.224 118.914 38.5653 117.847 39.248C116.802 39.9093 116.002 40.8053 115.447 41.936C114.893 43.0453 114.615 44.272 114.615 45.616C114.615 46.9173 114.882 48.1333 115.415 49.264C115.97 50.3733 116.77 51.2693 117.815 51.952C118.861 52.6347 120.13 52.976 121.623 52.976ZM142.364 54.544C140.977 54.544 139.761 54.288 138.716 53.776C137.692 53.264 136.828 52.5813 136.124 51.728C135.441 50.8747 134.929 49.9253 134.588 48.88C134.246 47.8347 134.076 46.7787 134.076 45.712V45.392C134.076 44.304 134.246 43.2373 134.588 42.192C134.929 41.1467 135.441 40.2187 136.124 39.408C136.828 38.576 137.692 37.9147 138.716 37.424C139.761 36.9333 140.977 36.688 142.364 36.688C143.708 36.688 144.902 36.9333 145.948 37.424C147.014 37.9147 147.878 38.608 148.54 39.504C149.222 40.3787 149.649 41.4347 149.819 42.672H148.156C147.964 41.392 147.366 40.336 146.364 39.504C145.361 38.6507 144.028 38.224 142.364 38.224C140.892 38.224 139.665 38.5547 138.684 39.216C137.702 39.8773 136.966 40.7627 136.476 41.872C136.006 42.9813 135.772 44.208 135.772 45.552C135.772 46.8533 136.017 48.0693 136.508 49.2C136.998 50.3307 137.734 51.248 138.716 51.952C139.697 52.6347 140.913 52.976 142.364 52.976C143.494 52.976 144.486 52.7733 145.34 52.368C146.214 51.9413 146.918 51.3867 147.452 50.704C147.985 50 148.305 49.232 148.412 48.4H150.076C149.926 49.6373 149.5 50.7147 148.796 51.632C148.092 52.528 147.185 53.2427 146.076 53.776C144.966 54.288 143.729 54.544 142.364 54.544ZM161.582 54.544C160.152 54.544 158.915 54.2987 157.87 53.808C156.824 53.296 155.971 52.624 155.31 51.792C154.648 50.9387 154.147 49.9893 153.806 48.944C153.486 47.8773 153.326 46.8 153.326 45.712V45.392C153.326 44.2827 153.486 43.216 153.806 42.192C154.147 41.168 154.648 40.24 155.31 39.408C155.992 38.5547 156.835 37.8933 157.838 37.424C158.862 36.9333 160.046 36.688 161.39 36.688C163.096 36.688 164.526 37.072 165.678 37.84C166.851 38.5867 167.736 39.568 168.333 40.784C168.931 42 169.23 43.28 169.23 44.624V45.776H154.126V44.368H168.11L167.597 45.008C167.597 43.7067 167.352 42.544 166.862 41.52C166.392 40.496 165.688 39.696 164.75 39.12C163.832 38.5227 162.712 38.224 161.39 38.224C159.96 38.224 158.766 38.5547 157.806 39.216C156.846 39.8773 156.12 40.7627 155.63 41.872C155.16 42.9813 154.926 44.208 154.926 45.552C154.926 46.896 155.16 48.1333 155.63 49.264C156.12 50.3733 156.856 51.28 157.838 51.984C158.819 52.6667 160.067 53.008 161.582 53.008C163.203 53.008 164.504 52.6347 165.486 51.888C166.488 51.1413 167.096 50.2453 167.31 49.2H168.974C168.739 50.2453 168.291 51.1733 167.63 51.984C166.968 52.7947 166.126 53.424 165.102 53.872C164.099 54.32 162.926 54.544 161.582 54.544ZM179.133 54.48C177.042 54.48 175.431 54 174.301 53.04C173.191 52.08 172.626 50.8533 172.605 49.36H174.269C174.269 50.32 174.642 51.1627 175.389 51.888C176.157 52.592 177.405 52.944 179.133 52.944C180.818 52.944 182.055 52.592 182.845 51.888C183.634 51.1627 184.029 50.3093 184.029 49.328C184.029 48.368 183.666 47.632 182.941 47.12C182.237 46.608 181.277 46.288 180.061 46.16L178.077 45.936C176.605 45.7653 175.431 45.3067 174.557 44.56C173.703 43.8133 173.277 42.8 173.277 41.52C173.277 40.6027 173.511 39.7813 173.981 39.056C174.45 38.3307 175.122 37.7547 175.997 37.328C176.893 36.9013 177.938 36.688 179.133 36.688C180.882 36.688 182.29 37.1147 183.357 37.968C184.445 38.8213 184.999 39.984 185.021 41.456H183.357C183.378 40.5387 183.015 39.7707 182.269 39.152C181.543 38.5333 180.498 38.224 179.133 38.224C177.703 38.224 176.637 38.5547 175.933 39.216C175.25 39.8773 174.909 40.656 174.909 41.552C174.909 42.2987 175.175 42.9387 175.709 43.472C176.263 44.0053 177.095 44.336 178.205 44.464L180.189 44.688C181.767 44.8373 183.069 45.296 184.093 46.064C185.138 46.832 185.661 47.9307 185.661 49.36C185.661 50.32 185.394 51.184 184.861 51.952C184.349 52.72 183.613 53.3387 182.653 53.808C181.693 54.256 180.519 54.48 179.133 54.48ZM195.883 54.48C193.792 54.48 192.181 54 191.051 53.04C189.941 52.08 189.376 50.8533 189.355 49.36H191.019C191.019 50.32 191.392 51.1627 192.139 51.888C192.907 52.592 194.155 52.944 195.883 52.944C197.568 52.944 198.805 52.592 199.595 51.888C200.384 51.1627 200.779 50.3093 200.779 49.328C200.779 48.368 200.416 47.632 199.691 47.12C198.987 46.608 198.027 46.288 196.811 46.16L194.827 45.936C193.355 45.7653 192.181 45.3067 191.307 44.56C190.453 43.8133 190.027 42.8 190.027 41.52C190.027 40.6027 190.261 39.7813 190.731 39.056C191.2 38.3307 191.872 37.7547 192.747 37.328C193.643 36.9013 194.688 36.688 195.883 36.688C197.632 36.688 199.04 37.1147 200.107 37.968C201.195 38.8213 201.749 39.984 201.771 41.456H200.107C200.128 40.5387 199.765 39.7707 199.019 39.152C198.293 38.5333 197.248 38.224 195.883 38.224C194.453 38.224 193.387 38.5547 192.683 39.216C192 39.8773 191.659 40.656 191.659 41.552C191.659 42.2987 191.925 42.9387 192.459 43.472C193.013 44.0053 193.845 44.336 194.955 44.464L196.939 44.688C198.517 44.8373 199.819 45.296 200.843 46.064C201.888 46.832 202.411 47.9307 202.411 49.36C202.411 50.32 202.144 51.184 201.611 51.952C201.099 52.72 200.363 53.3387 199.403 53.808C198.443 54.256 197.269 54.48 195.883 54.48ZM27.901 92V73.472C27.901 71.808 28.317 70.5813 29.149 69.792C30.0023 69.0027 31.2823 68.608 32.989 68.608H35.197V70.08H32.605C31.6237 70.08 30.8663 70.3467 30.333 70.88C29.821 71.392 29.565 72.1173 29.565 73.056V92H27.901ZM25.309 76.672V75.328H35.549V76.672H25.309ZM46.467 92.544C45.059 92.544 43.811 92.288 42.723 91.776C41.635 91.264 40.7177 90.592 39.971 89.76C39.2457 88.928 38.691 88 38.307 86.976C37.9443 85.9307 37.763 84.864 37.763 83.776V83.456C37.763 82.3467 37.955 81.2693 38.339 80.224C38.723 79.1787 39.2883 78.24 40.035 77.408C40.7817 76.576 41.6883 75.9147 42.755 75.424C43.843 74.9333 45.0803 74.688 46.467 74.688C47.8323 74.688 49.0483 74.9333 50.115 75.424C51.203 75.9147 52.1203 76.576 52.867 77.408C53.6137 78.24 54.179 79.1787 54.563 80.224C54.9683 81.2693 55.171 82.3467 55.171 83.456V83.776C55.171 84.864 54.979 85.9307 54.595 86.976C54.211 88 53.6457 88.928 52.899 89.76C52.1737 90.592 51.267 91.264 50.179 91.776C49.1123 92.288 47.875 92.544 46.467 92.544ZM46.467 90.976C47.9603 90.976 49.219 90.6347 50.243 89.952C51.2883 89.2693 52.0777 88.3733 52.611 87.264C53.1657 86.1333 53.443 84.9173 53.443 83.616C53.443 82.272 53.1657 81.0453 52.611 79.936C52.0563 78.8053 51.2563 77.9093 50.211 77.248C49.187 76.5653 47.939 76.224 46.467 76.224C45.0163 76.224 43.7577 76.5653 42.691 77.248C41.6457 77.9093 40.8457 78.8053 40.291 79.936C39.7363 81.0453 39.459 82.272 39.459 83.616C39.459 84.9173 39.7257 86.1333 40.259 87.264C40.8137 88.3733 41.6137 89.2693 42.659 89.952C43.7043 90.6347 44.9737 90.976 46.467 90.976ZM60.3273 92V75.2H61.6713V82.304H61.4153C61.4153 79.872 61.9593 78.0587 63.0473 76.864C64.1353 75.6693 65.8953 75.072 68.3273 75.072H68.9033V76.608H68.0073C66.0233 76.608 64.5299 77.12 63.5273 78.144C62.5246 79.1467 62.0233 80.6293 62.0233 82.592V92H60.3273ZM80.7023 92V68.64H82.3983V81.12L81.7903 82.208C81.7903 80.736 82.0143 79.4453 82.4623 78.336C82.9316 77.2053 83.6356 76.3307 84.5743 75.712C85.5129 75.072 86.6969 74.752 88.1263 74.752H88.1903C90.2809 74.752 91.8596 75.4133 92.9263 76.736C93.9929 78.0373 94.5263 79.8187 94.5263 82.08V92H92.7983V81.696C92.7983 80.0747 92.3609 78.7733 91.4863 77.792C90.6116 76.8107 89.3743 76.32 87.7743 76.32C86.1316 76.32 84.8196 76.8427 83.8383 77.888C82.8783 78.912 82.3983 80.256 82.3983 81.92V92H80.7023ZM107.738 92.544C106.308 92.544 105.071 92.2987 104.026 91.808C102.98 91.296 102.127 90.624 101.466 89.792C100.804 88.9387 100.303 87.9893 99.9618 86.944C99.6418 85.8773 99.4818 84.8 99.4818 83.712V83.392C99.4818 82.2827 99.6418 81.216 99.9618 80.192C100.303 79.168 100.804 78.24 101.466 77.408C102.148 76.5547 102.991 75.8933 103.994 75.424C105.018 74.9333 106.202 74.688 107.546 74.688C109.252 74.688 110.682 75.072 111.834 75.84C113.007 76.5867 113.892 77.568 114.49 78.784C115.087 80 115.386 81.28 115.386 82.624V83.776H100.282V82.368H114.266L113.754 83.008C113.754 81.7067 113.508 80.544 113.018 79.52C112.548 78.496 111.844 77.696 110.906 77.12C109.988 76.5227 108.868 76.224 107.546 76.224C106.116 76.224 104.922 76.5547 103.962 77.216C103.002 77.8773 102.276 78.7627 101.786 79.872C101.316 80.9813 101.082 82.208 101.082 83.552C101.082 84.896 101.316 86.1333 101.786 87.264C102.276 88.3733 103.012 89.28 103.994 89.984C104.975 90.6667 106.223 91.008 107.738 91.008C109.359 91.008 110.66 90.6347 111.642 89.888C112.644 89.1413 113.252 88.2453 113.466 87.2H115.13C114.895 88.2453 114.447 89.1733 113.786 89.984C113.124 90.7947 112.282 91.424 111.258 91.872C110.255 92.32 109.082 92.544 107.738 92.544ZM120.361 92V68.64H122.057V92H120.361ZM117.833 70.08V68.64H122.057V70.08H117.833ZM128.64 98.4V75.2H129.984V82.368L129.472 82.592C129.493 81.0133 129.824 79.6373 130.464 78.464C131.125 77.2693 132.021 76.3413 133.152 75.68C134.282 75.0187 135.594 74.688 137.088 74.688C138.368 74.688 139.509 74.9333 140.512 75.424C141.514 75.8933 142.357 76.544 143.04 77.376C143.744 78.1867 144.277 79.1147 144.64 80.16C145.002 81.2053 145.184 82.304 145.184 83.456V83.776C145.184 84.864 145.002 85.9307 144.64 86.976C144.277 88 143.744 88.9387 143.04 89.792C142.357 90.624 141.514 91.296 140.512 91.808C139.509 92.2987 138.368 92.544 137.088 92.544C135.594 92.544 134.272 92.2027 133.12 91.52C131.989 90.8373 131.104 89.8987 130.464 88.704C129.824 87.488 129.482 86.112 129.44 84.576L130.336 86.816V98.4H128.64ZM136.864 91.008C138.272 91.008 139.466 90.6667 140.448 89.984C141.45 89.28 142.208 88.3733 142.72 87.264C143.232 86.1333 143.488 84.9173 143.488 83.616C143.488 82.2507 143.221 81.0133 142.688 79.904C142.176 78.7733 141.418 77.8773 140.416 77.216C139.434 76.5547 138.25 76.224 136.864 76.224C135.584 76.224 134.442 76.512 133.44 77.088C132.458 77.6427 131.68 78.4213 131.104 79.424C130.528 80.4053 130.24 81.536 130.24 82.816V84.448C130.24 85.664 130.517 86.7733 131.072 87.776C131.648 88.7573 132.426 89.5467 133.408 90.144C134.41 90.72 135.562 91.008 136.864 91.008ZM156.127 98.528V96.96H158.047C158.793 96.96 159.444 96.864 159.999 96.672C160.553 96.5013 161.033 96.1813 161.439 95.712C161.865 95.2427 162.217 94.5707 162.495 93.696L168.479 75.2H170.175L163.935 94.24C163.593 95.2853 163.135 96.1173 162.559 96.736C162.004 97.376 161.332 97.8347 160.543 98.112C159.775 98.3893 158.9 98.528 157.919 98.528H156.127ZM161.951 91.584V90.08H164.319V91.584H161.951ZM161.631 91.584L155.519 75.2H157.247L163.295 91.584H161.631ZM181.717 92.544C180.309 92.544 179.061 92.288 177.973 91.776C176.885 91.264 175.968 90.592 175.221 89.76C174.496 88.928 173.941 88 173.557 86.976C173.194 85.9307 173.013 84.864 173.013 83.776V83.456C173.013 82.3467 173.205 81.2693 173.589 80.224C173.973 79.1787 174.538 78.24 175.285 77.408C176.032 76.576 176.938 75.9147 178.005 75.424C179.093 74.9333 180.33 74.688 181.717 74.688C183.082 74.688 184.298 74.9333 185.365 75.424C186.453 75.9147 187.37 76.576 188.117 77.408C188.864 78.24 189.429 79.1787 189.813 80.224C190.218 81.2693 190.421 82.3467 190.421 83.456V83.776C190.421 84.864 190.229 85.9307 189.845 86.976C189.461 88 188.896 88.928 188.149 89.76C187.424 90.592 186.517 91.264 185.429 91.776C184.362 92.288 183.125 92.544 181.717 92.544ZM181.717 90.976C183.21 90.976 184.469 90.6347 185.493 89.952C186.538 89.2693 187.328 88.3733 187.861 87.264C188.416 86.1333 188.693 84.9173 188.693 83.616C188.693 82.272 188.416 81.0453 187.861 79.936C187.306 78.8053 186.506 77.9093 185.461 77.248C184.437 76.5653 183.189 76.224 181.717 76.224C180.266 76.224 179.008 76.5653 177.941 77.248C176.896 77.9093 176.096 78.8053 175.541 79.936C174.986 81.0453 174.709 82.272 174.709 83.616C174.709 84.9173 174.976 86.1333 175.509 87.264C176.064 88.3733 176.864 89.2693 177.909 89.952C178.954 90.6347 180.224 90.976 181.717 90.976ZM201.305 92.48C199.279 92.48 197.743 91.8293 196.697 90.528C195.652 89.2267 195.129 87.4667 195.129 85.248V75.2H196.857V85.632C196.857 87.1893 197.263 88.4587 198.073 89.44C198.905 90.4 200.1 90.88 201.657 90.88C203.236 90.88 204.484 90.3787 205.401 89.376C206.34 88.3733 206.809 87.0613 206.809 85.44V75.2H208.505V92H207.161V85.216H207.545C207.545 86.6453 207.311 87.9147 206.841 89.024C206.393 90.112 205.721 90.9653 204.825 91.584C203.929 92.1813 202.788 92.48 201.401 92.48H201.305Z" fill="white"/>
</g>
<defs>
<linearGradient id="paint0_linear_211_11" x1="209" y1="32.8333" x2="115.567" y2="49.8792" gradientUnits="userSpaceOnUse">
<stop offset="0.22" stop-color="#637836"/>
<stop offset="1" stop-color="#1B4A64"/>
</linearGradient>
<clipPath id="clip0_211_11">
<rect width="233" height="104" fill="white"/>
</clipPath>
</defs>
</svg>
