<svg width="375" height="74" viewBox="0 0 375 74" fill="none" xmlns="http://www.w3.org/2000/svg">
<g clip-path="url(#clip0_205_2)">
<rect x="53" y="30" width="127" height="40" fill="url(#paint0_linear_205_2)"/>
<path d="M3.56025 56V32.64H5.70425L13.5123 49.376H14.1523L21.9603 32.64H24.2003V56H22.4723V34.624L22.6643 34.656L15.0483 50.976H12.5523L4.93625 34.656L5.16025 34.624V56H3.56025ZM29.5018 62.528V60.96H31.4218C32.1684 60.96 32.8191 60.864 33.3738 60.672C33.9284 60.5013 34.4084 60.1813 34.8138 59.712C35.2404 59.2427 35.5924 58.5707 35.8698 57.696L41.8538 39.2H43.5498L37.3098 58.24C36.9684 59.2853 36.5098 60.1173 35.9338 60.736C35.3791 61.376 34.7071 61.8347 33.9178 62.112C33.1498 62.3893 32.2751 62.528 31.2938 62.528H29.5018ZM35.3258 55.584V54.08H37.6938V55.584H35.3258ZM35.0058 55.584L28.8938 39.2H30.6218L36.6698 55.584H35.0058ZM55.7335 62.4V39.2H57.0775V46.368L56.5655 46.592C56.5868 45.0133 56.9175 43.6373 57.5575 42.464C58.2188 41.2693 59.1148 40.3413 60.2455 39.68C61.3762 39.0187 62.6882 38.688 64.1815 38.688C65.4615 38.688 66.6028 38.9333 67.6055 39.424C68.6082 39.8933 69.4508 40.544 70.1335 41.376C70.8375 42.1867 71.3708 43.1147 71.7335 44.16C72.0962 45.2053 72.2775 46.304 72.2775 47.456V47.776C72.2775 48.864 72.0962 49.9307 71.7335 50.976C71.3708 52 70.8375 52.9387 70.1335 53.792C69.4508 54.624 68.6082 55.296 67.6055 55.808C66.6028 56.2987 65.4615 56.544 64.1815 56.544C62.6882 56.544 61.3655 56.2027 60.2135 55.52C59.0828 54.8373 58.1975 53.8987 57.5575 52.704C56.9175 51.488 56.5762 50.112 56.5335 48.576L57.4295 50.816V62.4H55.7335ZM63.9575 55.008C65.3655 55.008 66.5602 54.6667 67.5415 53.984C68.5442 53.28 69.3015 52.3733 69.8135 51.264C70.3255 50.1333 70.5815 48.9173 70.5815 47.616C70.5815 46.2507 70.3148 45.0133 69.7815 43.904C69.2695 42.7733 68.5122 41.8773 67.5095 41.216C66.5282 40.5547 65.3442 40.224 63.9575 40.224C62.6775 40.224 61.5362 40.512 60.5335 41.088C59.5522 41.6427 58.7735 42.4213 58.1975 43.424C57.6215 44.4053 57.3335 45.536 57.3335 46.816V48.448C57.3335 49.664 57.6108 50.7733 58.1655 51.776C58.7415 52.7573 59.5202 53.5467 60.5015 54.144C61.5042 54.72 62.6562 55.008 63.9575 55.008ZM77.4523 56V39.2H78.7963V46.304H78.5403C78.5403 43.872 79.0843 42.0587 80.1723 40.864C81.2603 39.6693 83.0203 39.072 85.4523 39.072H86.0283V40.608H85.1323C83.1483 40.608 81.6549 41.12 80.6523 42.144C79.6496 43.1467 79.1483 44.6293 79.1483 46.592V56H77.4523ZM97.2483 56.544C95.8403 56.544 94.5923 56.288 93.5043 55.776C92.4163 55.264 91.4989 54.592 90.7523 53.76C90.0269 52.928 89.4723 52 89.0883 50.976C88.7256 49.9307 88.5443 48.864 88.5443 47.776V47.456C88.5443 46.3467 88.7363 45.2693 89.1203 44.224C89.5043 43.1787 90.0696 42.24 90.8163 41.408C91.5629 40.576 92.4696 39.9147 93.5363 39.424C94.6243 38.9333 95.8616 38.688 97.2483 38.688C98.6136 38.688 99.8296 38.9333 100.896 39.424C101.984 39.9147 102.902 40.576 103.648 41.408C104.395 42.24 104.96 43.1787 105.344 44.224C105.75 45.2693 105.952 46.3467 105.952 47.456V47.776C105.952 48.864 105.76 49.9307 105.376 50.976C104.992 52 104.427 52.928 103.68 53.76C102.955 54.592 102.048 55.264 100.96 55.776C99.8936 56.288 98.6563 56.544 97.2483 56.544ZM97.2483 54.976C98.7416 54.976 100 54.6347 101.024 53.952C102.07 53.2693 102.859 52.3733 103.392 51.264C103.947 50.1333 104.224 48.9173 104.224 47.616C104.224 46.272 103.947 45.0453 103.392 43.936C102.838 42.8053 102.038 41.9093 100.992 41.248C99.9683 40.5653 98.7203 40.224 97.2483 40.224C95.7976 40.224 94.5389 40.5653 93.4723 41.248C92.4269 41.9093 91.6269 42.8053 91.0723 43.936C90.5176 45.0453 90.2403 46.272 90.2403 47.616C90.2403 48.9173 90.5069 50.1333 91.0403 51.264C91.5949 52.3733 92.3949 53.2693 93.4403 53.952C94.4856 54.6347 95.7549 54.976 97.2483 54.976ZM117.989 56.544C116.602 56.544 115.386 56.288 114.341 55.776C113.317 55.264 112.453 54.5813 111.749 53.728C111.066 52.8747 110.554 51.9253 110.213 50.88C109.871 49.8347 109.701 48.7787 109.701 47.712V47.392C109.701 46.304 109.871 45.2373 110.213 44.192C110.554 43.1467 111.066 42.2187 111.749 41.408C112.453 40.576 113.317 39.9147 114.341 39.424C115.386 38.9333 116.602 38.688 117.989 38.688C119.333 38.688 120.527 38.9333 121.573 39.424C122.639 39.9147 123.503 40.608 124.165 41.504C124.847 42.3787 125.274 43.4347 125.444 44.672H123.781C123.589 43.392 122.991 42.336 121.989 41.504C120.986 40.6507 119.653 40.224 117.989 40.224C116.517 40.224 115.29 40.5547 114.309 41.216C113.327 41.8773 112.591 42.7627 112.101 43.872C111.631 44.9813 111.397 46.208 111.397 47.552C111.397 48.8533 111.642 50.0693 112.133 51.2C112.623 52.3307 113.359 53.248 114.341 53.952C115.322 54.6347 116.538 54.976 117.989 54.976C119.119 54.976 120.111 54.7733 120.965 54.368C121.839 53.9413 122.543 53.3867 123.077 52.704C123.61 52 123.93 51.232 124.037 50.4H125.701C125.551 51.6373 125.125 52.7147 124.421 53.632C123.717 54.528 122.81 55.2427 121.701 55.776C120.591 56.288 119.354 56.544 117.989 56.544ZM137.207 56.544C135.777 56.544 134.54 56.2987 133.495 55.808C132.449 55.296 131.596 54.624 130.935 53.792C130.273 52.9387 129.772 51.9893 129.431 50.944C129.111 49.8773 128.951 48.8 128.951 47.712V47.392C128.951 46.2827 129.111 45.216 129.431 44.192C129.772 43.168 130.273 42.24 130.935 41.408C131.617 40.5547 132.46 39.8933 133.463 39.424C134.487 38.9333 135.671 38.688 137.015 38.688C138.721 38.688 140.151 39.072 141.303 39.84C142.476 40.5867 143.361 41.568 143.958 42.784C144.556 44 144.855 45.28 144.855 46.624V47.776H129.751V46.368H143.735L143.222 47.008C143.222 45.7067 142.977 44.544 142.487 43.52C142.017 42.496 141.313 41.696 140.375 41.12C139.457 40.5227 138.337 40.224 137.015 40.224C135.585 40.224 134.391 40.5547 133.431 41.216C132.471 41.8773 131.745 42.7627 131.255 43.872C130.785 44.9813 130.551 46.208 130.551 47.552C130.551 48.896 130.785 50.1333 131.255 51.264C131.745 52.3733 132.481 53.28 133.463 53.984C134.444 54.6667 135.692 55.008 137.207 55.008C138.828 55.008 140.129 54.6347 141.111 53.888C142.113 53.1413 142.721 52.2453 142.935 51.2H144.599C144.364 52.2453 143.916 53.1733 143.255 53.984C142.593 54.7947 141.751 55.424 140.727 55.872C139.724 56.32 138.551 56.544 137.207 56.544ZM154.758 56.48C152.667 56.48 151.056 56 149.926 55.04C148.816 54.08 148.251 52.8533 148.23 51.36H149.894C149.894 52.32 150.267 53.1627 151.014 53.888C151.782 54.592 153.03 54.944 154.758 54.944C156.443 54.944 157.68 54.592 158.47 53.888C159.259 53.1627 159.654 52.3093 159.654 51.328C159.654 50.368 159.291 49.632 158.566 49.12C157.862 48.608 156.902 48.288 155.686 48.16L153.702 47.936C152.23 47.7653 151.056 47.3067 150.182 46.56C149.328 45.8133 148.902 44.8 148.902 43.52C148.902 42.6027 149.136 41.7813 149.606 41.056C150.075 40.3307 150.747 39.7547 151.622 39.328C152.518 38.9013 153.563 38.688 154.758 38.688C156.507 38.688 157.915 39.1147 158.982 39.968C160.07 40.8213 160.624 41.984 160.646 43.456H158.982C159.003 42.5387 158.64 41.7707 157.894 41.152C157.168 40.5333 156.123 40.224 154.758 40.224C153.328 40.224 152.262 40.5547 151.558 41.216C150.875 41.8773 150.534 42.656 150.534 43.552C150.534 44.2987 150.8 44.9387 151.334 45.472C151.888 46.0053 152.72 46.336 153.83 46.464L155.814 46.688C157.392 46.8373 158.694 47.296 159.718 48.064C160.763 48.832 161.286 49.9307 161.286 51.36C161.286 52.32 161.019 53.184 160.486 53.952C159.974 54.72 159.238 55.3387 158.278 55.808C157.318 56.256 156.144 56.48 154.758 56.48ZM171.508 56.48C169.417 56.48 167.806 56 166.676 55.04C165.566 54.08 165.001 52.8533 164.98 51.36H166.644C166.644 52.32 167.017 53.1627 167.764 53.888C168.532 54.592 169.78 54.944 171.508 54.944C173.193 54.944 174.43 54.592 175.22 53.888C176.009 53.1627 176.404 52.3093 176.404 51.328C176.404 50.368 176.041 49.632 175.316 49.12C174.612 48.608 173.652 48.288 172.436 48.16L170.452 47.936C168.98 47.7653 167.806 47.3067 166.932 46.56C166.078 45.8133 165.652 44.8 165.652 43.52C165.652 42.6027 165.886 41.7813 166.356 41.056C166.825 40.3307 167.497 39.7547 168.372 39.328C169.268 38.9013 170.313 38.688 171.508 38.688C173.257 38.688 174.665 39.1147 175.732 39.968C176.82 40.8213 177.374 41.984 177.396 43.456H175.732C175.753 42.5387 175.39 41.7707 174.644 41.152C173.918 40.5333 172.873 40.224 171.508 40.224C170.078 40.224 169.012 40.5547 168.308 41.216C167.625 41.8773 167.284 42.656 167.284 43.552C167.284 44.2987 167.55 44.9387 168.084 45.472C168.638 46.0053 169.47 46.336 170.58 46.464L172.564 46.688C174.142 46.8373 175.444 47.296 176.468 48.064C177.513 48.832 178.036 49.9307 178.036 51.36C178.036 52.32 177.769 53.184 177.236 53.952C176.724 54.72 175.988 55.3387 175.028 55.808C174.068 56.256 172.894 56.48 171.508 56.48ZM191.37 56V37.472C191.37 35.808 191.786 34.5813 192.618 33.792C193.471 33.0027 194.751 32.608 196.458 32.608H198.666V34.08H196.074C195.092 34.08 194.335 34.3467 193.802 34.88C193.29 35.392 193.034 36.1173 193.034 37.056V56H191.37ZM188.778 40.672V39.328H199.018V40.672H188.778ZM209.936 56.544C208.528 56.544 207.28 56.288 206.192 55.776C205.104 55.264 204.186 54.592 203.44 53.76C202.714 52.928 202.16 52 201.776 50.976C201.413 49.9307 201.232 48.864 201.232 47.776V47.456C201.232 46.3467 201.424 45.2693 201.808 44.224C202.192 43.1787 202.757 42.24 203.504 41.408C204.25 40.576 205.157 39.9147 206.224 39.424C207.312 38.9333 208.549 38.688 209.936 38.688C211.301 38.688 212.517 38.9333 213.584 39.424C214.672 39.9147 215.589 40.576 216.336 41.408C217.082 42.24 217.648 43.1787 218.032 44.224C218.437 45.2693 218.64 46.3467 218.64 47.456V47.776C218.64 48.864 218.448 49.9307 218.064 50.976C217.68 52 217.114 52.928 216.368 53.76C215.642 54.592 214.736 55.264 213.648 55.776C212.581 56.288 211.344 56.544 209.936 56.544ZM209.936 54.976C211.429 54.976 212.688 54.6347 213.712 53.952C214.757 53.2693 215.546 52.3733 216.08 51.264C216.634 50.1333 216.912 48.9173 216.912 47.616C216.912 46.272 216.634 45.0453 216.08 43.936C215.525 42.8053 214.725 41.9093 213.68 41.248C212.656 40.5653 211.408 40.224 209.936 40.224C208.485 40.224 207.226 40.5653 206.16 41.248C205.114 41.9093 204.314 42.8053 203.76 43.936C203.205 45.0453 202.928 46.272 202.928 47.616C202.928 48.9173 203.194 50.1333 203.728 51.264C204.282 52.3733 205.082 53.2693 206.128 53.952C207.173 54.6347 208.442 54.976 209.936 54.976ZM223.796 56V39.2H225.14V46.304H224.884C224.884 43.872 225.428 42.0587 226.516 40.864C227.604 39.6693 229.364 39.072 231.796 39.072H232.372V40.608H231.476C229.492 40.608 227.999 41.12 226.996 42.144C225.993 43.1467 225.492 44.6293 225.492 46.592V56H223.796ZM244.171 56V32.64H245.867V45.12L245.259 46.208C245.259 44.736 245.483 43.4453 245.931 42.336C246.4 41.2053 247.104 40.3307 248.043 39.712C248.982 39.072 250.166 38.752 251.595 38.752H251.659C253.75 38.752 255.328 39.4133 256.395 40.736C257.462 42.0373 257.995 43.8187 257.995 46.08V56H256.267V45.696C256.267 44.0747 255.83 42.7733 254.955 41.792C254.08 40.8107 252.843 40.32 251.243 40.32C249.6 40.32 248.288 40.8427 247.307 41.888C246.347 42.912 245.867 44.256 245.867 45.92V56H244.171ZM271.207 56.544C269.777 56.544 268.54 56.2987 267.495 55.808C266.449 55.296 265.596 54.624 264.935 53.792C264.273 52.9387 263.772 51.9893 263.431 50.944C263.111 49.8773 262.951 48.8 262.951 47.712V47.392C262.951 46.2827 263.111 45.216 263.431 44.192C263.772 43.168 264.273 42.24 264.935 41.408C265.617 40.5547 266.46 39.8933 267.463 39.424C268.487 38.9333 269.671 38.688 271.015 38.688C272.721 38.688 274.151 39.072 275.303 39.84C276.476 40.5867 277.361 41.568 277.958 42.784C278.556 44 278.855 45.28 278.855 46.624V47.776H263.751V46.368H277.735L277.222 47.008C277.222 45.7067 276.977 44.544 276.487 43.52C276.017 42.496 275.313 41.696 274.375 41.12C273.457 40.5227 272.337 40.224 271.015 40.224C269.585 40.224 268.391 40.5547 267.431 41.216C266.471 41.8773 265.745 42.7627 265.255 43.872C264.785 44.9813 264.551 46.208 264.551 47.552C264.551 48.896 264.785 50.1333 265.255 51.264C265.745 52.3733 266.481 53.28 267.463 53.984C268.444 54.6667 269.692 55.008 271.207 55.008C272.828 55.008 274.129 54.6347 275.111 53.888C276.113 53.1413 276.721 52.2453 276.935 51.2H278.599C278.364 52.2453 277.916 53.1733 277.255 53.984C276.593 54.7947 275.751 55.424 274.727 55.872C273.724 56.32 272.551 56.544 271.207 56.544ZM283.83 56V32.64H285.526V56H283.83ZM281.302 34.08V32.64H285.526V34.08H281.302ZM292.109 62.4V39.2H293.453V46.368L292.941 46.592C292.962 45.0133 293.293 43.6373 293.933 42.464C294.594 41.2693 295.49 40.3413 296.621 39.68C297.751 39.0187 299.063 38.688 300.557 38.688C301.837 38.688 302.978 38.9333 303.981 39.424C304.983 39.8933 305.826 40.544 306.509 41.376C307.213 42.1867 307.746 43.1147 308.109 44.16C308.471 45.2053 308.653 46.304 308.653 47.456V47.776C308.653 48.864 308.471 49.9307 308.109 50.976C307.746 52 307.213 52.9387 306.509 53.792C305.826 54.624 304.983 55.296 303.981 55.808C302.978 56.2987 301.837 56.544 300.557 56.544C299.063 56.544 297.741 56.2027 296.589 55.52C295.458 54.8373 294.573 53.8987 293.933 52.704C293.293 51.488 292.951 50.112 292.909 48.576L293.805 50.816V62.4H292.109ZM300.333 55.008C301.741 55.008 302.935 54.6667 303.917 53.984C304.919 53.28 305.677 52.3733 306.189 51.264C306.701 50.1333 306.957 48.9173 306.957 47.616C306.957 46.2507 306.69 45.0133 306.157 43.904C305.645 42.7733 304.887 41.8773 303.885 41.216C302.903 40.5547 301.719 40.224 300.333 40.224C299.053 40.224 297.911 40.512 296.909 41.088C295.927 41.6427 295.149 42.4213 294.573 43.424C293.997 44.4053 293.709 45.536 293.709 46.816V48.448C293.709 49.664 293.986 50.7733 294.541 51.776C295.117 52.7573 295.895 53.5467 296.877 54.144C297.879 54.72 299.031 55.008 300.333 55.008ZM319.596 62.528V60.96H321.516C322.262 60.96 322.913 60.864 323.468 60.672C324.022 60.5013 324.502 60.1813 324.908 59.712C325.334 59.2427 325.686 58.5707 325.964 57.696L331.948 39.2H333.644L327.404 58.24C327.062 59.2853 326.604 60.1173 326.028 60.736C325.473 61.376 324.801 61.8347 324.012 62.112C323.244 62.3893 322.369 62.528 321.388 62.528H319.596ZM325.42 55.584V54.08H327.788V55.584H325.42ZM325.1 55.584L318.988 39.2H320.716L326.764 55.584H325.1ZM345.186 56.544C343.778 56.544 342.53 56.288 341.442 55.776C340.354 55.264 339.436 54.592 338.69 53.76C337.964 52.928 337.41 52 337.026 50.976C336.663 49.9307 336.482 48.864 336.482 47.776V47.456C336.482 46.3467 336.674 45.2693 337.058 44.224C337.442 43.1787 338.007 42.24 338.754 41.408C339.5 40.576 340.407 39.9147 341.474 39.424C342.562 38.9333 343.799 38.688 345.186 38.688C346.551 38.688 347.767 38.9333 348.834 39.424C349.922 39.9147 350.839 40.576 351.586 41.408C352.332 42.24 352.898 43.1787 353.282 44.224C353.687 45.2693 353.89 46.3467 353.89 47.456V47.776C353.89 48.864 353.698 49.9307 353.314 50.976C352.93 52 352.364 52.928 351.618 53.76C350.892 54.592 349.986 55.264 348.898 55.776C347.831 56.288 346.594 56.544 345.186 56.544ZM345.186 54.976C346.679 54.976 347.938 54.6347 348.962 53.952C350.007 53.2693 350.796 52.3733 351.33 51.264C351.884 50.1333 352.162 48.9173 352.162 47.616C352.162 46.272 351.884 45.0453 351.33 43.936C350.775 42.8053 349.975 41.9093 348.93 41.248C347.906 40.5653 346.658 40.224 345.186 40.224C343.735 40.224 342.476 40.5653 341.41 41.248C340.364 41.9093 339.564 42.8053 339.01 43.936C338.455 45.0453 338.178 46.272 338.178 47.616C338.178 48.9173 338.444 50.1333 338.978 51.264C339.532 52.3733 340.332 53.2693 341.378 53.952C342.423 54.6347 343.692 54.976 345.186 54.976ZM364.774 56.48C362.747 56.48 361.211 55.8293 360.166 54.528C359.121 53.2267 358.598 51.4667 358.598 49.248V39.2H360.326V49.632C360.326 51.1893 360.731 52.4587 361.542 53.44C362.374 54.4 363.569 54.88 365.126 54.88C366.705 54.88 367.953 54.3787 368.87 53.376C369.809 52.3733 370.278 51.0613 370.278 49.44V39.2H371.974V56H370.63V49.216H371.014C371.014 50.6453 370.779 51.9147 370.31 53.024C369.862 54.112 369.19 54.9653 368.294 55.584C367.398 56.1813 366.257 56.48 364.87 56.48H364.774Z" fill="white"/>
</g>
<defs>
<linearGradient id="paint0_linear_205_2" x1="180" y1="35.8333" x2="89.8903" y2="51.6501" gradientUnits="userSpaceOnUse">
<stop offset="0.22" stop-color="#637836"/>
<stop offset="1" stop-color="#1B4A64"/>
</linearGradient>
<clipPath id="clip0_205_2">
<rect width="375" height="74" fill="white"/>
</clipPath>
</defs>
</svg>
