<svg width="256" height="188" viewBox="0 0 256 188" fill="none" xmlns="http://www.w3.org/2000/svg">
<g filter="url(#filter0_dd_49_178)">
<path d="M147.784 113.704H153.352C153.587 113.704 153.789 113.789 153.96 113.96C154.131 114.131 154.216 114.333 154.216 114.568V120.136C154.216 120.371 154.131 120.573 153.96 120.744C153.789 120.915 153.587 121 153.352 121H147.784C147.549 121 147.347 120.915 147.176 120.744C147.005 120.573 146.92 120.371 146.92 120.136V114.568C146.92 114.333 147.005 114.131 147.176 113.96C147.347 113.789 147.549 113.704 147.784 113.704ZM151.165 113.928V111.4C151.165 109.011 151.805 107.187 153.085 105.928C154.365 104.669 155.922 104.04 157.757 104.04C159.613 104.04 161.096 104.541 162.205 105.544V99.144C162.205 98.9093 162.29 98.7067 162.461 98.536C162.632 98.3653 162.834 98.28 163.069 98.28H168.989C169.224 98.28 169.426 98.3653 169.597 98.536C169.768 98.7067 169.853 98.9093 169.853 99.144V120.136C169.853 120.371 169.768 120.573 169.597 120.744C169.426 120.915 169.224 121 168.989 121H163.549C163.314 121 163.112 120.915 162.941 120.744C162.77 120.573 162.685 120.371 162.685 120.136V119.176C161.576 120.605 160.008 121.32 157.981 121.32C155.954 121.32 154.312 120.723 153.053 119.528C151.794 118.312 151.165 116.445 151.165 113.928ZM162.205 113.736V111.368C162.141 110.301 161.608 109.768 160.605 109.768C159.538 109.768 159.005 110.387 159.005 111.624V113.736C159.005 114.973 159.538 115.592 160.605 115.592C161.672 115.592 162.205 114.973 162.205 113.736ZM183.867 114.568H174.331V114.728C174.331 116.029 174.747 116.68 175.579 116.68C175.814 116.68 176.102 116.509 176.443 116.168C176.785 115.827 177.158 115.656 177.563 115.656H183.611C184.081 115.656 184.315 115.891 184.315 116.36C184.315 117.405 183.526 118.493 181.947 119.624C180.39 120.755 178.267 121.32 175.579 121.32C172.913 121.32 170.726 120.627 169.019 119.24C167.334 117.832 166.491 115.901 166.491 113.448V111.912C166.491 109.587 167.355 107.699 169.083 106.248C170.811 104.776 173.073 104.04 175.867 104.04C178.683 104.04 180.859 104.861 182.395 106.504C183.953 108.147 184.731 110.227 184.731 112.744V113.704C184.731 113.939 184.646 114.141 184.475 114.312C184.305 114.483 184.102 114.568 183.867 114.568ZM176.891 110.44C176.891 109.16 176.465 108.52 175.611 108.52C174.758 108.52 174.331 109.16 174.331 110.44V110.568H176.891V110.44ZM192.592 121H187.472C187.024 121 186.672 120.733 186.416 120.2L180.272 105.384C180.251 105.32 180.24 105.213 180.24 105.064C180.24 104.915 180.315 104.765 180.464 104.616C180.613 104.467 180.795 104.392 181.008 104.392H186.416C186.928 104.392 187.28 104.648 187.472 105.16L190.032 112.584L192.592 105.128C192.784 104.616 193.136 104.36 193.648 104.36H199.056C199.269 104.36 199.451 104.435 199.6 104.584C199.749 104.733 199.824 104.883 199.824 105.032C199.824 105.181 199.813 105.288 199.792 105.352L193.648 120.2C193.392 120.733 193.04 121 192.592 121Z" fill="url(#paint0_linear_49_178)"/>
</g>
<g filter="url(#filter1_dd_49_178)">
<path d="M111.79 33.51V86.81C111.79 98.5967 107.847 107.48 99.96 113.46C92.16 119.353 82.28 122.3 70.32 122.3C58.36 122.3 48.35 119.44 40.29 113.72C32.23 108 28.2 100.243 28.2 90.45C28.2 89.67 28.46 89.02 28.98 88.5C29.5867 87.8933 30.28 87.59 31.06 87.59H57.58C58.9667 87.59 60.0067 87.9367 60.7 88.63C61.48 89.2367 62.26 90.4067 63.04 92.14C63.82 93.7867 64.73 95 65.77 95.78C66.8967 96.56 68.4567 96.95 70.45 96.95C75.5633 96.95 78.12 93.44 78.12 86.42V56.39H39.51C38.5567 56.39 37.7333 56.0433 37.04 55.35C36.3467 54.6567 36 53.8333 36 52.88V33.51C36 32.5567 36.3467 31.7333 37.04 31.04C37.7333 30.3467 38.5567 30 39.51 30H108.28C109.233 30 110.057 30.3467 110.75 31.04C111.443 31.7333 111.79 32.5567 111.79 33.51Z" fill="url(#paint1_linear_49_178)"/>
</g>
<path d="M128.463 93.4826L179.62 31.6374C180.159 30.9854 179.695 30 178.849 30H134.681C134.341 30 134.023 30.1732 133.84 30.4597L75.9889 120.566C75.5616 121.232 76.0395 122.107 76.8304 122.107H105.028C105.764 122.107 106.248 122.875 105.929 123.539L78.1182 181.501C77.6159 182.548 79.0013 183.466 79.7696 182.596L155.502 96.7817C156.072 96.136 155.614 95.12 154.753 95.12H129.234C128.388 95.12 127.924 94.1346 128.463 93.4826Z" fill="url(#paint2_linear_49_178)"/>
<defs>
<filter id="filter0_dd_49_178" x="118.92" y="86.28" width="108.904" height="79.04" filterUnits="userSpaceOnUse" color-interpolation-filters="sRGB">
<feFlood flood-opacity="0" result="BackgroundImageFix"/>
<feColorMatrix in="SourceAlpha" type="matrix" values="0 0 0 0 0 0 0 0 0 0 0 0 0 0 0 0 0 0 127 0" result="hardAlpha"/>
<feMorphology radius="4" operator="erode" in="SourceAlpha" result="effect1_dropShadow_49_178"/>
<feOffset dy="4"/>
<feGaussianBlur stdDeviation="2"/>
<feComposite in2="hardAlpha" operator="out"/>
<feColorMatrix type="matrix" values="0 0 0 0 0.0470588 0 0 0 0 0.0470588 0 0 0 0 0.0509804 0 0 0 0.05 0"/>
<feBlend mode="normal" in2="BackgroundImageFix" result="effect1_dropShadow_49_178"/>
<feColorMatrix in="SourceAlpha" type="matrix" values="0 0 0 0 0 0 0 0 0 0 0 0 0 0 0 0 0 0 127 0" result="hardAlpha"/>
<feMorphology radius="4" operator="erode" in="SourceAlpha" result="effect2_dropShadow_49_178"/>
<feOffset dy="16"/>
<feGaussianBlur stdDeviation="16"/>
<feComposite in2="hardAlpha" operator="out"/>
<feColorMatrix type="matrix" values="0 0 0 0 0.0470588 0 0 0 0 0.0470588 0 0 0 0 0.0509804 0 0 0 0.1 0"/>
<feBlend mode="normal" in2="effect1_dropShadow_49_178" result="effect2_dropShadow_49_178"/>
<feBlend mode="normal" in="SourceGraphic" in2="effect2_dropShadow_49_178" result="shape"/>
</filter>
<filter id="filter1_dd_49_178" x="0.200012" y="18" width="139.59" height="148.3" filterUnits="userSpaceOnUse" color-interpolation-filters="sRGB">
<feFlood flood-opacity="0" result="BackgroundImageFix"/>
<feColorMatrix in="SourceAlpha" type="matrix" values="0 0 0 0 0 0 0 0 0 0 0 0 0 0 0 0 0 0 127 0" result="hardAlpha"/>
<feMorphology radius="4" operator="erode" in="SourceAlpha" result="effect1_dropShadow_49_178"/>
<feOffset dy="4"/>
<feGaussianBlur stdDeviation="2"/>
<feComposite in2="hardAlpha" operator="out"/>
<feColorMatrix type="matrix" values="0 0 0 0 0.0470588 0 0 0 0 0.0470588 0 0 0 0 0.0509804 0 0 0 0.05 0"/>
<feBlend mode="normal" in2="BackgroundImageFix" result="effect1_dropShadow_49_178"/>
<feColorMatrix in="SourceAlpha" type="matrix" values="0 0 0 0 0 0 0 0 0 0 0 0 0 0 0 0 0 0 127 0" result="hardAlpha"/>
<feMorphology radius="4" operator="erode" in="SourceAlpha" result="effect2_dropShadow_49_178"/>
<feOffset dy="16"/>
<feGaussianBlur stdDeviation="16"/>
<feComposite in2="hardAlpha" operator="out"/>
<feColorMatrix type="matrix" values="0 0 0 0 0.0470588 0 0 0 0 0.0470588 0 0 0 0 0.0509804 0 0 0 0.1 0"/>
<feBlend mode="normal" in2="effect1_dropShadow_49_178" result="effect2_dropShadow_49_178"/>
<feBlend mode="normal" in="SourceGraphic" in2="effect2_dropShadow_49_178" result="shape"/>
</filter>
<linearGradient id="paint0_linear_49_178" x1="200.5" y1="91" x2="200.5" y2="165" gradientUnits="userSpaceOnUse">
<stop offset="0.18" stop-color="white"/>
<stop offset="0.445" stop-color="#999999"/>
</linearGradient>
<linearGradient id="paint1_linear_49_178" x1="75" y1="0" x2="75" y2="172" gradientUnits="userSpaceOnUse">
<stop offset="0.125" stop-color="#D0DDB4"/>
<stop offset="1" stop-color="#A8DADC"/>
</linearGradient>
<linearGradient id="paint2_linear_49_178" x1="127.987" y1="30" x2="127.987" y2="188" gradientUnits="userSpaceOnUse">
<stop stop-color="#637836"/>
<stop offset="1" stop-color="#B7DE64"/>
</linearGradient>
</defs>
</svg>
