<svg width="181" height="188" viewBox="0 0 181 188" fill="none" xmlns="http://www.w3.org/2000/svg">
<path d="M128.463 93.4826L179.62 31.6374C180.159 30.9854 179.695 30 178.849 30H134.681C134.341 30 134.023 30.1732 133.84 30.4597L75.9889 120.566C75.5616 121.232 76.0395 122.107 76.8304 122.107H105.028C105.764 122.107 106.248 122.875 105.929 123.539L78.1182 181.501C77.6159 182.548 79.0013 183.466 79.7696 182.596L155.502 96.7817C156.072 96.136 155.614 95.12 154.753 95.12H129.234C128.388 95.12 127.924 94.1346 128.463 93.4826Z" fill="url(#paint0_linear_39_2879)"/>
<g filter="url(#filter0_dd_39_2879)">
<path d="M111.79 33.51V86.81C111.79 98.5967 107.847 107.48 99.96 113.46C92.16 119.353 82.28 122.3 70.32 122.3C58.36 122.3 48.35 119.44 40.29 113.72C32.23 108 28.2 100.243 28.2 90.45C28.2 89.67 28.46 89.02 28.98 88.5C29.5867 87.8933 30.28 87.59 31.06 87.59H57.58C58.9667 87.59 60.0067 87.9367 60.7 88.63C61.48 89.2367 62.26 90.4067 63.04 92.14C63.82 93.7867 64.73 95 65.77 95.78C66.8967 96.56 68.4567 96.95 70.45 96.95C75.5633 96.95 78.12 93.44 78.12 86.42V56.39H39.51C38.5567 56.39 37.7333 56.0433 37.04 55.35C36.3467 54.6567 36 53.8333 36 52.88V33.51C36 32.5567 36.3467 31.7333 37.04 31.04C37.7333 30.3467 38.5567 30 39.51 30H108.28C109.233 30 110.057 30.3467 110.75 31.04C111.443 31.7333 111.79 32.5567 111.79 33.51Z" fill="url(#paint1_linear_39_2879)"/>
</g>
<defs>
<filter id="filter0_dd_39_2879" x="0.200012" y="18" width="139.59" height="148.3" filterUnits="userSpaceOnUse" color-interpolation-filters="sRGB">
<feFlood flood-opacity="0" result="BackgroundImageFix"/>
<feColorMatrix in="SourceAlpha" type="matrix" values="0 0 0 0 0 0 0 0 0 0 0 0 0 0 0 0 0 0 127 0" result="hardAlpha"/>
<feMorphology radius="4" operator="erode" in="SourceAlpha" result="effect1_dropShadow_39_2879"/>
<feOffset dy="4"/>
<feGaussianBlur stdDeviation="2"/>
<feComposite in2="hardAlpha" operator="out"/>
<feColorMatrix type="matrix" values="0 0 0 0 0.0470588 0 0 0 0 0.0470588 0 0 0 0 0.0509804 0 0 0 0.05 0"/>
<feBlend mode="normal" in2="BackgroundImageFix" result="effect1_dropShadow_39_2879"/>
<feColorMatrix in="SourceAlpha" type="matrix" values="0 0 0 0 0 0 0 0 0 0 0 0 0 0 0 0 0 0 127 0" result="hardAlpha"/>
<feMorphology radius="4" operator="erode" in="SourceAlpha" result="effect2_dropShadow_39_2879"/>
<feOffset dy="16"/>
<feGaussianBlur stdDeviation="16"/>
<feComposite in2="hardAlpha" operator="out"/>
<feColorMatrix type="matrix" values="0 0 0 0 0.0470588 0 0 0 0 0.0470588 0 0 0 0 0.0509804 0 0 0 0.1 0"/>
<feBlend mode="normal" in2="effect1_dropShadow_39_2879" result="effect2_dropShadow_39_2879"/>
<feBlend mode="normal" in="SourceGraphic" in2="effect2_dropShadow_39_2879" result="shape"/>
</filter>
<linearGradient id="paint0_linear_39_2879" x1="127.987" y1="30" x2="127.987" y2="188" gradientUnits="userSpaceOnUse">
<stop stop-color="#637836"/>
<stop offset="1" stop-color="#B7DE64"/>
</linearGradient>
<linearGradient id="paint1_linear_39_2879" x1="75" y1="0" x2="75" y2="172" gradientUnits="userSpaceOnUse">
<stop offset="0.125" stop-color="#D0DDB4"/>
<stop offset="1" stop-color="#A8DADC"/>
</linearGradient>
</defs>
</svg>
