<svg width="89" height="89" viewBox="0 0 89 89" fill="none" xmlns="http://www.w3.org/2000/svg">
<path d="M75.2886 0H13.2862C5.94845 0 0 5.94845 0 13.2862V75.2886C0 82.6264 5.94845 88.5749 13.2862 88.5749H75.2886C82.6264 88.5749 88.5749 82.6264 88.5749 75.2886V13.2862C88.5749 5.94845 82.6264 0 75.2886 0Z" fill="url(#paint0_linear_100_81)"/>
<path d="M21.2787 67.9883L23.7007 56.7435C20.5877 51.8335 19.3734 45.9564 20.2854 40.2148C21.1975 34.4732 24.1732 29.2617 28.6544 25.558C33.1356 21.8544 38.8143 19.9132 44.6249 20.0986C50.4356 20.284 55.9789 22.5833 60.2148 26.5651C64.4508 30.5469 67.0883 35.9375 67.6324 41.7256C68.1765 47.5137 66.5899 53.3014 63.1703 58.0029C59.7507 62.7044 54.733 65.9966 49.0587 67.2617C43.3844 68.5268 37.4435 67.678 32.3506 64.8744L21.2787 67.9883Z" fill="url(#paint1_linear_100_81)" stroke="#1B4A64" stroke-width="4.49794"/>
<path d="M53.2832 47.2285C52.7642 46.8825 52.2452 46.7095 51.7262 47.4015L49.6503 50.1695C49.1313 50.5155 48.7853 50.6885 48.0933 50.3425C45.4983 48.9585 41.8654 47.4015 38.7514 42.2116C38.5784 41.5196 38.9244 41.1736 39.2704 40.8276L40.8274 38.4056C41.1734 38.0596 41.0004 37.7136 40.8274 37.3677L38.7514 32.3507C38.2324 30.9667 37.7134 31.1397 37.1944 31.1397H35.8104C35.4644 31.1397 34.7725 31.3127 34.0805 32.0047C30.2745 35.8107 31.8315 41.1736 34.5995 44.6336C35.1184 45.3256 38.5784 51.5535 46.0173 54.8404C51.5532 57.2624 52.7642 56.9164 54.3212 56.5704C56.2242 56.3974 58.1272 54.8404 58.9921 53.2834C59.1651 52.7645 60.0301 50.5155 59.3381 50.1695" fill="#1B4A64"/>
<defs>
<linearGradient id="paint0_linear_100_81" x1="44.2874" y1="0" x2="44.2874" y2="88.5749" gradientUnits="userSpaceOnUse">
<stop stop-color="#637836"/>
<stop offset="1" stop-color="#B7DE64"/>
</linearGradient>
<linearGradient id="paint1_linear_100_81" x1="43.8635" y1="20.0864" x2="43.8635" y2="67.9883" gradientUnits="userSpaceOnUse">
<stop stop-color="#637836"/>
<stop offset="1" stop-color="#B7DE64"/>
</linearGradient>
</defs>
</svg>
