<svg width="89" height="89" viewBox="0 0 89 89" fill="none" xmlns="http://www.w3.org/2000/svg">
<path d="M82.0407 0.000335423H6.53421C4.82102 -0.0170999 3.17088 0.645803 1.94588 1.84359C0.720875 3.04137 0.0210629 4.67619 0 6.38934V82.2007C0.024872 83.9113 0.726358 85.5424 1.95095 86.7371C3.17554 87.9318 4.8235 88.5927 6.53421 88.5752H82.0407C83.754 88.5888 85.403 87.9236 86.6273 86.7251C87.8517 85.5266 88.5519 83.8921 88.5749 82.1789V6.36756C88.5443 4.65944 87.8408 3.0324 86.6172 1.84012C85.3937 0.647836 83.749 -0.0133295 82.0407 0.000335423Z" fill="url(#paint0_linear_100_66)"/>
<path d="M13.1119 33.2012H26.2602V75.5066H13.1119V33.2012ZM19.6897 12.1465C21.1977 12.1465 22.6719 12.5938 23.9257 13.4317C25.1795 14.2697 26.1565 15.4607 26.7333 16.8541C27.3101 18.2475 27.4606 19.7807 27.1659 21.2596C26.8712 22.7386 26.1444 24.0969 25.0775 25.1627C24.0107 26.2286 22.6517 26.9541 21.1724 27.2474C19.6932 27.5407 18.1602 27.3887 16.7673 26.8106C15.3745 26.2325 14.1844 25.2543 13.3476 23.9997C12.5108 22.7451 12.065 21.2705 12.0664 19.7625C12.0683 17.7419 12.8723 15.8048 14.3018 14.3767C15.7312 12.9486 17.6691 12.1465 19.6897 12.1465Z" fill="#1B4A64"/>
<path d="M34.5083 33.2015H47.1121V39.0097H47.2863C49.0433 35.6845 53.3268 32.1778 59.7231 32.1778C73.0384 32.1488 75.5068 40.9119 75.5068 52.2741V75.5069H62.3586V54.9241C62.3586 50.0235 62.2714 43.7143 55.5267 43.7143C48.7819 43.7143 47.6348 49.0579 47.6348 54.6047V75.5069H34.5083V33.2015Z" fill="#1B4A64"/>
<defs>
<linearGradient id="paint0_linear_100_66" x1="44.2874" y1="0" x2="44.2874" y2="88.5755" gradientUnits="userSpaceOnUse">
<stop stop-color="#637836"/>
<stop offset="1" stop-color="#B7DE64"/>
</linearGradient>
</defs>
</svg>
