<svg width="89" height="89" viewBox="0 0 89 89" fill="none" xmlns="http://www.w3.org/2000/svg">
<path d="M79.0847 0H9.49016C4.2508 0 0 4.2508 0 9.49016V79.0847C0 84.3241 4.2508 88.5749 9.49016 88.5749H79.0847C84.3241 88.5749 88.5749 84.3241 88.5749 79.0847V9.49016C88.5749 4.2508 84.3241 0 79.0847 0ZM54.8255 75.862C53.1647 76.1586 52.5518 75.1305 52.5518 74.2803C52.5518 73.2127 52.5913 67.7558 52.5913 63.3468C52.5913 60.2625 51.5632 58.3052 50.3572 57.2771C57.6725 56.4665 65.3833 55.4581 65.3833 42.8244C65.3833 39.226 64.0982 37.4268 62.0024 35.1136C62.3385 34.2634 63.4655 30.764 61.6663 26.2166C58.9181 25.3664 52.6309 29.7556 52.6309 29.7556C50.0211 29.0241 47.1938 28.6484 44.4061 28.6484C41.6183 28.6484 38.791 29.0241 36.1813 29.7556C36.1813 29.7556 29.894 25.3664 27.1458 26.2166C25.3466 30.7442 26.4538 34.2437 26.8097 35.1136C24.714 37.4268 23.7254 39.226 23.7254 42.8244C23.7254 55.3988 31.1001 56.4665 38.4154 57.2771C37.4664 58.1273 36.6162 59.5903 36.3196 61.6861C34.4414 62.5362 29.637 63.9993 26.7702 58.9379C24.971 55.814 21.7285 55.557 21.7285 55.557C18.5256 55.5175 21.511 57.5737 21.511 57.5737C23.6463 58.5622 25.1489 62.3583 25.1489 62.3583C27.0667 68.2303 36.2406 66.2532 36.2406 66.2532C36.2406 69.0014 36.2801 73.4697 36.2801 74.2803C36.2801 75.1305 35.687 76.1586 34.0064 75.862C20.9574 71.4926 11.8232 59.0763 11.8232 44.5642C11.8232 26.4143 25.7025 12.6338 43.8525 12.6338C62.0024 12.6338 76.7122 26.4143 76.7122 44.5642C76.7319 59.0763 67.8744 71.5123 54.8255 75.862ZM35.4299 63.7818C35.0543 63.8609 34.6984 63.7027 34.6589 63.4457C34.6193 63.1491 34.8764 62.8921 35.252 62.813C35.6277 62.7735 35.9835 62.9317 36.0231 63.1887C36.0824 63.4457 35.8254 63.7027 35.4299 63.7818ZM33.5517 63.6039C33.5517 63.8609 33.2551 64.0784 32.8597 64.0784C32.4247 64.1179 32.1282 63.9004 32.1282 63.6039C32.1282 63.3468 32.4247 63.1294 32.8202 63.1294C33.1958 63.0898 33.5517 63.3073 33.5517 63.6039ZM30.843 63.3864C30.7639 63.6434 30.3685 63.762 30.0324 63.6434C29.6568 63.5643 29.3997 63.2678 29.4788 63.0107C29.5579 62.7537 29.9533 62.6351 30.2894 62.7142C30.6849 62.8328 30.9419 63.1294 30.843 63.3864ZM28.4112 62.3187C28.2332 62.5362 27.8576 62.4967 27.561 62.2001C27.2645 61.9431 27.1854 61.5674 27.3831 61.3895C27.561 61.172 27.9367 61.2116 28.2332 61.5081C28.4903 61.7652 28.5891 62.1606 28.4112 62.3187ZM26.612 60.5196C26.4341 60.6382 26.0979 60.5196 25.8805 60.223C25.663 59.9264 25.663 59.5903 25.8805 59.4519C26.0979 59.274 26.4341 59.4124 26.612 59.709C26.8295 60.0055 26.8295 60.3614 26.612 60.5196ZM25.3269 58.6018C25.1489 58.7797 24.8524 58.6808 24.6349 58.4831C24.4174 58.2261 24.3779 57.9295 24.5558 57.7911C24.7337 57.6132 25.0303 57.7121 25.2478 57.9098C25.4653 58.1668 25.5048 58.4634 25.3269 58.6018ZM24.0022 57.1387C23.9231 57.3166 23.6661 57.3562 23.4486 57.2178C23.1916 57.0992 23.073 56.8817 23.152 56.7037C23.2311 56.5851 23.4486 56.5258 23.7056 56.6246C23.9627 56.763 24.0813 56.9805 24.0022 57.1387Z" fill="url(#paint0_linear_100_76)"/>
<defs>
<linearGradient id="paint0_linear_100_76" x1="44.2874" y1="0" x2="44.2874" y2="88.5749" gradientUnits="userSpaceOnUse">
<stop stop-color="#637836"/>
<stop offset="1" stop-color="#B7DE64"/>
</linearGradient>
</defs>
</svg>
