<svg width="89" height="67" viewBox="0 0 89 67" fill="none" xmlns="http://www.w3.org/2000/svg">
<path d="M86.8968 21.9361C87.5715 21.3998 88.5749 21.9015 88.5749 22.7492V58.1273C88.5749 62.7117 84.8554 66.4312 80.271 66.4312H8.30389C3.71945 66.4312 0 62.7117 0 58.1273V22.7665C0 21.9015 0.986087 21.4171 1.67808 21.9534C5.55323 24.9636 10.6913 28.7868 28.337 41.606C31.9873 44.2701 38.146 49.8753 44.2874 49.8407C50.4635 49.8926 56.7433 44.1663 60.2551 41.606C77.9009 28.7868 83.0216 24.9463 86.8968 21.9361ZM44.2874 44.2874C48.301 44.3566 54.0791 39.2359 56.9855 37.1253C79.9423 20.4656 81.6896 19.0125 86.9833 14.8605C87.9867 14.082 88.5749 12.871 88.5749 11.5909V8.30389C88.5749 3.71945 84.8554 0 80.271 0H8.30389C3.71945 0 0 3.71945 0 8.30389V11.5909C0 12.871 0.588192 14.0647 1.59158 14.8605C6.88531 18.9952 8.63259 20.4656 31.5894 37.1253C34.4958 39.2359 40.2739 44.3566 44.2874 44.2874Z" fill="url(#paint0_linear_100_73)"/>
<defs>
<linearGradient id="paint0_linear_100_73" x1="44.2874" y1="0" x2="44.2874" y2="66.4312" gradientUnits="userSpaceOnUse">
<stop stop-color="#637836"/>
<stop offset="1" stop-color="#B7DE64"/>
</linearGradient>
</defs>
</svg>
