<svg width="300" height="224" viewBox="0 0 300 224" fill="none" xmlns="http://www.w3.org/2000/svg">
<path d="M24.1849 33.408C22.9689 33.408 21.9209 33.16 21.0409 32.664C20.1769 32.168 19.5129 31.504 19.0489 30.672C18.6009 29.84 18.3769 28.912 18.3769 27.888H19.6489C19.6489 29.2 20.0489 30.256 20.8489 31.056C21.6649 31.856 22.7769 32.256 24.1849 32.256C25.1129 32.256 25.9129 32.08 26.5849 31.728C27.2729 31.36 27.8009 30.856 28.1689 30.216C28.5529 29.56 28.7449 28.808 28.7449 27.96C28.7449 26.632 28.3449 25.568 27.5449 24.768C26.7449 23.968 25.6409 23.568 24.2329 23.568C23.7049 23.568 23.2489 23.632 22.8649 23.76C22.4809 23.872 22.1369 24.032 21.8329 24.24L21.0649 22.896L28.3369 16.944L28.1449 16.608H19.0489V15.48H29.3929V17.472L22.5529 23.112L21.8809 23.088C22.1849 22.896 22.5289 22.752 22.9129 22.656C23.3129 22.56 23.7689 22.512 24.2809 22.512C25.4809 22.512 26.5049 22.752 27.3529 23.232C28.2169 23.712 28.8729 24.352 29.3209 25.152C29.7849 25.952 30.0169 26.84 30.0169 27.816V28.104C30.0169 29.048 29.7849 29.92 29.3209 30.72C28.8729 31.52 28.2089 32.168 27.3289 32.664C26.4649 33.16 25.4169 33.408 24.1849 33.408ZM39.4423 26.88V25.776H47.3383V26.88H39.4423ZM58.0491 33V15.48H59.3451V33H58.0491ZM58.8891 33V31.824H67.3371V33H58.8891ZM78.1408 33V29.232H77.9008V24.6C77.9008 23.592 77.6368 22.816 77.1088 22.272C76.5808 21.712 75.7088 21.432 74.4928 21.432C74.0608 21.432 73.6208 21.448 73.1728 21.48C72.7248 21.496 72.3008 21.52 71.9008 21.552C71.5008 21.568 71.1408 21.6 70.8208 21.648V20.496C71.1408 20.448 71.4768 20.408 71.8288 20.376C72.1968 20.344 72.5648 20.32 72.9328 20.304C73.3008 20.288 73.6528 20.28 73.9888 20.28C75.2528 20.28 76.2608 20.448 77.0128 20.784C77.7648 21.104 78.3088 21.6 78.6448 22.272C78.9808 22.928 79.1488 23.768 79.1488 24.792V33H78.1408ZM73.7488 33.336C72.9008 33.336 72.1408 33.184 71.4688 32.88C70.7968 32.576 70.2608 32.128 69.8608 31.536C69.4768 30.944 69.2848 30.224 69.2848 29.376C69.2848 28.56 69.4688 27.864 69.8368 27.288C70.2208 26.712 70.7648 26.272 71.4688 25.968C72.1888 25.664 73.0528 25.512 74.0608 25.512H78.0208V26.544H73.9408C72.8528 26.544 72.0128 26.808 71.4208 27.336C70.8448 27.848 70.5568 28.528 70.5568 29.376C70.5568 30.272 70.8688 30.984 71.4928 31.512C72.1168 32.024 72.9328 32.28 73.9408 32.28C74.5648 32.28 75.1728 32.16 75.7648 31.92C76.3568 31.68 76.8528 31.28 77.2528 30.72C77.6528 30.144 77.8688 29.376 77.9008 28.416L78.3808 28.968C78.3328 29.944 78.0928 30.76 77.6608 31.416C77.2448 32.056 76.7008 32.536 76.0288 32.856C75.3568 33.176 74.5968 33.336 73.7488 33.336ZM83.9134 33V20.4H84.9214V25.56H84.6334C84.6334 24.456 84.8094 23.496 85.1614 22.68C85.5294 21.848 86.0654 21.208 86.7694 20.76C87.4894 20.296 88.3774 20.064 89.4334 20.064H89.5054C91.0894 20.064 92.2814 20.56 93.0814 21.552C93.8814 22.528 94.2814 23.864 94.2814 25.56V33H92.9854V25.272C92.9854 24.072 92.6574 23.104 92.0014 22.368C91.3614 21.616 90.4334 21.24 89.2174 21.24C87.9854 21.24 87.0014 21.624 86.2654 22.392C85.5454 23.144 85.1854 24.144 85.1854 25.392V33H83.9134ZM104.214 33.408C103.174 33.408 102.262 33.216 101.478 32.832C100.71 32.448 100.062 31.936 99.534 31.296C99.022 30.656 98.638 29.944 98.382 29.16C98.126 28.376 97.998 27.584 97.998 26.784V26.544C97.998 25.728 98.126 24.928 98.382 24.144C98.638 23.36 99.022 22.664 99.534 22.056C100.062 21.432 100.71 20.936 101.478 20.568C102.262 20.2 103.174 20.016 104.214 20.016C105.222 20.016 106.118 20.2 106.902 20.568C107.702 20.936 108.35 21.456 108.846 22.128C109.358 22.784 109.678 23.576 109.806 24.504H108.558C108.414 23.544 107.966 22.752 107.214 22.128C106.462 21.488 105.462 21.168 104.214 21.168C103.11 21.168 102.19 21.416 101.454 21.912C100.718 22.408 100.166 23.072 99.798 23.904C99.446 24.736 99.27 25.656 99.27 26.664C99.27 27.64 99.454 28.552 99.822 29.4C100.19 30.248 100.742 30.936 101.478 31.464C102.214 31.976 103.126 32.232 104.214 32.232C105.062 32.232 105.806 32.08 106.446 31.776C107.102 31.456 107.63 31.04 108.03 30.528C108.43 30 108.67 29.424 108.75 28.8H109.998C109.886 29.728 109.566 30.536 109.038 31.224C108.51 31.896 107.83 32.432 106.998 32.832C106.166 33.216 105.238 33.408 104.214 33.408ZM104.238 38.496C103.934 38.496 103.646 38.472 103.374 38.424C103.102 38.392 102.854 38.344 102.63 38.28V37.32C102.87 37.384 103.134 37.432 103.422 37.464C103.71 37.512 103.982 37.536 104.238 37.536C104.782 37.536 105.19 37.44 105.462 37.248C105.734 37.056 105.87 36.776 105.87 36.408C105.87 36.088 105.75 35.824 105.51 35.616C105.286 35.424 104.91 35.328 104.382 35.328H103.662V32.76H104.526V35.04L104.022 34.44H104.334C105.134 34.44 105.758 34.616 106.206 34.968C106.654 35.336 106.878 35.808 106.878 36.384C106.878 37.008 106.646 37.512 106.182 37.896C105.734 38.296 105.086 38.496 104.238 38.496ZM121.196 33V29.232H120.956V24.6C120.956 23.592 120.692 22.816 120.164 22.272C119.636 21.712 118.764 21.432 117.548 21.432C117.116 21.432 116.676 21.448 116.228 21.48C115.78 21.496 115.356 21.52 114.956 21.552C114.556 21.568 114.196 21.6 113.876 21.648V20.496C114.196 20.448 114.532 20.408 114.884 20.376C115.252 20.344 115.62 20.32 115.988 20.304C116.356 20.288 116.708 20.28 117.044 20.28C118.308 20.28 119.316 20.448 120.068 20.784C120.82 21.104 121.364 21.6 121.7 22.272C122.036 22.928 122.204 23.768 122.204 24.792V33H121.196ZM116.804 33.336C115.956 33.336 115.196 33.184 114.524 32.88C113.852 32.576 113.316 32.128 112.916 31.536C112.532 30.944 112.34 30.224 112.34 29.376C112.34 28.56 112.524 27.864 112.892 27.288C113.276 26.712 113.82 26.272 114.524 25.968C115.244 25.664 116.108 25.512 117.116 25.512H121.076V26.544H116.996C115.908 26.544 115.068 26.808 114.476 27.336C113.9 27.848 113.612 28.528 113.612 29.376C113.612 30.272 113.924 30.984 114.548 31.512C115.172 32.024 115.988 32.28 116.996 32.28C117.62 32.28 118.228 32.16 118.82 31.92C119.412 31.68 119.908 31.28 120.308 30.72C120.708 30.144 120.924 29.376 120.956 28.416L121.436 28.968C121.388 29.944 121.148 30.76 120.716 31.416C120.3 32.056 119.756 32.536 119.084 32.856C118.412 33.176 117.652 33.336 116.804 33.336ZM126.968 33V20.4H127.976V25.56H127.688C127.688 24.472 127.848 23.52 128.168 22.704C128.504 21.872 129 21.224 129.656 20.76C130.312 20.296 131.144 20.064 132.152 20.064H132.224C133.216 20.064 134.04 20.296 134.696 20.76C135.352 21.208 135.832 21.848 136.136 22.68C136.456 23.496 136.616 24.456 136.616 25.56H136.136C136.136 24.472 136.296 23.52 136.616 22.704C136.952 21.872 137.448 21.224 138.104 20.76C138.776 20.296 139.616 20.064 140.624 20.064H140.696C141.688 20.064 142.512 20.296 143.168 20.76C143.84 21.208 144.336 21.848 144.656 22.68C144.976 23.496 145.136 24.456 145.136 25.56V33H143.864V25.272C143.864 24.072 143.568 23.104 142.976 22.368C142.4 21.616 141.544 21.24 140.408 21.24C139.256 21.24 138.344 21.624 137.672 22.392C137.016 23.16 136.688 24.16 136.688 25.392V33H135.416V25.272C135.416 24.072 135.12 23.104 134.528 22.368C133.952 21.616 133.096 21.24 131.96 21.24C130.808 21.24 129.896 21.624 129.224 22.392C128.568 23.16 128.24 24.16 128.24 25.392V33H126.968ZM155.049 33.408C153.977 33.408 153.049 33.224 152.265 32.856C151.481 32.472 150.841 31.968 150.345 31.344C149.849 30.704 149.473 29.992 149.217 29.208C148.977 28.408 148.857 27.6 148.857 26.784V26.544C148.857 25.712 148.977 24.912 149.217 24.144C149.473 23.376 149.849 22.68 150.345 22.056C150.857 21.416 151.489 20.92 152.241 20.568C153.009 20.2 153.897 20.016 154.905 20.016C156.185 20.016 157.257 20.304 158.121 20.88C159.001 21.44 159.665 22.176 160.113 23.088C160.561 24 160.785 24.96 160.785 25.968V26.832H149.457V25.776H159.945L159.561 26.256C159.561 25.28 159.377 24.408 159.009 23.64C158.657 22.872 158.129 22.272 157.425 21.84C156.737 21.392 155.897 21.168 154.905 21.168C153.833 21.168 152.937 21.416 152.217 21.912C151.497 22.408 150.953 23.072 150.585 23.904C150.233 24.736 150.057 25.656 150.057 26.664C150.057 27.672 150.233 28.6 150.585 29.448C150.953 30.28 151.505 30.96 152.241 31.488C152.977 32 153.913 32.256 155.049 32.256C156.265 32.256 157.241 31.976 157.977 31.416C158.729 30.856 159.185 30.184 159.345 29.4H160.593C160.417 30.184 160.081 30.88 159.585 31.488C159.089 32.096 158.457 32.568 157.689 32.904C156.937 33.24 156.057 33.408 155.049 33.408ZM164.445 33V20.4H165.453V25.56H165.165C165.165 24.456 165.341 23.496 165.693 22.68C166.061 21.848 166.597 21.208 167.301 20.76C168.021 20.296 168.909 20.064 169.965 20.064H170.037C171.621 20.064 172.813 20.56 173.613 21.552C174.413 22.528 174.813 23.864 174.813 25.56V33H173.517V25.272C173.517 24.072 173.189 23.104 172.533 22.368C171.893 21.616 170.965 21.24 169.749 21.24C168.517 21.24 167.533 21.624 166.797 22.392C166.077 23.144 165.717 24.144 165.717 25.392V33H164.445ZM183.785 33.12C183.001 33.12 182.313 33.008 181.721 32.784C181.129 32.544 180.673 32.144 180.353 31.584C180.033 31.024 179.873 30.272 179.873 29.328V16.296H181.121V29.544C181.121 30.312 181.329 30.912 181.745 31.344C182.177 31.76 182.769 31.968 183.521 31.968H185.873V33.12H183.785ZM177.473 21.432V20.4H185.873V21.432H177.473ZM194.948 33.408C193.892 33.408 192.956 33.216 192.14 32.832C191.324 32.448 190.636 31.944 190.076 31.32C189.532 30.696 189.116 30 188.828 29.232C188.556 28.448 188.42 27.648 188.42 26.832V26.592C188.42 25.76 188.564 24.952 188.852 24.168C189.14 23.384 189.564 22.68 190.124 22.056C190.684 21.432 191.364 20.936 192.164 20.568C192.98 20.2 193.908 20.016 194.948 20.016C195.972 20.016 196.884 20.2 197.684 20.568C198.5 20.936 199.188 21.432 199.748 22.056C200.308 22.68 200.732 23.384 201.02 24.168C201.324 24.952 201.476 25.76 201.476 26.592V26.832C201.476 27.648 201.332 28.448 201.044 29.232C200.756 30 200.332 30.696 199.772 31.32C199.228 31.944 198.548 32.448 197.732 32.832C196.932 33.216 196.004 33.408 194.948 33.408ZM194.948 32.232C196.068 32.232 197.012 31.976 197.78 31.464C198.564 30.952 199.156 30.28 199.556 29.448C199.972 28.6 200.18 27.688 200.18 26.712C200.18 25.704 199.972 24.784 199.556 23.952C199.14 23.104 198.54 22.432 197.756 21.936C196.988 21.424 196.052 21.168 194.948 21.168C193.86 21.168 192.916 21.424 192.116 21.936C191.332 22.432 190.732 23.104 190.316 23.952C189.9 24.784 189.692 25.704 189.692 26.712C189.692 27.688 189.892 28.6 190.292 29.448C190.708 30.28 191.308 30.952 192.092 31.464C192.876 31.976 193.828 32.232 194.948 32.232Z" fill="white"/>
<path opacity="0.7" d="M67.5377 95V80.4H68.6177V95H67.5377ZM68.2377 88.04V87.04L74.8977 87.02V88L68.2377 88.04ZM68.2377 81.38V80.4L75.2977 80.38V81.38H68.2377ZM82.4338 95.34C81.5404 95.34 80.7671 95.1867 80.1138 94.88C79.4604 94.56 78.9271 94.14 78.5138 93.62C78.1004 93.0867 77.7871 92.4933 77.5738 91.84C77.3738 91.1733 77.2738 90.5 77.2738 89.82V89.62C77.2738 88.9267 77.3738 88.26 77.5738 87.62C77.7871 86.98 78.1004 86.4 78.5138 85.88C78.9404 85.3467 79.4671 84.9333 80.0938 84.64C80.7338 84.3333 81.4738 84.18 82.3138 84.18C83.3804 84.18 84.2738 84.42 84.9938 84.9C85.7271 85.3667 86.2804 85.98 86.6537 86.74C87.0271 87.5 87.2138 88.3 87.2138 89.14V89.86H77.7738V88.98H86.5138L86.1937 89.38C86.1937 88.5667 86.0404 87.84 85.7338 87.2C85.4404 86.56 85.0004 86.06 84.4138 85.7C83.8404 85.3267 83.1404 85.14 82.3138 85.14C81.4204 85.14 80.6738 85.3467 80.0738 85.76C79.4738 86.1733 79.0204 86.7267 78.7138 87.42C78.4204 88.1133 78.2738 88.88 78.2738 89.72C78.2738 90.56 78.4204 91.3333 78.7138 92.04C79.0204 92.7333 79.4804 93.3 80.0938 93.74C80.7071 94.1667 81.4871 94.38 82.4338 94.38C83.4471 94.38 84.2604 94.1467 84.8738 93.68C85.5004 93.2133 85.8804 92.6533 86.0138 92H87.0538C86.9071 92.6533 86.6271 93.2333 86.2138 93.74C85.8004 94.2467 85.2738 94.64 84.6338 94.92C84.0071 95.2 83.2738 95.34 82.4338 95.34ZM94.5631 95.34C93.6965 95.34 92.9365 95.18 92.2831 94.86C91.6431 94.54 91.1031 94.1133 90.6631 93.58C90.2365 93.0467 89.9165 92.4533 89.7031 91.8C89.4898 91.1467 89.3831 90.4867 89.3831 89.82V89.62C89.3831 88.94 89.4898 88.2733 89.7031 87.62C89.9165 86.9667 90.2365 86.3867 90.6631 85.88C91.1031 85.36 91.6431 84.9467 92.2831 84.64C92.9365 84.3333 93.6965 84.18 94.5631 84.18C95.4031 84.18 96.1498 84.3333 96.8031 84.64C97.4698 84.9467 98.0098 85.38 98.4231 85.94C98.8498 86.4867 99.1165 87.1467 99.2231 87.92H98.1831C98.0631 87.12 97.6898 86.46 97.0631 85.94C96.4365 85.4067 95.6031 85.14 94.5631 85.14C93.6431 85.14 92.8765 85.3467 92.2631 85.76C91.6498 86.1733 91.1898 86.7267 90.8831 87.42C90.5898 88.1133 90.4431 88.88 90.4431 89.72C90.4431 90.5333 90.5965 91.2933 90.9031 92C91.2098 92.7067 91.6698 93.28 92.2831 93.72C92.8965 94.1467 93.6565 94.36 94.5631 94.36C95.2698 94.36 95.8898 94.2333 96.4231 93.98C96.9698 93.7133 97.4098 93.3667 97.7431 92.94C98.0765 92.5 98.2765 92.02 98.3431 91.5H99.3831C99.2898 92.2733 99.0231 92.9467 98.5831 93.52C98.1431 94.08 97.5765 94.5267 96.8831 94.86C96.1898 95.18 95.4165 95.34 94.5631 95.34ZM102.294 95V80.4H103.354V88.2L102.974 88.88C102.974 87.96 103.114 87.1533 103.394 86.46C103.688 85.7533 104.128 85.2067 104.714 84.82C105.301 84.42 106.041 84.22 106.934 84.22H106.974C108.281 84.22 109.268 84.6333 109.934 85.46C110.601 86.2733 110.934 87.3867 110.934 88.8V95H109.854V88.56C109.854 87.5467 109.581 86.7333 109.034 86.12C108.488 85.5067 107.714 85.2 106.714 85.2C105.688 85.2 104.868 85.5267 104.254 86.18C103.654 86.82 103.354 87.66 103.354 88.7V95H102.294ZM121.332 95V91.86H121.132V88C121.132 87.16 120.912 86.5133 120.472 86.06C120.032 85.5933 119.305 85.36 118.292 85.36C117.932 85.36 117.565 85.3733 117.192 85.4C116.818 85.4133 116.465 85.4333 116.132 85.46C115.798 85.4733 115.498 85.5 115.232 85.54V84.58C115.498 84.54 115.778 84.5067 116.072 84.48C116.378 84.4533 116.685 84.4333 116.992 84.42C117.298 84.4067 117.592 84.4 117.872 84.4C118.925 84.4 119.765 84.54 120.392 84.82C121.018 85.0867 121.472 85.5 121.752 86.06C122.032 86.6067 122.172 87.3067 122.172 88.16V95H121.332ZM117.672 95.28C116.965 95.28 116.332 95.1533 115.772 94.9C115.212 94.6467 114.765 94.2733 114.432 93.78C114.112 93.2867 113.952 92.6867 113.952 91.98C113.952 91.3 114.105 90.72 114.412 90.24C114.732 89.76 115.185 89.3933 115.772 89.14C116.372 88.8867 117.092 88.76 117.932 88.76H121.232V89.62H117.832C116.925 89.62 116.225 89.84 115.732 90.28C115.252 90.7067 115.012 91.2733 115.012 91.98C115.012 92.7267 115.272 93.32 115.792 93.76C116.312 94.1867 116.992 94.4 117.832 94.4C118.352 94.4 118.858 94.3 119.352 94.1C119.845 93.9 120.258 93.5667 120.592 93.1C120.925 92.62 121.105 91.98 121.132 91.18L121.532 91.64C121.492 92.4533 121.292 93.1333 120.932 93.68C120.585 94.2133 120.132 94.6133 119.572 94.88C119.012 95.1467 118.378 95.28 117.672 95.28ZM126.142 95V84.5H126.982V88.8H126.742C126.742 87.8933 126.875 87.1 127.142 86.42C127.422 85.7267 127.835 85.1867 128.382 84.8C128.929 84.4133 129.622 84.22 130.462 84.22H130.522C131.349 84.22 132.035 84.4133 132.582 84.8C133.129 85.1733 133.529 85.7067 133.782 86.4C134.049 87.08 134.182 87.88 134.182 88.8H133.782C133.782 87.8933 133.915 87.1 134.182 86.42C134.462 85.7267 134.875 85.1867 135.422 84.8C135.982 84.4133 136.682 84.22 137.522 84.22H137.582C138.409 84.22 139.095 84.4133 139.642 84.8C140.202 85.1733 140.615 85.7067 140.882 86.4C141.149 87.08 141.282 87.88 141.282 88.8V95H140.222V88.56C140.222 87.56 139.975 86.7533 139.482 86.14C139.002 85.5133 138.289 85.2 137.342 85.2C136.382 85.2 135.622 85.52 135.062 86.16C134.515 86.8 134.242 87.6333 134.242 88.66V95H133.182V88.56C133.182 87.56 132.935 86.7533 132.442 86.14C131.962 85.5133 131.249 85.2 130.302 85.2C129.342 85.2 128.582 85.52 128.022 86.16C127.475 86.8 127.202 87.6333 127.202 88.66V95H126.142ZM149.543 95.34C148.65 95.34 147.876 95.1867 147.223 94.88C146.57 94.56 146.036 94.14 145.623 93.62C145.21 93.0867 144.896 92.4933 144.683 91.84C144.483 91.1733 144.383 90.5 144.383 89.82V89.62C144.383 88.9267 144.483 88.26 144.683 87.62C144.896 86.98 145.21 86.4 145.623 85.88C146.05 85.3467 146.576 84.9333 147.203 84.64C147.843 84.3333 148.583 84.18 149.423 84.18C150.49 84.18 151.383 84.42 152.103 84.9C152.836 85.3667 153.39 85.98 153.763 86.74C154.136 87.5 154.323 88.3 154.323 89.14V89.86H144.883V88.98H153.623L153.303 89.38C153.303 88.5667 153.15 87.84 152.843 87.2C152.55 86.56 152.11 86.06 151.523 85.7C150.95 85.3267 150.25 85.14 149.423 85.14C148.53 85.14 147.783 85.3467 147.183 85.76C146.583 86.1733 146.13 86.7267 145.823 87.42C145.53 88.1133 145.383 88.88 145.383 89.72C145.383 90.56 145.53 91.3333 145.823 92.04C146.13 92.7333 146.59 93.3 147.203 93.74C147.816 94.1667 148.596 94.38 149.543 94.38C150.556 94.38 151.37 94.1467 151.983 93.68C152.61 93.2133 152.99 92.6533 153.123 92H154.163C154.016 92.6533 153.736 93.2333 153.323 93.74C152.91 94.2467 152.383 94.64 151.743 94.92C151.116 95.2 150.383 95.34 149.543 95.34ZM157.373 95V84.5H158.213V88.8H157.973C157.973 87.88 158.119 87.08 158.413 86.4C158.719 85.7067 159.166 85.1733 159.753 84.8C160.353 84.4133 161.093 84.22 161.973 84.22H162.033C163.353 84.22 164.346 84.6333 165.013 85.46C165.679 86.2733 166.013 87.3867 166.013 88.8V95H164.933V88.56C164.933 87.56 164.659 86.7533 164.113 86.14C163.579 85.5133 162.806 85.2 161.793 85.2C160.766 85.2 159.946 85.52 159.333 86.16C158.733 86.7867 158.433 87.62 158.433 88.66V95H157.373ZM173.49 95.1C172.836 95.1 172.263 95.0067 171.77 94.82C171.276 94.62 170.896 94.2867 170.63 93.82C170.363 93.3533 170.23 92.7267 170.23 91.94V81.08H171.27V92.12C171.27 92.76 171.443 93.26 171.79 93.62C172.15 93.9667 172.643 94.14 173.27 94.14H175.23V95.1H173.49ZM168.23 85.36V84.5H175.23V85.36H168.23ZM182.792 95.34C181.912 95.34 181.132 95.18 180.452 94.86C179.772 94.54 179.199 94.12 178.732 93.6C178.279 93.08 177.932 92.5 177.692 91.86C177.465 91.2067 177.352 90.54 177.352 89.86V89.66C177.352 88.9667 177.472 88.2933 177.712 87.64C177.952 86.9867 178.305 86.4 178.772 85.88C179.239 85.36 179.805 84.9467 180.472 84.64C181.152 84.3333 181.925 84.18 182.792 84.18C183.645 84.18 184.405 84.3333 185.072 84.64C185.752 84.9467 186.325 85.36 186.792 85.88C187.259 86.4 187.612 86.9867 187.852 87.64C188.105 88.2933 188.232 88.9667 188.232 89.66V89.86C188.232 90.54 188.112 91.2067 187.872 91.86C187.632 92.5 187.279 93.08 186.812 93.6C186.359 94.12 185.792 94.54 185.112 94.86C184.445 95.18 183.672 95.34 182.792 95.34ZM182.792 94.36C183.725 94.36 184.512 94.1467 185.152 93.72C185.805 93.2933 186.299 92.7333 186.632 92.04C186.979 91.3333 187.152 90.5733 187.152 89.76C187.152 88.92 186.979 88.1533 186.632 87.46C186.285 86.7533 185.785 86.1933 185.132 85.78C184.492 85.3533 183.712 85.14 182.792 85.14C181.885 85.14 181.099 85.3533 180.432 85.78C179.779 86.1933 179.279 86.7533 178.932 87.46C178.585 88.1533 178.412 88.92 178.412 89.76C178.412 90.5733 178.579 91.3333 178.912 92.04C179.259 92.7333 179.759 93.2933 180.412 93.72C181.065 94.1467 181.859 94.36 182.792 94.36ZM200.46 95.34C199.673 95.34 198.96 95.1933 198.32 94.9C197.693 94.5933 197.16 94.1867 196.72 93.68C196.28 93.16 195.94 92.5733 195.7 91.92C195.473 91.2667 195.36 90.58 195.36 89.86V89.66C195.36 88.9667 195.473 88.3 195.7 87.66C195.926 87.0067 196.253 86.42 196.68 85.9C197.12 85.3667 197.653 84.9467 198.28 84.64C198.906 84.3333 199.626 84.18 200.44 84.18C201.386 84.18 202.206 84.3933 202.9 84.82C203.606 85.2467 204.153 85.8333 204.54 86.58C204.94 87.3133 205.153 88.1533 205.18 89.1L204.64 87.92V80.4H205.7V95H204.86V90.34H205.26C205.233 91.34 205.013 92.22 204.6 92.98C204.186 93.7267 203.62 94.3067 202.9 94.72C202.193 95.1333 201.38 95.34 200.46 95.34ZM200.56 94.38C201.373 94.38 202.086 94.2 202.7 93.84C203.326 93.48 203.813 92.9933 204.16 92.38C204.52 91.7533 204.7 91.04 204.7 90.24V89.2C204.7 88.44 204.52 87.7533 204.16 87.14C203.813 86.5267 203.326 86.04 202.7 85.68C202.086 85.32 201.373 85.14 200.56 85.14C199.68 85.14 198.933 85.3533 198.32 85.78C197.706 86.2067 197.233 86.7733 196.9 87.48C196.58 88.1733 196.42 88.9333 196.42 89.76C196.42 90.6133 196.586 91.3933 196.92 92.1C197.253 92.7933 197.726 93.3467 198.34 93.76C198.966 94.1733 199.706 94.38 200.56 94.38ZM214.374 95.34C213.494 95.34 212.714 95.18 212.034 94.86C211.354 94.54 210.781 94.12 210.314 93.6C209.861 93.08 209.514 92.5 209.274 91.86C209.047 91.2067 208.934 90.54 208.934 89.86V89.66C208.934 88.9667 209.054 88.2933 209.294 87.64C209.534 86.9867 209.887 86.4 210.354 85.88C210.821 85.36 211.387 84.9467 212.054 84.64C212.734 84.3333 213.507 84.18 214.374 84.18C215.227 84.18 215.987 84.3333 216.654 84.64C217.334 84.9467 217.907 85.36 218.374 85.88C218.841 86.4 219.194 86.9867 219.434 87.64C219.687 88.2933 219.814 88.9667 219.814 89.66V89.86C219.814 90.54 219.694 91.2067 219.454 91.86C219.214 92.5 218.861 93.08 218.394 93.6C217.941 94.12 217.374 94.54 216.694 94.86C216.027 95.18 215.254 95.34 214.374 95.34ZM214.374 94.36C215.307 94.36 216.094 94.1467 216.734 93.72C217.387 93.2933 217.881 92.7333 218.214 92.04C218.561 91.3333 218.734 90.5733 218.734 89.76C218.734 88.92 218.561 88.1533 218.214 87.46C217.867 86.7533 217.367 86.1933 216.714 85.78C216.074 85.3533 215.294 85.14 214.374 85.14C213.467 85.14 212.681 85.3533 212.014 85.78C211.361 86.1933 210.861 86.7533 210.514 87.46C210.167 88.1533 209.994 88.92 209.994 89.76C209.994 90.5733 210.161 91.3333 210.494 92.04C210.841 92.7333 211.341 93.2933 211.994 93.72C212.647 94.1467 213.441 94.36 214.374 94.36ZM227.822 99V84.5H228.662V88.98L228.342 89.12C228.355 88.1333 228.562 87.2733 228.962 86.54C229.375 85.7933 229.935 85.2133 230.642 84.8C231.348 84.3867 232.168 84.18 233.102 84.18C233.902 84.18 234.615 84.3333 235.242 84.64C235.868 84.9333 236.395 85.34 236.822 85.86C237.262 86.3667 237.595 86.9467 237.822 87.6C238.048 88.2533 238.162 88.94 238.162 89.66V89.86C238.162 90.54 238.048 91.2067 237.822 91.86C237.595 92.5 237.262 93.0867 236.822 93.62C236.395 94.14 235.868 94.56 235.242 94.88C234.615 95.1867 233.902 95.34 233.102 95.34C232.168 95.34 231.342 95.1267 230.622 94.7C229.915 94.2733 229.362 93.6867 228.962 92.94C228.562 92.18 228.348 91.32 228.322 90.36L228.882 91.76V99H227.822ZM232.962 94.38C233.842 94.38 234.588 94.1667 235.202 93.74C235.828 93.3 236.302 92.7333 236.622 92.04C236.942 91.3333 237.102 90.5733 237.102 89.76C237.102 88.9067 236.935 88.1333 236.602 87.44C236.282 86.7333 235.808 86.1733 235.182 85.76C234.568 85.3467 233.828 85.14 232.962 85.14C232.162 85.14 231.448 85.32 230.822 85.68C230.208 86.0267 229.722 86.5133 229.362 87.14C229.002 87.7533 228.822 88.46 228.822 89.26V90.28C228.822 91.04 228.995 91.7333 229.342 92.36C229.702 92.9733 230.188 93.4667 230.802 93.84C231.428 94.2 232.148 94.38 232.962 94.38ZM241.396 95V84.5H242.236V88.94H242.076C242.076 87.42 242.416 86.2867 243.096 85.54C243.776 84.7933 244.876 84.42 246.396 84.42H246.756V85.38H246.196C244.956 85.38 244.023 85.7 243.396 86.34C242.769 86.9667 242.456 87.8933 242.456 89.12V95H241.396ZM253.768 95.34C252.888 95.34 252.108 95.18 251.428 94.86C250.748 94.54 250.175 94.12 249.708 93.6C249.255 93.08 248.908 92.5 248.668 91.86C248.442 91.2067 248.328 90.54 248.328 89.86V89.66C248.328 88.9667 248.448 88.2933 248.688 87.64C248.928 86.9867 249.282 86.4 249.748 85.88C250.215 85.36 250.782 84.9467 251.448 84.64C252.128 84.3333 252.902 84.18 253.768 84.18C254.622 84.18 255.382 84.3333 256.048 84.64C256.728 84.9467 257.302 85.36 257.768 85.88C258.235 86.4 258.588 86.9867 258.828 87.64C259.082 88.2933 259.208 88.9667 259.208 89.66V89.86C259.208 90.54 259.088 91.2067 258.848 91.86C258.608 92.5 258.255 93.08 257.788 93.6C257.335 94.12 256.768 94.54 256.088 94.86C255.422 95.18 254.648 95.34 253.768 95.34ZM253.768 94.36C254.702 94.36 255.488 94.1467 256.128 93.72C256.782 93.2933 257.275 92.7333 257.608 92.04C257.955 91.3333 258.128 90.5733 258.128 89.76C258.128 88.92 257.955 88.1533 257.608 87.46C257.262 86.7533 256.762 86.1933 256.108 85.78C255.468 85.3533 254.688 85.14 253.768 85.14C252.862 85.14 252.075 85.3533 251.408 85.78C250.755 86.1933 250.255 86.7533 249.908 87.46C249.562 88.1533 249.388 88.92 249.388 89.76C249.388 90.5733 249.555 91.3333 249.888 92.04C250.235 92.7333 250.735 93.2933 251.388 93.72C252.042 94.1467 252.835 94.36 253.768 94.36ZM260.271 99.06V98.08H261.571C262.104 98.08 262.511 97.92 262.791 97.6C263.071 97.28 263.211 96.8133 263.211 96.2V84.5H264.251V95.92C264.251 96.68 264.151 97.2867 263.951 97.74C263.751 98.1933 263.438 98.5267 263.011 98.74C262.584 98.9533 262.018 99.06 261.311 99.06H260.271ZM261.411 85.42V84.5H264.251V85.42H261.411ZM263.271 82.12C262.991 82.12 262.778 82.0467 262.631 81.9C262.484 81.74 262.411 81.5333 262.411 81.28C262.411 81.04 262.484 80.84 262.631 80.68C262.778 80.52 262.998 80.44 263.291 80.44C263.571 80.44 263.784 80.52 263.931 80.68C264.078 80.84 264.151 81.04 264.151 81.28C264.151 81.5333 264.078 81.74 263.931 81.9C263.798 82.0467 263.578 82.12 263.271 82.12ZM272.668 95.34C271.775 95.34 271.001 95.1867 270.348 94.88C269.695 94.56 269.161 94.14 268.748 93.62C268.335 93.0867 268.021 92.4933 267.808 91.84C267.608 91.1733 267.508 90.5 267.508 89.82V89.62C267.508 88.9267 267.608 88.26 267.808 87.62C268.021 86.98 268.335 86.4 268.748 85.88C269.175 85.3467 269.701 84.9333 270.328 84.64C270.968 84.3333 271.708 84.18 272.548 84.18C273.615 84.18 274.508 84.42 275.228 84.9C275.961 85.3667 276.515 85.98 276.888 86.74C277.261 87.5 277.448 88.3 277.448 89.14V89.86H268.008V88.98H276.748L276.428 89.38C276.428 88.5667 276.275 87.84 275.968 87.2C275.675 86.56 275.235 86.06 274.648 85.7C274.075 85.3267 273.375 85.14 272.548 85.14C271.655 85.14 270.908 85.3467 270.308 85.76C269.708 86.1733 269.255 86.7267 268.948 87.42C268.655 88.1133 268.508 88.88 268.508 89.72C268.508 90.56 268.655 91.3333 268.948 92.04C269.255 92.7333 269.715 93.3 270.328 93.74C270.941 94.1667 271.721 94.38 272.668 94.38C273.681 94.38 274.495 94.1467 275.108 93.68C275.735 93.2133 276.115 92.6533 276.248 92H277.288C277.141 92.6533 276.861 93.2333 276.448 93.74C276.035 94.2467 275.508 94.64 274.868 94.92C274.241 95.2 273.508 95.34 272.668 95.34ZM283.998 95.1C283.344 95.1 282.771 95.0067 282.278 94.82C281.784 94.62 281.404 94.2867 281.138 93.82C280.871 93.3533 280.738 92.7267 280.738 91.94V81.08H281.778V92.12C281.778 92.76 281.951 93.26 282.298 93.62C282.658 93.9667 283.151 94.14 283.778 94.14H285.738V95.1H283.998ZM278.738 85.36V84.5H285.738V85.36H278.738ZM293.3 95.34C292.42 95.34 291.64 95.18 290.96 94.86C290.28 94.54 289.706 94.12 289.24 93.6C288.786 93.08 288.44 92.5 288.2 91.86C287.973 91.2067 287.86 90.54 287.86 89.86V89.66C287.86 88.9667 287.98 88.2933 288.22 87.64C288.46 86.9867 288.813 86.4 289.28 85.88C289.746 85.36 290.313 84.9467 290.98 84.64C291.66 84.3333 292.433 84.18 293.3 84.18C294.153 84.18 294.913 84.3333 295.58 84.64C296.26 84.9467 296.833 85.36 297.3 85.88C297.766 86.4 298.12 86.9867 298.36 87.64C298.613 88.2933 298.74 88.9667 298.74 89.66V89.86C298.74 90.54 298.62 91.2067 298.38 91.86C298.14 92.5 297.786 93.08 297.32 93.6C296.866 94.12 296.3 94.54 295.62 94.86C294.953 95.18 294.18 95.34 293.3 95.34ZM293.3 94.36C294.233 94.36 295.02 94.1467 295.66 93.72C296.313 93.2933 296.806 92.7333 297.14 92.04C297.486 91.3333 297.66 90.5733 297.66 89.76C297.66 88.92 297.486 88.1533 297.14 87.46C296.793 86.7533 296.293 86.1933 295.64 85.78C295 85.3533 294.22 85.14 293.3 85.14C292.393 85.14 291.606 85.3533 290.94 85.78C290.286 86.1933 289.786 86.7533 289.44 87.46C289.093 88.1533 288.92 88.92 288.92 89.76C288.92 90.5733 289.086 91.3333 289.42 92.04C289.766 92.7333 290.266 93.2933 290.92 93.72C291.573 94.1467 292.366 94.36 293.3 94.36Z" fill="#ADB6A7"/>
<path opacity="0.7" d="M70.2295 144.34C68.9895 144.34 67.9561 144.147 67.1295 143.76C66.3028 143.36 65.6828 142.82 65.2695 142.14C64.8561 141.447 64.6495 140.667 64.6495 139.8H65.7295C65.7295 140.467 65.8828 141.067 66.1895 141.6C66.5095 142.133 67.0028 142.56 67.6695 142.88C68.3361 143.187 69.1895 143.34 70.2295 143.34C71.2028 143.34 72.0161 143.2 72.6695 142.92C73.3228 142.64 73.8095 142.26 74.1295 141.78C74.4628 141.287 74.6295 140.72 74.6295 140.08C74.6295 139.293 74.3361 138.627 73.7495 138.08C73.1628 137.52 72.2695 137.18 71.0695 137.06L69.3295 136.92C68.1161 136.813 67.1561 136.427 66.4495 135.76C65.7428 135.093 65.3895 134.22 65.3895 133.14C65.3895 132.367 65.5695 131.673 65.9295 131.06C66.2895 130.433 66.8295 129.94 67.5495 129.58C68.2695 129.207 69.1561 129.02 70.2095 129.02C71.2761 129.02 72.1761 129.22 72.9095 129.62C73.6428 130.007 74.1961 130.533 74.5695 131.2C74.9561 131.853 75.1495 132.593 75.1495 133.42H74.0695C74.0695 132.82 73.9361 132.267 73.6695 131.76C73.4028 131.24 72.9828 130.82 72.4095 130.5C71.8495 130.18 71.1161 130.02 70.2095 130.02C69.3295 130.02 68.6161 130.167 68.0695 130.46C67.5228 130.74 67.1161 131.12 66.8495 131.6C66.5961 132.067 66.4695 132.58 66.4695 133.14C66.4695 133.94 66.7228 134.58 67.2295 135.06C67.7495 135.54 68.4895 135.827 69.4495 135.92L71.1895 136.06C72.1628 136.14 72.9828 136.367 73.6495 136.74C74.3295 137.1 74.8428 137.567 75.1895 138.14C75.5361 138.713 75.7095 139.36 75.7095 140.08C75.7095 140.893 75.4961 141.627 75.0695 142.28C74.6428 142.92 74.0228 143.427 73.2095 143.8C72.3961 144.16 71.4028 144.34 70.2295 144.34ZM82.9115 144.3C81.6448 144.3 80.6848 143.893 80.0315 143.08C79.3782 142.267 79.0515 141.167 79.0515 139.78V133.5H80.1315V140.02C80.1315 140.993 80.3848 141.787 80.8915 142.4C81.4115 143 82.1582 143.3 83.1315 143.3C84.1182 143.3 84.8982 142.987 85.4715 142.36C86.0582 141.733 86.3515 140.913 86.3515 139.9V133.5H87.4115V144H86.5715V139.76H86.8115C86.8115 140.653 86.6648 141.447 86.3715 142.14C86.0915 142.82 85.6715 143.353 85.1115 143.74C84.5515 144.113 83.8382 144.3 82.9715 144.3H82.9115ZM91.5776 148V133.5H92.4176V137.98L92.0976 138.12C92.1109 137.133 92.3176 136.273 92.7176 135.54C93.1309 134.793 93.6909 134.213 94.3976 133.8C95.1042 133.387 95.9242 133.18 96.8576 133.18C97.6576 133.18 98.3709 133.333 98.9976 133.64C99.6242 133.933 100.151 134.34 100.578 134.86C101.018 135.367 101.351 135.947 101.578 136.6C101.804 137.253 101.918 137.94 101.918 138.66V138.86C101.918 139.54 101.804 140.207 101.578 140.86C101.351 141.5 101.018 142.087 100.578 142.62C100.151 143.14 99.6242 143.56 98.9976 143.88C98.3709 144.187 97.6576 144.34 96.8576 144.34C95.9242 144.34 95.0976 144.127 94.3776 143.7C93.6709 143.273 93.1176 142.687 92.7176 141.94C92.3176 141.18 92.1042 140.32 92.0776 139.36L92.6376 140.76V148H91.5776ZM96.7176 143.38C97.5976 143.38 98.3442 143.167 98.9576 142.74C99.5842 142.3 100.058 141.733 100.378 141.04C100.698 140.333 100.858 139.573 100.858 138.76C100.858 137.907 100.691 137.133 100.358 136.44C100.038 135.733 99.5642 135.173 98.9376 134.76C98.3242 134.347 97.5842 134.14 96.7176 134.14C95.9176 134.14 95.2042 134.32 94.5776 134.68C93.9642 135.027 93.4776 135.513 93.1176 136.14C92.7576 136.753 92.5776 137.46 92.5776 138.26V139.28C92.5776 140.04 92.7509 140.733 93.0976 141.36C93.4576 141.973 93.9442 142.467 94.5576 142.84C95.1842 143.2 95.9042 143.38 96.7176 143.38ZM109.712 144.34C108.832 144.34 108.052 144.18 107.372 143.86C106.692 143.54 106.118 143.12 105.652 142.6C105.198 142.08 104.852 141.5 104.612 140.86C104.385 140.207 104.272 139.54 104.272 138.86V138.66C104.272 137.967 104.392 137.293 104.632 136.64C104.872 135.987 105.225 135.4 105.692 134.88C106.158 134.36 106.725 133.947 107.392 133.64C108.072 133.333 108.845 133.18 109.712 133.18C110.565 133.18 111.325 133.333 111.992 133.64C112.672 133.947 113.245 134.36 113.712 134.88C114.178 135.4 114.532 135.987 114.772 136.64C115.025 137.293 115.152 137.967 115.152 138.66V138.86C115.152 139.54 115.032 140.207 114.792 140.86C114.552 141.5 114.198 142.08 113.732 142.6C113.278 143.12 112.712 143.54 112.032 143.86C111.365 144.18 110.592 144.34 109.712 144.34ZM109.712 143.36C110.645 143.36 111.432 143.147 112.072 142.72C112.725 142.293 113.218 141.733 113.552 141.04C113.898 140.333 114.072 139.573 114.072 138.76C114.072 137.92 113.898 137.153 113.552 136.46C113.205 135.753 112.705 135.193 112.052 134.78C111.412 134.353 110.632 134.14 109.712 134.14C108.805 134.14 108.018 134.353 107.352 134.78C106.698 135.193 106.198 135.753 105.852 136.46C105.505 137.153 105.332 137.92 105.332 138.76C105.332 139.573 105.498 140.333 105.832 141.04C106.178 141.733 106.678 142.293 107.332 142.72C107.985 143.147 108.778 143.36 109.712 143.36ZM118.374 144V133.5H119.214V137.94H119.054C119.054 136.42 119.394 135.287 120.074 134.54C120.754 133.793 121.854 133.42 123.374 133.42H123.734V134.38H123.174C121.934 134.38 121.001 134.7 120.374 135.34C119.748 135.967 119.434 136.893 119.434 138.12V144H118.374ZM130.019 144.1C129.366 144.1 128.792 144.007 128.299 143.82C127.806 143.62 127.426 143.287 127.159 142.82C126.892 142.353 126.759 141.727 126.759 140.94V130.08H127.799V141.12C127.799 141.76 127.972 142.26 128.319 142.62C128.679 142.967 129.172 143.14 129.799 143.14H131.759V144.1H130.019ZM124.759 134.36V133.5H131.759V134.36H124.759ZM139.041 144.34C138.148 144.34 137.375 144.187 136.721 143.88C136.068 143.56 135.535 143.14 135.121 142.62C134.708 142.087 134.395 141.493 134.181 140.84C133.981 140.173 133.881 139.5 133.881 138.82V138.62C133.881 137.927 133.981 137.26 134.181 136.62C134.395 135.98 134.708 135.4 135.121 134.88C135.548 134.347 136.075 133.933 136.701 133.64C137.341 133.333 138.081 133.18 138.921 133.18C139.988 133.18 140.881 133.42 141.601 133.9C142.335 134.367 142.888 134.98 143.261 135.74C143.635 136.5 143.821 137.3 143.821 138.14V138.86H134.381V137.98H143.121L142.801 138.38C142.801 137.567 142.648 136.84 142.341 136.2C142.048 135.56 141.608 135.06 141.021 134.7C140.448 134.327 139.748 134.14 138.921 134.14C138.028 134.14 137.281 134.347 136.681 134.76C136.081 135.173 135.628 135.727 135.321 136.42C135.028 137.113 134.881 137.88 134.881 138.72C134.881 139.56 135.028 140.333 135.321 141.04C135.628 141.733 136.088 142.3 136.701 142.74C137.315 143.167 138.095 143.38 139.041 143.38C140.055 143.38 140.868 143.147 141.481 142.68C142.108 142.213 142.488 141.653 142.621 141H143.661C143.515 141.653 143.235 142.233 142.821 142.74C142.408 143.247 141.881 143.64 141.241 143.92C140.615 144.2 139.881 144.34 139.041 144.34Z" fill="#ADB6A7"/>
<path opacity="0.7" d="M66.8775 193V178.4H67.9575V193H66.8775ZM67.5775 193V192.02H74.6175V193H67.5775ZM83.6206 193V189.86H83.4206V186C83.4206 185.16 83.2006 184.513 82.7606 184.06C82.3206 183.593 81.594 183.36 80.5806 183.36C80.2206 183.36 79.854 183.373 79.4806 183.4C79.1073 183.413 78.754 183.433 78.4206 183.46C78.0873 183.473 77.7873 183.5 77.5206 183.54V182.58C77.7873 182.54 78.0673 182.507 78.3606 182.48C78.6673 182.453 78.974 182.433 79.2806 182.42C79.5873 182.407 79.8806 182.4 80.1606 182.4C81.214 182.4 82.054 182.54 82.6806 182.82C83.3073 183.087 83.7606 183.5 84.0406 184.06C84.3206 184.607 84.4606 185.307 84.4606 186.16V193H83.6206ZM79.9606 193.28C79.254 193.28 78.6206 193.153 78.0606 192.9C77.5006 192.647 77.054 192.273 76.7206 191.78C76.4006 191.287 76.2406 190.687 76.2406 189.98C76.2406 189.3 76.394 188.72 76.7006 188.24C77.0206 187.76 77.474 187.393 78.0606 187.14C78.6606 186.887 79.3806 186.76 80.2206 186.76H83.5206V187.62H80.1206C79.214 187.62 78.514 187.84 78.0206 188.28C77.5406 188.707 77.3006 189.273 77.3006 189.98C77.3006 190.727 77.5606 191.32 78.0806 191.76C78.6006 192.187 79.2806 192.4 80.1206 192.4C80.6406 192.4 81.1473 192.3 81.6406 192.1C82.134 191.9 82.5473 191.567 82.8806 191.1C83.214 190.62 83.394 189.98 83.4206 189.18L83.8206 189.64C83.7806 190.453 83.5806 191.133 83.2206 191.68C82.874 192.213 82.4206 192.613 81.8606 192.88C81.3006 193.147 80.6673 193.28 79.9606 193.28ZM88.4311 193V182.5H89.2711V186.8H89.0311C89.0311 185.88 89.1778 185.08 89.4711 184.4C89.7778 183.707 90.2244 183.173 90.8111 182.8C91.4111 182.413 92.1511 182.22 93.0311 182.22H93.0911C94.4111 182.22 95.4044 182.633 96.0711 183.46C96.7378 184.273 97.0711 185.387 97.0711 186.8V193H95.9911V186.56C95.9911 185.56 95.7178 184.753 95.1711 184.14C94.6378 183.513 93.8644 183.2 92.8511 183.2C91.8244 183.2 91.0044 183.52 90.3911 184.16C89.7911 184.787 89.4911 185.62 89.4911 186.66V193H88.4311ZM105.348 193.34C104.482 193.34 103.722 193.18 103.068 192.86C102.428 192.54 101.888 192.113 101.448 191.58C101.022 191.047 100.702 190.453 100.488 189.8C100.275 189.147 100.168 188.487 100.168 187.82V187.62C100.168 186.94 100.275 186.273 100.488 185.62C100.702 184.967 101.022 184.387 101.448 183.88C101.888 183.36 102.428 182.947 103.068 182.64C103.722 182.333 104.482 182.18 105.348 182.18C106.188 182.18 106.935 182.333 107.588 182.64C108.255 182.947 108.795 183.38 109.208 183.94C109.635 184.487 109.902 185.147 110.008 185.92H108.968C108.848 185.12 108.475 184.46 107.848 183.94C107.222 183.407 106.388 183.14 105.348 183.14C104.428 183.14 103.662 183.347 103.048 183.76C102.435 184.173 101.975 184.727 101.668 185.42C101.375 186.113 101.228 186.88 101.228 187.72C101.228 188.533 101.382 189.293 101.688 190C101.995 190.707 102.455 191.28 103.068 191.72C103.682 192.147 104.442 192.36 105.348 192.36C106.055 192.36 106.675 192.233 107.208 191.98C107.755 191.713 108.195 191.367 108.528 190.94C108.862 190.5 109.062 190.02 109.128 189.5H110.168C110.075 190.273 109.808 190.947 109.368 191.52C108.928 192.08 108.362 192.527 107.668 192.86C106.975 193.18 106.202 193.34 105.348 193.34ZM105.368 197.58C105.115 197.58 104.875 197.56 104.648 197.52C104.422 197.493 104.215 197.453 104.028 197.4V196.6C104.228 196.653 104.448 196.693 104.688 196.72C104.928 196.76 105.155 196.78 105.368 196.78C105.822 196.78 106.162 196.7 106.388 196.54C106.615 196.38 106.728 196.147 106.728 195.84C106.728 195.573 106.628 195.353 106.428 195.18C106.242 195.02 105.928 194.94 105.488 194.94H104.888V192.8H105.608V194.7L105.188 194.2H105.448C106.115 194.2 106.635 194.347 107.008 194.64C107.382 194.947 107.568 195.34 107.568 195.82C107.568 196.34 107.375 196.76 106.988 197.08C106.615 197.413 106.075 197.58 105.368 197.58ZM119.5 193V189.86H119.3V186C119.3 185.16 119.08 184.513 118.64 184.06C118.2 183.593 117.473 183.36 116.46 183.36C116.1 183.36 115.733 183.373 115.36 183.4C114.986 183.413 114.633 183.433 114.3 183.46C113.966 183.473 113.666 183.5 113.4 183.54V182.58C113.666 182.54 113.946 182.507 114.24 182.48C114.546 182.453 114.853 182.433 115.16 182.42C115.466 182.407 115.76 182.4 116.04 182.4C117.093 182.4 117.933 182.54 118.56 182.82C119.186 183.087 119.64 183.5 119.92 184.06C120.2 184.607 120.34 185.307 120.34 186.16V193H119.5ZM115.84 193.28C115.133 193.28 114.5 193.153 113.94 192.9C113.38 192.647 112.933 192.273 112.6 191.78C112.28 191.287 112.12 190.687 112.12 189.98C112.12 189.3 112.273 188.72 112.58 188.24C112.9 187.76 113.353 187.393 113.94 187.14C114.54 186.887 115.26 186.76 116.1 186.76H119.4V187.62H116C115.093 187.62 114.393 187.84 113.9 188.28C113.42 188.707 113.18 189.273 113.18 189.98C113.18 190.727 113.44 191.32 113.96 191.76C114.48 192.187 115.16 192.4 116 192.4C116.52 192.4 117.026 192.3 117.52 192.1C118.013 191.9 118.426 191.567 118.76 191.1C119.093 190.62 119.273 189.98 119.3 189.18L119.7 189.64C119.66 190.453 119.46 191.133 119.1 191.68C118.753 192.213 118.3 192.613 117.74 192.88C117.18 193.147 116.546 193.28 115.84 193.28ZM124.31 193V182.5H125.15V186.8H124.91C124.91 185.893 125.043 185.1 125.31 184.42C125.59 183.727 126.003 183.187 126.55 182.8C127.097 182.413 127.79 182.22 128.63 182.22H128.69C129.517 182.22 130.203 182.413 130.75 182.8C131.297 183.173 131.697 183.707 131.95 184.4C132.217 185.08 132.35 185.88 132.35 186.8H131.95C131.95 185.893 132.083 185.1 132.35 184.42C132.63 183.727 133.043 183.187 133.59 182.8C134.15 182.413 134.85 182.22 135.69 182.22H135.75C136.577 182.22 137.263 182.413 137.81 182.8C138.37 183.173 138.783 183.707 139.05 184.4C139.317 185.08 139.45 185.88 139.45 186.8V193H138.39V186.56C138.39 185.56 138.143 184.753 137.65 184.14C137.17 183.513 136.457 183.2 135.51 183.2C134.55 183.2 133.79 183.52 133.23 184.16C132.683 184.8 132.41 185.633 132.41 186.66V193H131.35V186.56C131.35 185.56 131.103 184.753 130.61 184.14C130.13 183.513 129.417 183.2 128.47 183.2C127.51 183.2 126.75 183.52 126.19 184.16C125.643 184.8 125.37 185.633 125.37 186.66V193H124.31ZM147.711 193.34C146.818 193.34 146.044 193.187 145.391 192.88C144.738 192.56 144.204 192.14 143.791 191.62C143.378 191.087 143.064 190.493 142.851 189.84C142.651 189.173 142.551 188.5 142.551 187.82V187.62C142.551 186.927 142.651 186.26 142.851 185.62C143.064 184.98 143.378 184.4 143.791 183.88C144.218 183.347 144.744 182.933 145.371 182.64C146.011 182.333 146.751 182.18 147.591 182.18C148.658 182.18 149.551 182.42 150.271 182.9C151.004 183.367 151.558 183.98 151.931 184.74C152.304 185.5 152.491 186.3 152.491 187.14V187.86H143.051V186.98H151.791L151.471 187.38C151.471 186.567 151.318 185.84 151.011 185.2C150.718 184.56 150.278 184.06 149.691 183.7C149.118 183.327 148.418 183.14 147.591 183.14C146.698 183.14 145.951 183.347 145.351 183.76C144.751 184.173 144.298 184.727 143.991 185.42C143.698 186.113 143.551 186.88 143.551 187.72C143.551 188.56 143.698 189.333 143.991 190.04C144.298 190.733 144.758 191.3 145.371 191.74C145.984 192.167 146.764 192.38 147.711 192.38C148.724 192.38 149.538 192.147 150.151 191.68C150.778 191.213 151.158 190.653 151.291 190H152.331C152.184 190.653 151.904 191.233 151.491 191.74C151.078 192.247 150.551 192.64 149.911 192.92C149.284 193.2 148.551 193.34 147.711 193.34ZM155.54 193V182.5H156.38V186.8H156.14C156.14 185.88 156.287 185.08 156.58 184.4C156.887 183.707 157.334 183.173 157.92 182.8C158.52 182.413 159.26 182.22 160.14 182.22H160.2C161.52 182.22 162.514 182.633 163.18 183.46C163.847 184.273 164.18 185.387 164.18 186.8V193H163.1V186.56C163.1 185.56 162.827 184.753 162.28 184.14C161.747 183.513 160.974 183.2 159.96 183.2C158.934 183.2 158.114 183.52 157.5 184.16C156.9 184.787 156.6 185.62 156.6 186.66V193H155.54ZM171.658 193.1C171.004 193.1 170.431 193.007 169.938 192.82C169.444 192.62 169.064 192.287 168.798 191.82C168.531 191.353 168.398 190.727 168.398 189.94V179.08H169.438V190.12C169.438 190.76 169.611 191.26 169.958 191.62C170.318 191.967 170.811 192.14 171.438 192.14H173.398V193.1H171.658ZM166.398 183.36V182.5H173.398V183.36H166.398ZM180.96 193.34C180.08 193.34 179.3 193.18 178.62 192.86C177.94 192.54 177.367 192.12 176.9 191.6C176.447 191.08 176.1 190.5 175.86 189.86C175.633 189.207 175.52 188.54 175.52 187.86V187.66C175.52 186.967 175.64 186.293 175.88 185.64C176.12 184.987 176.473 184.4 176.94 183.88C177.407 183.36 177.973 182.947 178.64 182.64C179.32 182.333 180.093 182.18 180.96 182.18C181.813 182.18 182.573 182.333 183.24 182.64C183.92 182.947 184.493 183.36 184.96 183.88C185.427 184.4 185.78 184.987 186.02 185.64C186.273 186.293 186.4 186.967 186.4 187.66V187.86C186.4 188.54 186.28 189.207 186.04 189.86C185.8 190.5 185.447 191.08 184.98 191.6C184.527 192.12 183.96 192.54 183.28 192.86C182.613 193.18 181.84 193.34 180.96 193.34ZM180.96 192.36C181.893 192.36 182.68 192.147 183.32 191.72C183.973 191.293 184.467 190.733 184.8 190.04C185.147 189.333 185.32 188.573 185.32 187.76C185.32 186.92 185.147 186.153 184.8 185.46C184.453 184.753 183.953 184.193 183.3 183.78C182.66 183.353 181.88 183.14 180.96 183.14C180.053 183.14 179.267 183.353 178.6 183.78C177.947 184.193 177.447 184.753 177.1 185.46C176.753 186.153 176.58 186.92 176.58 187.76C176.58 188.573 176.747 189.333 177.08 190.04C177.427 190.733 177.927 191.293 178.58 191.72C179.233 192.147 180.027 192.36 180.96 192.36Z" fill="#ADB6A7"/>
<line x1="0.5" x2="0.5" y2="224" stroke="white"/>
<path opacity="0.5" d="M44.7071 88.7071C45.0976 88.3166 45.0976 87.6834 44.7071 87.2929L38.3431 80.9289C37.9526 80.5384 37.3195 80.5384 36.9289 80.9289C36.5384 81.3195 36.5384 81.9526 36.9289 82.3431L42.5858 88L36.9289 93.6569C36.5384 94.0474 36.5384 94.6805 36.9289 95.0711C37.3195 95.4616 37.9526 95.4616 38.3431 95.0711L44.7071 88.7071ZM20 89H44V87H20V89Z" fill="white"/>
<path opacity="0.5" d="M44.7071 136.707C45.0976 136.317 45.0976 135.683 44.7071 135.293L38.3431 128.929C37.9526 128.538 37.3195 128.538 36.9289 128.929C36.5384 129.319 36.5384 129.953 36.9289 130.343L42.5858 136L36.9289 141.657C36.5384 142.047 36.5384 142.681 36.9289 143.071C37.3195 143.462 37.9526 143.462 38.3431 143.071L44.7071 136.707ZM20 137H44V135H20V137Z" fill="white"/>
<path opacity="0.5" d="M44.7071 186.707C45.0976 186.317 45.0976 185.683 44.7071 185.293L38.3431 178.929C37.9526 178.538 37.3195 178.538 36.9289 178.929C36.5384 179.319 36.5384 179.953 36.9289 180.343L42.5858 186L36.9289 191.657C36.5384 192.047 36.5384 192.681 36.9289 193.071C37.3195 193.462 37.9526 193.462 38.3431 193.071L44.7071 186.707ZM20 187H44V185H20V187Z" fill="white"/>
</svg>
