<svg width="286" height="224" viewBox="0 0 286 224" fill="none" xmlns="http://www.w3.org/2000/svg">
<path d="M49.948 33V16.176L50.452 16.608H45.868V15.48H51.22V33H49.948ZM62.3408 26.88V25.776H70.2368V26.88H62.3408ZM81.7875 26.304V25.128H86.0115C87.0675 25.128 87.9155 24.936 88.5555 24.552C89.1955 24.168 89.6675 23.656 89.9715 23.016C90.2755 22.36 90.4275 21.64 90.4275 20.856C90.4275 20.072 90.2755 19.36 89.9715 18.72C89.6675 18.064 89.1955 17.544 88.5555 17.16C87.9155 16.776 87.0675 16.584 86.0115 16.584H81.7875V15.408H85.8435C87.2035 15.408 88.3155 15.648 89.1795 16.128C90.0435 16.592 90.6835 17.224 91.0995 18.024C91.5155 18.824 91.7235 19.72 91.7235 20.712V21C91.7235 21.976 91.5155 22.872 91.0995 23.688C90.6835 24.488 90.0435 25.128 89.1795 25.608C88.3155 26.072 87.2035 26.304 85.8435 26.304H81.7875ZM80.9475 33V15.408H82.2435V33H80.9475ZM95.4464 33V15.48H96.7184V33H95.4464ZM93.5504 16.56V15.48H96.7184V16.56H93.5504ZM109.36 33V29.232H109.12V24.6C109.12 23.592 108.856 22.816 108.328 22.272C107.8 21.712 106.928 21.432 105.712 21.432C105.28 21.432 104.84 21.448 104.392 21.48C103.944 21.496 103.52 21.52 103.12 21.552C102.72 21.568 102.36 21.6 102.04 21.648V20.496C102.36 20.448 102.696 20.408 103.048 20.376C103.416 20.344 103.784 20.32 104.152 20.304C104.52 20.288 104.872 20.28 105.208 20.28C106.472 20.28 107.48 20.448 108.232 20.784C108.984 21.104 109.528 21.6 109.864 22.272C110.2 22.928 110.368 23.768 110.368 24.792V33H109.36ZM104.968 33.336C104.12 33.336 103.36 33.184 102.688 32.88C102.016 32.576 101.48 32.128 101.08 31.536C100.696 30.944 100.504 30.224 100.504 29.376C100.504 28.56 100.688 27.864 101.056 27.288C101.44 26.712 101.984 26.272 102.688 25.968C103.408 25.664 104.272 25.512 105.28 25.512H109.24V26.544H105.16C104.072 26.544 103.232 26.808 102.64 27.336C102.064 27.848 101.776 28.528 101.776 29.376C101.776 30.272 102.088 30.984 102.712 31.512C103.336 32.024 104.152 32.28 105.16 32.28C105.784 32.28 106.392 32.16 106.984 31.92C107.576 31.68 108.072 31.28 108.472 30.72C108.872 30.144 109.088 29.376 109.12 28.416L109.6 28.968C109.552 29.944 109.312 30.76 108.88 31.416C108.464 32.056 107.92 32.536 107.248 32.856C106.576 33.176 105.816 33.336 104.968 33.336ZM115.132 33V20.4H116.14V25.56H115.852C115.852 24.456 116.028 23.496 116.38 22.68C116.748 21.848 117.284 21.208 117.988 20.76C118.708 20.296 119.596 20.064 120.652 20.064H120.724C122.308 20.064 123.5 20.56 124.3 21.552C125.1 22.528 125.5 23.864 125.5 25.56V33H124.204V25.272C124.204 24.072 123.876 23.104 123.22 22.368C122.58 21.616 121.652 21.24 120.436 21.24C119.204 21.24 118.22 21.624 117.484 22.392C116.764 23.144 116.404 24.144 116.404 25.392V33H115.132ZM135.409 33.408C134.337 33.408 133.409 33.224 132.625 32.856C131.841 32.472 131.201 31.968 130.705 31.344C130.209 30.704 129.833 29.992 129.577 29.208C129.337 28.408 129.217 27.6 129.217 26.784V26.544C129.217 25.712 129.337 24.912 129.577 24.144C129.833 23.376 130.209 22.68 130.705 22.056C131.217 21.416 131.849 20.92 132.601 20.568C133.369 20.2 134.257 20.016 135.265 20.016C136.545 20.016 137.617 20.304 138.481 20.88C139.361 21.44 140.025 22.176 140.473 23.088C140.921 24 141.145 24.96 141.145 25.968V26.832H129.817V25.776H140.305L139.921 26.256C139.921 25.28 139.737 24.408 139.369 23.64C139.017 22.872 138.489 22.272 137.785 21.84C137.097 21.392 136.257 21.168 135.265 21.168C134.193 21.168 133.297 21.416 132.577 21.912C131.857 22.408 131.313 23.072 130.945 23.904C130.593 24.736 130.417 25.656 130.417 26.664C130.417 27.672 130.593 28.6 130.945 29.448C131.313 30.28 131.865 30.96 132.601 31.488C133.337 32 134.273 32.256 135.409 32.256C136.625 32.256 137.601 31.976 138.337 31.416C139.089 30.856 139.545 30.184 139.705 29.4H140.953C140.777 30.184 140.441 30.88 139.945 31.488C139.449 32.096 138.817 32.568 138.049 32.904C137.297 33.24 136.417 33.408 135.409 33.408ZM142.212 37.872V36.696H143.772C144.412 36.696 144.9 36.504 145.236 36.12C145.572 35.736 145.74 35.176 145.74 34.44V20.4H146.988V34.104C146.988 35.016 146.868 35.744 146.628 36.288C146.388 36.832 146.012 37.232 145.5 37.488C144.988 37.744 144.308 37.872 143.46 37.872H142.212ZM143.58 21.504V20.4H146.988V21.504H143.58ZM145.812 17.544C145.476 17.544 145.22 17.456 145.044 17.28C144.868 17.088 144.78 16.84 144.78 16.536C144.78 16.248 144.868 16.008 145.044 15.816C145.22 15.624 145.484 15.528 145.836 15.528C146.172 15.528 146.428 15.624 146.604 15.816C146.78 16.008 146.868 16.248 146.868 16.536C146.868 16.84 146.78 17.088 146.604 17.28C146.444 17.456 146.18 17.544 145.812 17.544ZM159.656 33V29.232H159.416V24.6C159.416 23.592 159.152 22.816 158.624 22.272C158.096 21.712 157.224 21.432 156.008 21.432C155.576 21.432 155.136 21.448 154.688 21.48C154.24 21.496 153.816 21.52 153.416 21.552C153.016 21.568 152.656 21.6 152.336 21.648V20.496C152.656 20.448 152.992 20.408 153.344 20.376C153.712 20.344 154.08 20.32 154.448 20.304C154.816 20.288 155.168 20.28 155.504 20.28C156.768 20.28 157.776 20.448 158.528 20.784C159.28 21.104 159.824 21.6 160.16 22.272C160.496 22.928 160.664 23.768 160.664 24.792V33H159.656ZM155.264 33.336C154.416 33.336 153.656 33.184 152.984 32.88C152.312 32.576 151.776 32.128 151.376 31.536C150.992 30.944 150.8 30.224 150.8 29.376C150.8 28.56 150.984 27.864 151.352 27.288C151.736 26.712 152.28 26.272 152.984 25.968C153.704 25.664 154.568 25.512 155.576 25.512H159.536V26.544H155.456C154.368 26.544 153.528 26.808 152.936 27.336C152.36 27.848 152.072 28.528 152.072 29.376C152.072 30.272 152.384 30.984 153.008 31.512C153.632 32.024 154.448 32.28 155.456 32.28C156.08 32.28 156.688 32.16 157.28 31.92C157.872 31.68 158.368 31.28 158.768 30.72C159.168 30.144 159.384 29.376 159.416 28.416L159.896 28.968C159.848 29.944 159.608 30.76 159.176 31.416C158.76 32.056 158.216 32.536 157.544 32.856C156.872 33.176 156.112 33.336 155.264 33.336ZM165.429 33V20.4H166.437V25.56H166.149C166.149 24.472 166.309 23.52 166.629 22.704C166.965 21.872 167.461 21.224 168.117 20.76C168.773 20.296 169.605 20.064 170.613 20.064H170.685C171.677 20.064 172.501 20.296 173.157 20.76C173.813 21.208 174.293 21.848 174.597 22.68C174.917 23.496 175.077 24.456 175.077 25.56H174.597C174.597 24.472 174.757 23.52 175.077 22.704C175.413 21.872 175.909 21.224 176.565 20.76C177.237 20.296 178.077 20.064 179.085 20.064H179.157C180.149 20.064 180.973 20.296 181.629 20.76C182.301 21.208 182.797 21.848 183.117 22.68C183.437 23.496 183.597 24.456 183.597 25.56V33H182.325V25.272C182.325 24.072 182.029 23.104 181.437 22.368C180.861 21.616 180.005 21.24 178.869 21.24C177.717 21.24 176.805 21.624 176.133 22.392C175.477 23.16 175.149 24.16 175.149 25.392V33H173.877V25.272C173.877 24.072 173.581 23.104 172.989 22.368C172.413 21.616 171.557 21.24 170.421 21.24C169.269 21.24 168.357 21.624 167.685 22.392C167.029 23.16 166.701 24.16 166.701 25.392V33H165.429ZM193.51 33.408C192.438 33.408 191.51 33.224 190.726 32.856C189.942 32.472 189.302 31.968 188.806 31.344C188.31 30.704 187.934 29.992 187.678 29.208C187.438 28.408 187.318 27.6 187.318 26.784V26.544C187.318 25.712 187.438 24.912 187.678 24.144C187.934 23.376 188.31 22.68 188.806 22.056C189.318 21.416 189.95 20.92 190.702 20.568C191.47 20.2 192.358 20.016 193.366 20.016C194.646 20.016 195.718 20.304 196.582 20.88C197.462 21.44 198.126 22.176 198.574 23.088C199.022 24 199.246 24.96 199.246 25.968V26.832H187.918V25.776H198.406L198.022 26.256C198.022 25.28 197.838 24.408 197.47 23.64C197.118 22.872 196.59 22.272 195.886 21.84C195.198 21.392 194.358 21.168 193.366 21.168C192.294 21.168 191.398 21.416 190.678 21.912C189.958 22.408 189.414 23.072 189.046 23.904C188.694 24.736 188.518 25.656 188.518 26.664C188.518 27.672 188.694 28.6 189.046 29.448C189.414 30.28 189.966 30.96 190.702 31.488C191.438 32 192.374 32.256 193.51 32.256C194.726 32.256 195.702 31.976 196.438 31.416C197.19 30.856 197.646 30.184 197.806 29.4H199.054C198.878 30.184 198.542 30.88 198.046 31.488C197.55 32.096 196.918 32.568 196.15 32.904C195.398 33.24 194.518 33.408 193.51 33.408ZM202.906 33V20.4H203.914V25.56H203.626C203.626 24.456 203.802 23.496 204.154 22.68C204.522 21.848 205.058 21.208 205.762 20.76C206.482 20.296 207.37 20.064 208.426 20.064H208.498C210.082 20.064 211.274 20.56 212.074 21.552C212.874 22.528 213.274 23.864 213.274 25.56V33H211.978V25.272C211.978 24.072 211.65 23.104 210.994 22.368C210.354 21.616 209.426 21.24 208.21 21.24C206.978 21.24 205.994 21.624 205.258 22.392C204.538 23.144 204.178 24.144 204.178 25.392V33H202.906ZM222.246 33.12C221.462 33.12 220.774 33.008 220.182 32.784C219.59 32.544 219.134 32.144 218.814 31.584C218.494 31.024 218.334 30.272 218.334 29.328V16.296H219.582V29.544C219.582 30.312 219.79 30.912 220.206 31.344C220.638 31.76 221.23 31.968 221.982 31.968H224.334V33.12H222.246ZM215.934 21.432V20.4H224.334V21.432H215.934ZM233.409 33.408C232.353 33.408 231.417 33.216 230.601 32.832C229.785 32.448 229.097 31.944 228.537 31.32C227.993 30.696 227.577 30 227.289 29.232C227.017 28.448 226.881 27.648 226.881 26.832V26.592C226.881 25.76 227.025 24.952 227.313 24.168C227.601 23.384 228.025 22.68 228.585 22.056C229.145 21.432 229.825 20.936 230.625 20.568C231.441 20.2 232.369 20.016 233.409 20.016C234.433 20.016 235.345 20.2 236.145 20.568C236.961 20.936 237.649 21.432 238.209 22.056C238.769 22.68 239.193 23.384 239.481 24.168C239.785 24.952 239.937 25.76 239.937 26.592V26.832C239.937 27.648 239.793 28.448 239.505 29.232C239.217 30 238.793 30.696 238.233 31.32C237.689 31.944 237.009 32.448 236.193 32.832C235.393 33.216 234.465 33.408 233.409 33.408ZM233.409 32.232C234.529 32.232 235.473 31.976 236.241 31.464C237.025 30.952 237.617 30.28 238.017 29.448C238.433 28.6 238.641 27.688 238.641 26.712C238.641 25.704 238.433 24.784 238.017 23.952C237.601 23.104 237.001 22.432 236.217 21.936C235.449 21.424 234.513 21.168 233.409 21.168C232.321 21.168 231.377 21.424 230.577 21.936C229.793 22.432 229.193 23.104 228.777 23.952C228.361 24.784 228.153 25.704 228.153 26.712C228.153 27.688 228.353 28.6 228.753 29.448C229.169 30.28 229.769 30.952 230.553 31.464C231.337 31.976 232.289 32.232 233.409 32.232Z" fill="white"/>
<path opacity="0.7" d="M97.9555 95L103.456 80.4H105.616L111.296 95H110.176L104.756 81.02L105.416 81.38H103.596L104.276 81.02L99.0355 95H97.9555ZM100.576 90.08L100.956 89.1H108.196L108.576 90.08H100.576ZM114.101 95V80.4H115.161V95H114.101ZM112.521 81.3V80.4H115.161V81.3H112.521ZM119.836 95V84.5H120.916V95H119.836ZM118.096 85.42V84.5H120.916V85.42H118.096ZM119.936 82.3C119.656 82.3 119.442 82.2267 119.296 82.08C119.149 81.92 119.076 81.72 119.076 81.48C119.076 81.2267 119.149 81.02 119.296 80.86C119.442 80.7 119.662 80.62 119.956 80.62C120.236 80.62 120.449 80.7 120.596 80.86C120.742 81.02 120.816 81.2267 120.816 81.48C120.816 81.72 120.742 81.92 120.596 82.08C120.462 82.2267 120.242 82.3 119.936 82.3ZM125.057 95V84.5H125.897V88.8H125.657C125.657 87.88 125.803 87.08 126.097 86.4C126.403 85.7067 126.85 85.1733 127.437 84.8C128.037 84.4133 128.777 84.22 129.657 84.22H129.717C131.037 84.22 132.03 84.6333 132.697 85.46C133.363 86.2733 133.697 87.3867 133.697 88.8V95H132.617V88.56C132.617 87.56 132.343 86.7533 131.797 86.14C131.263 85.5133 130.49 85.2 129.477 85.2C128.45 85.2 127.63 85.52 127.017 86.16C126.417 86.7867 126.117 87.62 126.117 88.66V95H125.057ZM137.674 95V80.4H138.734V88.2L138.354 88.88C138.354 87.96 138.494 87.1533 138.774 86.46C139.067 85.7533 139.507 85.2067 140.094 84.82C140.681 84.42 141.421 84.22 142.314 84.22H142.354C143.661 84.22 144.647 84.6333 145.314 85.46C145.981 86.2733 146.314 87.3867 146.314 88.8V95H145.234V88.56C145.234 87.5467 144.961 86.7333 144.414 86.12C143.867 85.5067 143.094 85.2 142.094 85.2C141.067 85.2 140.247 85.5267 139.634 86.18C139.034 86.82 138.734 87.66 138.734 88.7V95H137.674ZM156.711 95V91.86H156.511V88C156.511 87.16 156.291 86.5133 155.851 86.06C155.411 85.5933 154.684 85.36 153.671 85.36C153.311 85.36 152.944 85.3733 152.571 85.4C152.198 85.4133 151.844 85.4333 151.511 85.46C151.178 85.4733 150.878 85.5 150.611 85.54V84.58C150.878 84.54 151.158 84.5067 151.451 84.48C151.758 84.4533 152.064 84.4333 152.371 84.42C152.678 84.4067 152.971 84.4 153.251 84.4C154.304 84.4 155.144 84.54 155.771 84.82C156.398 85.0867 156.851 85.5 157.131 86.06C157.411 86.6067 157.551 87.3067 157.551 88.16V95H156.711ZM153.051 95.28C152.344 95.28 151.711 95.1533 151.151 94.9C150.591 94.6467 150.144 94.2733 149.811 93.78C149.491 93.2867 149.331 92.6867 149.331 91.98C149.331 91.3 149.484 90.72 149.791 90.24C150.111 89.76 150.564 89.3933 151.151 89.14C151.751 88.8867 152.471 88.76 153.311 88.76H156.611V89.62H153.211C152.304 89.62 151.604 89.84 151.111 90.28C150.631 90.7067 150.391 91.2733 150.391 91.98C150.391 92.7267 150.651 93.32 151.171 93.76C151.691 94.1867 152.371 94.4 153.211 94.4C153.731 94.4 154.238 94.3 154.731 94.1C155.224 93.9 155.638 93.5667 155.971 93.1C156.304 92.62 156.484 91.98 156.511 91.18L156.911 91.64C156.871 92.4533 156.671 93.1333 156.311 93.68C155.964 94.2133 155.511 94.6133 154.951 94.88C154.391 95.1467 153.758 95.28 153.051 95.28ZM161.522 95V84.5H162.362V88.8H162.122C162.122 87.8933 162.255 87.1 162.522 86.42C162.802 85.7267 163.215 85.1867 163.762 84.8C164.308 84.4133 165.002 84.22 165.842 84.22H165.902C166.728 84.22 167.415 84.4133 167.962 84.8C168.508 85.1733 168.908 85.7067 169.162 86.4C169.428 87.08 169.562 87.88 169.562 88.8H169.162C169.162 87.8933 169.295 87.1 169.562 86.42C169.842 85.7267 170.255 85.1867 170.802 84.8C171.362 84.4133 172.062 84.22 172.902 84.22H172.962C173.788 84.22 174.475 84.4133 175.022 84.8C175.582 85.1733 175.995 85.7067 176.262 86.4C176.528 87.08 176.662 87.88 176.662 88.8V95H175.602V88.56C175.602 87.56 175.355 86.7533 174.862 86.14C174.382 85.5133 173.668 85.2 172.722 85.2C171.762 85.2 171.002 85.52 170.442 86.16C169.895 86.8 169.622 87.6333 169.622 88.66V95H168.562V88.56C168.562 87.56 168.315 86.7533 167.822 86.14C167.342 85.5133 166.628 85.2 165.682 85.2C164.722 85.2 163.962 85.52 163.402 86.16C162.855 86.8 162.582 87.6333 162.582 88.66V95H161.522ZM184.923 95.34C184.029 95.34 183.256 95.1867 182.603 94.88C181.949 94.56 181.416 94.14 181.003 93.62C180.589 93.0867 180.276 92.4933 180.063 91.84C179.863 91.1733 179.763 90.5 179.763 89.82V89.62C179.763 88.9267 179.863 88.26 180.063 87.62C180.276 86.98 180.589 86.4 181.003 85.88C181.429 85.3467 181.956 84.9333 182.583 84.64C183.223 84.3333 183.963 84.18 184.803 84.18C185.869 84.18 186.763 84.42 187.483 84.9C188.216 85.3667 188.769 85.98 189.143 86.74C189.516 87.5 189.703 88.3 189.703 89.14V89.86H180.263V88.98H189.003L188.683 89.38C188.683 88.5667 188.529 87.84 188.223 87.2C187.929 86.56 187.489 86.06 186.903 85.7C186.329 85.3267 185.629 85.14 184.803 85.14C183.909 85.14 183.163 85.3467 182.563 85.76C181.963 86.1733 181.509 86.7267 181.203 87.42C180.909 88.1133 180.763 88.88 180.763 89.72C180.763 90.56 180.909 91.3333 181.203 92.04C181.509 92.7333 181.969 93.3 182.583 93.74C183.196 94.1667 183.976 94.38 184.923 94.38C185.936 94.38 186.749 94.1467 187.363 93.68C187.989 93.2133 188.369 92.6533 188.503 92H189.543C189.396 92.6533 189.116 93.2333 188.703 93.74C188.289 94.2467 187.763 94.64 187.123 94.92C186.496 95.2 185.763 95.34 184.923 95.34ZM192.752 95V84.5H193.592V88.8H193.352C193.352 87.88 193.499 87.08 193.792 86.4C194.099 85.7067 194.545 85.1733 195.132 84.8C195.732 84.4133 196.472 84.22 197.352 84.22H197.412C198.732 84.22 199.725 84.6333 200.392 85.46C201.059 86.2733 201.392 87.3867 201.392 88.8V95H200.312V88.56C200.312 87.56 200.039 86.7533 199.492 86.14C198.959 85.5133 198.185 85.2 197.172 85.2C196.145 85.2 195.325 85.52 194.712 86.16C194.112 86.7867 193.812 87.62 193.812 88.66V95H192.752ZM208.869 95.1C208.216 95.1 207.643 95.0067 207.149 94.82C206.656 94.62 206.276 94.2867 206.009 93.82C205.743 93.3533 205.609 92.7267 205.609 91.94V81.08H206.649V92.12C206.649 92.76 206.823 93.26 207.169 93.62C207.529 93.9667 208.023 94.14 208.649 94.14H210.609V95.1H208.869ZM203.609 85.36V84.5H210.609V85.36H203.609ZM218.171 95.34C217.291 95.34 216.511 95.18 215.831 94.86C215.151 94.54 214.578 94.12 214.111 93.6C213.658 93.08 213.311 92.5 213.071 91.86C212.845 91.2067 212.731 90.54 212.731 89.86V89.66C212.731 88.9667 212.851 88.2933 213.091 87.64C213.331 86.9867 213.685 86.4 214.151 85.88C214.618 85.36 215.185 84.9467 215.851 84.64C216.531 84.3333 217.305 84.18 218.171 84.18C219.025 84.18 219.785 84.3333 220.451 84.64C221.131 84.9467 221.705 85.36 222.171 85.88C222.638 86.4 222.991 86.9867 223.231 87.64C223.485 88.2933 223.611 88.9667 223.611 89.66V89.86C223.611 90.54 223.491 91.2067 223.251 91.86C223.011 92.5 222.658 93.08 222.191 93.6C221.738 94.12 221.171 94.54 220.491 94.86C219.825 95.18 219.051 95.34 218.171 95.34ZM218.171 94.36C219.105 94.36 219.891 94.1467 220.531 93.72C221.185 93.2933 221.678 92.7333 222.011 92.04C222.358 91.3333 222.531 90.5733 222.531 89.76C222.531 88.92 222.358 88.1533 222.011 87.46C221.665 86.7533 221.165 86.1933 220.511 85.78C219.871 85.3533 219.091 85.14 218.171 85.14C217.265 85.14 216.478 85.3533 215.811 85.78C215.158 86.1933 214.658 86.7533 214.311 87.46C213.965 88.1533 213.791 88.92 213.791 89.76C213.791 90.5733 213.958 91.3333 214.291 92.04C214.638 92.7333 215.138 93.2933 215.791 93.72C216.445 94.1467 217.238 94.36 218.171 94.36Z" fill="#ADB6A7"/>
<path opacity="0.7" d="M99.7125 144.06V143.06H104.032C105.112 143.06 106.046 142.887 106.832 142.54C107.632 142.193 108.292 141.72 108.812 141.12C109.332 140.52 109.719 139.84 109.972 139.08C110.239 138.307 110.372 137.507 110.372 136.68C110.372 135.813 110.239 135 109.972 134.24C109.719 133.48 109.326 132.807 108.792 132.22C108.259 131.633 107.599 131.173 106.812 130.84C106.026 130.507 105.099 130.34 104.032 130.34H99.7125V129.34H103.912C105.206 129.34 106.326 129.547 107.272 129.96C108.219 130.36 108.999 130.9 109.612 131.58C110.239 132.26 110.706 133.027 111.012 133.88C111.319 134.733 111.472 135.613 111.472 136.52V136.84C111.472 137.707 111.326 138.573 111.032 139.44C110.739 140.293 110.279 141.067 109.652 141.76C109.039 142.453 108.259 143.013 107.312 143.44C106.366 143.853 105.232 144.06 103.912 144.06H99.7125ZM99.0125 144.06V129.34H100.092V144.06H99.0125ZM118.909 144.34C118.015 144.34 117.242 144.187 116.589 143.88C115.935 143.56 115.402 143.14 114.989 142.62C114.575 142.087 114.262 141.493 114.049 140.84C113.849 140.173 113.749 139.5 113.749 138.82V138.62C113.749 137.927 113.849 137.26 114.049 136.62C114.262 135.98 114.575 135.4 114.989 134.88C115.415 134.347 115.942 133.933 116.569 133.64C117.209 133.333 117.949 133.18 118.789 133.18C119.855 133.18 120.749 133.42 121.469 133.9C122.202 134.367 122.755 134.98 123.129 135.74C123.502 136.5 123.689 137.3 123.689 138.14V138.86H114.249V137.98H122.989L122.669 138.38C122.669 137.567 122.515 136.84 122.209 136.2C121.915 135.56 121.475 135.06 120.889 134.7C120.315 134.327 119.615 134.14 118.789 134.14C117.895 134.14 117.149 134.347 116.549 134.76C115.949 135.173 115.495 135.727 115.189 136.42C114.895 137.113 114.749 137.88 114.749 138.72C114.749 139.56 114.895 140.333 115.189 141.04C115.495 141.733 115.955 142.3 116.569 142.74C117.182 143.167 117.962 143.38 118.909 143.38C119.922 143.38 120.735 143.147 121.349 142.68C121.975 142.213 122.355 141.653 122.489 141H123.529C123.382 141.653 123.102 142.233 122.689 142.74C122.275 143.247 121.749 143.64 121.109 143.92C120.482 144.2 119.749 144.34 118.909 144.34ZM127.038 144V132.3C127.038 131.26 127.298 130.493 127.818 130C128.351 129.507 129.151 129.26 130.218 129.26H131.438V130.18H129.978C129.365 130.18 128.891 130.347 128.558 130.68C128.238 131 128.078 131.453 128.078 132.04V144H127.038ZM125.418 134.38V133.54H131.538V134.38H125.418ZM134.418 144V133.5H135.478V144H134.418ZM132.698 134.42V133.5H135.478V134.42H132.698ZM134.518 131.3C134.238 131.3 134.018 131.227 133.858 131.08C133.711 130.92 133.638 130.72 133.638 130.48C133.638 130.227 133.711 130.02 133.858 129.86C134.018 129.7 134.238 129.62 134.518 129.62C134.811 129.62 135.031 129.7 135.178 129.86C135.325 130.02 135.398 130.227 135.398 130.48C135.398 130.72 135.325 130.92 135.178 131.08C135.031 131.227 134.811 131.3 134.518 131.3ZM139.629 144V133.5H140.469V137.8H140.229C140.229 136.88 140.375 136.08 140.669 135.4C140.975 134.707 141.422 134.173 142.009 133.8C142.609 133.413 143.349 133.22 144.229 133.22H144.289C145.609 133.22 146.602 133.633 147.269 134.46C147.935 135.273 148.269 136.387 148.269 137.8V144H147.189V137.56C147.189 136.56 146.915 135.753 146.369 135.14C145.835 134.513 145.062 134.2 144.049 134.2C143.022 134.2 142.202 134.52 141.589 135.16C140.989 135.787 140.689 136.62 140.689 137.66V144H139.629ZM152.806 144V133.5H153.886V144H152.806ZM151.066 134.42V133.5H153.886V134.42H151.066ZM152.906 131.3C152.626 131.3 152.412 131.227 152.266 131.08C152.119 130.92 152.046 130.72 152.046 130.48C152.046 130.227 152.119 130.02 152.266 129.86C152.412 129.7 152.632 129.62 152.926 129.62C153.206 129.62 153.419 129.7 153.566 129.86C153.712 130.02 153.786 130.227 153.786 130.48C153.786 130.72 153.712 130.92 153.566 131.08C153.432 131.227 153.212 131.3 152.906 131.3ZM162.327 144.34C161.46 144.34 160.7 144.18 160.047 143.86C159.407 143.54 158.867 143.113 158.427 142.58C158 142.047 157.68 141.453 157.467 140.8C157.254 140.147 157.147 139.487 157.147 138.82V138.62C157.147 137.94 157.254 137.273 157.467 136.62C157.68 135.967 158 135.387 158.427 134.88C158.867 134.36 159.407 133.947 160.047 133.64C160.7 133.333 161.46 133.18 162.327 133.18C163.167 133.18 163.914 133.333 164.567 133.64C165.234 133.947 165.774 134.38 166.187 134.94C166.614 135.487 166.88 136.147 166.987 136.92H165.947C165.827 136.12 165.454 135.46 164.827 134.94C164.2 134.407 163.367 134.14 162.327 134.14C161.407 134.14 160.64 134.347 160.027 134.76C159.414 135.173 158.954 135.727 158.647 136.42C158.354 137.113 158.207 137.88 158.207 138.72C158.207 139.533 158.36 140.293 158.667 141C158.974 141.707 159.434 142.28 160.047 142.72C160.66 143.147 161.42 143.36 162.327 143.36C163.034 143.36 163.654 143.233 164.187 142.98C164.734 142.713 165.174 142.367 165.507 141.94C165.84 141.5 166.04 141.02 166.107 140.5H167.147C167.054 141.273 166.787 141.947 166.347 142.52C165.907 143.08 165.34 143.527 164.647 143.86C163.954 144.18 163.18 144.34 162.327 144.34ZM162.347 148.58C162.094 148.58 161.854 148.56 161.627 148.52C161.4 148.493 161.194 148.453 161.007 148.4V147.6C161.207 147.653 161.427 147.693 161.667 147.72C161.907 147.76 162.134 147.78 162.347 147.78C162.8 147.78 163.14 147.7 163.367 147.54C163.594 147.38 163.707 147.147 163.707 146.84C163.707 146.573 163.607 146.353 163.407 146.18C163.22 146.02 162.907 145.94 162.467 145.94H161.867V143.8H162.587V145.7L162.167 145.2H162.427C163.094 145.2 163.614 145.347 163.987 145.64C164.36 145.947 164.547 146.34 164.547 146.82C164.547 147.34 164.354 147.76 163.967 148.08C163.594 148.413 163.054 148.58 162.347 148.58ZM174.618 144.34C173.738 144.34 172.958 144.18 172.278 143.86C171.598 143.54 171.025 143.12 170.558 142.6C170.105 142.08 169.758 141.5 169.518 140.86C169.292 140.207 169.178 139.54 169.178 138.86V138.66C169.178 137.967 169.298 137.293 169.538 136.64C169.778 135.987 170.132 135.4 170.598 134.88C171.065 134.36 171.632 133.947 172.298 133.64C172.978 133.333 173.752 133.18 174.618 133.18C175.472 133.18 176.232 133.333 176.898 133.64C177.578 133.947 178.152 134.36 178.618 134.88C179.085 135.4 179.438 135.987 179.678 136.64C179.932 137.293 180.058 137.967 180.058 138.66V138.86C180.058 139.54 179.938 140.207 179.698 140.86C179.458 141.5 179.105 142.08 178.638 142.6C178.185 143.12 177.618 143.54 176.938 143.86C176.272 144.18 175.498 144.34 174.618 144.34ZM174.618 143.36C175.552 143.36 176.338 143.147 176.978 142.72C177.632 142.293 178.125 141.733 178.458 141.04C178.805 140.333 178.978 139.573 178.978 138.76C178.978 137.92 178.805 137.153 178.458 136.46C178.112 135.753 177.612 135.193 176.958 134.78C176.318 134.353 175.538 134.14 174.618 134.14C173.712 134.14 172.925 134.353 172.258 134.78C171.605 135.193 171.105 135.753 170.758 136.46C170.412 137.153 170.238 137.92 170.238 138.76C170.238 139.573 170.405 140.333 170.738 141.04C171.085 141.733 171.585 142.293 172.238 142.72C172.892 143.147 173.685 143.36 174.618 143.36ZM175.898 131C175.592 131 175.332 130.953 175.118 130.86C174.905 130.753 174.705 130.633 174.518 130.5C174.345 130.367 174.165 130.247 173.978 130.14C173.792 130.033 173.578 129.98 173.338 129.98C173.072 129.98 172.832 130.053 172.618 130.2C172.405 130.347 172.205 130.553 172.018 130.82L171.638 130.18C171.852 129.847 172.105 129.593 172.398 129.42C172.692 129.233 173.012 129.14 173.358 129.14C173.665 129.14 173.932 129.193 174.158 129.3C174.385 129.407 174.585 129.527 174.758 129.66C174.932 129.793 175.112 129.913 175.298 130.02C175.485 130.113 175.698 130.16 175.938 130.16C176.205 130.16 176.445 130.093 176.658 129.96C176.872 129.813 177.072 129.6 177.258 129.32L177.638 129.98C177.425 130.313 177.172 130.567 176.878 130.74C176.585 130.913 176.258 131 175.898 131ZM187.561 144.34C186.668 144.34 185.894 144.187 185.241 143.88C184.588 143.56 184.054 143.14 183.641 142.62C183.228 142.087 182.914 141.493 182.701 140.84C182.501 140.173 182.401 139.5 182.401 138.82V138.62C182.401 137.927 182.501 137.26 182.701 136.62C182.914 135.98 183.228 135.4 183.641 134.88C184.068 134.347 184.594 133.933 185.221 133.64C185.861 133.333 186.601 133.18 187.441 133.18C188.508 133.18 189.401 133.42 190.121 133.9C190.854 134.367 191.408 134.98 191.781 135.74C192.154 136.5 192.341 137.3 192.341 138.14V138.86H182.901V137.98H191.641L191.321 138.38C191.321 137.567 191.168 136.84 190.861 136.2C190.568 135.56 190.128 135.06 189.541 134.7C188.968 134.327 188.268 134.14 187.441 134.14C186.548 134.14 185.801 134.347 185.201 134.76C184.601 135.173 184.148 135.727 183.841 136.42C183.548 137.113 183.401 137.88 183.401 138.72C183.401 139.56 183.548 140.333 183.841 141.04C184.148 141.733 184.608 142.3 185.221 142.74C185.834 143.167 186.614 143.38 187.561 143.38C188.574 143.38 189.388 143.147 190.001 142.68C190.628 142.213 191.008 141.653 191.141 141H192.181C192.034 141.653 191.754 142.233 191.341 142.74C190.928 143.247 190.401 143.64 189.761 143.92C189.134 144.2 188.401 144.34 187.561 144.34ZM198.53 144.3C197.224 144.3 196.217 144 195.51 143.4C194.817 142.8 194.464 142.033 194.45 141.1H195.49C195.49 141.7 195.724 142.227 196.19 142.68C196.67 143.12 197.45 143.34 198.53 143.34C199.584 143.34 200.357 143.12 200.85 142.68C201.344 142.227 201.59 141.693 201.59 141.08C201.59 140.48 201.364 140.02 200.91 139.7C200.47 139.38 199.87 139.18 199.11 139.1L197.87 138.96C196.95 138.853 196.217 138.567 195.67 138.1C195.137 137.633 194.87 137 194.87 136.2C194.87 135.627 195.017 135.113 195.31 134.66C195.604 134.207 196.024 133.847 196.57 133.58C197.13 133.313 197.784 133.18 198.53 133.18C199.624 133.18 200.504 133.447 201.17 133.98C201.85 134.513 202.197 135.24 202.21 136.16H201.17C201.184 135.587 200.957 135.107 200.49 134.72C200.037 134.333 199.384 134.14 198.53 134.14C197.637 134.14 196.97 134.347 196.53 134.76C196.104 135.173 195.89 135.66 195.89 136.22C195.89 136.687 196.057 137.087 196.39 137.42C196.737 137.753 197.257 137.96 197.95 138.04L199.19 138.18C200.177 138.273 200.99 138.56 201.63 139.04C202.284 139.52 202.61 140.207 202.61 141.1C202.61 141.7 202.444 142.24 202.11 142.72C201.79 143.2 201.33 143.587 200.73 143.88C200.13 144.16 199.397 144.3 198.53 144.3Z" fill="#ADB6A7"/>
<path opacity="0.7" d="M98.031 193V178.4H99.111V193H98.031ZM98.771 193V192.02H106.291V193H98.771ZM98.771 186.08V185.08H105.571V186.08H98.771ZM98.771 179.38V178.4H106.051V179.38H98.771ZM112.686 193.3C111.379 193.3 110.372 193 109.666 192.4C108.972 191.8 108.619 191.033 108.606 190.1H109.646C109.646 190.7 109.879 191.227 110.346 191.68C110.826 192.12 111.606 192.34 112.686 192.34C113.739 192.34 114.512 192.12 115.006 191.68C115.499 191.227 115.746 190.693 115.746 190.08C115.746 189.48 115.519 189.02 115.066 188.7C114.626 188.38 114.026 188.18 113.266 188.1L112.026 187.96C111.106 187.853 110.372 187.567 109.826 187.1C109.292 186.633 109.026 186 109.026 185.2C109.026 184.627 109.172 184.113 109.466 183.66C109.759 183.207 110.179 182.847 110.726 182.58C111.286 182.313 111.939 182.18 112.686 182.18C113.779 182.18 114.659 182.447 115.326 182.98C116.006 183.513 116.352 184.24 116.366 185.16H115.326C115.339 184.587 115.112 184.107 114.646 183.72C114.192 183.333 113.539 183.14 112.686 183.14C111.792 183.14 111.126 183.347 110.686 183.76C110.259 184.173 110.046 184.66 110.046 185.22C110.046 185.687 110.212 186.087 110.546 186.42C110.892 186.753 111.412 186.96 112.106 187.04L113.346 187.18C114.332 187.273 115.146 187.56 115.786 188.04C116.439 188.52 116.766 189.207 116.766 190.1C116.766 190.7 116.599 191.24 116.266 191.72C115.946 192.2 115.486 192.587 114.886 192.88C114.286 193.16 113.552 193.3 112.686 193.3ZM123.514 193.1C122.861 193.1 122.288 193.007 121.794 192.82C121.301 192.62 120.921 192.287 120.654 191.82C120.388 191.353 120.254 190.727 120.254 189.94V179.08H121.294V190.12C121.294 190.76 121.468 191.26 121.814 191.62C122.174 191.967 122.668 192.14 123.294 192.14H125.254V193.1H123.514ZM118.254 183.36V182.5H125.254V183.36H118.254ZM128.354 193V182.5H129.194V186.94H129.034C129.034 185.42 129.374 184.287 130.054 183.54C130.734 182.793 131.834 182.42 133.354 182.42H133.714V183.38H133.154C131.914 183.38 130.981 183.7 130.354 184.34C129.727 184.967 129.414 185.893 129.414 187.12V193H128.354ZM142.684 193V189.86H142.484V186C142.484 185.16 142.264 184.513 141.824 184.06C141.384 183.593 140.658 183.36 139.644 183.36C139.284 183.36 138.918 183.373 138.544 183.4C138.171 183.413 137.818 183.433 137.484 183.46C137.151 183.473 136.851 183.5 136.584 183.54V182.58C136.851 182.54 137.131 182.507 137.424 182.48C137.731 182.453 138.038 182.433 138.344 182.42C138.651 182.407 138.944 182.4 139.224 182.4C140.278 182.4 141.118 182.54 141.744 182.82C142.371 183.087 142.824 183.5 143.104 184.06C143.384 184.607 143.524 185.307 143.524 186.16V193H142.684ZM139.024 193.28C138.318 193.28 137.684 193.153 137.124 192.9C136.564 192.647 136.118 192.273 135.784 191.78C135.464 191.287 135.304 190.687 135.304 189.98C135.304 189.3 135.458 188.72 135.764 188.24C136.084 187.76 136.538 187.393 137.124 187.14C137.724 186.887 138.444 186.76 139.284 186.76H142.584V187.62H139.184C138.278 187.62 137.578 187.84 137.084 188.28C136.604 188.707 136.364 189.273 136.364 189.98C136.364 190.727 136.624 191.32 137.144 191.76C137.664 192.187 138.344 192.4 139.184 192.4C139.704 192.4 140.211 192.3 140.704 192.1C141.198 191.9 141.611 191.567 141.944 191.1C142.278 190.62 142.458 189.98 142.484 189.18L142.884 189.64C142.844 190.453 142.644 191.133 142.284 191.68C141.938 192.213 141.484 192.613 140.924 192.88C140.364 193.147 139.731 193.28 139.024 193.28ZM150.995 193.1C150.341 193.1 149.768 193.007 149.275 192.82C148.781 192.62 148.401 192.287 148.135 191.82C147.868 191.353 147.735 190.727 147.735 189.94V179.08H148.775V190.12C148.775 190.76 148.948 191.26 149.295 191.62C149.655 191.967 150.148 192.14 150.775 192.14H152.735V193.1H150.995ZM145.735 183.36V182.5H152.735V183.36H145.735ZM160.017 193.34C159.124 193.34 158.35 193.187 157.697 192.88C157.044 192.56 156.51 192.14 156.097 191.62C155.684 191.087 155.37 190.493 155.157 189.84C154.957 189.173 154.857 188.5 154.857 187.82V187.62C154.857 186.927 154.957 186.26 155.157 185.62C155.37 184.98 155.684 184.4 156.097 183.88C156.524 183.347 157.05 182.933 157.677 182.64C158.317 182.333 159.057 182.18 159.897 182.18C160.964 182.18 161.857 182.42 162.577 182.9C163.31 183.367 163.864 183.98 164.237 184.74C164.61 185.5 164.797 186.3 164.797 187.14V187.86H155.357V186.98H164.097L163.777 187.38C163.777 186.567 163.624 185.84 163.317 185.2C163.024 184.56 162.584 184.06 161.997 183.7C161.424 183.327 160.724 183.14 159.897 183.14C159.004 183.14 158.257 183.347 157.657 183.76C157.057 184.173 156.604 184.727 156.297 185.42C156.004 186.113 155.857 186.88 155.857 187.72C155.857 188.56 156.004 189.333 156.297 190.04C156.604 190.733 157.064 191.3 157.677 191.74C158.29 192.167 159.07 192.38 160.017 192.38C161.03 192.38 161.844 192.147 162.457 191.68C163.084 191.213 163.464 190.653 163.597 190H164.637C164.49 190.653 164.21 191.233 163.797 191.74C163.384 192.247 162.857 192.64 162.217 192.92C161.59 193.2 160.857 193.34 160.017 193.34ZM159.237 180.76L160.937 176.98H162.077L160.177 180.76H159.237ZM171.846 197.1C171.38 197.1 170.893 197.08 170.386 197.04C169.88 197 169.393 196.94 168.926 196.86V195.92C169.406 196 169.906 196.06 170.426 196.1C170.96 196.153 171.46 196.18 171.926 196.18C172.993 196.18 173.833 196.04 174.446 195.76C175.06 195.493 175.5 195.047 175.766 194.42C176.033 193.807 176.166 192.987 176.166 191.96V189.8L176.646 188.34C176.633 189.3 176.426 190.147 176.026 190.88C175.64 191.613 175.1 192.193 174.406 192.62C173.713 193.033 172.9 193.24 171.966 193.24C171.18 193.24 170.473 193.093 169.846 192.8C169.233 192.493 168.713 192.087 168.286 191.58C167.86 191.06 167.533 190.473 167.306 189.82C167.08 189.153 166.966 188.473 166.966 187.78V187.58C166.966 186.9 167.08 186.24 167.306 185.6C167.533 184.947 167.86 184.367 168.286 183.86C168.713 183.34 169.24 182.933 169.866 182.64C170.493 182.333 171.206 182.18 172.006 182.18C172.98 182.18 173.82 182.4 174.526 182.84C175.233 183.28 175.773 183.873 176.146 184.62C176.533 185.367 176.733 186.193 176.746 187.1L176.346 186.56V182.5H177.206V191.96C177.206 193.213 177.033 194.213 176.686 194.96C176.34 195.72 175.773 196.267 174.986 196.6C174.2 196.933 173.153 197.1 171.846 197.1ZM172.106 192.26C172.906 192.26 173.613 192.087 174.226 191.74C174.84 191.38 175.32 190.893 175.666 190.28C176.013 189.653 176.186 188.947 176.186 188.16V187.14C176.186 186.38 176.013 185.7 175.666 185.1C175.333 184.487 174.86 184 174.246 183.64C173.633 183.28 172.926 183.1 172.126 183.1C171.246 183.1 170.5 183.313 169.886 183.74C169.286 184.167 168.826 184.727 168.506 185.42C168.186 186.113 168.026 186.867 168.026 187.68C168.026 188.52 168.193 189.293 168.526 190C168.86 190.693 169.326 191.247 169.926 191.66C170.54 192.06 171.266 192.26 172.106 192.26ZM181.766 193V182.5H182.846V193H181.766ZM180.026 183.42V182.5H182.846V183.42H180.026ZM181.866 180.3C181.586 180.3 181.372 180.227 181.226 180.08C181.079 179.92 181.006 179.72 181.006 179.48C181.006 179.227 181.079 179.02 181.226 178.86C181.372 178.7 181.592 178.62 181.886 178.62C182.166 178.62 182.379 178.7 182.526 178.86C182.672 179.02 182.746 179.227 182.746 179.48C182.746 179.72 182.672 179.92 182.526 180.08C182.392 180.227 182.172 180.3 181.866 180.3ZM193.407 193V189.86H193.207V186C193.207 185.16 192.987 184.513 192.547 184.06C192.107 183.593 191.38 183.36 190.367 183.36C190.007 183.36 189.64 183.373 189.267 183.4C188.894 183.413 188.54 183.433 188.207 183.46C187.874 183.473 187.574 183.5 187.307 183.54V182.58C187.574 182.54 187.854 182.507 188.147 182.48C188.454 182.453 188.76 182.433 189.067 182.42C189.374 182.407 189.667 182.4 189.947 182.4C191 182.4 191.84 182.54 192.467 182.82C193.094 183.087 193.547 183.5 193.827 184.06C194.107 184.607 194.247 185.307 194.247 186.16V193H193.407ZM189.747 193.28C189.04 193.28 188.407 193.153 187.847 192.9C187.287 192.647 186.84 192.273 186.507 191.78C186.187 191.287 186.027 190.687 186.027 189.98C186.027 189.3 186.18 188.72 186.487 188.24C186.807 187.76 187.26 187.393 187.847 187.14C188.447 186.887 189.167 186.76 190.007 186.76H193.307V187.62H189.907C189 187.62 188.3 187.84 187.807 188.28C187.327 188.707 187.087 189.273 187.087 189.98C187.087 190.727 187.347 191.32 187.867 191.76C188.387 192.187 189.067 192.4 189.907 192.4C190.427 192.4 190.934 192.3 191.427 192.1C191.92 191.9 192.334 191.567 192.667 191.1C193 190.62 193.18 189.98 193.207 189.18L193.607 189.64C193.567 190.453 193.367 191.133 193.007 191.68C192.66 192.213 192.207 192.613 191.647 192.88C191.087 193.147 190.454 193.28 189.747 193.28Z" fill="#ADB6A7"/>
<line x1="9.71606" x2="9.71606" y2="224" stroke="white"/>
<path opacity="0.5" d="M72.878 88.7071C73.2685 88.3166 73.2685 87.6834 72.878 87.2929L66.514 80.9289C66.1235 80.5384 65.4903 80.5384 65.0998 80.9289C64.7093 81.3195 64.7093 81.9526 65.0998 82.3431L70.7566 88L65.0998 93.6569C64.7093 94.0474 64.7093 94.6805 65.0998 95.0711C65.4903 95.4616 66.1235 95.4616 66.514 95.0711L72.878 88.7071ZM46.1206 89H72.1709V87H46.1206V89Z" fill="white"/>
<path opacity="0.5" d="M72.878 136.707C73.2685 136.317 73.2685 135.683 72.878 135.293L66.514 128.929C66.1235 128.538 65.4903 128.538 65.0998 128.929C64.7093 129.319 64.7093 129.953 65.0998 130.343L70.7566 136L65.0998 141.657C64.7093 142.047 64.7093 142.681 65.0998 143.071C65.4903 143.462 66.1235 143.462 66.514 143.071L72.878 136.707ZM46.1206 137H72.1709V135H46.1206V137Z" fill="white"/>
<path opacity="0.5" d="M72.878 186.707C73.2685 186.317 73.2685 185.683 72.878 185.293L66.514 178.929C66.1235 178.538 65.4903 178.538 65.0998 178.929C64.7093 179.319 64.7093 179.953 65.0998 180.343L70.7566 186L65.0998 191.657C64.7093 192.047 64.7093 192.681 65.0998 193.071C65.4903 193.462 66.1235 193.462 66.514 193.071L72.878 186.707ZM46.1206 187H72.1709V185H46.1206V187Z" fill="white"/>
</svg>
