<svg width="202" height="15" viewBox="0 0 202 15" fill="none" xmlns="http://www.w3.org/2000/svg">
<path d="M5.48543 8.15C5.70543 8.15 5.90543 8.13 6.08543 8.09C6.26543 8.04 6.45043 7.965 6.64043 7.865L6.86543 8.675C6.43543 8.875 5.95043 8.975 5.41043 8.975C5.04043 8.975 4.69043 8.92 4.36043 8.81C4.04043 8.7 3.75543 8.535 3.50543 8.315C3.26543 8.095 3.07543 7.82 2.93543 7.49C2.79543 7.16 2.72543 6.775 2.72543 6.335C2.72543 5.935 2.79043 5.57 2.92043 5.24C3.05043 4.91 3.23043 4.635 3.46043 4.415C3.70043 4.185 3.98543 4.01 4.31543 3.89C4.64543 3.76 5.00543 3.695 5.39543 3.695C5.63543 3.695 5.87043 3.715 6.10043 3.755C6.33043 3.795 6.57543 3.87 6.83543 3.98L6.59543 4.805C6.22543 4.615 5.86043 4.52 5.50043 4.52C4.99043 4.52 4.58543 4.675 4.28543 4.985C3.98543 5.295 3.83543 5.735 3.83543 6.305C3.83543 6.655 3.88043 6.95 3.97043 7.19C4.07043 7.42 4.19543 7.61 4.34543 7.76C4.50543 7.9 4.68543 8 4.88543 8.06C5.08543 8.12 5.28543 8.15 5.48543 8.15ZM5.12543 1.46C5.76543 1.46 6.37043 1.565 6.94043 1.775C7.51043 1.975 8.01043 2.28 8.44043 2.69C8.87043 3.09 9.21043 3.59 9.46043 4.19C9.72043 4.79 9.85043 5.49 9.85043 6.29C9.85043 7.07 9.72043 7.765 9.46043 8.375C9.20043 8.975 8.85043 9.48 8.41043 9.89C7.98043 10.3 7.47543 10.61 6.89543 10.82C6.32543 11.03 5.72043 11.135 5.08043 11.135C4.45043 11.135 3.84543 11.035 3.26543 10.835C2.69543 10.625 2.19543 10.32 1.76543 9.92C1.33543 9.51 0.99043 9.005 0.73043 8.405C0.48043 7.795 0.35543 7.09 0.35543 6.29C0.35543 5.51 0.48543 4.82 0.74543 4.22C1.00543 3.61 1.35043 3.105 1.78043 2.705C2.22043 2.295 2.73043 1.985 3.31043 1.775C3.89043 1.565 4.49543 1.46 5.12543 1.46ZM5.12543 2.075C4.58543 2.075 4.07043 2.165 3.58043 2.345C3.09043 2.525 2.66043 2.795 2.29043 3.155C1.92043 3.505 1.62543 3.945 1.40543 4.475C1.19543 4.995 1.09043 5.6 1.09043 6.29C1.09043 7 1.19543 7.62 1.40543 8.15C1.61543 8.68 1.90043 9.12 2.26043 9.47C2.63043 9.82 3.05543 10.085 3.53543 10.265C4.02543 10.435 4.54043 10.52 5.08043 10.52C5.63043 10.52 6.14543 10.43 6.62543 10.25C7.11543 10.07 7.54543 9.8 7.91543 9.44C8.28543 9.08 8.57543 8.64 8.78543 8.12C9.00543 7.59 9.11543 6.98 9.11543 6.29C9.11543 5.59 9.01043 4.975 8.80043 4.445C8.59043 3.915 8.30543 3.475 7.94543 3.125C7.58543 2.775 7.16043 2.515 6.67043 2.345C6.19043 2.165 5.67543 2.075 5.12543 2.075ZM17.1347 2.78C16.8147 2.78 16.5097 2.84 16.2197 2.96C15.9397 3.07 15.6347 3.255 15.3047 3.515L14.5697 2.375C14.9797 2.035 15.3997 1.79 15.8297 1.64C16.2697 1.48 16.7597 1.4 17.2997 1.4C17.7897 1.4 18.2247 1.47 18.6047 1.61C18.9847 1.75 19.2997 1.945 19.5497 2.195C19.8097 2.445 20.0047 2.74 20.1347 3.08C20.2647 3.42 20.3297 3.79 20.3297 4.19C20.3297 4.87 20.0747 5.58 19.5647 6.32C19.0647 7.05 18.3597 7.855 17.4497 8.735L16.5197 9.605H20.4797V11H14.7197L14.4047 9.8L15.7097 8.495C16.2297 7.975 16.6697 7.515 17.0297 7.115C17.3897 6.715 17.6797 6.355 17.8997 6.035C18.1197 5.705 18.2797 5.405 18.3797 5.135C18.4797 4.855 18.5297 4.58 18.5297 4.31C18.5297 3.83 18.4047 3.455 18.1547 3.185C17.9047 2.915 17.5647 2.78 17.1347 2.78ZM25.5239 1.4C26.0739 1.4 26.5789 1.495 27.0389 1.685C27.5089 1.865 27.9139 2.15 28.2539 2.54C28.5939 2.93 28.8589 3.435 29.0489 4.055C29.2489 4.665 29.3489 5.4 29.3489 6.26C29.3489 7.12 29.2439 7.86 29.0339 8.48C28.8239 9.09 28.5439 9.595 28.1939 9.995C27.8439 10.385 27.4389 10.675 26.9789 10.865C26.5189 11.055 26.0339 11.15 25.5239 11.15C24.9739 11.15 24.4639 11.06 23.9939 10.88C23.5339 10.69 23.1339 10.4 22.7939 10.01C22.4539 9.61 22.1839 9.1 21.9839 8.48C21.7939 7.86 21.6989 7.12 21.6989 6.26C21.6989 5.44 21.8039 4.725 22.0139 4.115C22.2239 3.505 22.5039 3 22.8539 2.6C23.2039 2.19 23.6089 1.89 24.0689 1.7C24.5289 1.5 25.0139 1.4 25.5239 1.4ZM23.5289 6.26C23.5289 6.97 23.5839 7.555 23.6939 8.015C23.8039 8.475 23.9489 8.84 24.1289 9.11C24.3189 9.37 24.5339 9.555 24.7739 9.665C25.0239 9.765 25.2789 9.815 25.5389 9.815C25.7989 9.815 26.0489 9.76 26.2889 9.65C26.5289 9.54 26.7389 9.35 26.9189 9.08C27.0989 8.8 27.2439 8.435 27.3539 7.985C27.4639 7.525 27.5189 6.95 27.5189 6.26C27.5189 5.56 27.4639 4.98 27.3539 4.52C27.2439 4.06 27.0939 3.7 26.9039 3.44C26.7239 3.18 26.5139 3 26.2739 2.9C26.0339 2.79 25.7839 2.735 25.5239 2.735C25.2639 2.735 25.0139 2.79 24.7739 2.9C24.5339 3.01 24.3189 3.2 24.1289 3.47C23.9489 3.73 23.8039 4.09 23.6939 4.55C23.5839 5 23.5289 5.57 23.5289 6.26ZM33.2333 2.78C32.9133 2.78 32.6083 2.84 32.3183 2.96C32.0383 3.07 31.7333 3.255 31.4033 3.515L30.6683 2.375C31.0783 2.035 31.4983 1.79 31.9283 1.64C32.3683 1.48 32.8583 1.4 33.3983 1.4C33.8883 1.4 34.3233 1.47 34.7033 1.61C35.0833 1.75 35.3983 1.945 35.6483 2.195C35.9083 2.445 36.1033 2.74 36.2333 3.08C36.3633 3.42 36.4283 3.79 36.4283 4.19C36.4283 4.87 36.1733 5.58 35.6633 6.32C35.1633 7.05 34.4583 7.855 33.5483 8.735L32.6183 9.605H36.5783V11H30.8183L30.5033 9.8L31.8083 8.495C32.3283 7.975 32.7683 7.515 33.1283 7.115C33.4883 6.715 33.7783 6.355 33.9983 6.035C34.2183 5.705 34.3783 5.405 34.4783 5.135C34.5783 4.855 34.6283 4.58 34.6283 4.31C34.6283 3.83 34.5033 3.455 34.2533 3.185C34.0033 2.915 33.6633 2.78 33.2333 2.78ZM41.097 1.55H43.032V7.355H44.442V8.75H43.032V11H41.352V8.75H36.927V7.625L41.097 1.55ZM40.572 4.76L38.787 7.355H41.352V4.895L41.427 3.23H41.397L40.572 4.76ZM51.5118 1.55V9.275C51.5118 10.035 51.4668 10.65 51.3768 11.12C51.2868 11.6 51.0918 12.025 50.7918 12.395C50.4718 12.795 50.0668 13.075 49.5768 13.235C49.0868 13.395 48.5718 13.475 48.0318 13.475V12.05C48.3118 12.05 48.5468 12.005 48.7368 11.915C48.9368 11.835 49.1068 11.725 49.2468 11.585C49.4268 11.415 49.5418 11.195 49.5918 10.925C49.6518 10.655 49.6818 10.36 49.6818 10.04V1.55H51.5118ZM58.1448 3.875H59.9148V11H58.5798L58.3698 10.175H58.3098C58.0798 10.415 57.7748 10.64 57.3948 10.85C57.0148 11.05 56.5398 11.15 55.9698 11.15C55.2198 11.15 54.6198 10.94 54.1698 10.52C53.7198 10.1 53.4948 9.47 53.4948 8.63V3.875H55.2648V8.45C55.2648 8.94 55.3748 9.29 55.5948 9.5C55.8248 9.7 56.1148 9.8 56.4648 9.8C56.8348 9.8 57.1548 9.725 57.4248 9.575C57.7048 9.415 57.9448 9.22 58.1448 8.99V3.875ZM61.8455 11V0.32H63.5855V11H61.8455ZM64.7108 3.875H66.6308L67.9658 7.505L68.4608 9.215H68.5058L68.9858 7.49L70.1858 3.875H72.0008L69.3458 11.375C69.0558 12.205 68.6658 12.92 68.1758 13.52C67.6858 14.12 67.0158 14.565 66.1658 14.855L65.4158 13.46C65.9458 13.26 66.3958 12.98 66.7658 12.62C67.1458 12.26 67.4208 11.8 67.5908 11.24L67.6658 10.985L64.7108 3.875ZM79.8308 7.385C79.8308 7.975 79.7358 8.505 79.5458 8.975C79.3658 9.445 79.1108 9.84 78.7808 10.16C78.4508 10.48 78.0658 10.725 77.6258 10.895C77.1858 11.065 76.7108 11.15 76.2008 11.15C75.6908 11.15 75.2158 11.07 74.7758 10.91C74.3458 10.75 73.9708 10.52 73.6508 10.22C73.3308 9.91 73.0808 9.53 72.9008 9.08C72.7208 8.63 72.6308 8.115 72.6308 7.535C72.6308 6.935 72.7208 6.4 72.9008 5.93C73.0908 5.45 73.3508 5.05 73.6808 4.73C74.0108 4.41 74.3958 4.165 74.8358 3.995C75.2758 3.825 75.7508 3.74 76.2608 3.74C76.7708 3.74 77.2408 3.82 77.6708 3.98C78.1108 4.13 78.4908 4.36 78.8108 4.67C79.1308 4.98 79.3808 5.36 79.5608 5.81C79.7408 6.26 79.8308 6.785 79.8308 7.385ZM78.0008 7.46C78.0008 7.03 77.9508 6.665 77.8508 6.365C77.7508 6.055 77.6158 5.805 77.4458 5.615C77.2858 5.425 77.0958 5.285 76.8758 5.195C76.6658 5.105 76.4458 5.06 76.2158 5.06C75.9858 5.06 75.7658 5.1 75.5558 5.18C75.3458 5.25 75.1608 5.38 75.0008 5.57C74.8408 5.75 74.7108 5.995 74.6108 6.305C74.5108 6.615 74.4608 7 74.4608 7.46C74.4608 7.88 74.5108 8.24 74.6108 8.54C74.7108 8.83 74.8408 9.075 75.0008 9.275C75.1708 9.465 75.3608 9.605 75.5708 9.695C75.7908 9.785 76.0158 9.83 76.2458 9.83C76.4658 9.83 76.6808 9.79 76.8908 9.71C77.1108 9.63 77.3008 9.5 77.4608 9.32C77.6208 9.14 77.7508 8.9 77.8508 8.6C77.9508 8.29 78.0008 7.91 78.0008 7.46ZM84.5153 6.935C84.5153 6.665 84.5653 6.415 84.6653 6.185C84.7653 5.945 84.9053 5.735 85.0853 5.555C85.2653 5.375 85.4703 5.235 85.7003 5.135C85.9403 5.035 86.1953 4.985 86.4653 4.985C86.7353 4.985 86.9853 5.035 87.2153 5.135C87.4553 5.235 87.6653 5.375 87.8453 5.555C88.0253 5.735 88.1653 5.945 88.2653 6.185C88.3653 6.415 88.4153 6.665 88.4153 6.935C88.4153 7.205 88.3653 7.46 88.2653 7.7C88.1653 7.94 88.0253 8.15 87.8453 8.33C87.6753 8.5 87.4703 8.635 87.2303 8.735C86.9903 8.835 86.7353 8.885 86.4653 8.885C86.1953 8.885 85.9403 8.835 85.7003 8.735C85.4703 8.635 85.2653 8.5 85.0853 8.33C84.9053 8.15 84.7653 7.94 84.6653 7.7C84.5653 7.46 84.5153 7.205 84.5153 6.935ZM96.5893 1.4C97.1493 1.4 97.6543 1.455 98.1043 1.565C98.5643 1.665 98.9843 1.81 99.3643 2L98.9443 3.41C98.5343 3.21 98.1443 3.06 97.7743 2.96C97.4043 2.86 97.0393 2.81 96.6793 2.81C96.1693 2.81 95.7693 2.915 95.4793 3.125C95.1993 3.335 95.0593 3.62 95.0593 3.98C95.0593 4.33 95.1743 4.6 95.4043 4.79C95.6443 4.97 96.0243 5.145 96.5443 5.315L97.4593 5.615C98.2393 5.875 98.8343 6.235 99.2443 6.695C99.6543 7.155 99.8593 7.7 99.8593 8.33C99.8593 8.74 99.7793 9.115 99.6193 9.455C99.4593 9.795 99.2293 10.095 98.9293 10.355C98.6293 10.605 98.2593 10.8 97.8193 10.94C97.3893 11.08 96.8993 11.15 96.3493 11.15C95.8093 11.15 95.2843 11.1 94.7743 11C94.2643 10.89 93.7743 10.72 93.3043 10.49L93.7243 9.095C94.1543 9.305 94.5743 9.465 94.9843 9.575C95.3943 9.685 95.8243 9.74 96.2743 9.74C96.8143 9.74 97.2343 9.635 97.5343 9.425C97.8443 9.215 97.9993 8.91 97.9993 8.51C97.9993 8.37 97.9743 8.235 97.9243 8.105C97.8743 7.975 97.7843 7.855 97.6543 7.745C97.5343 7.625 97.3643 7.515 97.1443 7.415C96.9343 7.305 96.6593 7.195 96.3193 7.085L95.4793 6.8C94.7893 6.56 94.2343 6.245 93.8143 5.855C93.4043 5.455 93.1993 4.895 93.1993 4.175C93.1993 3.345 93.4893 2.675 94.0693 2.165C94.6493 1.655 95.4893 1.4 96.5893 1.4ZM101.515 4.505C101.955 4.265 102.4 4.08 102.85 3.95C103.3 3.81 103.795 3.74 104.335 3.74C104.755 3.74 105.135 3.79 105.475 3.89C105.815 3.98 106.11 4.13 106.36 4.34C106.61 4.55 106.8 4.825 106.93 5.165C107.07 5.495 107.14 5.9 107.14 6.38V11H105.745L105.565 10.25H105.52C105.01 10.85 104.285 11.15 103.345 11.15C102.595 11.15 102.01 10.955 101.59 10.565C101.17 10.165 100.96 9.65 100.96 9.02C100.96 8.62 101.045 8.275 101.215 7.985C101.385 7.695 101.615 7.455 101.905 7.265C102.205 7.075 102.56 6.935 102.97 6.845C103.38 6.745 103.825 6.695 104.305 6.695H105.355V6.2C105.355 5.81 105.24 5.535 105.01 5.375C104.78 5.205 104.47 5.12 104.08 5.12C103.8 5.12 103.5 5.165 103.18 5.255C102.87 5.345 102.525 5.5 102.145 5.72L101.515 4.505ZM105.37 7.82L104.56 7.85C103.9 7.87 103.44 7.985 103.18 8.195C102.92 8.395 102.79 8.64 102.79 8.93C102.79 9.3 102.9 9.55 103.12 9.68C103.34 9.81 103.595 9.875 103.885 9.875C104.175 9.875 104.45 9.805 104.71 9.665C104.98 9.515 105.2 9.31 105.37 9.05V7.82ZM101.83 2.735C101.83 2.165 101.945 1.715 102.175 1.385C102.405 1.045 102.745 0.875 103.195 0.875C103.395 0.875 103.58 0.91 103.75 0.979999C103.93 1.05 104.095 1.13 104.245 1.22C104.395 1.31 104.54 1.39 104.68 1.46C104.82 1.53 104.955 1.565 105.085 1.565C105.285 1.565 105.42 1.485 105.49 1.325C105.56 1.165 105.605 0.995 105.625 0.815H106.525C106.525 1.375 106.41 1.825 106.18 2.165C105.96 2.495 105.63 2.66 105.19 2.66C104.96 2.66 104.75 2.625 104.56 2.555C104.38 2.485 104.21 2.41 104.05 2.33C103.89 2.24 103.745 2.16 103.615 2.09C103.485 2.02 103.365 1.985 103.255 1.985C103.065 1.985 102.93 2.055 102.85 2.195C102.78 2.335 102.74 2.515 102.73 2.735H101.83ZM115.705 7.385C115.705 7.975 115.61 8.505 115.42 8.975C115.24 9.445 114.985 9.84 114.655 10.16C114.325 10.48 113.94 10.725 113.5 10.895C113.06 11.065 112.585 11.15 112.075 11.15C111.565 11.15 111.09 11.07 110.65 10.91C110.22 10.75 109.845 10.52 109.525 10.22C109.205 9.91 108.955 9.53 108.775 9.08C108.595 8.63 108.505 8.115 108.505 7.535C108.505 6.935 108.595 6.4 108.775 5.93C108.965 5.45 109.225 5.05 109.555 4.73C109.885 4.41 110.27 4.165 110.71 3.995C111.15 3.825 111.625 3.74 112.135 3.74C112.645 3.74 113.115 3.82 113.545 3.98C113.985 4.13 114.365 4.36 114.685 4.67C115.005 4.98 115.255 5.36 115.435 5.81C115.615 6.26 115.705 6.785 115.705 7.385ZM113.875 7.46C113.875 7.03 113.825 6.665 113.725 6.365C113.625 6.055 113.49 5.805 113.32 5.615C113.16 5.425 112.97 5.285 112.75 5.195C112.54 5.105 112.32 5.06 112.09 5.06C111.86 5.06 111.64 5.1 111.43 5.18C111.22 5.25 111.035 5.38 110.875 5.57C110.715 5.75 110.585 5.995 110.485 6.305C110.385 6.615 110.335 7 110.335 7.46C110.335 7.88 110.385 8.24 110.485 8.54C110.585 8.83 110.715 9.075 110.875 9.275C111.045 9.465 111.235 9.605 111.445 9.695C111.665 9.785 111.89 9.83 112.12 9.83C112.34 9.83 112.555 9.79 112.765 9.71C112.985 9.63 113.175 9.5 113.335 9.32C113.495 9.14 113.625 8.9 113.725 8.6C113.825 8.29 113.875 7.91 113.875 7.46ZM120.749 1.55H123.944C124.474 1.55 124.954 1.615 125.384 1.745C125.814 1.875 126.184 2.065 126.494 2.315C126.804 2.555 127.039 2.855 127.199 3.215C127.369 3.565 127.454 3.97 127.454 4.43C127.454 4.96 127.359 5.415 127.169 5.795C126.979 6.175 126.719 6.495 126.389 6.755C126.059 7.005 125.669 7.19 125.219 7.31C124.769 7.43 124.284 7.49 123.764 7.49H122.579V11H120.749V1.55ZM122.579 6.065H123.419C123.719 6.065 123.999 6.04 124.259 5.99C124.519 5.94 124.744 5.855 124.934 5.735C125.134 5.615 125.289 5.455 125.399 5.255C125.509 5.055 125.564 4.805 125.564 4.505C125.564 4.235 125.514 4.005 125.414 3.815C125.314 3.615 125.174 3.455 124.994 3.335C124.824 3.205 124.624 3.11 124.394 3.05C124.164 2.99 123.924 2.96 123.674 2.96H122.579V6.065ZM128.922 4.505C129.362 4.265 129.807 4.08 130.257 3.95C130.707 3.81 131.202 3.74 131.742 3.74C132.162 3.74 132.542 3.79 132.882 3.89C133.222 3.98 133.517 4.13 133.767 4.34C134.017 4.55 134.207 4.825 134.337 5.165C134.477 5.495 134.547 5.9 134.547 6.38V11H133.152L132.972 10.25H132.927C132.417 10.85 131.692 11.15 130.752 11.15C130.002 11.15 129.417 10.955 128.997 10.565C128.577 10.165 128.367 9.65 128.367 9.02C128.367 8.62 128.452 8.275 128.622 7.985C128.792 7.695 129.022 7.455 129.312 7.265C129.612 7.075 129.967 6.935 130.377 6.845C130.787 6.745 131.232 6.695 131.712 6.695H132.762V6.2C132.762 5.81 132.647 5.535 132.417 5.375C132.187 5.205 131.877 5.12 131.487 5.12C131.207 5.12 130.907 5.165 130.587 5.255C130.277 5.345 129.932 5.5 129.552 5.72L128.922 4.505ZM132.777 7.82L131.967 7.85C131.307 7.87 130.847 7.985 130.587 8.195C130.327 8.395 130.197 8.64 130.197 8.93C130.197 9.3 130.307 9.55 130.527 9.68C130.747 9.81 131.002 9.875 131.292 9.875C131.582 9.875 131.857 9.805 132.117 9.665C132.387 9.515 132.607 9.31 132.777 9.05V7.82ZM140.967 3.875H142.737V11H141.402L141.192 10.175H141.132C140.902 10.415 140.597 10.64 140.217 10.85C139.837 11.05 139.362 11.15 138.792 11.15C138.042 11.15 137.442 10.94 136.992 10.52C136.542 10.1 136.317 9.47 136.317 8.63V3.875H138.087V8.45C138.087 8.94 138.197 9.29 138.417 9.5C138.647 9.7 138.937 9.8 139.287 9.8C139.657 9.8 139.977 9.725 140.247 9.575C140.527 9.415 140.767 9.22 140.967 8.99V3.875ZM144.668 11V0.32H146.408V11H144.668ZM155.153 7.385C155.153 7.975 155.058 8.505 154.868 8.975C154.688 9.445 154.433 9.84 154.103 10.16C153.773 10.48 153.388 10.725 152.948 10.895C152.508 11.065 152.033 11.15 151.523 11.15C151.013 11.15 150.538 11.07 150.098 10.91C149.668 10.75 149.293 10.52 148.973 10.22C148.653 9.91 148.403 9.53 148.223 9.08C148.043 8.63 147.953 8.115 147.953 7.535C147.953 6.935 148.043 6.4 148.223 5.93C148.413 5.45 148.673 5.05 149.003 4.73C149.333 4.41 149.718 4.165 150.158 3.995C150.598 3.825 151.073 3.74 151.583 3.74C152.093 3.74 152.563 3.82 152.993 3.98C153.433 4.13 153.813 4.36 154.133 4.67C154.453 4.98 154.703 5.36 154.883 5.81C155.063 6.26 155.153 6.785 155.153 7.385ZM153.323 7.46C153.323 7.03 153.273 6.665 153.173 6.365C153.073 6.055 152.938 5.805 152.768 5.615C152.608 5.425 152.418 5.285 152.198 5.195C151.988 5.105 151.768 5.06 151.538 5.06C151.308 5.06 151.088 5.1 150.878 5.18C150.668 5.25 150.483 5.38 150.323 5.57C150.163 5.75 150.033 5.995 149.933 6.305C149.833 6.615 149.783 7 149.783 7.46C149.783 7.88 149.833 8.24 149.933 8.54C150.033 8.83 150.163 9.075 150.323 9.275C150.493 9.465 150.683 9.605 150.893 9.695C151.113 9.785 151.338 9.83 151.568 9.83C151.788 9.83 152.003 9.79 152.213 9.71C152.433 9.63 152.623 9.5 152.783 9.32C152.943 9.14 153.073 8.9 153.173 8.6C153.273 8.29 153.323 7.91 153.323 7.46ZM157.264 11.15C156.964 11.1 156.729 10.97 156.559 10.76C156.399 10.54 156.319 10.285 156.319 9.995C156.319 9.705 156.414 9.45 156.604 9.23C156.804 9.01 157.084 8.9 157.444 8.9C157.584 8.9 157.724 8.93 157.864 8.99C158.014 9.04 158.149 9.13 158.269 9.26C158.389 9.38 158.489 9.55 158.569 9.77C158.649 9.98 158.689 10.245 158.689 10.565C158.689 10.885 158.634 11.19 158.524 11.48C158.424 11.78 158.289 12.055 158.119 12.305C157.949 12.555 157.749 12.78 157.519 12.98C157.289 13.18 157.049 13.345 156.799 13.475L156.274 12.755C156.564 12.595 156.824 12.38 157.054 12.11C157.284 11.85 157.434 11.545 157.504 11.195L157.264 11.15ZM166.85 1.55C167.82 1.55 168.585 1.765 169.145 2.195C169.715 2.615 170 3.215 170 3.995C170 4.285 169.95 4.545 169.85 4.775C169.76 4.995 169.635 5.19 169.475 5.36C169.315 5.52 169.13 5.655 168.92 5.765C168.71 5.875 168.495 5.96 168.275 6.02C168.545 6.07 168.8 6.155 169.04 6.275C169.29 6.395 169.505 6.555 169.685 6.755C169.875 6.945 170.02 7.175 170.12 7.445C170.23 7.705 170.285 8.005 170.285 8.345C170.285 8.735 170.2 9.095 170.03 9.425C169.86 9.745 169.62 10.025 169.31 10.265C169 10.495 168.625 10.675 168.185 10.805C167.755 10.935 167.28 11 166.76 11H163.655V1.55H166.85ZM165.485 5.39H166.505C166.965 5.39 167.35 5.295 167.66 5.105C167.97 4.905 168.125 4.58 168.125 4.13C168.125 3.74 167.985 3.45 167.705 3.26C167.435 3.06 167.055 2.96 166.565 2.96H165.485V5.39ZM165.485 9.59H166.52C166.78 9.59 167.025 9.565 167.255 9.515C167.485 9.465 167.685 9.385 167.855 9.275C168.025 9.165 168.155 9.02 168.245 8.84C168.345 8.65 168.395 8.425 168.395 8.165C168.395 7.915 168.34 7.705 168.23 7.535C168.12 7.355 167.975 7.21 167.795 7.1C167.615 6.99 167.405 6.91 167.165 6.86C166.925 6.81 166.675 6.785 166.415 6.785H165.485V9.59ZM171.868 11V3.875H173.233L173.458 5.21C173.628 4.8 173.898 4.455 174.268 4.175C174.638 3.885 175.098 3.74 175.648 3.74C175.888 3.74 176.098 3.765 176.278 3.815C176.458 3.865 176.608 3.92 176.728 3.98L176.428 5.42C176.318 5.36 176.183 5.31 176.023 5.27C175.863 5.22 175.668 5.195 175.438 5.195C174.928 5.195 174.498 5.37 174.148 5.72C173.798 6.07 173.623 6.625 173.623 7.385V11H171.868ZM177.526 4.505C177.966 4.265 178.411 4.08 178.861 3.95C179.311 3.81 179.806 3.74 180.346 3.74C180.766 3.74 181.146 3.79 181.486 3.89C181.826 3.98 182.121 4.13 182.371 4.34C182.621 4.55 182.811 4.825 182.941 5.165C183.081 5.495 183.151 5.9 183.151 6.38V11H181.756L181.576 10.25H181.531C181.021 10.85 180.296 11.15 179.356 11.15C178.606 11.15 178.021 10.955 177.601 10.565C177.181 10.165 176.971 9.65 176.971 9.02C176.971 8.62 177.056 8.275 177.226 7.985C177.396 7.695 177.626 7.455 177.916 7.265C178.216 7.075 178.571 6.935 178.981 6.845C179.391 6.745 179.836 6.695 180.316 6.695H181.366V6.2C181.366 5.81 181.251 5.535 181.021 5.375C180.791 5.205 180.481 5.12 180.091 5.12C179.811 5.12 179.511 5.165 179.191 5.255C178.881 5.345 178.536 5.5 178.156 5.72L177.526 4.505ZM181.381 7.82L180.571 7.85C179.911 7.87 179.451 7.985 179.191 8.195C178.931 8.395 178.801 8.64 178.801 8.93C178.801 9.3 178.911 9.55 179.131 9.68C179.351 9.81 179.606 9.875 179.896 9.875C180.186 9.875 180.461 9.805 180.721 9.665C180.991 9.515 181.211 9.31 181.381 9.05V7.82ZM189.267 5.465C188.677 5.185 188.102 5.045 187.542 5.045C187.172 5.045 186.887 5.11 186.687 5.24C186.497 5.37 186.402 5.55 186.402 5.78C186.402 5.97 186.482 6.135 186.642 6.275C186.802 6.405 187.122 6.54 187.602 6.68L188.052 6.815C188.692 7.005 189.172 7.265 189.492 7.595C189.822 7.925 189.987 8.36 189.987 8.9C189.987 9.59 189.727 10.14 189.207 10.55C188.687 10.95 187.977 11.15 187.077 11.15C186.107 11.15 185.302 10.99 184.662 10.67L185.052 9.35C185.342 9.49 185.647 9.605 185.967 9.695C186.297 9.785 186.637 9.83 186.987 9.83C187.817 9.83 188.232 9.565 188.232 9.035C188.232 8.795 188.132 8.615 187.932 8.495C187.742 8.375 187.412 8.245 186.942 8.105L186.477 7.955C185.857 7.755 185.397 7.495 185.097 7.175C184.807 6.845 184.662 6.415 184.662 5.885C184.662 5.575 184.727 5.29 184.857 5.03C184.987 4.76 185.167 4.53 185.397 4.34C185.637 4.15 185.922 4.005 186.252 3.905C186.592 3.795 186.967 3.74 187.377 3.74C187.787 3.74 188.182 3.78 188.562 3.86C188.952 3.93 189.312 4.04 189.642 4.19L189.267 5.465ZM191.604 11V3.875H193.374V11H191.604ZM192.489 2.24C192.179 2.24 191.934 2.15 191.754 1.97C191.584 1.79 191.499 1.565 191.499 1.295C191.499 1.035 191.589 0.814999 191.769 0.634999C191.949 0.444999 192.189 0.349999 192.489 0.349999C192.779 0.349999 193.014 0.439999 193.194 0.62C193.374 0.8 193.464 1.025 193.464 1.295C193.464 1.565 193.374 1.79 193.194 1.97C193.014 2.15 192.779 2.24 192.489 2.24ZM195.469 11V0.32H197.209V11H195.469ZM198.949 10.025C198.949 9.705 199.059 9.44 199.279 9.23C199.499 9.01 199.759 8.9 200.059 8.9C200.359 8.9 200.614 9.01 200.824 9.23C201.034 9.44 201.139 9.705 201.139 10.025C201.139 10.375 201.034 10.65 200.824 10.85C200.614 11.05 200.359 11.15 200.059 11.15C199.759 11.15 199.499 11.05 199.279 10.85C199.059 10.65 198.949 10.375 198.949 10.025Z" fill="#ADB6A7"/>
</svg>
